<svg width="105" height="156" viewBox="0 0 105 156" fill="none" xmlns="http://www.w3.org/2000/svg">
<g opacity="0.3">
<path opacity="0.3" d="M104.199 25.9003V82.8009H47.2988V82.8674H104.266V25.9003H104.199Z" fill="white"/>
<path opacity="0.3" d="M104.2 25.9002V25.8558H104.133V82.7343H47.2324V82.8008H47.299H104.2V25.9002Z" fill="#FCFCFC"/>
<path opacity="0.3" d="M104.133 82.7344V25.856V25.7894H104.066V82.6679H47.1658V82.7344H47.2323H104.133Z" fill="#FAFAFA"/>
<path opacity="0.3" d="M104.067 82.6678V25.7893V25.7228H104V82.6012H47.0994V82.6678H47.1659H104.067Z" fill="#F7F7F7"/>
<path opacity="0.3" d="M104 82.6014V25.7229V25.6564H103.933V82.5348H47.0327V82.6014H47.0992H104Z" fill="#F5F5F5"/>
<path opacity="0.3" d="M103.933 82.5347V25.6562V25.5897H103.867V82.4682H46.9663V82.5347H47.0328H103.933Z" fill="#F2F2F2"/>
<path opacity="0.3" d="M103.867 82.4683V25.5898V25.5233H103.8V82.4018H46.8997V82.4683H46.9662H103.867Z" fill="#F0F0F0"/>
<path opacity="0.3" d="M103.8 82.4016V25.5232V25.4567H103.734V82.3351H46.8333V82.4016H46.8998H103.8Z" fill="#EDEDED"/>
<path opacity="0.3" d="M103.734 82.3352V25.4568V25.3903H103.667V82.2687H46.7666V82.3352H46.8331H103.734Z" fill="#EBEBEB"/>
<path opacity="0.3" d="M103.667 82.2686V25.3901V25.3236H103.601V82.2021H46.7002V82.2686H46.7667H103.667Z" fill="#E8E8E8"/>
<path opacity="0.3" d="M103.601 82.2022V25.3237V25.2572H103.534V82.1357H46.6335V82.2022H46.7001H103.601Z" fill="#E6E6E6"/>
<path opacity="0.3" d="M103.534 82.1355V25.2571V25.1906H103.468V82.069H46.5671V82.1355H46.6337H103.534Z" fill="#E3E3E3"/>
<path opacity="0.3" d="M103.468 82.0691V25.1907V25.1241H103.401V82.0026H46.5005V82.0691H46.567H103.468Z" fill="#E1E1E1"/>
<path opacity="0.3" d="M103.401 82.0025V25.124V25.0575H103.335V81.936H46.4341V82.0025H46.5006H103.401Z" fill="#DEDEDE"/>
<path opacity="0.3" d="M103.335 81.9361V25.0576V24.9911H103.268V81.8696H46.3896V81.9361H46.434H103.335Z" fill="#DCDCDC"/>
<path opacity="0.3" d="M103.268 81.8694V24.991V24.9244H103.202V81.8029H46.3232V81.8694H46.3898H103.268Z" fill="#D9D9D9"/>
<path opacity="0.3" d="M103.202 81.803V24.9246V24.858H103.135V81.7587H46.2566V81.803H46.3231H103.202Z" fill="#D7D7D7"/>
<path opacity="0.3" d="M103.135 81.7585V24.8579V24.7914H103.069V81.692H46.1902V81.7585H46.2567H103.135Z" fill="#D4D4D4"/>
<path opacity="0.3" d="M103.069 81.6921V24.7915V24.725H103.002V81.6256H46.1235V81.6921H46.1901H103.069Z" fill="#D2D2D2"/>
<path opacity="0.3" d="M103.002 81.6255V24.7249V24.6583H102.936V81.559H46.0571V81.6255H46.1237H103.002Z" fill="#CFCFCF"/>
<path opacity="0.3" d="M102.935 81.5591V24.6584V24.5919H102.869V81.4926H45.9905V81.5591H46.057H102.935Z" fill="#CDCDCD"/>
<path opacity="0.3" d="M102.869 81.4924V24.5918V24.5253H102.803V81.4259H45.9241V81.4924H45.9906H102.869Z" fill="#CACACA"/>
<path opacity="0.3" d="M102.802 81.426V24.5254V24.4589H102.736V81.3595H45.8574V81.426H45.9239H102.802Z" fill="#C7C7C7"/>
<path opacity="0.3" d="M102.736 81.3596V24.459V24.3925H102.669V81.2931H45.791V81.3596H45.8575H102.736Z" fill="#C5C5C5"/>
<path opacity="0.3" d="M102.669 81.293V24.3923V24.3258H102.603V81.2264H45.7244V81.293H45.7909H102.669Z" fill="#C2C2C2"/>
<path opacity="0.3" d="M102.603 81.2266V24.3259V24.2594H102.536V81.16H45.658V81.2266H45.7245H102.603Z" fill="#C0C0C0"/>
<path opacity="0.3" d="M102.536 81.1599V24.2593V24.1927H102.47V81.0934H45.5913V81.1599H45.6578H102.536Z" fill="#BDBDBD"/>
<path opacity="0.3" d="M102.47 81.0935V24.1929V24.1263H102.403V81.027H45.5249V81.0935H45.5914H102.47Z" fill="#BBBBBB"/>
<path opacity="0.3" d="M102.403 81.0269V24.1262V24.0597H102.337V80.9603H45.4583V81.0269H45.5248H102.403Z" fill="#B8B8B8"/>
<path opacity="0.3" d="M102.337 80.9605V24.0598V23.9933H102.27V80.8939H45.3918V80.9605H45.4584H102.337Z" fill="#B6B6B6"/>
<path opacity="0.3" d="M102.27 80.8938V23.9932V23.9266H102.226V80.8273H45.3254V80.8938H45.392H102.27Z" fill="#B3B3B3"/>
<path opacity="0.3" d="M102.226 80.8274V23.9268V23.8602H102.159V80.7609H45.2588V80.8274H45.3253H102.226Z" fill="#B1B1B1"/>
<path opacity="0.3" d="M102.16 80.7607V23.8601V23.7936H102.093V80.6942H45.1924V80.7607H45.2589H102.16Z" fill="#AEAEAE"/>
<path opacity="0.3" d="M102.093 80.6943V23.7937V23.7272H102.026V80.6278H45.1257V80.6943H45.1923H102.093Z" fill="#ACACAC"/>
<path opacity="0.3" d="M102.026 80.6277V23.727V23.6605H101.96V80.5612H45.0593V80.6277H45.1258H102.026Z" fill="#A9A9A9"/>
<path opacity="0.3" d="M101.96 80.5613V23.6607V23.6163H101.893V80.4948H44.9927V80.5613H45.0592H101.96Z" fill="#A7A7A7"/>
<path opacity="0.3" d="M101.893 80.4947V23.6162V23.5497H101.827V80.4281H44.9263V80.4947H44.9928H101.893Z" fill="#A4A4A4"/>
<path opacity="0.3" d="M101.827 80.4283V23.5498V23.4833H101.76V80.3617H44.8596V80.4283H44.9261H101.827Z" fill="#A2A2A2"/>
<path opacity="0.3" d="M101.76 80.3616V23.4831V23.4166H101.694V80.2951H44.7932V80.3616H44.8597H101.76Z" fill="#9F9F9F"/>
<path opacity="0.3" d="M101.694 80.2952V23.4167V23.3502H101.627V80.2287H44.7266V80.2952H44.7931H101.694Z" fill="#9D9D9D"/>
<path opacity="0.3" d="M101.627 80.2286V23.3501V23.2836H101.561V80.162H44.6602V80.2286H44.7267H101.627Z" fill="#9A9A9A"/>
<path opacity="0.3" d="M101.561 80.1621V23.2837V23.2172H101.494V80.0956H44.5935V80.1621H44.66H101.561Z" fill="#979797"/>
<path opacity="0.3" d="M101.494 80.0955V23.217V23.1505H101.428V80.029H44.5271V80.0955H44.5936H101.494Z" fill="#959595"/>
<path opacity="0.3" d="M101.428 80.0291V23.1506V23.0841H101.361V79.9626H44.4604V80.0291H44.527H101.428Z" fill="#929292"/>
<path opacity="0.3" d="M101.361 79.9624V23.084V23.0175H101.295V79.8959H44.394V79.9624H44.4606H101.361Z" fill="#909090"/>
<path opacity="0.3" d="M101.295 79.896V23.0176V22.951H101.228V79.8295H44.3274V79.896H44.3939H101.295Z" fill="#8D8D8D"/>
<path opacity="0.3" d="M101.228 79.8294V22.9509V22.8844H101.162V79.7629H44.261V79.8294H44.3275H101.228Z" fill="#8B8B8B"/>
<path opacity="0.3" d="M101.161 79.763V22.8845V22.818H101.095V79.6965H44.1943V79.763H44.2609H101.161Z" fill="#888888"/>
<path opacity="0.3" d="M101.095 79.6963V22.8179V22.7513H101.029V79.6298H44.1501V79.6963H44.1945H101.095Z" fill="#868686"/>
<path opacity="0.3" d="M101.028 79.6299V22.7515V22.6849H100.962V79.5634H44.0835V79.6299H44.15H101.028Z" fill="#838383"/>
<path opacity="0.3" d="M100.962 79.5633V22.6848V22.6183H100.896V79.5189H44.0171V79.5633H44.0836H100.962Z" fill="#818181"/>
<path opacity="0.3" d="M100.895 79.519V22.6184V22.5519H100.829V79.4525H43.9504V79.519H44.017H100.895Z" fill="#7E7E7E"/>
<path opacity="0.3" d="M100.829 79.4524V22.5518V22.4852H100.762V79.3859H43.884V79.4524H43.9506H100.829Z" fill="#7C7C7C"/>
<path opacity="0.3" d="M100.762 79.386V22.4853V22.4188H100.696V79.3195H43.8174V79.386H43.8839H100.762Z" fill="#797979"/>
<path opacity="0.3" d="M100.696 79.3195V22.4188V22.3523H100.629V79.2529H43.751V79.3195H43.8175H100.696Z" fill="#777777"/>
<path opacity="0.3" d="M100.629 79.2529V22.3523V22.2858H100.563V79.1864H43.6843V79.2529H43.7509H100.629Z" fill="#747474"/>
<path opacity="0.3" d="M100.563 79.1863V22.2856V22.2191H100.496V79.1198H43.6179V79.1863H43.6844H100.563Z" fill="#727272"/>
<path opacity="0.3" d="M100.496 79.1199V22.2192V22.1527H100.43V79.0533H43.5513V79.1199H43.6178H100.496Z" fill="#6F6F6F"/>
<path opacity="0.3" d="M100.43 79.0535V22.1528V22.0863H100.363V78.9869H43.4849V79.0535H43.5514H100.43Z" fill="#6D6D6D"/>
<path opacity="0.3" d="M100.363 78.9868V22.0862V22.0197H100.297V78.9203H43.4182V78.9868H43.4847H100.363Z" fill="#6A6A6A"/>
<path opacity="0.3" d="M100.297 78.9202V22.0195V21.953H100.23V78.8536H43.3518V78.9202H43.4183H100.297Z" fill="#686868"/>
<path opacity="0.3" d="M100.23 78.8538V21.9531V21.8866H100.164V78.7872H43.2852V78.8538H43.3517H100.23Z" fill="#656565"/>
<path opacity="0.3" d="M100.164 78.7873V21.8867V21.8202H100.097V78.7208H43.2188V78.7873H43.2853H100.164Z" fill="#626262"/>
<path opacity="0.3" d="M100.097 78.7207V21.8201V21.7535H100.053V78.6542H43.1523V78.7207H43.2189H100.097Z" fill="#606060"/>
<path opacity="0.3" d="M100.053 78.6543V21.7537V21.6871H99.9863V78.5878H43.0857V78.6543H43.1522H100.053Z" fill="#5D5D5D"/>
<path opacity="0.3" d="M99.9862 78.5876V21.687V21.6205H99.9197V78.5211H43.019V78.5876H43.0856H99.9862Z" fill="#5B5B5B"/>
<path opacity="0.3" d="M99.9198 78.521V21.6204V21.5538H99.8533V78.4545H42.9526V78.521H43.0192H99.9198Z" fill="#585858"/>
<path opacity="0.3" d="M99.8531 78.4546V21.554V21.4874H99.7866V78.3881H42.886V78.4546H42.9525H99.8531Z" fill="#565656"/>
<path opacity="0.3" d="M99.7867 78.388V21.4873V21.443H99.7202V78.3215H42.8196V78.388H42.8861H99.7867Z" fill="#535353"/>
<path opacity="0.3" d="M99.7201 78.3216V21.4431V21.3766H99.6536V78.255H42.7529V78.3216H42.8195H99.7201Z" fill="#515151"/>
<path opacity="0.3" d="M99.6537 78.2552V21.3767V21.3102H99.5872V78.1886H42.6865V78.2552H42.7531H99.6537Z" fill="#4E4E4E"/>
<path opacity="0.3" d="M99.587 78.1885V21.3101V21.2435H99.5205V78.122H42.6199V78.1885H42.6864H99.587Z" fill="#4C4C4C"/>
<path opacity="0.3" d="M99.5206 78.1219V21.2434V21.1769H99.4541V78.0553H42.5535V78.1219H42.62H99.5206Z" fill="#494949"/>
<path opacity="0.3" d="M99.4542 78.0555V21.177V21.1105H99.3877V77.9889H42.4871V78.0555H42.5536H99.4542Z" fill="#474747"/>
<path opacity="0.3" d="M99.3876 77.9891V21.1106V21.0441H99.321V77.9225H42.4204V77.9891H42.4869H99.3876Z" fill="#444444"/>
<path opacity="0.3" d="M99.3212 77.9224V21.0439V20.9774H99.2547V77.8559H42.354V77.9224H42.4205H99.3212Z" fill="#424242"/>
<path opacity="0.3" d="M99.2545 77.856V20.9775V20.911H99.188V77.7895H42.2874V77.856H42.3539H99.2545Z" fill="#3F3F3F"/>
<path opacity="0.3" d="M99.1881 77.7893V20.9109V20.8444H99.1216V77.7228H42.2209V77.7893H42.2875H99.1881Z" fill="#3D3D3D"/>
<path opacity="0.3" d="M99.1215 77.7227V20.8442V20.7777H99.0549V77.6562H42.1543V77.7227H42.2208H99.1215Z" fill="#3A3A3A"/>
<path opacity="0.3" d="M99.055 77.6563V20.7778V20.7113H98.9885V77.5898H42.0879V77.6563H42.1544H99.055Z" fill="#383838"/>
<path opacity="0.3" d="M98.9884 77.5899V20.7114V20.6449H98.9219V77.5234H42.0212V77.5899H42.0878H98.9884Z" fill="#353535"/>
<path opacity="0.3" d="M98.922 77.5232V20.6448V20.5782H98.8555V77.4567H41.9548V77.5232H42.0214H98.922Z" fill="#323232"/>
<path opacity="0.3" d="M98.8554 77.4568V20.5784V20.5118H98.7889V77.3903H41.9104V77.4568H41.9548H98.8554Z" fill="#303030"/>
<path opacity="0.3" d="M98.789 77.3902V20.5117V20.4452H98.7225V77.3237H41.844V77.3902H41.9105H98.789Z" fill="#2D2D2D"/>
<path opacity="0.3" d="M98.7223 77.3238V20.4453V20.3788H98.6558V77.2794H41.7773V77.3238H41.8439H98.7223Z" fill="#2B2B2B"/>
<path opacity="0.3" d="M98.6559 77.2793V20.3787V20.3121H98.5894V77.2128H41.7109V77.2793H41.7775H98.6559Z" fill="#282828"/>
<path opacity="0.3" d="M98.5893 77.2129V20.3123V20.2457H98.5227V77.1464H41.6443V77.2129H41.7108H98.5893Z" fill="#262626"/>
<path opacity="0.3" d="M98.5229 77.1462V20.2456V20.1791H98.4563V77.0797H41.5779V77.1462H41.6444H98.5229Z" fill="#232323"/>
<path opacity="0.3" d="M98.4562 77.0798V20.1792V20.1127H98.3897V77.0133H41.5112V77.0798H41.5778H98.4562Z" fill="#212121"/>
<path opacity="0.3" d="M98.3898 77.0133V20.1127V20.0461H98.3233V76.9468H41.4448V77.0133H41.5113H98.3898Z" fill="#1E1E1E"/>
<path opacity="0.3" d="M98.3232 76.9468V20.0461V19.9796H98.2566V76.8802H41.3782V76.9468H41.4447H98.3232Z" fill="#1C1C1C"/>
<path opacity="0.3" d="M98.2568 76.8801V19.9795V19.913H98.1902V76.8136H41.3118V76.8801H41.3783H98.2568Z" fill="#191919"/>
<path opacity="0.3" d="M98.1901 76.8137V19.9131V19.8466H98.1236V76.7472H41.2451V76.8137H41.3116H98.1901Z" fill="#171717"/>
<path opacity="0.3" d="M98.1237 76.7471V19.8464V19.7799H98.0572V76.6805H41.1787V76.7471H41.2452H98.1237Z" fill="#141414"/>
<path opacity="0.3" d="M98.057 76.6807V19.78V19.7135H97.9905V76.6141H41.1121V76.6807H41.1786H98.057Z" fill="#121212"/>
<path opacity="0.3" d="M97.9906 76.614V19.7134V19.6469H97.9241V76.5475H41.0457V76.614H41.1122H97.9906Z" fill="#0F0F0F"/>
<path opacity="0.3" d="M97.924 76.5476V19.647V19.5804H97.8575V76.4811H40.979V76.5476H41.0455H97.924Z" fill="#0D0D0D"/>
<path opacity="0.3" d="M97.8576 76.481V19.5803V19.5138H97.8132V76.4144H40.9126V76.481H40.9791H97.8576Z" fill="#0A0A0A"/>
<path opacity="0.3" d="M97.8131 76.4146V19.5139V19.4474H97.7466V76.348H40.8459V76.4146H40.9125H97.8131Z" fill="#080808"/>
<path opacity="0.3" d="M97.7467 76.348V19.4474V19.3809H97.6802V76.2815H40.7795V76.348H40.8461H97.7467Z" fill="#050505"/>
<path opacity="0.3" d="M97.68 76.2815V19.3809V19.3143H97.6135V76.215H40.7129V76.2815H40.7794H97.68Z" fill="#030303"/>
<path opacity="0.3" d="M97.6136 76.215V19.3143V19.2478H40.6465V76.215H40.713H97.6136Z" fill="black"/>
</g>
<path d="M97.6136 19.2478H40.6465V76.215H97.6136V19.2478Z" fill="white"/>
<path d="M56.435 28.0071H49.5608V34.8813H56.435V28.0071Z" fill="black"/>
<path d="M61.0476 23.4833H45.0596V39.4713H61.0476V23.4833ZM58.8301 37.276H47.2771V25.7229H58.8301V37.276Z" fill="black"/>
<path d="M56.435 60.1827H49.5608V67.0569H56.435V60.1827Z" fill="black"/>
<path d="M45.0371 71.6471H61.0252V55.6591H45.0371V71.6471ZM47.2546 57.8765H58.8077V69.4296H47.2546V57.8765Z" fill="black"/>
<path d="M88.6108 28.0071H81.7366V34.8813H88.6108V28.0071Z" fill="black"/>
<path d="M77.2126 23.4834V39.4715H93.2007V23.4834H77.2126ZM90.9832 37.2761H79.4301V25.7231H90.9832V37.2761Z" fill="black"/>
<path d="M65.7927 37.1431H63.3091V39.4936H65.7927V37.1431Z" fill="black"/>
<path d="M79.6962 55.5482H77.2126V57.8988H79.6962V55.5482Z" fill="black"/>
<path d="M65.7704 44.2612H67.9214V41.9106H65.7704H63.5086H63.309H54.2839V44.2168H51.8003V46.5674H54.2839V44.2612H59.0071V46.5674H63.5086V44.2612H65.7704Z" fill="black"/>
<path d="M58.9184 46.5673H56.4348V48.9178H58.9184V46.5673Z" fill="black"/>
<path d="M61.0473 51.0909H58.5637V53.4415H61.0473V51.0909Z" fill="black"/>
<path d="M49.8934 41.9106H45.0371V46.523H49.8934V41.9106Z" fill="black"/>
<path d="M49.9156 51.1798H54.284V48.8292H49.9156H45.0371V51.1798V53.4416H49.9156V51.1798Z" fill="black"/>
<path d="M67.8328 39.4936H70.3163V34.8813H72.5116V34.9256H74.8622V30.4906V28.1401V23.4834H72.5116V28.1401H70.2498V25.7896V23.4834H67.8993V25.7896H65.6374V23.4834H63.3091V25.7896V28.1401V30.4463H65.6374V28.1401H67.8993V30.4463V30.4906H72.5116V32.5307H63.3091V34.8813H67.8328V39.4936Z" fill="black"/>
<path d="M74.8622 37.1431H72.3787V39.4936H74.8622V37.1431Z" fill="black"/>
<path d="M63.4199 67.2563V69.6069V71.8687H68.2762V69.6069H72.6668V67.2563H68.2762H63.4199Z" fill="black"/>
<path d="M91.0719 41.9106H88.5884V44.2612H90.7172V46.5674H88.5662V44.2168H86.3931V41.9106H84.1978H83.9095H79.541H79.3193H77.2127V44.2168V44.5716H74.8621V46.5674H72.4229V51.2241H70.3385V48.9179H72.4007V46.5674H72.3786V44.2612H74.8621V41.9106H72.3786V44.2168H69.895V46.5674H63.5086V48.8735V48.9179V51.2241V53.5303H65.8148V51.2241H68.0323V53.5303V53.5746H72.4229V55.6147H63.5308V57.9652H67.9879V60.3379H63.4199V64.9503H68.2762V62.5776H70.405V57.9652H72.4229V58.0096H74.8621V53.5746V53.4637H77.2127H79.3415H81.8916V60.3379H72.6447V62.6441H70.1611V64.9947H72.6447V62.6885H77.3679V64.9947H77.2792H76.1261H74.7956V67.3452V69.6957H76.9244V72.0019H79.408V69.6514H77.2792V67.3452H79.4302V69.6957H81.6033V72.0019H83.7986H84.0869H88.4553H88.6771H90.8058V69.6957V69.3409H93.1564V60.4488H90.8058H88.6771H83.8208V57.8987H90.8058V55.5482H83.843V53.4416H84.2199H88.5218H88.5884V51.091H88.5218H84.2199V48.8957H90.7393H91.8924H93.2229V46.5452V44.1946H91.0941V41.9106H91.0719ZM79.3415 51.091H77.2127V48.8514H79.3415V51.091ZM88.6549 62.7993H90.7837V65.039H88.6549V62.7993ZM81.8916 62.7993H83.7986V64.9947H81.8916V62.7993ZM84.0425 65.0612H88.4553V67.3452H84.0425V65.0612ZM83.843 67.323V67.3674H83.7986V69.6292H81.9137V67.323H83.843ZM83.976 48.8292H79.5632V46.5452H83.976V48.8292ZM86.1048 46.5674H84.1756V46.523H84.2199V44.2612H86.1048V46.5674Z" fill="black"/>
<path d="M46.3069 119.886C46.3069 120.397 46.1226 120.799 45.7539 121.093C45.3878 121.387 44.8774 121.534 44.2225 121.534C43.6193 121.534 43.0856 121.42 42.6216 121.193V120.08C43.0031 120.25 43.3254 120.37 43.5883 120.439C43.8539 120.509 44.0962 120.544 44.3154 120.544C44.5783 120.544 44.7794 120.494 44.9186 120.393C45.0604 120.292 45.1313 120.143 45.1313 119.944C45.1313 119.834 45.1004 119.736 45.0385 119.65C44.9766 119.563 44.8851 119.479 44.7639 119.399C44.6454 119.319 44.4017 119.192 44.0331 119.016C43.6876 118.854 43.4285 118.698 43.2558 118.548C43.083 118.399 42.9451 118.225 42.842 118.026C42.7389 117.828 42.6873 117.596 42.6873 117.33C42.6873 116.83 42.8562 116.437 43.1939 116.151C43.5342 115.865 44.0034 115.721 44.6015 115.721C44.8954 115.721 45.1751 115.756 45.4407 115.826C45.7088 115.896 45.9885 115.993 46.2799 116.12L45.8931 117.052C45.5915 116.928 45.3414 116.842 45.1429 116.793C44.947 116.744 44.7536 116.719 44.5629 116.719C44.336 116.719 44.162 116.772 44.0408 116.878C43.9196 116.983 43.859 117.121 43.859 117.292C43.859 117.397 43.8835 117.49 43.9325 117.57C43.9815 117.647 44.0588 117.723 44.1645 117.798C44.2728 117.87 44.5268 118.002 44.9264 118.193C45.4549 118.445 45.8171 118.699 46.013 118.954C46.209 119.207 46.3069 119.518 46.3069 119.886ZM49.7332 116.719C49.282 116.719 48.9327 116.889 48.6852 117.23C48.4377 117.567 48.3139 118.039 48.3139 118.645C48.3139 119.906 48.787 120.536 49.7332 120.536C50.1302 120.536 50.611 120.437 51.1756 120.238V121.244C50.7116 121.437 50.1934 121.534 49.621 121.534C48.7986 121.534 48.1696 121.285 47.7339 120.787C47.2982 120.287 47.0803 119.571 47.0803 118.637C47.0803 118.049 47.1873 117.535 47.4013 117.094C47.6153 116.651 47.9221 116.312 48.3217 116.077C48.7239 115.84 49.1944 115.721 49.7332 115.721C50.2823 115.721 50.834 115.854 51.3883 116.12L51.0016 117.094C50.7902 116.994 50.5775 116.906 50.3635 116.831C50.1495 116.757 49.9394 116.719 49.7332 116.719ZM55.8432 121.456L55.4333 120.111H53.3721L52.9622 121.456H51.6706L53.666 115.78H55.1317L57.1348 121.456H55.8432ZM55.1471 119.105C54.7682 117.886 54.5542 117.196 54.5052 117.036C54.4588 116.876 54.4253 116.75 54.4046 116.657C54.3196 116.987 54.0759 117.803 53.6738 119.105H55.1471ZM47.9852 132.456H46.4616L44.0021 128.179H43.9673C44.0163 128.935 44.0408 129.474 44.0408 129.796V132.456H42.9696V126.803H44.4816L46.9373 131.037H46.9643C46.9257 130.302 46.9063 129.783 46.9063 129.479V126.803H47.9852V132.456Z" fill="#1A1A1A"/>
<path opacity="0.1" d="M31.0447 150.102H50.869L53.0421 156H98.2344V134.823C98.2344 131.94 95.8839 129.59 93.0012 129.59C91.3824 129.59 89.941 130.344 88.9653 131.497C88.8988 131.452 88.8101 131.386 88.7436 131.342V129.235C88.7436 126.108 86.1713 123.536 83.0447 123.536C80.8715 123.536 78.9645 124.778 78.011 126.596V126.286C78.011 125.066 77.634 123.957 76.9688 123.026V47.4542C76.9688 43.4627 73.7312 40.2252 69.7398 40.2252H31.0447C27.0532 40.2252 23.8157 43.4627 23.8157 47.4542V142.873C23.8378 146.864 27.0754 150.102 31.0447 150.102Z" fill="#1A1A1A"/>
<path d="M7.65032 116.374C3.4371 116.374 0 112.936 0 108.723V7.65032C0 3.4371 3.4371 0 7.65032 0H48.6294C52.8426 0 56.2797 3.4371 56.2797 7.65032V108.723C56.2797 112.936 52.8426 116.374 48.6294 116.374H7.65032Z" fill="#333333"/>
<path d="M48.6517 115.797H7.65044C3.74766 115.797 0.57666 112.604 0.57666 108.723V7.65043C0.57666 3.74766 3.76984 0.57666 7.65044 0.57666H48.6295C52.5323 0.57666 55.7033 3.76984 55.7033 7.65043V108.723C55.7255 112.604 52.5323 115.797 48.6517 115.797Z" fill="#4D4D4D"/>
<path d="M53.9736 9.02515H2.35059V103.756H53.9736V9.02515Z" fill="#FF7D05"/>
<g opacity="0.3">
<path opacity="0.3" d="M3.37063 9.02515H3.06018L2.35059 9.75692V10.0895L3.37063 9.02515Z" fill="#E6E6E6"/>
<path opacity="0.3" d="M5.25549 9.02515H4.92287L2.35059 11.7305V12.0631L5.25549 9.02515Z" fill="#E6E6E6"/>
<path opacity="0.3" d="M7.11818 9.02515H6.80773L2.35059 13.6819V14.0145L7.11818 9.02515Z" fill="#E6E6E6"/>
<path opacity="0.3" d="M9.00304 9.02515H8.69259L2.35059 15.6554V15.9659L9.00304 9.02515Z" fill="#E6E6E6"/>
<path opacity="0.3" d="M10.8879 9.02515H10.5775L2.35059 17.6068V17.9394L10.8879 9.02515Z" fill="#E6E6E6"/>
<path opacity="0.3" d="M12.7506 9.02515H12.4401L2.35059 19.5582V19.8908L12.7506 9.02515Z" fill="#E6E6E6"/>
<path opacity="0.3" d="M14.6354 9.02515H14.325L2.35059 21.5318V21.8422L14.6354 9.02515Z" fill="#E6E6E6"/>
<path opacity="0.3" d="M16.5203 9.02515H16.2099L2.35059 23.4831V23.8158L16.5203 9.02515Z" fill="#E6E6E6"/>
<path opacity="0.3" d="M18.4052 9.02515H18.0725L2.35059 25.4345V25.7672L18.4052 9.02515Z" fill="#E6E6E6"/>
<path opacity="0.3" d="M20.2679 9.02515H19.9574L2.35059 27.4081V27.7407L20.2679 9.02515Z" fill="#E6E6E6"/>
<path opacity="0.3" d="M22.1527 9.02515H21.8423L2.35059 29.3595V29.6921L22.1527 9.02515Z" fill="#E6E6E6"/>
<path opacity="0.3" d="M24.0376 9.02515H23.7271L2.35059 31.3109V31.6435L24.0376 9.02515Z" fill="#E6E6E6"/>
<path opacity="0.3" d="M25.9003 9.02515H25.5898L2.35059 33.2844V33.617L25.9003 9.02515Z" fill="#E6E6E6"/>
<path opacity="0.3" d="M27.7851 9.02515H27.4747L2.35059 35.2358V35.5684L27.7851 9.02515Z" fill="#E6E6E6"/>
<path opacity="0.3" d="M29.67 9.02515H29.3595L2.35059 37.2094V37.5198L29.67 9.02515Z" fill="#E6E6E6"/>
<path opacity="0.3" d="M31.5549 9.02515H31.2222L2.35059 39.1608V39.4934L31.5549 9.02515Z" fill="#E6E6E6"/>
<path opacity="0.3" d="M33.4175 9.02515H33.1071L2.35059 41.1121V41.4448L33.4175 9.02515Z" fill="#E6E6E6"/>
<path opacity="0.3" d="M35.3024 9.02515H34.992L2.35059 43.0857V43.3961L35.3024 9.02515Z" fill="#E6E6E6"/>
<path opacity="0.3" d="M37.1873 9.02515H36.8768L2.35059 45.0371V45.3697L37.1873 9.02515Z" fill="#E6E6E6"/>
<path opacity="0.3" d="M39.0499 9.02515H38.7395L2.35059 46.9885V47.3211L39.0499 9.02515Z" fill="#E6E6E6"/>
<path opacity="0.3" d="M40.9348 9.02515H40.6244L2.35059 48.962V49.2947L40.9348 9.02515Z" fill="#E6E6E6"/>
<path opacity="0.3" d="M42.8197 9.02515H42.5092L2.35059 50.9134V51.246L42.8197 9.02515Z" fill="#E6E6E6"/>
<path opacity="0.3" d="M44.7045 9.02515H44.3719L2.35059 52.887V53.1974L44.7045 9.02515Z" fill="#E6E6E6"/>
<path opacity="0.3" d="M46.5672 9.02515H46.2568L2.35059 54.8384V55.171L46.5672 9.02515Z" fill="#E6E6E6"/>
<path opacity="0.3" d="M48.4521 9.02515H48.1416L2.35059 56.7897V57.1224L48.4521 9.02515Z" fill="#E6E6E6"/>
<path opacity="0.3" d="M50.3369 9.02515H50.0265L2.35059 58.7633V59.0738L50.3369 9.02515Z" fill="#E6E6E6"/>
<path opacity="0.3" d="M52.1996 9.02515H51.8892L2.35059 60.7147V61.0473L52.1996 9.02515Z" fill="#E6E6E6"/>
<path opacity="0.3" d="M53.9736 9.1582V9.02515H53.774L2.35059 62.6661V62.9987L53.9736 9.1582Z" fill="#E6E6E6"/>
<path opacity="0.3" d="M53.9736 11.1097V10.7771L2.35059 64.6398V64.9724L53.9736 11.1097Z" fill="#E6E6E6"/>
<path opacity="0.3" d="M53.9736 13.0612V12.7507L2.35059 66.5912V66.9239L53.9736 13.0612Z" fill="#E6E6E6"/>
<path opacity="0.3" d="M53.9736 15.0348V14.7021L2.35059 68.5427V68.8753L53.9736 15.0348Z" fill="#E6E6E6"/>
<path opacity="0.3" d="M53.9736 16.9859V16.6533L2.35059 70.516V70.8486L53.9736 16.9859Z" fill="#E6E6E6"/>
<path opacity="0.3" d="M53.9736 18.9374V18.627L2.35059 72.4675V72.8001L53.9736 18.9374Z" fill="#E6E6E6"/>
<path opacity="0.3" d="M53.9736 20.911V20.5784L2.35059 74.441V74.7515L53.9736 20.911Z" fill="#E6E6E6"/>
<path opacity="0.3" d="M53.9736 22.8624V22.5298L2.35059 76.3925V76.7251L53.9736 22.8624Z" fill="#E6E6E6"/>
<path opacity="0.3" d="M53.9736 24.8359V24.5033L2.35059 78.3438V78.6764L53.9736 24.8359Z" fill="#E6E6E6"/>
<path opacity="0.3" d="M53.9736 26.7873V26.4547L2.35059 80.3174V80.6278L53.9736 26.7873Z" fill="#E6E6E6"/>
<path opacity="0.3" d="M53.9736 28.7388V28.4061L2.35059 82.2688V82.6014L53.9736 28.7388Z" fill="#E6E6E6"/>
<path opacity="0.3" d="M53.9736 30.7124V30.3798L2.35059 84.2203V84.5529L53.9736 30.7124Z" fill="#E6E6E6"/>
<path opacity="0.3" d="M53.9736 32.6638V32.3312L2.35059 86.1939V86.5265L53.9736 32.6638Z" fill="#E6E6E6"/>
<path opacity="0.3" d="M53.9736 34.615V34.3046L2.35059 88.1451V88.4777L53.9736 34.615Z" fill="#E6E6E6"/>
<path opacity="0.3" d="M2.35059 90.1187V90.4291L53.9736 36.5886V36.256L2.35059 90.1187Z" fill="#E6E6E6"/>
<path opacity="0.3" d="M2.35059 92.0701V92.4027L53.9736 38.54V38.2074L2.35059 92.0701Z" fill="#E6E6E6"/>
<path opacity="0.3" d="M2.35059 94.0215V94.3542L53.9736 40.4915V40.181L2.35059 94.0215Z" fill="#E6E6E6"/>
<path opacity="0.3" d="M2.35059 95.9949V96.3053L53.9736 42.4648V42.1322L2.35059 95.9949Z" fill="#E6E6E6"/>
<path opacity="0.3" d="M2.35059 97.9463V98.2789L53.9736 44.4162V44.0836L2.35059 97.9463Z" fill="#E6E6E6"/>
<path opacity="0.3" d="M2.35059 99.8978V100.23L53.9736 46.3899V46.0573L2.35059 99.8978Z" fill="#E6E6E6"/>
<path opacity="0.3" d="M2.35059 101.871V102.204L53.9736 48.3413V48.0087L2.35059 101.871Z" fill="#E6E6E6"/>
<path opacity="0.3" d="M2.41699 103.756H2.72744L53.9735 50.2926V49.9822L2.41699 103.756Z" fill="#E6E6E6"/>
<path opacity="0.3" d="M4.27979 103.756H4.61241L53.9736 52.2662V51.9336L4.27979 103.756Z" fill="#E6E6E6"/>
<path opacity="0.3" d="M6.16455 103.756H6.475L53.9735 54.2176V53.885L6.16455 103.756Z" fill="#E6E6E6"/>
<path opacity="0.3" d="M8.04956 103.756H8.36001L53.9737 56.1691V55.8586L8.04956 103.756Z" fill="#E6E6E6"/>
<path opacity="0.3" d="M9.93433 103.756H10.2448L53.9736 58.1427V57.8101L9.93433 103.756Z" fill="#E6E6E6"/>
<path opacity="0.3" d="M11.7969 103.756H12.1073L53.9734 60.0939V59.7612L11.7969 103.756Z" fill="#E6E6E6"/>
<path opacity="0.3" d="M13.6819 103.756H13.9923L53.9736 62.0675V61.7349L13.6819 103.756Z" fill="#E6E6E6"/>
<path opacity="0.3" d="M15.5667 103.756H15.8771L53.9735 64.0189V63.6863L15.5667 103.756Z" fill="#E6E6E6"/>
<path opacity="0.3" d="M17.4294 103.756H17.7621L53.9736 65.9703V65.6377L17.4294 103.756Z" fill="#E6E6E6"/>
<path opacity="0.3" d="M19.3142 103.756H19.6247L53.9735 67.9437V67.6111L19.3142 103.756Z" fill="#E6E6E6"/>
<path opacity="0.3" d="M21.199 103.756H21.5094L53.9734 69.8951V69.5625L21.199 103.756Z" fill="#E6E6E6"/>
<path opacity="0.3" d="M23.0618 103.756H23.3944L53.9735 71.8466V71.5361L23.0618 103.756Z" fill="#E6E6E6"/>
<path opacity="0.3" d="M24.9468 103.756H25.2572L53.9736 73.8202V73.4875L24.9468 103.756Z" fill="#E6E6E6"/>
<path opacity="0.3" d="M26.8315 103.756H27.142L53.9736 75.7716V75.439L26.8315 103.756Z" fill="#E6E6E6"/>
<path opacity="0.3" d="M28.7166 103.756H29.027L53.9737 77.7229V77.4125L28.7166 103.756Z" fill="#E6E6E6"/>
<path opacity="0.3" d="M30.5791 103.756H30.9117L53.9736 79.6965V79.3639L30.5791 103.756Z" fill="#E6E6E6"/>
<path opacity="0.3" d="M32.4641 103.756H32.7746L53.9737 81.6479V81.3153L32.4641 103.756Z" fill="#E6E6E6"/>
<path opacity="0.3" d="M34.3489 103.756H34.6593L53.9736 83.6216V83.2889L34.3489 103.756Z" fill="#E6E6E6"/>
<path opacity="0.3" d="M36.2117 103.756H36.5443L53.9737 85.5727V85.2401L36.2117 103.756Z" fill="#E6E6E6"/>
<path opacity="0.3" d="M38.0964 103.756H38.4069L53.9736 87.5242V87.1915L38.0964 103.756Z" fill="#E6E6E6"/>
<path opacity="0.3" d="M39.9812 103.756H40.2916L53.9735 89.4978V89.1652L39.9812 103.756Z" fill="#E6E6E6"/>
<path opacity="0.3" d="M41.8662 103.756H42.1767L53.9737 91.4492V91.1166L41.8662 103.756Z" fill="#E6E6E6"/>
<path opacity="0.3" d="M43.7288 103.756H44.0614L53.9735 93.4004V93.09L43.7288 103.756Z" fill="#E6E6E6"/>
<path opacity="0.3" d="M45.6138 103.756H45.9242L53.9737 95.374V95.0414L45.6138 103.756Z" fill="#E6E6E6"/>
<path opacity="0.3" d="M47.4985 103.756H47.809L53.9736 97.3254V96.9928L47.4985 103.756Z" fill="#E6E6E6"/>
<path opacity="0.3" d="M49.3613 103.756H49.694L53.9737 99.2769V98.9664L49.3613 103.756Z" fill="#E6E6E6"/>
<path opacity="0.3" d="M51.2461 103.756H51.5565L53.9736 101.25V100.918L51.2461 103.756Z" fill="#E6E6E6"/>
<path opacity="0.3" d="M53.1309 103.756H53.4413L53.9735 103.202V102.869L53.1309 103.756Z" fill="#E6E6E6"/>
</g>
<path opacity="0.3" d="M53.9736 9.02515H2.35059V11.6418H53.9736V9.02515Z" fill="#FBB03B"/>
<path d="M34.0606 6.03174H22.2635C21.8866 6.03174 21.554 5.72129 21.554 5.32214C21.554 4.94517 21.8644 4.61255 22.2635 4.61255H34.0606C34.4375 4.61255 34.7702 4.923 34.7702 5.32214C34.7702 5.69912 34.4375 6.03174 34.0606 6.03174Z" fill="#333333"/>
<path d="M18.7821 6.03174C18.4051 6.03174 18.0725 5.72129 18.0725 5.32214C18.0725 4.94517 18.383 4.61255 18.7821 4.61255C19.1591 4.61255 19.4917 4.923 19.4917 5.32214C19.4917 5.69912 19.1813 6.03174 18.7821 6.03174Z" fill="#333333"/>
<path d="M28.1619 113.336C30.3541 113.336 32.1312 111.559 32.1312 109.367C32.1312 107.174 30.3541 105.397 28.1619 105.397C25.9697 105.397 24.1926 107.174 24.1926 109.367C24.1926 111.559 25.9697 113.336 28.1619 113.336Z" fill="#333333"/>
<path opacity="0.2" d="M14.2584 9.02515H4.63452V103.756H14.2584V9.02515Z" fill="white"/>
<path d="M44.2389 39.3383H12.041V71.5361H44.2389V39.3383Z" fill="white"/>
<path d="M20.9775 44.3055H17.0969V48.1861H20.9775V44.3055Z" fill="black"/>
<path d="M23.572 41.7333H14.5247V50.7806H23.572V41.7333ZM22.3302 49.5388H15.7886V42.9972H22.3302V49.5388Z" fill="black"/>
<path d="M20.9775 62.4888H17.0969V66.3694H20.9775V62.4888Z" fill="black"/>
<path d="M14.5469 68.9861H23.5942V59.9387H14.5469V68.9861ZM15.7887 61.1805H22.3302V67.7221H15.7887V61.1805Z" fill="black"/>
<path d="M39.1609 44.3055H35.2803V48.1861H39.1609V44.3055Z" fill="black"/>
<path d="M32.7302 41.7333V50.7806H41.7776V41.7333H32.7302ZM40.5136 49.5388H33.972V42.9972H40.5136V49.5388Z" fill="black"/>
<path d="M26.2552 49.4501H24.8582V50.7806H26.2552V49.4501Z" fill="black"/>
<path d="M34.1272 59.8723H32.7302V61.2028H34.1272V59.8723Z" fill="black"/>
<path d="M26.2551 53.4859H27.4747V52.1554H26.2551H24.9911H24.8581H19.7579V53.4637H18.3608V54.772H19.7579V53.4859H22.4188V54.772H24.9911V53.4859H26.2551Z" fill="black"/>
<path d="M22.3746 54.7721H20.9775V56.1026H22.3746V54.7721Z" fill="black"/>
<path d="M23.5721 57.3442H22.175V58.6747H23.5721V57.3442Z" fill="black"/>
<path d="M17.2966 52.1554H14.5469V54.7498H17.2966V52.1554Z" fill="black"/>
<path d="M17.2966 57.3886H19.758V56.0803H17.2966H14.5469V57.3886V58.6748H17.2966V57.3886Z" fill="black"/>
<path d="M27.4304 50.7806H28.8274V48.1861H30.0692V48.2083H31.3997V45.7026V44.3721V41.7333H30.0692V44.3721H28.7831V43.0416V41.7333H27.4748V43.0416H26.1886V41.7333H24.8582V43.0416V44.3721V45.6804H26.1886V44.3721H27.4748V45.6804V45.7026H30.0692V46.8557H24.8582V48.1861H27.4304V50.7806Z" fill="black"/>
<path d="M31.3997 49.4501H30.0027V50.7806H31.3997V49.4501Z" fill="black"/>
<path d="M24.9246 66.4805V67.811V69.0971H27.6742V67.811H30.1578V66.4805H27.6742H24.9246Z" fill="black"/>
<path d="M40.558 52.1554H39.1609V53.4859H40.3584V54.7942H39.1388V53.4637H37.9191V52.1554H36.6774H36.5221H34.0607H33.9277H32.7302V53.4637V53.6633H31.3997V54.7942H30.0249V57.433H28.8496V56.1247H30.0249V54.7942V53.4859H31.4219V52.1554H30.0249V53.4637H28.6279V54.7942H25.0134V56.1025V56.1247V57.433V58.7413H26.3217V57.433H27.5857V58.7413V58.7635H30.0692V59.9166H25.0356V61.2471H27.5635V62.5997H24.9912V65.1942H27.7409V63.8415H28.9383V61.2249H30.0692V61.2471H31.4441V58.7413V58.6748H32.7746H33.972H35.4134V62.5776H30.1801V63.8859H28.7831V65.2164H30.1801V63.9081H32.8411V65.2164H32.7968H32.1537H31.3997V66.5469V67.8774H32.5972V69.1857H33.9942V67.8552H32.7968V66.5469H34.0164V67.8774H35.236V69.1857H36.4778H36.633H39.0722H39.2053H40.4027V67.8774V67.6778H41.7332V62.6441H40.4027H39.2053H36.4556V61.2027H40.4027V59.8722H36.4556V58.6748H36.6774H39.1166H39.1609V57.3443H39.1166H36.6774V56.1025H40.3584H41.0014H41.7554V54.772V53.4415H40.558V52.1554ZM33.9277 57.3443H32.7302V56.0803H33.9277V57.3443ZM39.2053 63.9524H40.4027V65.2164H39.2053V63.9524ZM35.369 63.9524H36.4556V65.1942H35.369V63.9524ZM36.5886 65.2386H39.0722V66.5247H36.5886V65.2386ZM36.4778 66.5247V66.5469H36.4556V67.833H35.3912V66.5247H36.4778ZM36.5443 56.0803H34.0607V54.7942H36.5443V56.0803ZM37.7417 54.772H36.6552V54.7498H36.6774V53.4637H37.7417V54.772Z" fill="black"/>
<path d="M19.0926 36.1229H8.82568V74.7737H19.0926" stroke="#4D4D4D" stroke-width="0.766204" stroke-miterlimit="10"/>
<path d="M37.2317 74.7735H47.4765V36.1228H37.2317" stroke="#4D4D4D" stroke-width="0.766204" stroke-miterlimit="10"/>
<path opacity="0.5" d="M53.9736 50.7805H2.35059V52.7541H53.9736V50.7805Z" fill="#FF0000"/>
<path opacity="0.5" d="M53.9736 51.4014H2.35059V52.111H53.9736V51.4014Z" fill="#C1272D"/>
<path d="M44.9485 82.9784H11.3536C9.9566 82.9784 8.82568 81.8474 8.82568 80.4504C8.82568 79.0534 9.9566 77.9225 11.3536 77.9225H44.9485C46.3455 77.9225 47.4764 79.0534 47.4764 80.4504C47.4764 81.8474 46.3455 82.9784 44.9485 82.9784Z" fill="white"/>
<path d="M34.2379 78.4767H11.3534C10.2669 78.4767 9.37988 79.3637 9.37988 80.4502C9.37988 81.5368 10.2669 82.4238 11.3534 82.4238H34.2379V78.4767Z" fill="#8CC63F"/>
<path d="M36.1227 94.1768H20.2012C18.1389 94.1768 16.4758 92.4915 16.4758 90.4514C16.4758 88.3892 18.1611 86.7261 20.2012 86.7261H36.1227C38.185 86.7261 39.8481 88.4114 39.8481 90.4514C39.8481 92.5137 38.1628 94.1768 36.1227 94.1768Z" fill="#29ABE2"/>
<path opacity="0.3" d="M20.2013 87.7015H36.1228C37.8081 87.7015 39.2273 88.9876 39.3825 90.6508C39.4047 90.5399 39.4047 90.429 39.4047 90.3181C39.4047 88.4998 37.9412 87.0363 36.1228 87.0363H20.2013C18.383 87.0363 16.9194 88.4998 16.9194 90.3181C16.9194 90.429 16.9194 90.5399 16.9416 90.6508C17.0968 88.9876 18.4938 87.7015 20.2013 87.7015Z" fill="white"/>
<path opacity="0.3" d="M36.1227 93.3783H20.2012C18.2942 93.3783 16.6976 91.9148 16.498 90.0521C16.4758 90.1852 16.4758 90.3182 16.4758 90.4513C16.4758 92.5135 18.1611 94.1766 20.2012 94.1766H36.1227C38.185 94.1766 39.8481 92.4914 39.8481 90.4513C39.8481 90.3182 39.8481 90.1852 39.8259 90.0521C39.6264 91.9148 38.0298 93.3783 36.1227 93.3783Z" fill="#29ABE2"/>
<path d="M25.3418 94.1326C25.3418 94.643 25.1575 95.0452 24.7888 95.3391C24.4227 95.633 23.9123 95.78 23.2575 95.78C22.6542 95.78 22.1205 95.6665 21.6565 95.4397V94.3259C22.038 94.4961 22.3603 94.616 22.6233 94.6856C22.8888 94.7552 23.1311 94.79 23.3503 94.79C23.6132 94.79 23.8143 94.7397 23.9535 94.6392C24.0953 94.5386 24.1662 94.3891 24.1662 94.1906C24.1662 94.0797 24.1353 93.9818 24.0734 93.8967C24.0115 93.809 23.92 93.7253 23.7989 93.6453C23.6803 93.5654 23.4366 93.4378 23.068 93.2625C22.7225 93.1001 22.4634 92.9441 22.2907 92.7946C22.118 92.645 21.98 92.471 21.8769 92.2725C21.7738 92.074 21.7222 91.842 21.7222 91.5764C21.7222 91.0763 21.8911 90.6831 22.2288 90.397C22.5691 90.1108 23.0383 89.9677 23.6364 89.9677C23.9303 89.9677 24.2101 90.0025 24.4756 90.0721C24.7437 90.1417 25.0234 90.2397 25.3148 90.366L24.9281 91.298C24.6264 91.1743 24.3763 91.0879 24.1778 91.0389C23.9819 90.9899 23.7885 90.9654 23.5978 90.9654C23.3709 90.9654 23.1969 91.0183 23.0757 91.124C22.9545 91.2297 22.894 91.3676 22.894 91.5378C22.894 91.6435 22.9184 91.7363 22.9674 91.8162C23.0164 91.8935 23.0938 91.9696 23.1995 92.0444C23.3077 92.1165 23.5617 92.248 23.9613 92.4388C24.4898 92.6914 24.852 92.9454 25.0479 93.2006C25.2439 93.4533 25.3418 93.7639 25.3418 94.1326ZM28.7681 90.9654C28.3169 90.9654 27.9676 91.1356 27.7201 91.4759C27.4726 91.8136 27.3489 92.2854 27.3489 92.8912C27.3489 94.1519 27.8219 94.7823 28.7681 94.7823C29.1651 94.7823 29.6459 94.683 30.2105 94.4845V95.4899C29.7465 95.6833 29.2283 95.78 28.6559 95.78C27.8335 95.78 27.2045 95.5312 26.7688 95.0336C26.3331 94.5335 26.1153 93.8168 26.1153 92.8835C26.1153 92.2957 26.2222 91.7814 26.4362 91.3405C26.6502 90.8971 26.957 90.5581 27.3566 90.3235C27.7588 90.0863 28.2293 89.9677 28.7681 89.9677C29.3172 89.9677 29.8689 90.1005 30.4232 90.366L30.0365 91.3405C29.8251 91.24 29.6124 91.1523 29.3984 91.0776C29.1844 91.0028 28.9743 90.9654 28.7681 90.9654ZM34.8781 95.7026L34.4682 94.3569H32.407L31.9971 95.7026H30.7055L32.7009 90.0257H34.1666L36.1697 95.7026H34.8781ZM34.182 93.3514C33.8031 92.132 33.5891 91.4424 33.5401 91.2825C33.4937 91.1227 33.4602 90.9964 33.4396 90.9036C33.3545 91.2335 33.1109 92.0495 32.7087 93.3514H34.182ZM27.0202 106.703H25.4965L23.037 102.426H23.0022C23.0512 103.181 23.0757 103.72 23.0757 104.042V106.703H22.0045V101.049H23.5166L25.9722 105.283H25.9992C25.9606 104.549 25.9412 104.029 25.9412 103.725V101.049H27.0202V106.703Z" fill="white"/>
<path d="M42.5536 134.779L41.2896 135.244C38.5178 136.264 35.4355 134.823 34.4154 132.051L24.6807 105.441C23.6606 102.67 25.102 99.5873 27.8739 98.5672L29.1378 98.1016C31.9097 97.0815 34.992 98.5229 36.012 101.295L45.7468 127.905C46.7446 130.676 45.3255 133.781 42.5536 134.779Z" fill="#F7B288"/>
<path d="M42.5093 144.225H69.5626C75.1729 140.056 78.8095 133.404 78.8095 125.931V100.186C78.8095 97.1258 76.3038 94.6422 73.2658 94.6422C71.5584 94.6422 70.0061 95.4405 68.9861 96.6602C68.8974 96.5936 68.8308 96.5493 68.7421 96.4827V94.2431C68.7421 90.9169 66.0368 88.2115 62.7106 88.2115C60.4044 88.2115 58.3865 89.542 57.3665 91.4491V91.1386C57.3665 87.8124 54.6611 85.1071 51.3349 85.1071C48.0087 85.1071 45.3033 87.8124 45.3033 91.1386V65.6154C45.3033 62.2892 42.598 60.2712 39.2718 60.2712C35.9456 60.2712 33.2402 62.2892 33.2402 65.6154V125.909C33.2624 133.404 36.9213 140.056 42.5093 144.225Z" fill="#FBCEA7"/>
<path d="M34.8811 62.5332C34.8811 65.1055 34.8811 65.1277 34.8811 65.1498V66.5912C34.8811 69.0526 36.899 71.0927 39.3826 71.0927C41.844 71.0927 43.8841 69.0748 43.8841 66.5912V65.1498C43.8841 65.1277 43.8841 65.1055 43.8841 62.5332H34.8811Z" fill="#FFDEC2"/>
<path d="M43.8619 64.0854C43.8619 63.7085 43.8619 63.2206 43.8619 62.5332H34.8811C34.8811 63.2206 34.8811 63.7085 34.8811 64.0854H43.8619Z" fill="#F2F2F2"/>
<path d="M74.8401 140.899H37.4534V156H74.8401V140.899Z" fill="#2C2D84"/>
<path d="M24.2028 10.6404C24.2277 10.6427 24.248 10.6539 24.2638 10.6742C24.2818 10.6923 24.2908 10.7148 24.2908 10.7419V12.9074C24.2908 12.9367 24.2795 12.9615 24.257 12.9818C24.2367 12.9999 24.2107 13.0089 24.1792 13.0089C24.1498 13.0089 24.125 12.9999 24.1047 12.9818C24.0844 12.9615 24.0743 12.9367 24.0743 12.9074V10.928L23.6513 11.1784C23.6355 11.1874 23.6197 11.1919 23.604 11.1919C23.5746 11.1919 23.5487 11.1806 23.5261 11.1581C23.5058 11.1355 23.4957 11.1107 23.4957 11.0837C23.4957 11.0679 23.5002 11.0521 23.5092 11.0363C23.5205 11.0205 23.534 11.0081 23.5498 10.9991L24.1216 10.6539C24.1442 10.6404 24.1713 10.6359 24.2028 10.6404ZM26.2736 12.8127C26.3007 12.8127 26.3232 12.8228 26.3413 12.8431C26.3616 12.8612 26.3717 12.8837 26.3717 12.9108C26.3717 12.9401 26.3616 12.9638 26.3413 12.9818C26.3232 12.9999 26.3007 13.0089 26.2736 13.0089H25.0048C24.9732 13.0089 24.9473 12.9999 24.927 12.9818C24.9067 12.9638 24.8965 12.939 24.8965 12.9074C24.8965 12.8826 24.9055 12.8589 24.9236 12.8363L25.7052 11.9735C25.8315 11.8382 25.9251 11.7175 25.986 11.6115C26.0469 11.5032 26.0774 11.3972 26.0774 11.2934C26.0774 11.14 26.0311 11.0194 25.9386 10.9314C25.8462 10.8434 25.7176 10.7994 25.5529 10.7994C25.4424 10.7994 25.3431 10.8265 25.2552 10.8806C25.1694 10.9325 25.1052 11.0126 25.0623 11.1209C25.0375 11.1615 25.0082 11.1818 24.9743 11.1818C24.9495 11.1818 24.9258 11.1728 24.9033 11.1547C24.8807 11.1367 24.8694 11.1164 24.8694 11.0938C24.8694 11.0803 24.8739 11.0645 24.883 11.0464C24.892 11.0284 24.9033 11.0103 24.9168 10.9923C24.9755 10.8705 25.0634 10.7757 25.1807 10.7081C25.298 10.6404 25.4266 10.6066 25.5665 10.6066C25.7943 10.6066 25.9725 10.6686 26.1011 10.7927C26.2296 10.9167 26.2939 11.0791 26.2939 11.2799C26.2939 11.404 26.2601 11.5314 26.1924 11.6622C26.1247 11.7908 26.0131 11.9408 25.8574 12.1123L25.2349 12.8127H26.2736ZM26.8298 11.598C26.7915 11.598 26.7622 11.5867 26.7419 11.5641C26.7216 11.5416 26.7114 11.51 26.7114 11.4694V11.3983C26.7114 11.3577 26.7216 11.3261 26.7419 11.3036C26.7622 11.2788 26.7915 11.2664 26.8298 11.2664H26.8535C26.8919 11.2664 26.9212 11.2788 26.9415 11.3036C26.9618 11.3261 26.9719 11.3577 26.9719 11.3983V11.4694C26.9719 11.51 26.9618 11.5416 26.9415 11.5641C26.9212 11.5867 26.8919 11.598 26.8535 11.598H26.8298ZM26.8298 13.0089C26.7915 13.0089 26.7622 12.9976 26.7419 12.9751C26.7216 12.9525 26.7114 12.9209 26.7114 12.8803V12.8059C26.7114 12.7653 26.7216 12.7337 26.7419 12.7112C26.7622 12.6886 26.7915 12.6773 26.8298 12.6773H26.8535C26.8919 12.6773 26.9212 12.6886 26.9415 12.7112C26.9618 12.7337 26.9719 12.7653 26.9719 12.8059V12.8803C26.9719 12.9209 26.9618 12.9525 26.9415 12.9751C26.9212 12.9976 26.8919 13.0089 26.8535 13.0089H26.8298ZM28.1613 13.0427C27.9831 13.0427 27.8331 12.9897 27.7113 12.8837C27.5895 12.7777 27.497 12.6333 27.4339 12.4506C27.373 12.2657 27.3425 12.057 27.3425 11.8247C27.3425 11.5901 27.373 11.3814 27.4339 11.1987C27.4948 11.016 27.5861 10.8716 27.7079 10.7656C27.832 10.6596 27.9831 10.6066 28.1613 10.6066C28.3395 10.6066 28.4896 10.6596 28.6114 10.7656C28.7354 10.8694 28.8279 11.0137 28.8888 11.1987C28.952 11.3814 28.9836 11.5901 28.9836 11.8247C28.9836 12.057 28.952 12.2657 28.8888 12.4506C28.8279 12.6333 28.7354 12.7777 28.6114 12.8837C28.4896 12.9897 28.3395 13.0427 28.1613 13.0427ZM28.1613 12.833C28.3553 12.833 28.5042 12.7427 28.608 12.5623C28.714 12.3796 28.767 12.1337 28.767 11.8247C28.767 11.5134 28.714 11.2675 28.608 11.087C28.5042 10.9043 28.3553 10.813 28.1613 10.813C27.9696 10.813 27.8207 10.9043 27.7147 11.087C27.6109 11.2675 27.5591 11.5134 27.5591 11.8247C27.5591 12.1337 27.6109 12.3796 27.7147 12.5623C27.8207 12.7427 27.9696 12.833 28.1613 12.833ZM30.0248 11.4355C30.1691 11.4355 30.2988 11.4683 30.4139 11.5337C30.5312 11.5968 30.6225 11.6871 30.688 11.8044C30.7556 11.9194 30.7895 12.0491 30.7895 12.1935C30.7895 12.3514 30.7522 12.4935 30.6778 12.6198C30.6056 12.7439 30.5041 12.8409 30.3733 12.9108C30.2424 12.9807 30.0936 13.0157 29.9266 13.0157C29.8319 13.0157 29.7372 12.9999 29.6424 12.9683C29.5499 12.9367 29.4687 12.8916 29.3988 12.833C29.3853 12.8239 29.374 12.8115 29.365 12.7957C29.3582 12.7777 29.3548 12.7608 29.3548 12.745C29.3548 12.7224 29.3638 12.701 29.3819 12.6807C29.4022 12.6581 29.4259 12.6469 29.4529 12.6469C29.4778 12.6469 29.5026 12.657 29.5274 12.6773C29.586 12.7224 29.6492 12.7574 29.7169 12.7822C29.7868 12.807 29.8567 12.8194 29.9266 12.8194C30.0552 12.8194 30.1691 12.7935 30.2684 12.7416C30.3699 12.6897 30.4477 12.6164 30.5019 12.5217C30.5582 12.4269 30.5864 12.3198 30.5864 12.2002C30.5864 12.0288 30.5312 11.8912 30.4207 11.7874C30.3101 11.6814 30.1624 11.6284 29.9774 11.6284C29.9075 11.6284 29.8421 11.6386 29.7812 11.6589C29.7225 11.6792 29.656 11.7062 29.5815 11.7401C29.5274 11.7671 29.4924 11.7807 29.4766 11.7807C29.4428 11.7807 29.4146 11.7705 29.392 11.7502C29.3717 11.7277 29.3616 11.7017 29.3616 11.6724C29.3616 11.6611 29.3627 11.6521 29.365 11.6453L29.5105 10.725C29.515 10.7024 29.5263 10.6833 29.5443 10.6675C29.5646 10.6494 29.5883 10.6404 29.6154 10.6404H30.6338C30.6609 10.6404 30.6834 10.6506 30.7015 10.6709C30.7218 10.6889 30.7319 10.7126 30.7319 10.7419C30.7319 10.769 30.7218 10.7927 30.7015 10.813C30.6834 10.831 30.6609 10.84 30.6338 10.84H29.6864L29.5714 11.5404C29.63 11.5111 29.6988 11.4863 29.7778 11.466C29.859 11.4457 29.9413 11.4355 30.0248 11.4355ZM24.7002 14.6404C24.8243 14.6404 24.936 14.6697 25.0352 14.7284C25.1345 14.7848 25.2112 14.8648 25.2653 14.9686C25.3217 15.0701 25.3499 15.1852 25.3499 15.3137C25.3499 15.4423 25.3217 15.5596 25.2653 15.6656C25.2112 15.7716 25.1345 15.8551 25.0352 15.916C24.936 15.9769 24.8243 16.0074 24.7002 16.0074H23.9998V16.9074C23.9998 16.9367 23.9897 16.9615 23.9694 16.9818C23.9513 16.9999 23.9276 17.0089 23.8983 17.0089C23.869 17.0089 23.8442 16.9999 23.8239 16.9818C23.8058 16.9615 23.7968 16.9367 23.7968 16.9074V14.7419C23.7968 14.7126 23.8058 14.6889 23.8239 14.6709C23.8442 14.6506 23.869 14.6404 23.8983 14.6404H24.7002ZM24.7002 15.8111C24.8311 15.8111 24.9371 15.7638 25.0183 15.669C25.0995 15.5743 25.1401 15.4558 25.1401 15.3137C25.1401 15.1739 25.0995 15.06 25.0183 14.972C24.9371 14.884 24.8311 14.84 24.7002 14.84H23.9998V15.8111H24.7002ZM27.8764 14.6404C27.9035 14.6404 27.926 14.6506 27.9441 14.6709C27.9644 14.6889 27.9745 14.7126 27.9745 14.7419V16.9074C27.9745 16.9367 27.9644 16.9615 27.9441 16.9818C27.9238 16.9999 27.899 17.0089 27.8696 17.0089C27.8381 17.0089 27.8121 16.9999 27.7918 16.9818C27.7715 16.9615 27.7614 16.9367 27.7614 16.9074V15.0464L26.9662 16.251C26.9437 16.2803 26.9177 16.2938 26.8884 16.2916H26.8816C26.8546 16.2916 26.8298 16.2781 26.8072 16.251L26.0121 15.0397V16.9074C26.0121 16.9367 26.0019 16.9615 25.9816 16.9818C25.9636 16.9999 25.9399 17.0089 25.9105 17.0089C25.8812 17.0089 25.8575 16.9999 25.8395 16.9818C25.8214 16.9615 25.8124 16.9367 25.8124 16.9074V14.7419C25.8124 14.7148 25.8214 14.6912 25.8395 14.6709C25.8598 14.6506 25.8846 14.6404 25.9139 14.6404C25.9297 14.6404 25.9466 14.6449 25.9647 14.6539C25.9827 14.6607 25.9963 14.6709 26.0053 14.6844L26.8918 16.0141L27.7851 14.6844C27.8099 14.6506 27.8403 14.6359 27.8764 14.6404Z" fill="white"/>
<path d="M6.2166 11.975C6.4764 11.7152 6.4764 11.294 6.2166 11.0342C5.95681 10.7745 5.53561 10.7745 5.27581 11.0342C5.01602 11.294 5.01602 11.7152 5.27581 11.975C5.53561 12.2348 5.95681 12.2348 6.2166 11.975Z" fill="#F8F8F6"/>
<path d="M10.6219 11.398C10.6884 11.8415 10.3114 12.2184 9.86793 12.1519C9.60183 12.1076 9.35791 11.8858 9.31356 11.5975C9.24703 11.154 9.62401 10.7771 10.0675 10.8436C10.3558 10.8879 10.5775 11.1319 10.6219 11.398Z" fill="#F8F8F6"/>
<path d="M8.51518 11.398C8.58171 11.8415 8.20474 12.2184 7.76124 12.1519C7.49514 12.1076 7.25122 11.8858 7.20687 11.5975C7.14035 11.154 7.51732 10.7771 7.96081 10.8436C8.24909 10.8879 8.47083 11.1319 8.51518 11.398Z" fill="#F8F8F6"/>
<path d="M14.8572 11.398C14.9238 11.8415 14.5468 12.2184 14.1033 12.1519C13.8372 12.1076 13.5933 11.8858 13.5489 11.5975C13.4824 11.154 13.8594 10.7771 14.3029 10.8436C14.5911 10.8879 14.8129 11.1319 14.8572 11.398Z" stroke="#F8F8F6" stroke-width="0.230692" stroke-miterlimit="10"/>
<path d="M12.7505 11.398C12.8171 11.8415 12.4401 12.2184 11.9966 12.1519C11.7305 12.1076 11.4866 11.8858 11.4422 11.5975C11.3757 11.154 11.7527 10.7771 12.1962 10.8436C12.4623 10.8879 12.7062 11.1319 12.7505 11.398Z" stroke="#F8F8F6" stroke-width="0.230692" stroke-miterlimit="10"/>
<path d="M47.6094 12.551C47.4764 12.551 47.3877 12.4623 47.3877 12.3514V10.6883C47.3877 10.5774 47.4986 10.4666 47.6094 10.4666H51.4679C51.6009 10.4666 51.6896 10.5553 51.6896 10.6883V11.0209H51.9779V11.9966H51.6896V12.3292C51.6896 12.4401 51.5787 12.5288 51.4679 12.5288H47.6094V12.551ZM51.5344 10.6218H47.5429V12.3958H51.5344V10.6218ZM47.6981 12.2184V10.777H50.603V12.2184H47.6981Z" fill="#F8F8F6"/>
</svg>
