<svg width="83" height="30" viewBox="0 0 83 30" fill="none" xmlns="http://www.w3.org/2000/svg">
<g clip-path="url(#clip0)">
<path fill-rule="evenodd" clip-rule="evenodd" d="M13.6936 22.0165C15.3633 21.5366 14.4635 22.8364 17.623 24.9161C20.7525 26.9657 25.2917 26.6758 27.9813 24.0662C28.8512 23.2163 28.8912 23.0964 29.5911 22.2365C30.5209 21.0867 32.5206 21.8866 29.2511 24.8561C25.5017 28.2755 20.7325 28.7954 16.4332 25.8759C15.6733 25.356 14.3635 24.0562 13.8036 23.2763C13.4136 22.7164 13.4436 22.5864 13.6936 22.0165ZM52.3174 2.99956C52.5174 3.27952 52.7374 3.53948 53.0173 3.72945L53.5572 3.29952L53.5672 2.7796L52.3174 2.99956ZM44.9486 2.95957C45.0486 2.90958 44.9986 3.15954 45.1286 2.7696C45.2786 2.32967 45.1886 2.52964 45.1086 2.27968L44.8786 1.93973L43.8488 2.41966C44.1187 2.7796 44.3987 2.80959 44.9486 2.95957ZM39.7794 2.85959C40.1494 2.98957 40.4993 3.22953 40.9692 3.11954C41.1892 2.22969 40.9592 2.7596 40.8393 2.1297C40.4093 2.26968 40.0194 2.42966 39.7794 2.85959ZM35.97 3.01956C35.8001 3.4195 35.94 3.20953 35.6301 3.52948C35.8601 3.67946 35.7901 3.59947 36.11 3.67946L36.6599 3.90942L36.9799 3.79944C36.9599 3.4095 37.0199 3.43949 36.8599 3.18953C36.8499 3.16954 36.48 2.83959 36.4 2.7796L35.97 3.01956ZM48.0681 2.56963C48.2981 2.7596 48.818 3.06955 49.1179 3.22953C49.5379 2.7496 49.4279 2.70961 49.3679 2.04972C48.898 2.1597 48.3781 2.30967 48.0681 2.56963ZM31.8107 4.78928L33.1605 4.84927C33.0905 4.33935 32.9105 3.96941 32.3706 3.83943C32.0907 4.0494 31.8507 4.42934 31.8107 4.78928ZM71.5444 11.5282C71.7443 11.2283 71.7143 11.2782 71.9443 11.0583C72.1243 10.8883 72.2842 10.7383 72.4442 10.6083C72.7142 10.3884 73.2141 10.1384 73.4341 9.91846C74.064 9.94845 74.4339 10.1584 74.9638 9.80848C75.6137 9.36855 75.2538 9.41854 76.3836 9.45853C78.1333 9.76848 81.6328 11.7282 79.6631 13.4379C79.0632 13.9578 75.1138 16.4674 74.8038 16.9673C78.0033 17.5972 77.5934 15.3476 78.7332 14.9976C79.3331 14.8077 79.923 15.0176 80.243 15.3476C81.7627 16.9373 78.7832 19.107 77.4034 19.5969C74.3139 20.7067 70.7445 18.6271 70.4945 15.1476C70.3945 13.6879 70.7645 13.078 71.2144 11.9581C71.2744 11.8881 71.4544 11.6782 71.5444 11.5282ZM58.3565 17.1773C58.5664 17.2073 58.7064 17.2173 58.9364 17.1873C59.0764 17.1673 59.1263 17.1573 59.2463 17.1173C59.6363 16.9673 59.4463 17.0273 59.5863 16.9073C60.1862 16.8773 60.3561 16.3674 60.7261 16.0375C61.8859 12.1081 57.5266 11.9681 56.9867 13.2479C55.7269 13.9678 55.9169 16.7874 58.3565 17.1773ZM57.7666 15.5076C57.1767 13.7778 59.2163 13.3179 59.5563 14.6777C59.6263 15.2576 59.3963 15.6076 58.9664 15.7675C58.3565 15.9875 58.1165 15.6076 57.7666 15.5076ZM58.4664 4.71929C59.4563 4.72929 59.8762 4.78928 60.1362 5.57915C59.6763 5.55916 59.4063 5.51916 59.0164 5.35919C58.5664 5.16922 58.5464 5.19921 58.4664 4.71929ZM57.6366 4.46933C57.8265 5.47917 60.6061 6.61899 61.8559 6.41902C61.7459 5.53916 59.1363 3.67946 57.6366 4.46933ZM54.5471 4.33935C55.4169 4.38934 55.6669 4.6393 55.6369 5.52916C55.267 5.46917 55.087 5.37918 54.837 5.13922C54.5871 4.89926 54.5871 4.79928 54.5471 4.33935ZM56.1068 6.62898C56.4468 6.12906 56.8167 4.38934 55.187 3.85943C54.787 3.72945 54.2671 3.76944 53.8372 3.74944C53.8672 4.0294 53.9272 4.50932 54.0072 4.78928C54.1571 5.2892 55.3769 6.46901 56.1068 6.62898ZM34.9002 4.51932C35.6901 4.31935 36.36 4.36935 36.5599 5.11923C36.21 5.11923 35.8101 5.13922 35.4601 5.05924C34.9602 4.93925 35.0202 4.87926 34.9002 4.51932ZM35.1502 5.44917C35.5001 5.38918 37.7098 5.60915 38.4996 5.58915L37.6498 5.00924C37.5098 4.87926 37.4098 4.78928 37.2798 4.6493C37.2198 4.58931 37.1998 4.55932 37.1298 4.46933C37.0099 4.27936 37.0799 4.40934 37.0399 4.27936C36.19 4.08939 34.1903 3.59947 33.6204 4.46933C33.7404 4.73929 33.7004 4.6593 33.9104 4.82927L35.1502 5.44917ZM44.2387 4.12938C43.4388 4.08939 42.9389 3.88942 42.609 3.31951C43.4089 3.20953 44.1487 3.28952 44.2387 4.12938ZM45.2186 4.0194C45.1986 3.98941 45.1686 3.96941 45.1486 3.94941L44.9486 3.75944C44.8686 3.66946 44.8386 3.62946 44.7786 3.55947C43.9188 3.01956 43.5488 2.32967 41.5891 2.88958C41.8491 4.20937 44.4087 4.92926 45.5085 4.85927L45.2186 4.0194ZM46.6883 3.24952C47.6182 3.27952 48.0381 3.3795 48.1781 4.23937C47.4482 4.15938 46.8783 3.89942 46.6883 3.24952ZM47.1982 4.33935C47.5582 4.69929 48.778 5.16922 49.4379 5.16922C48.658 3.62946 49.0979 3.02956 46.8983 2.73961L45.7285 2.68961C45.8185 3.68945 46.4384 4.05939 47.1982 4.33935ZM38.6796 3.75944C39.0895 3.59947 39.3495 3.61947 39.7394 3.74944C40.1994 3.91942 40.3193 4.0294 40.4693 4.39934C39.6095 4.44933 38.9796 4.34935 38.6796 3.75944ZM37.5798 3.4095C37.6498 3.9994 37.8997 4.15938 38.4096 4.35935C39.9994 4.98925 41.0392 5.23921 42.8789 5.11923C41.5292 5.2592 41.4092 4.19937 40.6793 3.63946C39.9894 3.09955 38.4196 2.92958 37.5798 3.4095ZM55.4769 2.92958C55.8469 2.39966 56.9867 2.33967 57.5566 2.57963C57.4566 2.7896 57.5266 2.92958 56.6167 3.08955C56.4168 3.11954 56.2268 3.13954 56.0168 3.11954C55.4869 3.06955 55.4769 2.92958 55.4769 2.92958ZM54.1871 3.16954C54.2871 3.24952 54.2271 3.21953 54.4371 3.29952L55.4069 3.51948C56.5767 3.69945 58.5264 3.43949 59.0564 2.35967C58.1465 1.92973 54.997 1.71977 54.1871 3.16954ZM51.2276 2.09971C51.5176 1.47981 52.3974 1.5098 53.0873 1.55979C53.0673 1.94973 52.9573 2.00972 52.4774 2.1497C52.0375 2.27968 51.6175 2.29968 51.2276 2.09971ZM50.0678 2.47965C51.6875 3.3895 54.3371 2.1297 54.807 1.05987C53.2973 1.04988 50.2978 0.919896 50.0678 2.47965ZM73.2941 14.9477C73.804 14.6977 76.5836 12.758 76.8735 12.4281C76.2236 11.8881 74.9938 12.1181 74.3839 12.548C73.674 13.048 73.2341 13.6679 73.2941 14.9477ZM38.0897 2.31967C38.1797 1.68977 38.2097 1.75976 38.6796 1.5198C39.0795 1.31983 39.1295 1.27984 39.6095 1.16986C39.5495 2.07971 38.9496 2.27968 38.0897 2.31967ZM37.2198 2.95957C38.2797 2.99956 39.3895 2.64962 40.0094 2.1497C40.9992 1.33983 40.2993 0.429974 41.5591 0.150019C41.1792 0.100027 37.0699 0.699931 37.2198 2.95957ZM49.8778 3.16954C49.2479 3.89942 52.4874 5.8991 52.7574 5.65914C52.7574 5.65914 53.4173 3.68945 51.2676 3.14954C51.0676 3.08955 50.8477 3.03956 50.6377 3.01956C50.2478 2.98957 50.0778 2.92958 49.8778 3.16954ZM78.7732 26.4558C78.7232 24.9361 80.203 26.3758 80.193 25.136C79.2131 24.7261 78.1833 25.136 78.1133 26.0959C78.0333 27.2257 79.1531 27.1757 79.823 27.5856C79.803 28.2255 79.853 28.2655 79.2431 28.3055C78.8932 28.3255 78.3133 28.2255 78.1433 28.5555C77.9833 29.3954 80.103 29.1054 80.4129 28.2855C80.9429 26.8958 79.4931 26.8358 78.7732 26.4558ZM42.419 1.83975C42.669 1.12986 43.3389 0.949891 44.1987 0.849907C43.9188 1.68977 43.3989 1.80975 42.419 1.83975ZM41.5092 2.33967C42.439 2.7596 44.0088 2.1397 44.6187 1.64978C45.6985 0.779918 44.8186 0.110025 47.0583 0.0200396C45.2086 -0.119938 41.4292 0.469968 41.5092 2.33967ZM46.2684 25.496C46.4784 24.1862 47.8681 24.9861 47.5082 24.2262C47.1782 23.5063 45.9584 24.3862 45.7785 24.7761C45.5685 25.226 45.3285 29.0454 45.8985 29.4453C46.5783 29.2454 46.2584 27.7056 46.2484 26.1959C46.4884 26.1759 46.8483 26.1659 47.0683 26.1359C47.6982 26.0559 47.4282 26.1559 47.5482 25.8359C47.4482 25.576 47.5882 25.576 47.0783 25.506C46.8983 25.476 46.4784 25.496 46.2684 25.496ZM33.8704 3.20953C33.9804 2.46965 34.4703 2.1197 35.2202 1.97973C35.2901 2.82959 34.6902 3.13954 33.8704 3.20953ZM34.2503 1.68977C33.7904 2.41966 32.8805 2.45965 33.1105 3.85943C34.5303 4.11939 35.0202 3.22953 35.8801 2.93957C35.93 2.44965 36.03 2.57963 36.13 2.17969C36.28 1.57979 35.89 1.00988 37.5598 0.489965C36.1 0.509961 34.8602 1.60979 34.2503 1.68977ZM46.8883 1.82975C47.0583 1.08987 47.8881 1.00988 48.638 0.979886C48.3581 1.71977 47.8181 1.81975 46.8883 1.82975ZM45.7785 1.90974L45.7985 2.30967L47.8281 2.25968C48.488 2.04972 48.858 2.03972 49.3579 1.5198C49.3979 1.47981 49.4979 1.35983 49.5279 1.32983C50.5177 0.180014 50.0678 0.51996 52.3774 0.369984C50.5977 0.0400364 46.4684 0.260001 45.7785 1.90974ZM28.0913 13.7279C28.8512 14.2278 28.7612 14.3678 28.7312 15.2676L28.4512 15.5076C27.7613 16.0275 26.9815 15.6775 26.7715 15.1776C26.3316 14.1478 27.1814 13.7079 28.0913 13.7279ZM29.991 15.5076C30.221 15.1676 30.181 14.4677 30.051 14.0278C29.911 13.5379 29.711 13.2479 29.3811 13.098C28.5312 11.8182 26.3516 12.2481 25.7217 13.4979C24.7518 13.9078 25.2118 18.2271 29.1011 16.7874C29.5211 16.2774 29.701 16.3774 29.991 15.5076ZM62.1359 26.2259C62.6358 25.7359 63.8056 26.0359 64.0456 27.1457C64.1055 28.2255 63.2257 28.9454 62.1459 28.4555C61.206 28.0356 61.226 26.4458 62.1359 26.2259ZM60.8661 27.8556C61.386 30.0153 65.2654 29.5653 64.6555 26.8058C64.1355 24.4561 60.1862 25.066 60.8661 27.8556ZM52.9273 27.8556C52.4274 25.9759 55.007 25.526 55.3769 27.0557C55.8269 28.9554 53.2773 29.2054 52.9273 27.8556ZM52.2174 27.8556C52.6174 30.1552 56.4968 29.7653 56.0868 27.0457C55.7269 24.6261 51.7275 25.046 52.2174 27.8556ZM5.63488 14.9877C6.00482 13.7578 5.77485 13.8078 7.21462 13.6879C7.50458 14.0778 7.72454 13.9878 7.78453 14.5777C7.82453 14.9976 7.67455 15.3276 7.45459 15.5176C7.14464 15.7975 6.7447 15.8375 6.32477 15.6875C5.90483 15.5376 5.88484 15.2776 5.63488 14.9877ZM8.74438 15.9875C9.06433 15.8075 9.34429 14.7677 9.10432 14.3078C8.94435 13.1879 8.0045 12.3181 6.7347 12.3281C5.55489 12.3381 4.57505 13.2079 4.37508 14.2278C3.83516 17.0373 7.63456 18.1871 8.74438 15.9875ZM70.1146 27.3757C69.9146 25.556 72.3542 25.316 72.6042 26.9157C72.9041 28.7655 70.2946 29.0654 70.1146 27.3757ZM72.6142 25.536C71.1944 25.076 70.1046 25.056 69.5647 26.3658C68.4749 29.0254 72.7842 30.5752 73.2641 27.4657C73.3741 26.8158 73.3041 26.0459 73.3241 25.366C73.3941 23.6063 73.3441 23.7463 72.7242 23.8362C72.4942 24.3462 72.6042 24.9861 72.6142 25.536ZM68.9248 9.6785C70.8045 9.55852 71.5044 10.1884 70.9345 11.9481C70.5545 12.0281 70.6645 12.3581 69.6747 12.4781C68.0149 12.678 67.1251 13.4779 67.0551 15.3876C67.0251 16.2275 67.1651 18.4571 66.9351 19.097C66.6051 20.0068 65.1954 20.2768 64.5255 19.4269C63.8256 18.5371 64.1855 13.9578 64.7055 12.838C65.4653 11.1883 66.8751 10.0784 68.9248 9.6785ZM75.1138 8.03876C75.4437 9.24857 74.9938 9.86847 73.724 9.57851L73.554 9.21857L73.5041 9.29856C73.3041 8.86863 73.1841 8.61867 73.4341 8.15874L73.664 7.84879C74.6539 7.53884 74.4339 7.64882 75.1138 8.03876ZM73.604 7.38886C73.2041 7.7588 73.1041 8.35871 72.7242 8.74865C72.3842 9.09859 71.7643 9.39854 71.1744 9.47853C69.6547 9.6885 68.6848 8.78864 68.3349 7.7988L68.3749 7.7688C67.775 7.1689 68.1649 5.78912 68.5148 5.2592C69.8646 3.25952 73.574 3.56947 73.534 7.1589L73.604 7.38886ZM73.914 6.96893C73.664 5.80912 73.904 5.22921 74.6739 4.74928C76.1036 4.34935 77.2834 5.39918 76.7735 6.74897C76.2536 8.16874 74.7738 7.71881 73.914 6.96893ZM16.5631 13.8078C17.9229 13.1879 18.5528 15.1876 17.443 15.6675C16.1532 16.2375 15.2533 14.4077 16.5631 13.8078ZM16.5931 12.3881C13.1837 13.098 14.4135 17.7072 17.473 17.0873C18.5728 16.8674 19.6426 15.7675 19.3527 14.2678C19.1427 13.1479 18.0129 12.0881 16.5931 12.3881ZM15.9832 21.3466C17.493 21.4666 18.6228 21.3566 19.8526 20.7967C20.8125 20.3568 21.9023 19.4469 22.2322 18.777C23.1021 19.217 24.0419 21.5366 28.4412 21.4066C28.0713 22.2165 26.8115 23.3063 25.9616 23.8262C22.8721 25.7659 19.6726 25.046 17.0731 22.7364C16.6231 22.3465 16.2232 21.6266 15.9832 21.3466ZM62.8657 19.9269C62.2458 20.4468 61.476 19.7269 61.246 19.3969L59.5563 19.9869C52.7774 20.5068 51.4376 12.638 56.3268 10.1584C59.1963 8.69865 61.8559 10.3384 62.9957 12.0581C63.7656 13.2179 63.8556 14.4377 63.8556 15.9875C63.8556 17.5372 64.1955 19.4569 62.8657 19.9269ZM24.6118 10.4284C27.4014 8.26872 30.8808 9.73849 32.2806 11.9181C33.0805 13.1679 33.2905 14.7677 32.8205 16.3174C32.3406 17.9072 31.4808 18.5871 30.3509 19.3869C27.2114 20.9367 24.5119 19.5569 23.2021 17.5472C22.4222 16.3474 22.1722 14.9777 22.5622 13.4179C22.8521 12.2281 23.822 10.8583 24.6118 10.4284ZM15.7933 9.54852C17.343 9.18858 18.9927 9.58851 20.0626 10.3684C24.0219 13.3079 22.3722 19.087 18.1429 19.9269C14.0235 20.7467 10.894 17.1473 11.7839 13.4579L12.1738 12.4081C12.1938 12.3781 12.2038 12.3481 12.2138 12.3281C12.8537 10.9983 14.0835 9.94845 15.7933 9.54852ZM49.4579 15.5876C49.2779 15.7575 49.7178 15.6675 49.0879 15.7875C48.868 15.8275 48.868 15.8075 48.668 15.7375C48.1481 15.5676 47.6782 14.8777 48.3681 14.1278C49.3079 13.5179 49.9878 14.4777 50.7677 14.7977L49.7778 15.4776C49.5079 15.6176 49.7478 15.5376 49.4579 15.5876ZM9.76422 19.117L9.36428 19.267C8.6244 20.1468 5.43491 20.5168 3.46522 18.897C1.80549 17.5472 1.40555 16.2075 1.41555 13.2579C1.41555 11.7782 1.0956 6.75896 1.79549 5.94909C2.49538 5.13922 3.98514 5.40918 4.2551 6.59899C4.47506 7.53884 4.2451 9.18858 4.35508 10.2584C4.94499 9.99845 5.19495 9.61851 6.1448 9.45853C8.21447 9.10859 10.1642 10.2884 11.244 11.8282C12.0439 12.958 10.944 14.1378 11.4539 15.9975C11.7439 17.0473 11.6139 17.1073 11.064 17.8272C10.6941 18.3071 10.3341 18.757 9.76422 19.117ZM47.9981 12.718C47.9881 12.718 47.4082 13.1679 47.2782 13.2779C46.0584 14.8077 46.7983 16.5774 48.2581 17.0673C50.4077 17.7672 50.9676 15.2276 52.5474 16.3374C55.117 18.1271 49.9478 21.4566 46.6083 19.4669C45.1886 18.837 43.7888 17.1973 43.7388 15.0376C43.7088 13.9078 44.0687 12.878 44.5287 12.1181C44.8586 11.5582 45.7585 10.5584 46.3484 10.4384C46.5483 10.2184 46.4284 10.3184 46.7083 10.1484C47.5782 9.6585 49.1379 9.53852 50.1378 9.72849C54.3471 10.5084 53.5172 14.1878 51.3276 13.5279C50.7577 13.3479 50.4977 12.928 49.9078 12.688C49.1579 12.3881 48.708 12.538 47.9981 12.718ZM36.7099 9.62851C39.0595 9.10859 41.0492 10.3184 41.9591 11.4982C43.4288 13.4079 43.0689 14.8077 43.1289 17.5272C43.1589 18.767 43.1289 19.8369 41.9591 20.0168C38.3497 20.5968 42.0491 13.8878 38.6296 12.578C37.5098 12.1481 36.44 12.658 35.97 13.3079C35.4101 14.0678 35.4501 15.2576 35.4701 16.3474C35.5001 17.3373 35.7201 19.047 35.0902 19.6569C34.3803 20.3568 33.0805 20.0468 32.7206 19.197C31.9307 17.2973 34.0903 16.7974 33.1705 13.1479C32.7705 11.5382 35.2102 9.94845 36.7099 9.62851ZM33.0405 6.08907C32.2306 6.30904 31.7407 6.21905 31.2208 5.81911C31.8007 5.44917 32.8405 5.53916 33.0405 6.08907ZM29.911 4.46933C29.901 3.73945 30.4409 3.30951 31.0308 3.16954C31.0908 4.0294 30.7809 4.52932 29.911 4.46933ZM66.8851 4.58931C66.5052 5.57915 66.0952 6.90894 66.5852 8.11875C66.7851 8.58867 66.9951 8.57867 66.9151 8.92862L66.3152 9.09859L65.1154 10.0384C64.7654 10.3484 64.4255 10.8583 64.0556 11.0983C63.8456 10.9283 63.3257 10.2984 63.1557 10.1184C62.8258 9.73849 62.5358 9.54852 62.1059 9.26856C61.366 8.79864 60.3861 8.4287 59.4163 8.30872C56.3768 7.95877 55.257 9.31856 53.8472 10.2184C53.3273 9.91846 53.3073 9.6585 52.7074 9.28856C51.3576 8.44869 49.7878 8.09875 48.1181 8.33871C45.7685 8.68866 44.5187 9.82847 43.4488 11.1883C42.549 9.83847 40.7993 8.4187 38.5296 8.17874C35.0802 7.8088 33.4604 9.97845 32.8405 10.2984C32.2106 10.0284 31.0208 7.88878 27.3814 8.02876C24.7618 8.12875 23.792 9.34855 22.3922 10.6383L21.9223 10.1684C21.7323 9.96845 21.6223 9.88846 21.4524 9.69849C22.2422 8.82863 26.3216 6.98893 27.6914 6.44901C28.0113 6.31903 29.2311 5.81911 29.4311 5.78912C30.091 5.69913 30.3809 6.22905 31.1208 6.42902C32.4506 6.78896 34.1003 6.61899 35.3901 6.41902L34.9702 6.24905C34.6003 6.15906 34.4303 6.30904 34.1903 5.9291C33.7604 5.72913 33.8804 5.64914 33.4304 5.42918C32.0907 4.73929 31.2808 5.2892 30.4209 5.34919C30.6209 4.92926 31.1508 4.78928 31.6007 4.18937C32.6506 2.7696 30.6709 2.19969 33.5504 1.40982C33.4904 1.17985 33.6804 1.41982 33.4304 1.24984C32.4706 1.46981 31.2608 2.05971 30.6409 2.62962C29.711 3.46949 29.0411 3.54948 29.3311 5.41918L24.9718 7.28888C24.2919 7.64882 23.672 7.97877 22.9621 8.36871C22.5722 8.57867 22.3522 8.66866 21.9623 8.90862C21.6623 9.08859 21.4124 9.30856 21.0924 9.42854C21.0724 9.41854 21.0424 9.39854 21.0224 9.38854C21.0124 9.37855 20.9824 9.34855 20.9624 9.33855C20.3325 8.91862 19.6426 8.50869 18.9328 8.29872C17.173 7.7788 15.1334 8.00876 13.5836 8.94862C12.1138 9.83847 12.5238 9.84847 11.8639 10.3684C9.81421 8.15874 8.31445 8.08875 5.72486 8.08875C5.66487 7.28888 5.70487 6.45901 5.43491 5.76912C4.80501 4.17938 2.19543 3.25952 0.575684 5.31919C-0.224188 6.32903 0.0557673 8.47869 0.0557673 9.93846C0.0557673 11.6182 0.00577523 13.3679 0.0557673 15.0376C0.195745 19.5769 4.90499 22.4265 8.76438 21.1067C11.004 20.3368 11.044 19.6369 11.8539 19.117C12.3738 19.6169 12.9637 20.1568 13.6136 20.5068C13.1037 20.9167 11.264 21.8466 12.5238 23.8462C13.1537 24.8661 14.0735 25.606 14.9134 26.4358C16.3132 27.8356 19.5227 29.1454 22.2822 29.1554C26.2316 29.1554 30.3409 26.5858 32.0207 23.7163C32.3606 23.1364 32.6006 22.5264 32.3706 21.7966C32.0807 20.8367 31.5507 20.9067 31.2608 20.3568C32.0307 20.0768 31.7807 20.4568 32.4206 20.9167C33.5304 21.7066 35.4201 21.6066 36.32 20.2968C37.4998 18.5871 36.15 15.2276 37.3098 13.8578C39.1595 13.6279 38.8496 14.9577 38.8396 16.4574C38.8296 17.6772 38.6196 19.037 39.2295 20.0368C39.7094 20.8167 40.6093 21.5366 41.9491 21.4066C43.5788 21.2367 43.8288 20.2468 44.3487 19.6469C45.8185 20.5568 46.6983 21.4566 49.2179 21.4266C51.3876 21.4066 52.8173 20.4768 53.8472 19.4769C54.4771 19.8869 54.877 20.3468 55.8069 20.7967C56.5967 21.1867 57.4666 21.4266 58.4764 21.4166C59.4463 21.4166 60.5961 20.9467 61.326 21.2067C62.5058 21.6266 62.8857 21.4466 63.8656 21.0067C64.3555 20.7867 64.3555 21.0767 64.9754 21.2267C65.4253 21.3466 65.9852 21.3366 66.4252 21.2167C70.1346 20.1868 67.1151 14.4577 69.1247 14.0978C68.9548 18.2671 71.9143 21.5266 76.1636 21.2467C79.5831 21.0367 84.0824 17.1273 80.9629 14.1178C83.0725 11.0183 79.1032 8.69865 77.7734 8.4287C78.1033 7.63882 78.5033 7.48885 78.5632 6.37902C78.6832 4.15938 76.7235 2.28968 74.1339 3.16954C73.2841 3.45949 73.2041 2.84959 72.2742 2.54964C68.6948 1.38982 67.0751 4.47933 66.8851 4.58931Z" fill="#204D6C"/>
<path fill-rule="evenodd" clip-rule="evenodd" d="M29.251 24.856C32.5205 21.8865 30.5208 21.0867 29.5909 22.2365C28.8911 23.0963 28.8511 23.2163 27.9812 24.0662C25.2916 26.6758 20.7524 26.9657 17.6229 24.916C14.4634 22.8364 15.3632 21.5366 13.6935 22.0165C13.4435 22.5864 13.4135 22.7164 13.8035 23.2763C14.3634 24.0562 15.6732 25.356 16.433 25.8759C20.7324 28.7954 25.5016 28.2755 29.251 24.856Z" fill="url(#paint0_linear)"/>
<path fill-rule="evenodd" clip-rule="evenodd" d="M76.7735 6.74896C77.2834 5.39918 76.1036 4.34935 74.6738 4.74928C73.904 5.22921 73.664 5.80911 73.914 6.96893C74.7738 7.71881 76.2536 8.16874 76.7735 6.74896ZM73.724 9.57851C74.9938 9.86846 75.4437 9.24856 75.1138 8.03876C74.4339 7.64882 74.6538 7.53884 73.664 7.84879L73.434 8.15874C73.1841 8.61866 73.3041 8.86862 73.504 9.29856L73.554 9.21857L73.724 9.57851ZM73.534 7.1589C73.574 3.56947 69.8646 3.25952 68.5148 5.2592C68.1649 5.78912 67.7749 7.1689 68.3748 7.7688L68.3349 7.79879C68.6848 8.78864 69.6546 9.68849 71.1744 9.47853C71.7643 9.39854 72.3842 9.09859 72.7242 8.74864C73.1041 8.35871 73.2041 7.7588 73.604 7.38886L73.534 7.1589Z" fill="white" stroke="#FB9B09" stroke-width="0.24996"/>
<path fill-rule="evenodd" clip-rule="evenodd" d="M48.2581 17.0673C46.7983 16.5774 46.0584 14.8077 47.2782 13.2779C47.4082 13.168 47.9881 12.718 47.9981 12.718C48.708 12.5381 49.1579 12.3881 49.9078 12.688C50.4977 12.928 50.7577 13.3479 51.3276 13.5279C53.5172 14.1878 54.3471 10.5084 50.1378 9.72851C49.1379 9.53854 47.5782 9.65852 46.7083 10.1484C46.4284 10.3184 46.5484 10.2184 46.3484 10.4384C45.7585 10.5584 44.8586 11.5582 44.5287 12.1181C44.0688 12.878 43.7088 13.9078 43.7388 15.0377C43.7888 17.1973 45.1886 18.8371 46.6084 19.467C49.9478 21.4566 55.117 18.1272 52.5474 16.3375C50.9677 15.2276 50.4077 17.7672 48.2581 17.0673ZM78.7332 14.9977C77.5934 15.3476 78.0033 17.5973 74.8039 16.9674C75.1138 16.4674 79.0632 13.9578 79.6631 13.4379C81.6328 11.7282 78.1333 9.7685 76.3836 9.45855C75.2538 9.41856 75.6137 9.36857 74.9638 9.8085C74.4339 10.1584 74.064 9.94847 73.4341 9.91848C73.2141 10.1384 72.7142 10.3884 72.4442 10.6084C72.2843 10.7383 72.1243 10.8883 71.9443 11.0583C71.7143 11.2783 71.7443 11.2283 71.5444 11.5282C71.4544 11.6782 71.2744 11.8882 71.2144 11.9582C70.7645 13.078 70.3946 13.6879 70.4945 15.1476C70.7445 18.6271 74.3139 20.7068 77.4034 19.5969C78.7832 19.107 81.7627 16.9374 80.243 15.3476C79.923 15.0177 79.3331 14.8077 78.7332 14.9977ZM76.8735 12.4281C76.5836 12.758 73.804 14.6977 73.2941 14.9477C73.2341 13.6679 73.674 13.048 74.3839 12.5481C74.9938 12.1181 76.2236 11.8882 76.8735 12.4281ZM66.9351 19.097C67.1651 18.4571 67.0251 16.2275 67.0551 15.3876C67.1251 13.4779 68.0149 12.678 69.6747 12.4781C70.6645 12.3581 70.5545 12.0281 70.9345 11.9482C71.5044 10.1884 70.8045 9.55853 68.9248 9.67852C66.8751 10.0785 65.4653 11.1883 64.7055 12.838C64.1855 13.9578 63.8256 18.5371 64.5255 19.427C65.1954 20.2768 66.6052 20.0069 66.9351 19.097ZM62.8658 19.9269C64.1955 19.457 63.8556 17.5373 63.8556 15.9875C63.8556 14.4378 63.7656 13.218 62.9957 12.0581C61.8559 10.3384 59.1963 8.69867 56.3268 10.1584C51.4376 12.638 52.7774 20.5068 59.5563 19.9869L61.246 19.397C61.476 19.7269 62.2459 20.4468 62.8658 19.9269ZM60.7261 16.0375C60.3562 16.3674 60.1862 16.8774 59.5863 16.9074C59.4463 17.0273 59.6363 16.9674 59.2463 17.1173C59.1264 17.1573 59.0764 17.1673 58.9364 17.1873C58.7064 17.2173 58.5664 17.2073 58.3565 17.1773C55.9169 16.7874 55.7269 13.9678 56.9867 13.2479C57.5266 11.9682 61.8859 12.1081 60.7261 16.0375Z" fill="white"/>
</g>
<defs>
<linearGradient id="paint0_linear" x1="24.6256" y1="26.9444" x2="24.6311" y2="23.3443" gradientUnits="userSpaceOnUse">
<stop stop-color="#FB9B09"/>
<stop offset="0.419608" stop-color="#FDBF09"/>
<stop offset="1" stop-color="#FFE309"/>
</linearGradient>
<clipPath id="clip0">
<rect width="82.0184" height="29.4453" fill="white"/>
</clipPath>
</defs>
</svg>
