<svg width="205" height="248" viewBox="0 0 205 248" fill="none" xmlns="http://www.w3.org/2000/svg">
<path d="M47.0713 4.96875L42.9378 2.90782L43.2197 7.51801L47.0713 4.96875ZM199.962 247.607L202.197 243.566L197.579 243.651L199.962 247.607ZM43.4513 4.78939C41.0941 4.94642 38.8465 5.1226 36.7057 5.31783L36.7783 6.11453C38.9121 5.91993 41.1532 5.74426 43.5045 5.58762L43.4513 4.78939ZM16.6886 8.38559C11.5671 9.65922 7.76589 11.2034 5.16417 13.0285C2.55414 14.8595 1.1294 16.9907 0.824888 19.4216L1.61868 19.5211C1.88796 17.3714 3.14524 15.4221 5.6236 13.6835C8.11028 11.939 11.8038 10.4247 16.8816 9.16195L16.6886 8.38559ZM10.9363 36.7071C15.0443 40.7034 20.258 45.0468 26.3049 49.7254L26.7944 49.0927C20.7578 44.422 15.5709 40.0996 11.4941 36.1336L10.9363 36.7071ZM42.5888 61.8161C47.7616 65.5516 53.2537 69.4576 58.9657 73.5293L59.4301 72.8779C53.7169 68.8054 48.2274 64.9012 43.0571 61.1675L42.5888 61.8161ZM75.4151 85.3307C80.7464 89.1956 86.1793 93.1876 91.6471 97.3042L92.1283 96.6651C86.6557 92.5449 81.2187 88.55 75.8847 84.683L75.4151 85.3307ZM107.639 109.667C112.877 113.837 118.088 118.12 123.213 122.512L123.733 121.904C118.6 117.505 113.382 113.217 108.137 109.041L107.639 109.667ZM138.241 135.99C143.166 140.628 147.944 145.375 152.515 150.229L153.098 149.68C148.514 144.814 143.725 140.055 138.79 135.407L138.241 135.99ZM165.805 165.424C170.086 170.733 174.072 176.156 177.696 181.689L178.365 181.251C174.725 175.693 170.723 170.249 166.428 164.921L165.805 165.424ZM187.678 199.167C190.654 205.283 193.141 211.52 195.058 217.876L195.824 217.645C193.893 211.245 191.39 204.967 188.397 198.817L187.678 199.167ZM199.043 237.546C199.264 239.693 199.416 241.852 199.496 244.023L200.295 243.994C200.215 241.805 200.062 239.628 199.839 237.464L199.043 237.546ZM47.0713 4.96875L38.7809 0.894031L39.3973 10.111L47.0713 4.96875ZM199.962 247.607L204.284 239.443L195.052 239.782L199.962 247.607ZM39.8248 4.65162C38.7483 4.73651 37.6966 4.8258 36.6693 4.91949L36.8147 6.51287C37.8351 6.41981 38.8803 6.33107 39.9505 6.24666L39.8248 4.65162ZM16.592 7.99742C11.4487 9.27648 7.59369 10.8356 4.93446 12.7011C2.25859 14.5782 0.75012 16.8003 0.427989 19.3719L2.01558 19.5708C2.26724 17.5618 3.44079 15.7033 5.85332 14.0109C8.28247 12.3069 11.9222 10.8075 16.9782 9.55012L16.592 7.99742ZM10.6573 36.9938C14.781 41.0053 20.0082 45.3592 26.0601 50.0418L27.0392 48.7763C21.0077 44.1096 15.8342 39.7977 11.773 35.8469L10.6573 36.9938ZM42.3546 62.1404C47.5287 65.8768 53.0221 69.7838 58.7335 73.855L59.6623 72.5521C53.9485 68.4792 48.4603 64.576 43.2913 60.8432L42.3546 62.1404ZM75.1804 85.6545C80.5102 89.5185 85.9411 93.509 91.4065 97.6238L92.3689 96.3455C86.8938 92.2235 81.4549 88.2271 76.1195 84.3591L75.1804 85.6545ZM107.389 109.98C112.625 114.148 117.832 118.427 122.952 122.816L123.993 121.601C118.857 117.198 113.634 112.906 108.386 108.728L107.389 109.98ZM137.967 136.281C142.887 140.915 147.659 145.656 152.224 150.503L153.389 149.406C148.799 144.533 144.004 139.769 139.064 135.116L137.967 136.281ZM165.493 165.675C169.767 170.975 173.746 176.387 177.361 181.909L178.7 181.032C175.052 175.462 171.042 170.007 166.739 164.67L165.493 165.675ZM187.318 199.342C190.286 205.441 192.765 211.658 194.675 217.991L196.207 217.529C194.27 211.107 191.758 204.81 188.757 198.642L187.318 199.342ZM198.645 237.587C198.744 238.546 198.829 239.507 198.9 240.471L200.495 240.354C200.423 239.374 200.337 238.397 200.237 237.423L198.645 237.587Z" fill="#4CB9B2"/>
</svg>
