<svg width="458" height="499" viewBox="0 0 458 499" fill="none" xmlns="http://www.w3.org/2000/svg">
<path d="M89.0267 390.018C166.753 434.33 292.762 434.33 370.397 390.018C448.124 345.707 448.124 273.851 370.397 229.54C292.671 185.229 166.662 185.229 89.0267 229.54C11.3915 273.851 11.3915 345.707 89.0267 390.018Z" fill="#F5F5F5"/>
<path d="M60.0396 315.667C60.0396 315.667 63.2401 305.987 63.9716 295.508C64.7032 285.029 60.0396 268.861 51.4439 263.472C42.8482 258.083 38.2761 264.769 41.1108 270.458C43.9456 276.246 53.6385 292.414 53.8214 306.386L60.0396 315.667Z" fill="#27DEBF"/>
<path d="M57.0218 315.468C56.6561 315.368 56.5646 315.168 56.5646 314.869V314.769C57.2962 309.979 58.3021 303.492 56.9304 291.616C55.4673 278.242 51.4438 272.055 47.7861 267.763C47.6032 267.564 47.6032 267.264 47.7861 267.065C47.969 266.865 48.2433 266.865 48.4262 267.065C52.2668 271.456 56.3817 277.843 57.8448 291.516C59.125 303.492 58.1192 310.079 57.3876 314.969V315.069C57.4791 315.268 57.2962 315.468 57.0218 315.468Z" fill="white"/>
<path d="M55.193 321.655C54.2785 316.765 50.8951 311.176 44.4941 307.883C38.0931 304.59 31.4178 302.693 30.229 298.502C29.0402 294.31 33.0637 289.42 41.4765 291.516C49.8893 293.512 58.8507 307.085 58.302 316.266L55.193 321.655Z" fill="#27DEBF"/>
<path d="M57.0219 318.961C56.839 318.961 56.5647 318.761 56.5647 318.562C54.8272 306.187 45.2257 296.706 37.6359 296.007C37.3616 296.007 37.1787 295.708 37.1787 295.508C37.1787 295.209 37.453 295.009 37.6359 295.009C45.5 295.807 55.5588 305.588 57.3876 318.462C57.5705 318.662 57.3876 318.961 57.0219 318.961C57.1133 318.961 57.1133 318.961 57.0219 318.961Z" fill="white"/>
<path d="M368.569 226.845C368.569 226.845 364.271 216.566 365.002 207.684C365.734 198.702 368.66 190.219 375.701 184.231C382.742 178.243 388.137 180.937 389.326 183.133C390.515 185.329 390.515 189.62 385.303 194.211C380.09 198.901 374.421 211.576 375.975 224.35L373.598 231.835L368.569 226.845Z" fill="#27DEBF"/>
<path d="M371.129 227.843C370.946 227.843 370.855 227.744 370.763 227.544C369.026 223.951 368.751 209.081 371.586 200.798C375.061 190.718 381.371 185.029 386.126 183.033C386.4 182.933 386.583 183.033 386.674 183.333C386.766 183.632 386.674 183.832 386.4 183.931C381.828 185.828 375.793 191.317 372.409 201.097C369.666 208.981 369.849 223.652 371.495 226.945C371.586 227.145 371.495 227.444 371.312 227.644C371.312 227.843 371.22 227.843 371.129 227.843Z" fill="white"/>
<path d="M388.778 248.402C389.509 243.312 389.601 240.119 393.99 237.025C398.379 233.931 402.311 231.636 402.586 227.145C402.86 222.654 400.208 217.564 400.299 213.672C400.482 209.78 402.677 207.883 407.249 204.49C411.913 201.097 416.576 195.209 412.096 191.017C407.523 186.826 400.757 190.718 397.648 193.612C394.539 196.506 392.07 197.604 387.315 196.207C382.559 194.81 377.987 198.402 379.085 204.989C380.182 211.576 379.633 214.57 375.793 214.37C371.952 214.171 366.374 218.462 370.855 228.442L388.778 248.402Z" fill="#27DEBF"/>
<path d="M379.085 238.023C378.81 238.023 378.627 237.723 378.627 237.424C380.822 217.464 398.928 196.107 407.158 193.013C407.432 192.913 407.615 193.013 407.706 193.313C407.798 193.612 407.706 193.812 407.432 193.911C399.385 196.905 381.645 217.963 379.542 237.524C379.542 237.923 379.359 238.023 379.085 238.023Z" fill="white"/>
<path d="M386.949 216.067C386.766 216.067 386.583 215.967 386.491 215.668C384.571 208.782 383.931 201.995 383.931 201.995C383.931 201.696 384.114 201.496 384.297 201.496C384.571 201.496 384.754 201.696 384.754 201.895C384.754 201.995 385.394 208.582 387.314 215.368C387.406 215.668 387.223 215.867 387.04 215.967C387.04 216.067 386.949 216.067 386.949 216.067Z" fill="white"/>
<path d="M381.828 226.846C381.645 226.846 381.462 226.746 381.371 226.546C381.279 226.247 381.371 226.047 381.645 225.848C389.875 221.856 397.465 224.65 397.83 224.85C398.105 224.949 398.196 225.249 398.105 225.448C398.013 225.748 397.739 225.848 397.556 225.748C397.465 225.748 389.966 222.953 382.011 226.746C381.919 226.846 381.919 226.846 381.828 226.846Z" fill="white"/>
<path d="M259.477 127.744L237.165 113.672L214.944 127.744L237.165 141.716L259.477 127.744Z" fill="#F5F5F5"/>
<path d="M237.165 169.86L259.477 155.788V127.744L237.165 141.716V169.86Z" fill="#EBEBEB"/>
<path d="M241.462 160.578C241.371 160.578 241.188 160.578 241.097 160.478C240.822 160.279 240.639 159.979 240.639 159.48V156.486V156.287H240.822L242.925 154.889V158.183C242.925 158.981 242.468 159.979 241.828 160.378C241.828 160.478 241.645 160.578 241.462 160.578ZM241.097 156.686V159.48C241.097 159.78 241.188 160.079 241.371 160.179C241.554 160.279 241.737 160.179 241.828 160.079C242.285 159.78 242.743 158.981 242.743 158.183V157.983H241.92L241.737 156.786L241.097 156.686ZM242.194 157.584H242.651V155.488L241.371 156.287L242.011 156.386L242.194 157.584Z" fill="white"/>
<path d="M241.828 162.874C241.737 162.874 241.645 162.774 241.645 162.674V160.179C241.645 160.079 241.737 159.979 241.828 159.979C241.92 159.979 242.011 160.079 242.011 160.179V162.674C242.011 162.774 241.92 162.874 241.828 162.874Z" fill="white"/>
<path d="M240.822 163.572C240.731 163.572 240.731 163.572 240.639 163.472C240.548 163.372 240.639 163.273 240.731 163.173L242.743 161.875C242.834 161.875 242.926 161.875 243.017 161.975C243.108 162.075 243.017 162.175 242.926 162.275L240.822 163.572C240.914 163.472 240.914 163.572 240.822 163.572Z" fill="white"/>
<path d="M247.955 159.181C247.863 159.181 247.863 159.181 247.772 159.081C247.681 158.981 247.589 158.882 247.589 158.582V158.083C247.589 157.983 247.681 157.884 247.772 157.884C247.863 157.884 247.955 157.983 247.955 158.083V158.582C247.955 158.682 247.955 158.682 247.955 158.682H248.046C248.229 158.582 248.321 158.183 248.321 157.884V154.69C248.321 154.59 248.412 154.49 248.504 154.49C248.595 154.49 248.686 154.59 248.686 154.69V157.983C248.686 158.482 248.504 158.981 248.229 159.181C248.138 159.181 248.046 159.181 247.955 159.181Z" fill="white"/>
<path d="M246.126 156.287V155.987C246.126 154.49 247.132 152.594 248.321 151.796C248.961 151.397 249.509 151.397 249.967 151.596C250.424 151.896 250.698 152.494 250.698 153.293V153.393L246.126 156.287ZM249.418 151.896C249.144 151.896 248.869 151.995 248.595 152.195C247.589 152.794 246.675 154.391 246.583 155.688L250.424 153.293C250.424 152.694 250.241 152.295 249.875 152.095C249.692 151.896 249.509 151.896 249.418 151.896Z" fill="white"/>
<path d="M254.082 155.389C253.99 155.389 253.899 155.289 253.899 155.189V148.802C253.899 148.702 253.99 148.602 254.082 148.602C254.173 148.602 254.264 148.702 254.264 148.802V155.189C254.264 155.289 254.173 155.389 254.082 155.389Z" fill="white"/>
<path d="M253.624 150.299C253.624 150.299 253.533 150.299 253.624 150.299C253.441 150.199 253.441 150.099 253.441 149.999L254.082 148.502L254.722 149.401C254.813 149.5 254.813 149.6 254.722 149.7C254.63 149.8 254.539 149.8 254.447 149.7L254.082 149.301L253.716 150.299C253.716 150.299 253.716 150.299 253.624 150.299Z" fill="white"/>
<path d="M255.728 154.391C255.636 154.391 255.545 154.291 255.545 154.191V147.804C255.545 147.704 255.636 147.604 255.728 147.604C255.819 147.604 255.91 147.704 255.91 147.804V154.191C255.91 154.291 255.819 154.391 255.728 154.391Z" fill="white"/>
<path d="M255.179 149.301C254.996 149.201 254.996 149.101 254.996 149.001L255.636 147.504L256.276 148.403C256.368 148.502 256.368 148.602 256.276 148.702C256.185 148.802 256.093 148.802 256.002 148.702L255.636 148.303L255.27 149.301C255.362 149.301 255.27 149.301 255.179 149.301Z" fill="white"/>
<path d="M237.165 169.86L214.853 155.788L214.944 127.744L237.165 141.716V169.86Z" fill="#E0E0E0"/>
<path d="M227.289 135.529L249.509 121.457L247.04 119.86L224.728 133.932L227.289 135.529Z" fill="white"/>
<path d="M218.327 143.812L226.283 148.802C227.197 149.401 227.837 150.698 227.837 151.796V157.185C227.837 158.283 227.106 158.782 226.283 158.183L218.327 153.193C217.413 152.594 216.773 151.297 216.773 150.199V144.81C216.681 143.712 217.413 143.313 218.327 143.812Z" fill="#27DEBF"/>
<path d="M217.687 145.209L217.962 145.309V151.297L217.687 151.097V145.209Z" fill="#27DEBF"/>
<path d="M218.876 145.908L219.425 146.307V152.195L218.876 151.896V145.908Z" fill="#27DEBF"/>
<path d="M220.156 146.706L220.431 146.906V152.894L220.156 152.694V146.706Z" fill="#27DEBF"/>
<path d="M221.071 147.305L221.711 147.704V153.692L221.071 153.293V147.305Z" fill="#27DEBF"/>
<path d="M222.625 148.303L222.9 148.503V154.391L222.625 154.191V148.303Z" fill="#27DEBF"/>
<path d="M223.448 148.802L224.18 149.201V155.189L223.448 154.79V148.802Z" fill="#27DEBF"/>
<path d="M225.094 149.8L225.369 149.999V155.987L225.094 155.788V149.8Z" fill="#27DEBF"/>
<path d="M225.734 150.299L225.917 150.399V156.287L225.734 156.187V150.299Z" fill="#27DEBF"/>
<path d="M224.545 149.5L224.637 149.6V155.588L224.545 155.488V149.5Z" fill="#27DEBF"/>
<path d="M221.985 147.904L222.168 148.003V153.991L221.985 153.892V147.904Z" fill="#27DEBF"/>
<path d="M220.705 147.105H220.796V153.093L220.705 152.993V147.105Z" fill="#27DEBF"/>
<path d="M219.699 146.506L219.79 146.606V152.494L219.699 152.395V146.506Z" fill="#27DEBF"/>
<path d="M218.327 145.608L218.51 145.708V151.696L218.327 151.596V145.608Z" fill="#27DEBF"/>
<path d="M226.283 150.598L226.649 150.798V156.786L226.283 156.586V150.598Z" fill="#27DEBF"/>
<path d="M229.758 123.053L203.788 106.686L177.727 123.053L203.788 139.421L229.758 123.053Z" fill="#F5F5F5"/>
<path d="M192.632 132.435L218.602 115.968L216.133 114.471L190.071 130.838L192.632 132.435Z" fill="white"/>
<path d="M203.788 190.917L229.758 174.55V123.053L203.788 139.421V190.917Z" fill="#EBEBEB"/>
<path d="M208.086 181.636C207.994 181.636 207.811 181.636 207.72 181.536C207.446 181.337 207.263 181.037 207.263 180.538V177.544V177.345H207.446L209.549 175.947V179.241C209.549 180.039 209.092 181.037 208.451 181.436C208.36 181.536 208.177 181.636 208.086 181.636ZM207.628 177.744V180.538C207.628 180.838 207.72 181.137 207.903 181.237C208.086 181.337 208.269 181.237 208.36 181.137C208.817 180.838 209.274 180.039 209.274 179.241V179.041H208.451L208.269 177.844L207.628 177.744ZM208.726 178.642H209.183V176.646L207.903 177.444L208.543 177.544L208.726 178.642Z" fill="white"/>
<path d="M208.451 183.931C208.36 183.931 208.269 183.832 208.269 183.732V181.237C208.269 181.137 208.36 181.037 208.451 181.037C208.543 181.037 208.634 181.137 208.634 181.237V183.732C208.634 183.931 208.543 183.931 208.451 183.931Z" fill="white"/>
<path d="M207.446 184.63C207.354 184.63 207.354 184.63 207.263 184.53C207.171 184.43 207.263 184.331 207.354 184.231L209.366 182.933C209.457 182.834 209.549 182.933 209.64 183.033C209.732 183.133 209.64 183.233 209.549 183.333L207.446 184.63C207.537 184.63 207.446 184.63 207.446 184.63Z" fill="white"/>
<path d="M214.487 180.339C214.395 180.339 214.395 180.339 214.304 180.239C214.213 180.139 214.121 180.039 214.121 179.74V179.241C214.121 179.141 214.213 179.041 214.304 179.041C214.395 179.041 214.487 179.141 214.487 179.241V179.74C214.487 179.84 214.487 179.84 214.487 179.84H214.578C214.761 179.74 214.853 179.341 214.853 179.041V175.748C214.853 175.648 214.944 175.548 215.036 175.548C215.127 175.548 215.218 175.648 215.218 175.748V179.041C215.218 179.54 215.036 180.039 214.761 180.239C214.67 180.239 214.578 180.339 214.487 180.339Z" fill="white"/>
<path d="M212.749 177.345V177.045C212.749 175.548 213.755 173.652 214.944 172.854C215.584 172.454 216.133 172.454 216.59 172.654C217.047 172.953 217.321 173.552 217.321 174.351V174.45L212.749 177.345ZM215.95 172.953C215.675 172.953 215.401 173.053 215.127 173.253C214.121 173.852 213.206 175.448 213.115 176.746L216.956 174.351C216.956 173.752 216.773 173.353 216.407 173.153C216.316 172.953 216.133 172.953 215.95 172.953Z" fill="white"/>
<path d="M220.705 176.446C220.613 176.446 220.522 176.347 220.522 176.247V169.86C220.522 169.76 220.613 169.66 220.705 169.66C220.796 169.66 220.888 169.76 220.888 169.86V176.247C220.888 176.347 220.796 176.446 220.705 176.446Z" fill="white"/>
<path d="M220.156 171.357C219.973 171.257 219.973 171.157 219.973 171.057L220.613 169.56L221.253 170.458C221.345 170.558 221.345 170.658 221.253 170.758C221.162 170.858 221.07 170.858 220.979 170.758L220.613 170.359L220.247 171.357C220.339 171.357 220.247 171.357 220.156 171.357Z" fill="white"/>
<path d="M222.259 175.449C222.168 175.449 222.076 175.349 222.076 175.249V168.862C222.076 168.762 222.168 168.662 222.259 168.662C222.351 168.662 222.442 168.762 222.442 168.862V175.249C222.442 175.349 222.351 175.449 222.259 175.449Z" fill="white"/>
<path d="M221.802 170.359C221.711 170.359 221.711 170.359 221.802 170.359C221.619 170.259 221.619 170.159 221.619 170.059L222.259 168.562L222.899 169.46C222.991 169.56 222.991 169.66 222.899 169.76C222.808 169.86 222.716 169.86 222.625 169.76L222.259 169.361L221.893 170.359H221.802Z" fill="white"/>
<path d="M203.788 190.917L177.727 174.55V123.053L203.788 139.421V190.917Z" fill="#E0E0E0"/>
<path d="M183.03 163.772L190.986 168.762C191.9 169.361 192.54 170.658 192.54 171.756V177.145C192.54 178.243 191.809 178.742 190.986 178.143L183.03 173.153C182.116 172.554 181.476 171.257 181.476 170.159V164.77C181.476 163.672 182.207 163.273 183.03 163.772Z" fill="#F5F5F5"/>
<path d="M182.39 165.169L182.756 165.369V171.357L182.39 171.157V165.169Z" fill="#E0E0E0"/>
<path d="M183.67 165.967L184.219 166.267V172.255L183.67 171.856V165.967Z" fill="#E0E0E0"/>
<path d="M184.859 166.766L185.225 166.866V172.854L184.859 172.654V166.766Z" fill="#E0E0E0"/>
<path d="M185.865 167.265L186.414 167.664V173.652L185.865 173.253V167.265Z" fill="#E0E0E0"/>
<path d="M187.328 168.263L187.694 168.462V174.45L187.328 174.251V168.263Z" fill="#E0E0E0"/>
<path d="M188.242 168.862L188.883 169.261V175.249L188.242 174.75V168.862Z" fill="#E0E0E0"/>
<path d="M189.797 169.86L190.163 170.059V175.947L189.797 175.748V169.86Z" fill="#E0E0E0"/>
<path d="M190.529 170.259L190.711 170.359V176.347L190.529 176.247V170.259Z" fill="#E0E0E0"/>
<path d="M189.248 169.46L189.431 169.56V175.548L189.248 175.448V169.46Z" fill="#E0E0E0"/>
<path d="M186.78 167.864L186.962 167.963V173.951L186.78 173.852V167.864Z" fill="#E0E0E0"/>
<path d="M185.408 167.065L185.591 167.165V173.153L185.408 173.053V167.065Z" fill="#E0E0E0"/>
<path d="M184.402 166.466L184.585 166.566V172.554L184.402 172.454V166.466Z" fill="#E0E0E0"/>
<path d="M183.122 165.568L183.305 165.668V171.656L183.122 171.556V165.568Z" fill="#E0E0E0"/>
<path d="M191.077 170.558L191.351 170.758V176.746L191.077 176.546V170.558Z" fill="#E0E0E0"/>
<path d="M190.071 137.425L192.632 139.022V132.435L190.071 130.838V137.425Z" fill="#F0F0F0"/>
<path d="M151.757 176.846L133.194 165.169L107.133 181.536L125.787 193.213L151.757 176.846Z" fill="#F5F5F5"/>
<path d="M125.787 240.019L151.757 223.652V176.845L125.787 193.213V240.019Z" fill="#EBEBEB"/>
<path d="M130.086 230.738C129.995 230.738 129.812 230.738 129.72 230.638C129.446 230.438 129.263 230.139 129.263 229.64V226.646V226.446H129.446L131.549 225.049V228.342C131.549 229.141 131.092 230.139 130.452 230.538C130.361 230.738 130.178 230.738 130.086 230.738ZM129.629 226.845V229.64C129.629 229.939 129.72 230.239 129.903 230.338C130.086 230.438 130.269 230.338 130.361 230.239C130.818 229.939 131.275 229.141 131.275 228.342V228.143H130.452L130.269 226.945L129.629 226.845ZM130.726 227.843H131.184V225.748L129.903 226.546L130.543 226.646L130.726 227.843Z" fill="white"/>
<path d="M130.45 233.133C130.359 233.133 130.268 233.033 130.268 232.933V230.438C130.268 230.338 130.359 230.239 130.45 230.239C130.542 230.239 130.633 230.338 130.633 230.438V232.933C130.633 233.033 130.542 233.133 130.45 233.133Z" fill="white"/>
<path d="M129.445 233.732C129.353 233.732 129.353 233.732 129.262 233.632C129.17 233.532 129.262 233.432 129.353 233.332L131.365 232.035C131.456 231.935 131.548 232.035 131.639 232.135C131.731 232.235 131.639 232.334 131.548 232.434L129.445 233.732C129.536 233.732 129.445 233.732 129.445 233.732Z" fill="white"/>
<path d="M136.486 229.44C136.394 229.44 136.394 229.44 136.303 229.34C136.211 229.24 136.12 229.141 136.12 228.841V228.342C136.12 228.242 136.211 228.143 136.303 228.143C136.394 228.143 136.486 228.242 136.486 228.342V228.841C136.486 228.941 136.486 228.941 136.486 228.941H136.577C136.76 228.841 136.851 228.442 136.851 228.143V224.849C136.851 224.749 136.943 224.65 137.034 224.65C137.126 224.65 137.217 224.749 137.217 224.849V228.143C137.217 228.642 137.034 229.141 136.76 229.34C136.669 229.44 136.577 229.44 136.486 229.44Z" fill="white"/>
<path d="M134.748 226.546V226.247C134.748 224.75 135.754 222.853 136.943 222.055C137.583 221.656 138.132 221.656 138.589 221.855C139.046 222.155 139.32 222.754 139.32 223.552V223.652L134.748 226.546ZM137.949 222.055C137.674 222.055 137.4 222.155 137.126 222.354C136.12 222.953 135.205 224.55 135.114 225.847L138.955 223.452C138.955 222.853 138.772 222.454 138.406 222.255C138.223 222.155 138.132 222.055 137.949 222.055Z" fill="white"/>
<path d="M142.704 225.648C142.612 225.648 142.521 225.548 142.521 225.448V219.061C142.521 218.961 142.612 218.861 142.704 218.861C142.795 218.861 142.887 218.961 142.887 219.061V225.448C142.887 225.548 142.795 225.648 142.704 225.648Z" fill="white"/>
<path d="M142.155 220.458C141.972 220.358 141.972 220.258 141.972 220.159L142.613 218.662L143.253 219.56C143.344 219.66 143.344 219.759 143.253 219.859C143.161 219.959 143.07 219.959 142.978 219.859L142.613 219.46L142.247 220.458C142.338 220.458 142.247 220.458 142.155 220.458Z" fill="white"/>
<path d="M144.259 224.65C144.167 224.65 144.076 224.55 144.076 224.45V218.063C144.076 217.963 144.167 217.863 144.259 217.863C144.35 217.863 144.441 217.963 144.441 218.063V224.45C144.441 224.55 144.35 224.65 144.259 224.65Z" fill="white"/>
<path d="M143.801 219.56C143.71 219.56 143.71 219.56 143.801 219.56C143.618 219.46 143.618 219.36 143.618 219.261L144.259 217.763L144.899 218.662C144.99 218.762 144.99 218.861 144.899 218.961C144.807 219.061 144.716 219.061 144.624 218.961L144.259 218.562L143.893 219.56C143.893 219.46 143.801 219.56 143.801 219.56Z" fill="white"/>
<path d="M125.787 240.019L107.133 228.342V181.536L125.787 193.213V240.019Z" fill="#E0E0E0"/>
<path d="M115.82 193.612L118.289 195.209V188.522L115.82 187.025V193.612Z" fill="#F5F5F5"/>
<path d="M118.289 188.522L144.35 172.155L141.789 170.558L115.82 187.025L118.289 188.522Z" fill="white"/>
<path d="M118.289 216.666L84.9118 195.608L51.4436 216.666L84.9118 237.723L118.289 216.666Z" fill="#F5F5F5"/>
<path d="M84.9119 265.767L118.289 244.71V216.666L84.9119 237.724V265.767Z" fill="#EBEBEB"/>
<path d="M89.2107 256.486C89.1192 256.486 88.9364 256.486 88.8449 256.386C88.5706 256.187 88.3877 255.887 88.3877 255.388V252.394V252.195H88.5706L90.6738 250.797V254.091C90.6738 254.889 90.2165 255.887 89.5764 256.286C89.485 256.486 89.3021 256.486 89.2107 256.486ZM88.7535 252.594V255.388C88.7535 255.688 88.8449 255.987 89.0278 256.087C89.2107 256.187 89.3936 256.087 89.485 255.987C89.9422 255.688 90.3994 254.789 90.3994 254.091V253.891H89.5764L89.3936 252.694L88.7535 252.594ZM89.8508 253.592H90.3994V251.496L89.1192 252.294L89.7593 252.394L89.8508 253.592Z" fill="white"/>
<path d="M89.5752 258.881C89.4838 258.881 89.3923 258.781 89.3923 258.682V256.187C89.3923 256.087 89.4838 255.987 89.5752 255.987C89.6667 255.987 89.7581 256.087 89.7581 256.187V258.682C89.7581 258.781 89.6667 258.881 89.5752 258.881Z" fill="white"/>
<path d="M88.5694 259.48C88.478 259.48 88.478 259.48 88.3865 259.38C88.2951 259.28 88.3865 259.181 88.478 259.081L90.4897 257.783C90.5812 257.684 90.6726 257.783 90.764 257.883C90.8555 257.983 90.764 258.083 90.6726 258.183L88.5694 259.48C88.6608 259.48 88.5694 259.48 88.5694 259.48Z" fill="white"/>
<path d="M95.7022 255.188C95.6108 255.188 95.6108 255.188 95.5193 255.089C95.4279 254.989 95.3364 254.889 95.3364 254.59V254.091C95.3364 253.991 95.4279 253.891 95.5193 253.891C95.6108 253.891 95.7022 253.991 95.7022 254.091V254.59C95.7022 254.689 95.7022 254.689 95.7022 254.689H95.7936C95.9765 254.59 96.068 254.19 96.068 253.891V250.598C96.068 250.498 96.1594 250.398 96.2509 250.398C96.3423 250.398 96.4337 250.498 96.4337 250.598V253.891C96.4337 254.39 96.2509 254.889 95.9765 255.089C95.8851 255.188 95.7936 255.188 95.7022 255.188Z" fill="white"/>
<path d="M93.8733 252.294V251.995C93.8733 250.498 94.8792 248.602 96.0679 247.803C96.708 247.404 97.2567 247.404 97.7139 247.604C98.1711 247.903 98.4455 248.502 98.4455 249.3V249.4L93.8733 252.294ZM97.0738 247.803C96.7995 247.803 96.5252 247.903 96.2508 248.103C95.2449 248.702 94.3305 250.298 94.2391 251.596L98.0797 249.201C98.0797 248.602 97.8968 248.203 97.531 248.003C97.4396 247.903 97.2567 247.803 97.0738 247.803Z" fill="white"/>
<path d="M101.829 251.396C101.737 251.396 101.646 251.296 101.646 251.197V244.809C101.646 244.71 101.737 244.61 101.829 244.61C101.92 244.61 102.012 244.71 102.012 244.809V251.197C102.012 251.296 101.92 251.396 101.829 251.396Z" fill="white"/>
<path d="M101.28 246.206C101.097 246.107 101.097 246.007 101.097 245.907L101.737 244.41L102.377 245.308C102.469 245.408 102.469 245.508 102.377 245.608C102.286 245.707 102.194 245.707 102.103 245.608L101.737 245.208L101.371 246.206C101.463 246.206 101.372 246.206 101.28 246.206Z" fill="white"/>
<path d="M103.383 250.398C103.292 250.398 103.2 250.298 103.2 250.199V243.811C103.2 243.712 103.292 243.612 103.383 243.612C103.475 243.612 103.566 243.712 103.566 243.811V250.199C103.566 250.298 103.475 250.398 103.383 250.398Z" fill="white"/>
<path d="M102.926 245.308C102.926 245.308 102.835 245.308 102.926 245.308C102.743 245.209 102.743 245.109 102.743 245.009L103.383 243.512L104.023 244.41C104.115 244.51 104.115 244.61 104.023 244.71C103.932 244.809 103.84 244.809 103.749 244.71L103.383 244.31L103.017 245.308C103.017 245.209 103.017 245.308 102.926 245.308Z" fill="white"/>
<path d="M84.9118 265.767L51.4436 244.71V216.666L84.9118 237.724V265.767Z" fill="#E0E0E0"/>
<path d="M66.8975 233.033L69.4579 234.63V227.943L66.8975 226.446V233.033Z" fill="#F5F5F5"/>
<path d="M69.4579 227.943L102.835 206.885L100.366 205.288L66.8975 226.446L69.4579 227.943Z" fill="white"/>
<path d="M56.7474 234.031L64.703 239.021C65.6174 239.62 66.2575 240.917 66.2575 242.015V247.404C66.2575 248.502 65.526 249.001 64.703 248.402L56.7474 243.412C55.833 242.813 55.1929 241.516 55.1929 240.418V235.029C55.1929 233.931 55.9244 233.532 56.7474 234.031Z" fill="#F5F5F5"/>
<path d="M56.1072 235.428L56.4729 235.528V241.516L56.1072 241.316V235.428Z" fill="#E0E0E0"/>
<path d="M57.3875 236.127L57.9361 236.526V242.414L57.3875 242.115V236.127Z" fill="#E0E0E0"/>
<path d="M58.5762 236.925L58.9419 237.125V243.113L58.5762 242.913V236.925Z" fill="#E0E0E0"/>
<path d="M59.582 237.524L60.1307 237.923V243.911L59.582 243.512V237.524Z" fill="#E0E0E0"/>
<path d="M61.0452 238.522L61.4109 238.722V244.61L61.0452 244.41V238.522Z" fill="#E0E0E0"/>
<path d="M61.9595 239.021L62.5996 239.42V245.408L61.9595 245.009V239.021Z" fill="#E0E0E0"/>
<path d="M63.5142 240.019L63.8799 240.219V246.207L63.5142 246.007V240.019Z" fill="#E0E0E0"/>
<path d="M64.2456 240.518L64.4285 240.618V246.506L64.2456 246.406V240.518Z" fill="#E0E0E0"/>
<path d="M62.9653 239.719L63.1482 239.819V245.807L62.9653 245.707V239.719Z" fill="#E0E0E0"/>
<path d="M60.4966 238.123L60.6795 238.223V244.211L60.4966 244.111V238.123Z" fill="#E0E0E0"/>
<path d="M59.1248 237.324H59.3076V243.312L59.1248 243.213V237.324Z" fill="#E0E0E0"/>
<path d="M58.1189 236.726L58.3018 236.825V242.714L58.1189 242.614V236.726Z" fill="#E0E0E0"/>
<path d="M56.8389 235.827L57.0218 235.927V241.915L56.8389 241.815V235.827Z" fill="#E0E0E0"/>
<path d="M64.7942 240.817L65.0685 241.017V247.005L64.7942 246.805V240.817Z" fill="#E0E0E0"/>
<path d="M110.882 160.478L84.9119 144.111L58.8506 160.478L84.9119 176.846L110.882 160.478Z" fill="#F5F5F5"/>
<path d="M84.9119 233.033L110.882 216.666V160.478L84.9119 176.846V233.033Z" fill="#EBEBEB"/>
<path d="M89.2107 223.752C89.1192 223.752 88.9364 223.752 88.8449 223.652C88.5706 223.452 88.3877 223.153 88.3877 222.654V219.66V219.46H88.5706L90.6738 218.063V221.356C90.6738 222.155 90.2165 223.153 89.5764 223.552C89.485 223.652 89.3021 223.752 89.2107 223.752ZM88.7535 219.859V222.654C88.7535 222.953 88.8449 223.253 89.0278 223.352C89.2107 223.452 89.3936 223.352 89.485 223.253C89.9422 222.953 90.3994 222.155 90.3994 221.356V221.157H89.5764L89.3936 219.959L88.7535 219.859ZM89.8508 220.758H90.3994V218.662L89.1192 219.46L89.7593 219.56L89.8508 220.758Z" fill="white"/>
<path d="M89.5752 226.147C89.4838 226.147 89.3923 226.047 89.3923 225.947V223.452C89.3923 223.352 89.4838 223.253 89.5752 223.253C89.6667 223.253 89.7581 223.352 89.7581 223.452V225.947C89.7581 226.047 89.6667 226.147 89.5752 226.147Z" fill="white"/>
<path d="M88.5694 226.746C88.478 226.746 88.478 226.746 88.3865 226.646C88.2951 226.546 88.3865 226.446 88.478 226.346L90.4897 225.049C90.5812 224.949 90.6726 225.049 90.764 225.149C90.8555 225.249 90.764 225.348 90.6726 225.448L88.5694 226.746C88.6608 226.746 88.5694 226.746 88.5694 226.746Z" fill="white"/>
<path d="M95.7022 222.454C95.6108 222.454 95.6108 222.454 95.5193 222.354C95.4279 222.254 95.3364 222.155 95.3364 221.855V221.356C95.3364 221.256 95.4279 221.157 95.5193 221.157C95.6108 221.157 95.7022 221.256 95.7022 221.356V221.855C95.7022 221.955 95.7022 221.955 95.7022 221.955H95.7936C95.9765 221.855 96.068 221.456 96.068 221.157V217.863C96.068 217.763 96.1594 217.664 96.2509 217.664C96.3423 217.664 96.4337 217.763 96.4337 217.863V221.157C96.4337 221.656 96.2509 222.155 95.9765 222.354C95.8851 222.354 95.7936 222.454 95.7022 222.454Z" fill="white"/>
<path d="M93.8733 219.56V219.26C93.8733 217.763 94.8792 215.867 96.0679 215.069C96.708 214.67 97.2567 214.67 97.7139 214.869C98.1711 215.169 98.4455 215.767 98.4455 216.566V216.666L93.8733 219.56ZM97.0738 215.069C96.7995 215.069 96.5252 215.169 96.2508 215.368C95.2449 215.967 94.3305 217.564 94.2391 218.861L98.0797 216.466C98.0797 215.867 97.8968 215.468 97.531 215.268C97.4396 215.169 97.2567 215.069 97.0738 215.069Z" fill="white"/>
<path d="M101.829 218.562C101.737 218.562 101.646 218.462 101.646 218.363V211.975C101.646 211.876 101.737 211.776 101.829 211.776C101.92 211.776 102.012 211.876 102.012 211.975V218.363C102.012 218.462 101.92 218.562 101.829 218.562Z" fill="white"/>
<path d="M101.28 213.472C101.097 213.372 101.097 213.273 101.097 213.173L101.737 211.676L102.377 212.574C102.469 212.674 102.469 212.774 102.377 212.873C102.286 212.973 102.194 212.973 102.103 212.873L101.737 212.474L101.371 213.472C101.463 213.472 101.372 213.472 101.28 213.472Z" fill="white"/>
<path d="M103.383 217.564C103.292 217.564 103.2 217.464 103.2 217.365V210.977C103.2 210.878 103.292 210.778 103.383 210.778C103.475 210.778 103.566 210.878 103.566 210.977V217.365C103.566 217.564 103.475 217.564 103.383 217.564Z" fill="white"/>
<path d="M102.926 212.474C102.926 212.474 102.835 212.474 102.926 212.474C102.743 212.374 102.743 212.275 102.743 212.175L103.383 210.678L104.023 211.576C104.115 211.676 104.115 211.776 104.023 211.875C103.932 211.975 103.84 211.975 103.749 211.875L103.383 211.476L103.017 212.474C103.017 212.474 103.017 212.474 102.926 212.474Z" fill="white"/>
<path d="M84.9119 233.033L58.8506 216.666V160.478L84.9119 176.846V233.033Z" fill="#E0E0E0"/>
<path d="M71.1953 174.949L73.7557 176.446V169.86L71.1953 168.263V174.949Z" fill="#F5F5F5"/>
<path d="M73.7557 169.86L99.7256 153.492L97.2566 151.896L71.1953 168.263L73.7557 169.86Z" fill="white"/>
<path d="M64.1541 205.987L72.1097 210.977C73.0241 211.576 73.6642 212.873 73.6642 213.971V219.36C73.6642 220.458 72.9327 220.957 72.1097 220.358L64.1541 215.368C63.2397 214.77 62.5996 213.472 62.5996 212.374V206.985C62.5996 205.887 63.3312 205.388 64.1541 205.987Z" fill="#F5F5F5"/>
<path d="M63.6055 207.284L63.8798 207.484V213.472L63.6055 213.273V207.284Z" fill="#E0E0E0"/>
<path d="M64.7942 208.083L65.3428 208.382V214.37L64.7942 214.071V208.083Z" fill="#E0E0E0"/>
<path d="M65.9829 208.881L66.3487 209.081V214.969L65.9829 214.77V208.881Z" fill="#E0E0E0"/>
<path d="M66.9888 209.38L67.5374 209.78V215.768L66.9888 215.368V209.38Z" fill="#E0E0E0"/>
<path d="M68.4519 210.378L68.8177 210.578V216.566L68.4519 216.366V210.378Z" fill="#E0E0E0"/>
<path d="M69.3665 210.977L70.0066 211.376V217.364L69.3665 216.865V210.977Z" fill="#E0E0E0"/>
<path d="M70.9209 211.975L71.2867 212.175V218.063L70.9209 217.963V211.975Z" fill="#E0E0E0"/>
<path d="M71.6523 212.374L71.8352 212.474V218.462L71.6523 218.362V212.374Z" fill="#E0E0E0"/>
<path d="M70.3723 211.676H70.5552V217.664L70.3723 217.564V211.676Z" fill="#E0E0E0"/>
<path d="M67.9033 210.079L68.0862 210.179V216.067L67.9033 215.967V210.079Z" fill="#E0E0E0"/>
<path d="M66.5317 209.181L66.7146 209.28V215.268L66.5317 215.169V209.181Z" fill="#E0E0E0"/>
<path d="M65.6172 208.582L65.7086 208.682V214.67L65.6172 214.57V208.582Z" fill="#E0E0E0"/>
<path d="M64.2456 207.684L64.4285 207.783V213.771L64.2456 213.672V207.684Z" fill="#E0E0E0"/>
<path d="M72.2012 212.773L72.4755 212.873V218.861L72.2012 218.662V212.773Z" fill="#E0E0E0"/>
<path d="M59.1247 315.068L158.889 377.942C161.084 379.34 164.65 379.34 166.845 377.942L385.485 240.119C387.68 238.721 387.68 236.526 385.485 235.129L285.721 172.255C283.526 170.857 279.96 170.857 277.765 172.255L59.1247 310.078C56.9301 311.476 56.9301 313.771 59.1247 315.068Z" fill="#455A64"/>
<path d="M113.076 344.31C116.094 346.206 121.032 346.206 124.049 344.31C127.067 342.414 127.067 339.32 124.049 337.424C121.032 335.528 116.094 335.528 113.076 337.424C110.059 339.32 110.059 342.414 113.076 344.31Z" fill="#263238"/>
<path d="M160.718 378.042L60.9537 315.168C59.0334 313.971 58.759 311.975 60.3136 310.677C58.3933 312.274 56.9302 315.168 56.9302 317.663V321.755C56.9302 324.549 58.6676 327.843 60.8622 329.24L160.627 392.114C161.724 392.813 163.187 393.112 164.559 393.112V379.04C163.279 379.04 161.815 378.641 160.718 378.042Z" fill="#37474F"/>
<path d="M385.485 254.29C387.68 252.893 389.417 249.6 389.417 246.805V242.714C389.417 240.219 387.954 237.225 386.034 235.728C387.589 237.125 387.406 239.021 385.394 240.219L166.845 378.042C165.748 378.741 164.284 379.04 162.913 379.04V393.112C164.376 393.112 165.748 392.813 166.845 392.114L385.485 254.29Z" fill="#263238"/>
<path d="M175.349 364.969L79.8825 304.789C78.6023 303.991 78.6023 302.593 79.8825 301.795L264.506 185.428C265.786 184.63 267.981 184.63 269.261 185.428L364.819 245.608C366.1 246.406 366.1 247.803 364.819 248.602L180.104 364.969C178.824 365.767 176.721 365.767 175.349 364.969Z" fill="white"/>
<path d="M136.852 331.336L148.008 324.35L144.35 321.955L133.194 329.04L136.852 331.336Z" fill="#27DEBF"/>
<path d="M270.633 247.105L281.789 240.019L278.04 237.723L266.884 244.709L270.633 247.105Z" fill="#27DEBF"/>
<path d="M292.945 233.033L304.01 226.047L300.352 223.652L289.196 230.737L292.945 233.033Z" fill="#27DEBF"/>
<path d="M328.699 208.482C329.431 208.981 330.711 208.981 331.443 208.482C332.174 207.983 332.174 207.185 331.443 206.686C330.711 206.187 329.431 206.187 328.699 206.686C327.876 207.185 327.876 207.983 328.699 208.482Z" fill="#263238"/>
<path d="M333.089 222.254C334.643 223.252 337.112 223.252 338.667 222.254C340.221 221.256 340.221 219.759 338.667 218.761C337.112 217.763 334.643 217.763 333.089 218.761C331.625 219.66 331.625 221.256 333.089 222.254Z" fill="#263238"/>
<path d="M329.156 216.067C330.162 215.468 330.162 214.37 329.065 213.672L310.776 202.095C309.679 201.396 307.942 201.396 306.936 201.995C305.93 202.594 305.93 203.692 307.027 204.39L325.316 215.967C326.413 216.765 328.151 216.765 329.156 216.067Z" fill="#263238"/>
<path d="M297.974 169.261L298.614 168.862C298.249 170.359 297.974 172.155 297.974 174.051V176.446C297.974 185.229 307.576 207.484 311.142 215.468C311.508 216.267 306.661 221.955 306.661 221.955L312.422 218.362C312.422 218.362 326.87 205.388 326.87 194.71V192.315C326.87 181.636 320.378 168.862 312.422 163.872C308.399 161.377 304.741 161.277 302.181 163.173L296.694 166.566L297.974 169.261ZM305.198 177.444C305.198 172.454 308.399 170.359 312.422 172.854C312.057 176.047 317.452 186.127 319.646 186.526C319.646 191.516 316.446 193.612 312.422 191.117C308.49 188.622 305.198 182.534 305.198 177.444Z" fill="#27DEBF"/>
<path d="M292.031 180.438C292.213 191.117 307.119 221.955 307.119 221.955C307.119 221.955 321.384 208.782 321.201 198.103V195.708C321.018 185.029 314.434 172.355 306.387 167.464C298.34 162.574 291.939 167.265 292.122 178.043L292.031 180.438ZM299.255 181.237C299.163 176.247 302.364 174.151 306.387 176.546C310.411 178.941 313.703 185.029 313.794 190.019C313.885 195.009 310.685 197.105 306.661 194.71C302.638 192.315 299.346 186.227 299.255 181.237Z" fill="#27DEBF"/>
<path opacity="0.1" d="M292.031 180.438C292.213 191.117 307.119 221.955 307.119 221.955C307.119 221.955 321.384 208.782 321.201 198.103V195.708C321.018 185.029 314.434 172.355 306.387 167.464C298.34 162.574 291.939 167.265 292.122 178.043L292.031 180.438ZM299.255 181.237C299.163 176.247 302.364 174.151 306.387 176.546C310.411 178.941 313.703 185.029 313.794 190.019C313.885 195.009 310.685 197.105 306.661 194.71C302.638 192.315 299.346 186.227 299.255 181.237Z" fill="black"/>
<path d="M152.58 323.153C161.816 328.941 183.488 324.749 200.953 313.672L248.961 283.432C266.427 272.454 273.102 258.782 263.866 252.993C254.63 247.205 232.867 251.396 215.401 262.474L167.394 292.714C150.019 303.692 143.344 317.364 152.58 323.153Z" fill="#F0F0F0"/>
<path d="M159.164 317.264L170.32 310.278L166.571 307.983L155.506 314.969L159.164 317.264Z" fill="#27DEBF"/>
<path d="M181.476 303.292L192.632 296.206L188.883 293.911L177.727 300.897L181.476 303.292Z" fill="#27DEBF"/>
<path d="M176.904 300.398C176.904 306.286 173.155 313.372 168.491 316.366C166.022 317.963 163.736 317.963 162.273 316.765C161.176 315.867 160.353 314.37 160.17 312.374C160.444 312.274 160.81 312.075 161.084 311.875C165.748 308.981 169.497 301.795 169.497 295.907C169.497 295.408 169.497 295.009 169.405 294.61C171.143 293.711 172.789 293.612 173.978 294.21C175.806 295.109 176.904 297.204 176.904 300.398Z" fill="#263238"/>
<path d="M177.635 288.322C177.544 288.322 177.544 288.222 177.452 288.222C175.075 286.825 171.966 287.124 168.399 289.32C161.175 293.811 155.415 304.789 155.415 313.871C155.415 318.462 156.878 321.655 159.255 323.052C161.633 324.549 164.833 324.25 168.399 322.054C175.532 317.563 181.384 306.486 181.384 297.504C181.476 293.013 180.013 289.819 177.635 288.322ZM168.491 316.366C166.022 317.963 163.736 317.963 162.273 316.765C160.901 315.767 160.078 313.771 160.078 310.977C160.078 305.088 163.827 298.003 168.491 295.009C170.594 293.711 172.514 293.412 174.069 294.11C175.806 294.909 176.995 297.104 176.995 300.298C176.904 306.286 173.155 313.472 168.491 316.366Z" fill="#37474F"/>
<path d="M174.435 294.41C174.435 294.41 174.343 294.41 174.343 294.31C172.789 293.412 170.777 293.612 168.491 295.009C163.827 297.903 160.078 305.089 160.078 310.977C160.078 313.971 160.993 315.967 162.547 316.965C164.102 317.863 166.205 317.763 168.491 316.266C173.154 313.372 176.904 306.186 176.904 300.298C176.904 297.504 175.989 295.408 174.435 294.41ZM168.491 314.27C166.479 315.568 164.742 315.568 163.462 314.57C162.364 313.771 161.724 312.174 161.724 309.979C161.724 305.288 164.742 299.5 168.491 297.204C170.228 296.107 171.783 295.907 172.972 296.506C174.435 297.204 175.258 298.901 175.258 301.496C175.258 306.186 172.24 311.875 168.491 314.27Z" fill="#27DEBF"/>
<path d="M203.788 289.22L214.853 282.234L211.195 279.839L200.039 286.825L203.788 289.22Z" fill="#27DEBF"/>
<path d="M226.009 275.149L237.165 268.163L233.507 265.767L222.351 272.853L226.009 275.149Z" fill="#27DEBF"/>
<path d="M248.321 261.177L259.477 254.091L255.728 251.795L244.572 258.781L248.321 261.177Z" fill="#27DEBF"/>
<path d="M192.906 195.808C193.638 195.109 194.369 195.408 194.552 196.406C194.735 197.404 194.278 198.802 193.546 199.5C192.815 200.199 192.083 199.899 191.9 198.901C191.717 197.903 192.175 196.506 192.906 195.808Z" fill="#27DEBF"/>
<path d="M201.41 200.199L194.003 195.508L192.357 199.8L199.856 204.59L201.41 200.199Z" fill="#27DEBF"/>
<path d="M200.313 200.498C201.045 199.8 201.776 200.099 201.959 201.097C202.142 202.095 201.685 203.492 200.953 204.191C200.222 204.889 199.49 204.59 199.307 203.592C199.124 202.594 199.581 201.197 200.313 200.498Z" fill="#27DEBF"/>
<path d="M257.557 239.819C257.557 240.019 257.557 240.218 257.557 240.418C257.557 240.817 257.557 241.217 257.557 241.616C256.093 240.917 254.173 241.117 252.07 242.514C247.406 245.408 243.657 252.594 243.657 258.482C243.657 261.177 244.48 263.173 245.852 264.27C245.486 264.57 245.12 264.869 244.663 265.069C244.48 265.169 244.389 265.268 244.206 265.268L242.926 270.558L235.427 266.067C233.05 264.57 231.587 261.376 231.587 256.885C231.587 247.803 237.439 236.825 244.572 232.334C248.138 230.139 251.338 229.839 253.716 231.336L261.031 235.827C261.123 235.827 261.123 235.927 261.214 235.927L257.557 239.819Z" fill="#455A64"/>
<path d="M261.214 235.728C261.123 235.728 261.123 235.628 261.031 235.628C258.654 234.231 255.545 234.53 251.979 236.726C244.755 241.217 238.994 252.195 238.994 261.276C238.994 265.867 240.457 269.061 242.834 270.458C245.212 271.955 248.412 271.656 251.979 269.46C259.111 264.969 264.963 253.891 264.963 244.909C265.055 240.418 263.592 237.225 261.214 235.728ZM252.07 263.771C249.601 265.368 247.315 265.368 245.852 264.171C244.48 263.173 243.657 261.177 243.657 258.382C243.657 252.494 247.406 245.408 252.07 242.414C254.173 241.117 256.094 240.817 257.557 241.516C259.294 242.314 260.483 244.51 260.483 247.704C260.483 253.692 256.734 260.877 252.07 263.771Z" fill="#37474F"/>
<path d="M260.483 247.804C260.483 253.692 256.733 260.778 252.07 263.772C249.601 265.368 247.315 265.368 245.852 264.171C244.754 263.273 243.931 261.776 243.749 259.78C244.023 259.58 244.389 259.48 244.663 259.281C249.327 256.386 253.076 249.201 253.076 243.313C253.076 242.814 253.076 242.414 252.984 242.015C254.722 241.117 256.368 241.017 257.556 241.616C259.385 242.514 260.483 244.61 260.483 247.804Z" fill="#263238"/>
<path d="M258.014 241.915C258.014 241.915 257.922 241.915 257.922 241.815C256.368 240.917 254.356 241.117 252.07 242.514C247.406 245.408 243.657 252.594 243.657 258.482C243.657 261.476 244.572 263.472 246.126 264.47C247.681 265.368 249.784 265.268 252.07 263.771C256.734 260.877 260.483 253.691 260.483 247.803C260.483 244.909 259.477 242.813 258.014 241.915ZM252.07 261.675C250.058 262.973 248.321 262.973 247.041 261.975C245.943 261.176 245.303 259.58 245.303 257.384C245.303 252.693 248.321 246.905 252.07 244.61C253.807 243.512 255.362 243.312 256.551 243.911C258.014 244.61 258.837 246.306 258.837 248.901C258.837 253.592 255.819 259.38 252.07 261.675Z" fill="#27DEBF"/>
<path d="M244.572 250.798C244.572 250.798 263.135 239.121 265.604 237.524C268.073 236.027 260.026 226.945 254.173 226.347C248.321 225.748 244.48 227.345 244.48 227.345C244.48 227.345 248.961 233.632 248.229 237.225C247.589 240.818 244.572 250.798 244.572 250.798Z" fill="#27DEBF"/>
<path d="M214.853 213.373C214.853 213.373 245.303 230.139 246.675 231.137C247.955 232.135 246.675 243.812 244.572 250.798C242.468 257.784 239.268 268.362 237.988 271.456C236.708 274.55 234.97 275.548 231.952 277.544C228.843 279.54 210.006 291.416 210.006 291.416L180.287 295.308L168.491 288.322L171.6 267.265C171.6 267.265 203.148 248.901 207.537 246.207C211.835 243.412 224.546 230.738 214.853 213.373Z" fill="#27DEBF"/>
<path opacity="0.2" d="M214.853 213.373C214.853 213.373 245.303 230.139 246.675 231.137C247.955 232.135 246.675 243.812 244.572 250.798C242.468 257.784 239.268 268.362 237.988 271.456C236.708 274.55 234.97 275.548 231.952 277.544C228.843 279.54 210.006 291.416 210.006 291.416L180.287 295.308L168.491 288.322L171.6 267.265C171.6 267.265 203.148 248.901 207.537 246.207C211.835 243.412 224.546 230.738 214.853 213.373Z" fill="black"/>
<path d="M247.315 246.805C250.058 238.722 252.07 232.135 251.796 227.544C251.338 222.255 249.51 217.863 241.463 215.668C233.324 213.572 222.077 213.572 222.077 213.572L218.602 215.768C218.602 215.768 241.828 230.438 244.389 232.035C246.035 233.033 247.681 237.424 244.572 250.897C244.572 250.897 244.846 251.097 245.12 251.197C245.486 251.396 246.401 249.4 247.315 246.805Z" fill="#27DEBF"/>
<path opacity="0.3" d="M247.315 246.805C250.058 238.722 252.07 232.135 251.796 227.544C251.338 222.255 249.51 217.863 241.463 215.668C233.324 213.572 222.077 213.572 222.077 213.572L218.602 215.768C218.602 215.768 241.828 230.438 244.389 232.035C246.035 233.033 247.681 237.424 244.572 250.897C244.572 250.897 244.846 251.097 245.12 251.197C245.486 251.396 246.401 249.4 247.315 246.805Z" fill="white"/>
<path d="M229.758 222.754L233.507 220.458C233.507 220.458 233.324 206.287 227.838 202.794C222.351 199.4 203.788 201.696 203.788 201.696L200.039 203.991L229.758 222.754Z" fill="#27DEBF"/>
<path d="M217.596 205.987C215.858 207.085 215.858 208.881 217.596 210.079C219.333 211.177 222.259 211.177 224.088 210.079C225.826 208.981 225.826 207.185 224.088 205.987C222.259 204.889 219.333 204.889 217.596 205.987Z" fill="#F0F0F0"/>
<path d="M223.265 212.774C221.985 213.572 221.985 214.869 223.265 215.668C224.546 216.466 226.557 216.466 227.837 215.668C229.118 214.869 229.118 213.572 227.837 212.774C226.557 211.975 224.546 211.975 223.265 212.774Z" fill="#F0F0F0"/>
<path d="M208.909 204.191C207.629 204.989 207.629 206.287 208.909 207.085C210.189 207.883 212.201 207.883 213.481 207.085C214.761 206.287 214.761 204.989 213.481 204.191C212.201 203.392 210.189 203.392 208.909 204.191Z" fill="#F0F0F0"/>
<path d="M230.215 218.662C230.947 217.963 231.678 218.263 231.861 219.261C232.044 220.259 231.587 221.656 230.855 222.354C230.124 223.053 229.392 222.754 229.209 221.756C229.118 220.758 229.483 219.36 230.215 218.662Z" fill="#27DEBF"/>
<path d="M238.811 223.053L231.404 218.363L229.758 222.654L237.256 227.345L238.811 223.053Z" fill="#27DEBF"/>
<path d="M237.713 223.352C238.445 222.654 239.177 222.953 239.359 223.951C239.542 224.949 239.085 226.346 238.354 227.045C237.622 227.744 236.89 227.444 236.708 226.446C236.525 225.348 236.982 223.951 237.713 223.352Z" fill="#27DEBF"/>
<path d="M237.713 223.352C238.445 222.654 239.177 222.953 239.359 223.951C239.542 224.949 239.085 226.346 238.354 227.045C237.622 227.744 236.89 227.444 236.708 226.446C236.525 225.348 236.982 223.951 237.713 223.352Z" fill="black"/>
<path d="M173.978 292.414C173.978 292.614 173.978 292.813 173.978 293.013C173.978 293.412 173.978 293.811 173.978 294.21C172.514 293.512 170.594 293.712 168.4 295.109C163.736 298.003 159.987 305.189 159.987 311.077C159.987 313.771 160.81 315.767 162.181 316.865C161.816 317.165 161.45 317.464 160.993 317.663C160.81 317.763 160.718 317.863 160.535 317.863L159.255 323.152L151.757 318.562C149.379 317.065 147.916 313.871 147.916 309.38C147.916 300.298 153.769 289.32 160.901 284.829C164.467 282.634 167.668 282.334 170.046 283.831L177.361 288.322C177.452 288.322 177.452 288.422 177.544 288.422L173.978 292.414Z" fill="#455A64"/>
<path d="M151.757 276.546L146.179 297.604L157.335 304.689L163.096 283.731L151.757 276.546Z" fill="#27DEBF"/>
<path opacity="0.2" d="M151.757 276.546L146.179 297.604L157.335 304.689L163.096 283.731L151.757 276.546Z" fill="black"/>
<path d="M151.757 276.546C151.757 276.546 158.066 282.334 163.096 283.731C169.68 285.428 180.196 285.628 183.945 285.927C189.614 286.326 193.912 286.326 195.924 285.528C198.576 284.53 205.525 280.139 207.446 278.841C211.195 276.546 212.749 267.264 202.508 264.769C192.266 262.274 181.476 262.474 181.476 262.474L151.757 276.546Z" fill="#27DEBF"/>
<path d="M214.761 273.851C214.487 274.25 214.395 275.248 214.121 276.546C213.847 277.843 213.755 278.841 213.938 279.54C214.121 280.139 215.401 281.636 217.047 282.135C218.602 282.634 220.614 282.234 222.442 281.037C224.363 279.839 225.734 278.342 228.478 277.444C231.13 276.646 232.501 275.947 233.781 274.849C235.244 273.552 237.256 269.959 234.421 269.061C231.587 268.262 225.369 271.157 219.699 271.456L214.761 273.851Z" fill="#37474F"/>
<path d="M214.761 270.059V274.65C214.761 274.65 215.127 276.246 217.047 276.546C217.505 276.646 217.962 276.546 218.419 276.346C219.791 275.847 220.705 274.35 220.796 272.654L220.979 269.859H214.761V270.059Z" fill="#FFA8A7"/>
<path d="M222.808 241.516C222.808 247.304 221.345 272.055 221.345 272.055C221.345 272.055 219.15 275.049 214.487 272.055L212.932 244.31L222.808 241.516Z" fill="#37474F"/>
<path d="M198.301 265.967L212.932 256.785C214.03 256.087 214.944 254.49 214.944 253.193C214.944 251.895 214.03 250.298 212.932 249.6L202.051 242.714C200.953 242.015 199.216 242.015 198.118 242.714L183.488 251.895C182.39 252.594 181.476 254.191 181.476 255.488C181.476 256.785 182.39 258.382 183.488 259.081L194.369 265.967C195.467 266.666 197.204 266.666 198.301 265.967Z" fill="#27DEBF"/>
<path d="M198.301 265.967L212.932 256.785C214.03 256.087 214.944 254.49 214.944 253.193C214.944 251.895 214.03 250.298 212.932 249.6L202.051 242.714C200.953 242.015 199.216 242.015 198.118 242.714L183.488 251.895C182.39 252.594 181.476 254.191 181.476 255.488C181.476 256.785 182.39 258.382 183.488 259.081L194.369 265.967C195.467 266.666 197.204 266.666 198.301 265.967Z" fill="white"/>
<path d="M183.488 254.39L194.369 261.276C195.467 261.975 197.204 261.975 198.301 261.276L212.932 252.095C214.03 251.396 214.03 250.298 212.932 249.6L202.051 242.714C200.953 242.015 199.216 242.015 198.118 242.714L183.488 251.895C182.39 252.594 182.39 253.692 183.488 254.39Z" fill="#27DEBF"/>
<path d="M192.357 193.313L190.529 201.696L182.573 202.195L184.219 190.618L192.357 193.313Z" fill="#FFA8A7"/>
<path d="M200.13 187.025C200.13 187.025 200.953 190.518 200.679 190.718C200.313 190.917 198.941 190.718 198.941 190.718L200.13 187.025Z" fill="#F28F8F"/>
<path d="M198.576 175.748C199.856 177.444 201.045 180.139 200.13 186.726C199.124 194.011 197.936 194.809 196.93 195.508C195.649 196.406 190.529 195.907 189.066 194.809C187.328 193.412 184.585 189.021 183.945 184.63C183.213 179.54 184.768 173.852 188.243 172.953C193.089 171.556 197.478 174.351 198.576 175.748Z" fill="#FFA8A7"/>
<path d="M183.488 193.013C184.676 194.41 187.237 194.81 188.883 195.109C190.437 195.408 195.375 195.808 196.838 192.015C198.301 188.223 197.296 185.428 199.033 184.53C200.77 183.632 202.599 183.033 203.057 182.534C203.514 182.035 203.514 175.848 198.759 172.554C194.004 169.361 186.688 168.562 181.933 175.149C178.184 180.239 179.647 188.722 183.488 193.013Z" fill="#455A64"/>
<path d="M188.243 195.109C189.431 195.209 193.363 194.51 194.552 192.814C195.741 191.017 196.198 187.923 196.381 186.227C196.564 184.53 197.296 183.931 198.484 183.532C199.673 183.133 202.233 181.736 202.233 181.736V180.937C202.233 180.937 204.245 180.838 204.794 180.937C205.343 181.037 205.068 181.935 203.697 182.734C202.325 183.532 198.484 185.029 197.936 185.528C197.387 186.027 197.113 188.223 196.655 190.518C196.015 192.714 194.644 196.107 188.243 195.109Z" fill="#37474F"/>
<path d="M199.216 204.59L203.788 201.696C204.245 200.199 203.514 199.5 202.233 199.6C200.953 199.7 201.41 198.402 200.587 198.003C199.581 197.504 199.033 197.804 198.576 197.604C198.027 197.305 197.935 196.806 197.387 196.706C194.735 196.406 192.998 200.498 192.998 200.498L199.216 204.59Z" fill="#F28F8F"/>
<path d="M168.217 241.217C168.217 241.217 188.425 230.239 191.9 228.542C195.467 226.746 200.953 224.251 203.879 224.251C205.983 224.251 208.177 226.546 208.269 229.141C208.36 231.736 207.994 234.929 207.994 234.929C207.994 234.929 199.49 238.123 191.077 239.62C182.573 241.117 168.217 241.217 168.217 241.217Z" fill="#37474F"/>
<path d="M170.411 234.929C170.411 239.42 170.045 244.211 171.783 247.504C173.429 250.698 182.848 258.482 191.718 256.885C197.478 255.788 214.578 247.205 214.578 247.205C214.578 247.205 222.9 243.911 222.9 241.516C222.991 238.023 222.717 233.133 215.493 233.333C208.909 233.532 189.431 237.923 189.431 237.923L170.411 234.929Z" fill="#455A64"/>
<path d="M175.989 199.001C179.098 195.408 181.201 195.109 182.756 195.608C187.968 197.105 191.626 199.5 192.723 199.999C192.723 199.999 191.535 212.774 197.204 216.466V236.326C197.204 236.326 197.021 238.522 194.552 240.618C192.358 242.514 187.42 244.41 181.476 243.911C174.435 243.312 170.411 235.029 170.411 235.029C170.411 235.029 170.228 218.762 171.234 212.275C172.332 204.69 174.983 200.299 175.989 199.001Z" fill="#455A64"/>
<path d="M197.204 217.365C197.204 217.365 193.729 214.371 192.723 210.478C192.723 210.478 193.181 216.566 197.204 219.66V217.365Z" fill="#37474F"/>
<path d="M229.209 226.746C230.581 226.945 232.684 226.147 233.781 225.249C233.781 225.249 235.336 221.855 237.348 222.155C237.348 222.155 237.713 220.758 236.89 220.259C236.067 219.76 235.702 219.959 235.427 219.46C235.062 218.961 235.062 218.063 233.598 218.063C232.958 218.063 233.05 217.564 231.587 217.364C230.124 217.165 228.661 220.857 227.563 220.857L229.209 226.746Z" fill="#FFA8A7"/>
<path d="M192.723 199.899C197.753 200.698 199.582 202.394 201.41 204.191C203.331 206.087 214.395 218.263 214.395 218.263L227.929 220.358C227.929 220.358 228.843 221.057 229.392 222.754C229.941 224.45 229.484 226.346 228.935 226.845C228.935 226.845 215.493 227.744 212.841 227.145C210.189 226.646 197.113 217.065 197.113 217.065C197.113 217.065 193.363 214.47 192.541 208.482C191.718 202.694 192.723 199.899 192.723 199.899Z" fill="#455A64"/>
<path d="M180.653 252.694L159.895 280.338C159.621 280.338 159.438 280.438 159.164 280.438C158.341 280.438 157.426 280.238 156.786 279.839L139.229 268.761C139.229 268.761 138.68 268.462 138.04 267.963C137.4 267.564 136.852 265.867 136.852 264.171V259.48C136.852 249.7 141.607 240.718 149.379 235.827L170.32 222.654L192.632 236.726L180.653 252.694Z" fill="#27DEBF"/>
<g opacity="0.1">
<path opacity="0.1" d="M180.653 252.694L159.895 280.338C159.621 280.338 159.438 280.438 159.164 280.438C158.341 280.438 157.426 280.238 156.786 279.839L139.229 268.761C139.229 268.761 138.68 268.462 138.04 267.963C137.4 267.564 136.852 265.867 136.852 264.171V259.48C136.852 249.7 141.607 240.718 149.379 235.827L170.32 222.654L192.632 236.726L180.653 252.694Z" fill="black"/>
</g>
<path d="M173.52 262.175L192.632 236.726L170.32 222.654L149.379 235.827C146.636 237.524 144.258 239.819 142.338 242.414L173.52 262.175Z" fill="#27DEBF"/>
<path d="M192.632 257.185C192.632 258.881 192.083 260.478 191.443 260.977L190.254 261.775L161.541 279.839C161.084 280.139 160.444 280.338 159.895 280.438C159.621 280.438 159.438 280.538 159.164 280.538V273.751C159.164 263.971 163.919 254.989 171.691 250.099L174.069 248.602L192.632 236.925V257.185Z" fill="#27DEBF"/>
<g opacity="0.2">
<path opacity="0.2" d="M192.632 257.185C192.632 258.881 192.083 260.478 191.443 260.977L190.254 261.775L161.541 279.839C161.084 280.139 160.444 280.338 159.895 280.438C159.621 280.438 159.438 280.538 159.164 280.538V273.751C159.164 263.971 163.919 254.989 171.691 250.099L174.069 248.602L192.632 236.925V257.185Z" fill="black"/>
</g>
<path d="M198.758 291.416H210.006L226.009 281.237L210.28 293.712L198.484 293.811L198.758 291.416Z" fill="#E0E0E0"/>
<path d="M171.508 308.881C171.508 308.881 191.717 300.598 193.455 299.6C195.649 298.302 199.216 295.009 199.216 295.009C199.947 294.31 199.947 292.214 198.941 291.416C198.941 291.416 190.712 291.017 188.608 291.715C187.42 292.115 168.399 298.801 168.399 298.801L171.508 308.881Z" fill="#E0E0E0"/>
<path d="M170.594 299.5C168.948 297.903 167.211 298.602 166.845 300.897C166.479 303.292 167.485 306.486 169.131 307.983C170.777 309.58 172.514 308.881 172.88 306.586C173.337 304.29 172.24 301.097 170.594 299.5Z" fill="#455A64"/>
</svg>
