<svg width="56" height="56" viewBox="0 0 56 56" fill="none" xmlns="http://www.w3.org/2000/svg">
<g clip-path="url(#clip0)">
<path d="M41.4546 51.3006C28.5889 58.7287 12.1375 54.3205 4.70945 41.4547C-2.71865 28.589 1.68939 12.1374 14.5553 4.70944C27.4212 -2.71854 43.8724 1.6896 51.3005 14.5553C58.7286 27.4209 54.3204 43.8725 41.4546 51.3006Z" fill="#78D2FA"/>
<path d="M29.9035 19.9566C29.7099 20.002 29.3347 20.0973 29.1725 20.2274C28.97 20.3898 29.2865 20.601 29.1709 20.6936C28.9713 20.8533 28.8266 21.1429 28.3993 21.1155C27.5065 21.0586 26.1345 19.9038 25.3187 19.4673C26.6338 18.1138 24.5532 17.9111 23.7423 17.9789C22.6922 18.0667 20.8749 17.972 19.9263 18.5061C19.268 18.8767 18.3831 20.4152 17.8528 21.0263C17.1145 21.8768 16.3716 22.6152 15.8906 23.6335C14.1258 27.3689 16.842 31.6574 21.111 31.1558C22.2961 31.0166 23.5394 30.2714 24.5898 31.2547C25.3639 31.9793 24.9543 32.6613 25.1595 33.5063C25.3371 34.2376 26.1468 34.6874 26.427 35.359C26.9644 36.6464 26.6241 37.4515 26.2405 38.6388C25.7372 40.1969 27.0389 42.0467 27.5455 43.5503C27.8005 44.3074 28.544 46.4275 29.2738 46.7593C30.4214 47.281 32.2201 45.7164 32.9053 44.8749C33.441 44.217 33.2661 43.5487 33.626 42.9327C34.0154 42.266 34.5083 42.0659 34.7812 41.2064C35.0753 40.28 35.3809 40.0496 36.002 39.3735C37.002 38.2854 36.8467 37.6492 36.447 36.359C35.6163 33.6787 38.6336 32.4257 39.9927 30.4581C41.4119 28.4035 38.6686 29.0884 37.5934 28.3857C36.488 27.6632 36.0049 26.29 35.4722 25.1516C34.9393 24.0131 34.4984 22.3023 33.6161 21.3671C32.9364 20.6471 30.8687 20.3131 29.9035 19.9566Z" fill="#A5DC69"/>
<path d="M43.7887 37.936C43.3598 39.3813 42.931 40.8266 42.5022 42.2719C42.2024 43.2823 41.1424 46.5876 39.6554 44.4704C39.0901 43.6658 39.5498 42.6116 39.8652 41.8712C40.263 40.9372 39.7254 40.4668 40.0028 39.5826C40.3208 38.569 41.6294 38.5343 42.2485 37.8214C42.6804 37.3244 42.9467 36.5342 43.2622 35.9523C43.4379 36.6137 43.6133 37.2747 43.7887 37.936Z" fill="#A5DC69"/>
<path d="M51.3004 14.5558C46.6673 6.53104 38.5237 1.79718 29.9293 1.17287L26.4116 5.58549L18.8723 8.22865L16.8497 13.1317L19.9697 17.5022L20.3013 16.5782C20.855 15.0355 22.3175 14.0066 23.9565 14.0066H29.0985L35.0092 16.0836L37.045 18.027V19.2614L39.8752 24.6828L40.6994 24.3789C42.4791 23.7226 44.0952 22.6881 45.4365 21.3469L44.7533 20.3218C44.5359 19.9959 44.7697 19.5594 45.1613 19.5594H46.8107C47.2937 19.5594 47.7524 19.7709 48.0661 20.1382L49.4135 21.7157C49.5419 21.866 49.6422 22.0381 49.7098 22.2238L51.1967 26.3126L51.9044 25.6048C52.3507 25.1585 52.5766 24.5505 52.5871 23.9194C52.5956 23.412 52.8157 22.9306 53.1952 22.5922L53.7372 22.1088C53.8735 21.9873 54.0255 21.8885 54.1874 21.8138C53.5982 19.3271 52.6439 16.8827 51.3004 14.5558Z" fill="#A5DC69"/>
<path d="M11.0584 15.6065L12.345 14.2278C13.2831 13.2225 13.5489 11.7624 13.025 10.491C12.4711 9.1468 11.2567 8.2753 9.9125 8.09505C5.16125 12.4042 2.20714 18.1977 1.3573 24.3344C2.3618 25.2125 3.413 26.1524 3.40699 26.2352C3.39539 26.3937 7.17047 25.7607 7.17047 25.7607L5.2271 22.9099L8.01802 20.9143L11.0584 15.6065Z" fill="#A5DC69"/>
<path d="M13.6744 42.4088C14.8871 42.0148 15.5508 40.7123 15.1569 39.4996L14.8105 38.4333C14.6591 37.9675 14.6599 37.4657 14.8126 37.0003C15.2453 35.681 14.4242 34.281 13.0616 34.0147L10.3433 33.4835L5.37775 29.7082L1.27258 31.0418C1.67574 34.6069 2.80088 38.1491 4.70925 41.4547C6.47435 44.5119 8.74957 47.0903 11.3643 49.1471L12.5875 42.7619L13.6744 42.4088Z" fill="#A5DC69"/>
<path d="M40.9059 50.3545L40.8638 50.3788C40.3414 50.6818 40.1637 51.3511 40.4666 51.8736C40.6695 52.2233 41.0365 52.4186 41.4136 52.4186C41.5998 52.4186 41.7888 52.3708 41.9615 52.2706L42.0036 52.2463C42.5259 51.9433 42.7037 51.274 42.4007 50.7515C42.0977 50.2294 41.4286 50.0514 40.9059 50.3545Z" fill="black"/>
<path d="M52.2481 14.0096C48.5095 7.53403 42.4729 2.90211 35.2505 0.966828C28.0282 -0.968453 20.4844 0.0247815 14.0089 3.76333C7.53331 7.50187 2.90139 13.5385 0.966215 20.7609C-0.968957 27.9832 0.0241681 35.5271 3.76271 42.0026C7.11626 47.8112 12.4463 52.2256 18.771 54.4326C21.7691 55.4787 24.8989 56.0007 28.0238 56.0007C31.4216 56.0007 34.8132 55.3832 38.0191 54.151C38.5829 53.9343 38.8642 53.3016 38.6474 52.7377C38.4307 52.1739 37.7978 51.8923 37.2342 52.1094C28.7008 55.3892 19.4627 53.899 12.5608 48.7183L13.5407 43.6034L14.0129 43.45C15.7971 42.8704 16.7771 40.9471 16.1977 39.1628L15.8512 38.0965C15.771 37.8497 15.7714 37.5889 15.8523 37.3423C16.1562 36.4157 16.0476 35.4019 15.5542 34.5606C15.0608 33.7193 14.229 33.1295 13.2719 32.9424L10.8033 32.46L6.04023 28.8386C5.75487 28.6216 5.38136 28.5583 5.04032 28.669L2.2517 29.5748C2.19253 28.5775 2.19165 27.5804 2.24787 26.5886C2.3579 26.6911 2.42954 26.7607 2.47362 26.8065C2.5282 26.8973 2.59579 26.9807 2.67498 27.0529C2.9027 27.2603 3.10898 27.3543 3.54211 27.3543C3.94012 27.3542 4.52932 27.2749 5.50222 27.1312C6.4249 26.9948 7.34278 26.8411 7.35186 26.8396C7.71968 26.778 8.03064 26.533 8.17698 26.1901C8.32333 25.8471 8.28471 25.4533 8.07461 25.145L6.73356 23.178L8.6544 21.8045C8.78237 21.713 8.88912 21.595 8.96732 21.4585L11.9448 16.2604L13.145 14.9744C14.3714 13.6599 14.7214 11.7368 14.0365 10.0747C13.6325 9.09437 12.9268 8.27822 12.0442 7.72817C13.0001 6.97666 14.0194 6.28278 15.1026 5.65748C19.0771 3.3628 23.4144 2.25078 27.7062 2.20823L25.7532 4.65812L18.511 7.19716C18.2168 7.30019 17.9806 7.52397 17.8618 7.81217L15.8392 12.7152C15.6956 13.0636 15.7412 13.4611 15.9601 13.7678L18.9141 17.9056C18.491 18.2916 18.0792 18.8538 17.5874 19.5518C17.3717 19.858 17.168 20.147 17.0273 20.3091C16.9049 20.4502 16.7824 20.588 16.661 20.7245C16.0256 21.4393 15.3687 22.1786 14.902 23.166C13.8759 25.3381 14.0831 27.8627 15.4429 29.7547C16.7577 31.584 18.9253 32.5139 21.2388 32.2417C21.6157 32.1975 21.9671 32.1106 22.3071 32.0264C23.2448 31.7944 23.5419 31.7712 23.8427 32.0527C23.989 32.1898 24.0025 32.2157 23.9995 32.6803C23.9974 32.9761 23.9951 33.344 24.0971 33.7641C24.2604 34.4362 24.6825 34.9007 25.0215 35.2739C25.19 35.4593 25.3644 35.6512 25.4181 35.7799C25.7592 36.5974 25.6107 37.0501 25.2852 38.0421C25.2573 38.127 25.2289 38.2136 25.2003 38.3024C24.7058 39.8331 25.3951 41.3515 26.0032 42.691C26.2008 43.126 26.3873 43.5366 26.5094 43.8995C27.4928 46.8175 28.23 47.4858 28.8216 47.7548C29.1315 47.8957 29.4522 47.9575 29.7761 47.9574C31.3528 47.9573 32.998 46.4934 33.7538 45.5654C34.2285 44.9826 34.3454 44.3991 34.4307 43.9729C34.4732 43.7609 34.5067 43.5935 34.5706 43.4842C34.6684 43.3168 34.7835 43.1871 34.9293 43.0228C35.2226 42.6926 35.5875 42.2818 35.8239 41.5371C36.0035 40.9714 36.134 40.8327 36.5661 40.3725C36.6414 40.2925 36.7216 40.207 36.8076 40.1133C38.2644 38.5282 37.8892 37.3173 37.4919 36.0352C37.1575 34.9564 37.7424 34.2665 39.1564 32.9497C39.7693 32.3789 40.403 31.7887 40.8929 31.0796C41.1073 30.7692 41.7595 29.825 41.3559 28.8891C40.9603 27.9714 39.9548 27.8172 39.1469 27.6934C38.8279 27.6444 38.3458 27.5704 38.1923 27.4701C37.5156 27.0277 37.1016 26.1044 36.7012 25.2113C36.6215 25.0336 36.5428 24.8582 36.4631 24.6879C36.3209 24.384 36.1788 24.0164 36.0285 23.6273C35.6305 22.5974 35.1796 21.43 34.4119 20.6163C33.7218 19.8851 32.421 19.5329 31.2734 19.2221C30.8874 19.1176 30.5231 19.019 30.2828 18.9303C30.0814 18.8559 29.8629 18.8424 29.6543 18.8914C29.0957 19.0223 28.7472 19.1666 28.4885 19.374C28.4201 19.4288 28.2177 19.6087 28.0991 19.8979C27.6987 19.7057 27.1481 19.3388 26.8092 19.1129C26.8022 19.1082 26.7951 19.1035 26.7881 19.0988C26.9023 18.6418 26.799 18.2751 26.6907 18.0461C26.0796 16.7537 24.0516 16.8549 23.6515 16.8889C23.4242 16.9079 23.1366 16.9181 22.8325 16.9288C22.3547 16.9458 21.8267 16.9648 21.3042 17.0234L21.3311 16.9484C21.7277 15.8434 22.7829 15.1008 23.9569 15.1008H24.5786C25.1826 15.1008 25.6723 14.611 25.6723 14.0072C25.6723 13.4032 25.1825 12.9135 24.5786 12.9135H23.9569C22.2139 12.9135 20.6178 13.8309 19.7233 15.2747L18.0919 12.9895L19.6969 9.09919L26.7739 6.61802C26.9679 6.54998 27.139 6.42858 27.2673 6.26769L30.4131 2.32155C38.4515 3.08619 46.0181 7.59309 50.354 15.103C51.5088 17.1034 52.3632 19.2093 52.9312 21.3632L52.4675 21.7766C51.8623 22.3166 51.5077 23.0911 51.4942 23.9017C51.4941 23.9105 51.4939 23.9193 51.4935 23.928L50.7382 21.8508C50.6256 21.5408 50.4598 21.2565 50.2457 21.006L48.8983 19.4285C48.3759 18.8169 47.6153 18.4664 46.8113 18.4664H45.162C44.5765 18.4664 44.0415 18.7871 43.7653 19.303C43.4891 19.819 43.5193 20.4423 43.8441 20.9292L44.011 21.1798C42.9452 22.0962 41.7126 22.8296 40.4001 23.3242L38.1394 18.9937V18.0276C38.1394 17.7288 38.0171 17.4428 37.8009 17.2366L35.7651 15.2931C35.6527 15.1859 35.5189 15.1039 35.3724 15.0524L33.5397 14.4084C32.9696 14.2078 32.3455 14.5078 32.1453 15.0775C31.945 15.6475 32.2446 16.2717 32.8145 16.4719L34.4249 17.038L35.952 18.4956V19.2621C35.952 19.4383 35.9947 19.612 36.0762 19.7683L38.9065 25.1897C39.1611 25.6775 39.7388 25.9004 40.2544 25.7096L41.0785 25.4058C42.9931 24.6997 44.7677 23.5638 46.2106 22.1212C46.5792 21.7525 46.6365 21.1751 46.3472 20.7412L46.289 20.6538H46.8113C46.9746 20.6538 47.1291 20.725 47.2352 20.8492L48.5826 22.4268C48.626 22.4776 48.6596 22.5351 48.6826 22.5983L50.1695 26.687C50.2973 27.0383 50.5957 27.3 50.9603 27.3809C51.0391 27.3983 51.1184 27.4068 51.1972 27.4068C51.4841 27.4068 51.7634 27.2938 51.9705 27.0865L52.6783 26.3787C53.1265 25.9304 53.435 25.3631 53.5825 24.7343C54.6771 33.5068 51.2374 42.5814 43.9668 48.2879C43.4915 48.6608 43.4086 49.3482 43.7817 49.8234C44.1546 50.2987 44.8419 50.3816 45.3172 50.0085C50.5664 45.8887 54.1725 39.9961 55.4713 33.4162C56.7824 26.7729 55.6377 19.8806 52.2481 14.0096ZM5.1719 30.9263L9.68176 34.3553C9.81509 34.4567 9.96975 34.526 10.134 34.5581L12.8522 35.0892C13.1992 35.157 13.4886 35.3622 13.6674 35.6671C13.8462 35.972 13.8838 36.3247 13.7738 36.6606C13.5474 37.3511 13.5463 38.0814 13.7709 38.7723L14.1174 39.8385C14.3244 40.4757 13.9742 41.1627 13.3371 41.3697L12.2502 41.7229C11.871 41.8461 11.589 42.1659 11.5141 42.5572L10.6393 47.1235C8.7162 45.3633 7.02767 43.283 5.65709 40.909C3.98486 38.0131 2.94011 34.9243 2.47964 31.801L5.1719 30.9263ZM2.31612 26.3033C2.31918 26.3508 2.3252 26.3979 2.33428 26.4445C2.32542 26.4006 2.31929 26.3532 2.31612 26.3033ZM12.0142 10.908C12.374 11.7812 12.1901 12.7916 11.5458 13.4822L10.2593 14.8606C10.2018 14.9222 10.1516 14.9902 10.1097 15.0633L7.18812 20.1641L4.59145 22.0209C4.10779 22.3667 3.98901 23.0353 4.32392 23.5266L5.29506 24.9511C4.73528 25.0345 4.23292 25.1032 3.89889 25.1396C3.83468 25.078 3.76753 25.0155 3.69807 24.951C3.43809 24.7095 3.07682 24.387 2.53826 23.9157C3.4265 18.4182 6.07556 13.239 10.2419 9.28567C11.0398 9.53669 11.6944 10.1319 12.0142 10.908ZM22.9099 19.1149C23.2412 19.1032 23.5542 19.092 23.8338 19.0686C23.9813 19.0563 24.1452 19.0585 24.2997 19.0706C24.2307 19.2478 24.2083 19.4422 24.2383 19.6352C24.2909 19.9746 24.5001 20.2693 24.8029 20.4313C25.008 20.5411 25.2936 20.7315 25.5959 20.9331C26.4507 21.503 27.4198 22.1488 28.3299 22.2068C29.1576 22.2605 29.6182 21.7888 29.8155 21.5877C29.8313 21.5718 29.8461 21.5558 29.8619 21.5413C29.973 21.4507 30.0771 21.3293 30.1546 21.1828C30.3295 21.2328 30.5132 21.2826 30.7016 21.3337C31.3492 21.509 32.5545 21.8354 32.8209 22.1175C33.294 22.619 33.6627 23.5735 33.9881 24.4156C34.1525 24.8412 34.3078 25.2428 34.482 25.6152C34.5568 25.775 34.6304 25.9397 34.7052 26.1063C35.2099 27.232 35.7819 28.508 36.9954 29.3012C37.5457 29.6609 38.2202 29.7643 38.8154 29.8556C38.8874 29.8667 38.9699 29.8793 39.0537 29.8931C38.7004 30.386 38.1974 30.8543 37.6659 31.3492C36.312 32.6101 34.6269 34.1794 35.4029 36.6829C35.7692 37.865 35.7863 37.9928 35.1973 38.6335C35.117 38.7209 35.0422 38.8005 34.9721 38.8751C34.4677 39.4121 34.0692 39.8363 33.7393 40.8754C33.6435 41.1771 33.5194 41.3169 33.294 41.5707C33.1137 41.7737 32.8892 42.0265 32.682 42.3809C32.4339 42.8055 32.3519 43.2143 32.2862 43.5428C32.2213 43.866 32.1846 44.0282 32.0577 44.1841C31.7688 44.5387 31.2301 45.0536 30.6769 45.405C30.1629 45.7314 29.8628 45.776 29.7605 45.7699C29.6438 45.6448 29.2211 45.097 28.5823 43.2011C28.4248 42.7334 28.2063 42.2522 27.995 41.7868C27.5291 40.7608 27.0476 39.6999 27.2818 38.9749C27.3095 38.8893 27.3369 38.8058 27.3638 38.7241C27.738 37.5833 28.0913 36.506 27.4368 34.9376C27.2375 34.46 26.9202 34.111 26.6406 33.803C26.4596 33.6038 26.2545 33.378 26.2229 33.2481C26.1844 33.0896 26.1856 32.9066 26.187 32.6948C26.1907 32.1233 26.1964 31.2598 25.3379 30.4559C24.1276 29.323 22.7162 29.672 21.7821 29.903C21.4952 29.9738 21.2242 30.041 20.984 30.0692C19.4475 30.2493 18.0757 29.6696 17.2193 28.4778C16.3235 27.2313 16.1934 25.5538 16.8801 24.1002C17.2124 23.3968 17.7146 22.8317 18.296 22.1776C18.423 22.0346 18.5512 21.8905 18.6794 21.7428C18.8927 21.497 19.1274 21.164 19.3756 20.8115C19.6721 20.3906 20.2238 19.6076 20.4633 19.4586C20.951 19.1843 22.0832 19.1442 22.9099 19.1149Z" fill="black"/>
<path d="M40.9116 46.2348C42.0272 46.0525 42.8659 44.892 43.5512 42.5825L44.8377 38.2466C44.8948 38.0539 44.8979 37.8492 44.8462 37.6549L44.32 35.6715C44.2051 35.2384 43.8376 34.9192 43.3928 34.8661C42.9474 34.814 42.5155 35.0367 42.3016 35.4306C42.1818 35.6515 42.0738 35.8856 41.9695 36.1119C41.7939 36.4926 41.6124 36.8863 41.4235 37.1037C41.3174 37.2257 41.0448 37.3573 40.7814 37.4844C40.1518 37.7882 39.2893 38.2044 38.9599 39.2546C38.7554 39.9061 38.8317 40.4214 38.8875 40.7977C38.9357 41.124 38.9469 41.2371 38.8595 41.4422L38.8486 41.4677C38.5004 42.2846 37.8527 43.8055 38.7609 45.0984C39.409 46.0211 40.0904 46.2584 40.6199 46.2584C40.7234 46.2587 40.8211 46.2496 40.9116 46.2348ZM40.5508 43.8414C40.3417 43.5437 40.6541 42.8104 40.8608 42.3251L40.8719 42.2995C41.2053 41.5171 41.1161 40.9161 41.0513 40.4773C41.0096 40.1964 40.9947 40.0756 41.0469 39.9097C41.0898 39.7733 41.346 39.6409 41.7321 39.4546C41.9033 39.3719 42.0917 39.281 42.2819 39.171L41.4544 41.9602C41.1051 43.1378 40.796 43.6875 40.6176 43.9312C40.5969 43.9051 40.5746 43.8754 40.5508 43.8414Z" fill="black"/>
<path d="M29.4608 12.975C28.8913 12.7755 28.2668 13.0751 28.0668 13.6451C27.8669 14.2151 28.1669 14.8391 28.7369 15.0391L28.8106 15.0649C28.9303 15.1069 29.0524 15.1268 29.1726 15.1268C29.6241 15.1268 30.0467 14.8449 30.2047 14.3948C30.4046 13.8248 30.1046 13.2008 29.5346 13.0009L29.4608 12.975Z" fill="black"/>
</g>
<defs>
<clipPath id="clip0">
<rect width="56" height="56" fill="white"/>
</clipPath>
</defs>
</svg>
