<svg xmlns="http://www.w3.org/2000/svg" viewBox="0 0 100 100" width="100px" height="100px"><path fill="#c8ede6" d="M87.234,55.551c0.3-0.616,0.566-1.264,0.796-1.943c2.633-7.77-1.349-17.078-9.733-19.325 C77.391,22.9,69.391,15.09,60.356,13.758c-10.341-1.525-19.814,5.044-22.966,15.485c-3.799-1.346-7.501-1.182-10.99,0.857 c-1.583,0.732-3.031,1.812-4.33,3.233c-1.907,2.086-3.147,4.719-3.652,7.495c-0.748,0.118-1.483,0.236-2.176,0.484 c-4.04,1.449-6.589,4.431-7.288,8.923c-0.435,2.797,0.443,5.587,0.933,6.714c1.935,4.455,6.422,6.98,10.981,6.312 c0.227-0.033,0.557,0.069,0.752,0.233c0.241,7.12,3.698,13.417,8.884,17.014c8.321,5.772,19.027,3.994,25.781-3.921 c2.894,2.96,6.338,4.398,10.384,3.876c4.023-0.519,7.147-2.739,9.426-6.349c1.053,0.283,2.051,0.691,3.083,0.804 c4.042,0.442,7.297-1.184,9.732-4.8c0.083-0.124,0.203-0.219,0.306-0.328c0.348-0.798,0.696-1.596,1.044-2.394 c0.155-1.211,0.429-2.423,0.443-3.632C90.742,60.508,89.411,57.54,87.234,55.551z"/><path fill="#fdfcef" d="M28.17,41.423c0,0,11.691,0,11.762,0c2.7,0,4.888-2.189,4.888-4.889 c0-2.355-1.666-4.321-3.884-4.784c0.026-0.206,0.043-0.415,0.043-0.628c0-2.796-2.267-5.063-5.063-5.063 c-1.651,0-3.113,0.794-4.037,2.017c-0.236-3.113-3.017-5.514-6.27-5.116c-2.379,0.291-4.346,2.13-4.784,4.486 c-0.14,0.756-0.126,1.489,0.014,2.177c-0.638-0.687-1.546-1.119-2.557-1.119c-1.85,0-3.361,1.441-3.48,3.261 c-0.84-0.186-1.754-0.174-2.717,0.188c-1.84,0.691-3.15,2.423-3.227,4.387c-0.109,2.789,2.12,5.085,4.885,5.085 c0.21,0,0.948,0,1.118,0h10.151"/><path fill="#472b29" d="M39.932,41.923H28.17c-0.276,0-0.5-0.224-0.5-0.5s0.224-0.5,0.5-0.5h11.762 c2.42,0,4.389-1.969,4.389-4.389c0-2.066-1.466-3.873-3.486-4.295c-0.255-0.053-0.426-0.293-0.394-0.552 c0.023-0.186,0.039-0.374,0.039-0.565c0-2.517-2.047-4.563-4.562-4.563c-1.438,0-2.765,0.663-3.638,1.818 c-0.125,0.166-0.338,0.237-0.54,0.178c-0.199-0.059-0.342-0.234-0.357-0.441c-0.104-1.377-0.779-2.671-1.85-3.549 c-1.083-0.888-2.456-1.282-3.86-1.109c-2.166,0.266-3.956,1.943-4.353,4.081c-0.124,0.667-0.12,1.335,0.013,1.986 c0.044,0.22-0.062,0.442-0.262,0.544c-0.2,0.104-0.443,0.06-0.595-0.104c-0.575-0.618-1.353-0.959-2.19-0.959 c-1.569,0-2.878,1.228-2.981,2.794c-0.01,0.146-0.082,0.279-0.199,0.366c-0.117,0.089-0.268,0.12-0.408,0.089 c-0.841-0.185-1.637-0.132-2.433,0.167c-1.669,0.627-2.835,2.209-2.903,3.938c-0.047,1.207,0.387,2.35,1.221,3.218 c0.835,0.869,1.959,1.348,3.164,1.348h11.269c0.276,0,0.5,0.224,0.5,0.5s-0.224,0.5-0.5,0.5H13.745 c-1.479,0-2.858-0.588-3.884-1.654c-1.025-1.066-1.558-2.469-1.5-3.95c0.083-2.126,1.51-4.069,3.55-4.835 c0.8-0.301,1.626-0.398,2.468-0.299c0.377-1.822,1.998-3.182,3.905-3.182c0.684,0,1.354,0.18,1.944,0.51 c0-0.386,0.035-0.772,0.106-1.159c0.477-2.562,2.621-4.573,5.215-4.891c1.679-0.205,3.32,0.266,4.616,1.328 c1.003,0.823,1.716,1.951,2.038,3.193c1.012-0.916,2.319-1.426,3.714-1.426c3.067,0,5.562,2.496,5.562,5.563 c0,0.083-0.002,0.166-0.007,0.248c2.254,0.673,3.848,2.776,3.848,5.164C45.321,39.507,42.904,41.923,39.932,41.923z"/><path fill="#fdfcef" d="M25.337,30.655c-1.808-0.119-3.365,1.13-3.476,2.789c-0.014,0.206-0.005,0.409,0.025,0.606 c-0.349-0.394-0.865-0.661-1.458-0.7c-1.085-0.071-2.022,0.645-2.158,1.62c-0.197-0.054-0.403-0.09-0.616-0.104 c-1.582-0.104-2.944,0.989-3.042,2.441"/><path fill="#472b29" d="M14.613,37.556c-0.006,0-0.012,0-0.017-0.001c-0.138-0.009-0.242-0.128-0.233-0.266 c0.107-1.587,1.588-2.789,3.308-2.674c0.137,0.009,0.273,0.026,0.409,0.053c0.274-0.968,1.256-1.645,2.366-1.567 c0.425,0.027,0.823,0.159,1.164,0.382c0-0.019,0.002-0.037,0.003-0.056c0.12-1.795,1.787-3.16,3.742-3.021 c0.138,0.009,0.242,0.128,0.233,0.266s-0.124,0.255-0.266,0.232c-1.651-0.105-3.108,1.037-3.21,2.557 c-0.012,0.184-0.004,0.37,0.023,0.553c0.017,0.109-0.041,0.217-0.141,0.264s-0.219,0.022-0.293-0.061 c-0.323-0.365-0.78-0.584-1.287-0.617c-0.951-0.034-1.775,0.556-1.894,1.404c-0.01,0.071-0.05,0.135-0.11,0.175 c-0.06,0.039-0.133,0.051-0.204,0.032c-0.187-0.051-0.377-0.083-0.567-0.097c-1.44-0.092-2.687,0.896-2.775,2.209 C14.853,37.455,14.743,37.556,14.613,37.556z"/><path fill="#fdfcef" d="M41.912,32.323c-1.699-0.801-3.664-0.234-4.389,1.267c-0.09,0.186-0.157,0.379-0.201,0.574"/><path fill="#472b29" d="M37.322,34.414c-0.018,0-0.037-0.002-0.056-0.006c-0.134-0.031-0.219-0.165-0.188-0.3 c0.049-0.217,0.123-0.428,0.219-0.627c0.783-1.621,2.902-2.239,4.721-1.385c0.125,0.06,0.179,0.208,0.12,0.333 c-0.059,0.126-0.209,0.176-0.333,0.12c-1.574-0.744-3.394-0.227-4.058,1.149c-0.08,0.165-0.141,0.34-0.182,0.521 C37.539,34.336,37.436,34.414,37.322,34.414z"/><path fill="#be7841" d="M29.199,50.913c-0.11-0.238-2.675-5.882-0.737-9.766c0.816-1.636,2.303-2.708,4.418-3.187 c1.21-0.814,2.658-1.263,4.09-1.263c1.209,0,2.384,0.309,3.49,0.916c0.577,0.317,1.043,0.585,1.434,0.809 c1.24,0.711,1.615,0.926,2.308,0.926c0.079,0,0.161-0.003,0.249-0.008c0.195-0.013,0.302-0.02,0.402-0.02 c0.791,0,0.974,0.474,1.012,0.755c0.102,0.758-0.161,1.394-0.393,1.955c-0.19,0.46-0.354,0.856-0.253,1.183 c1.295,4.191-0.714,7.604-0.801,7.747l-0.939,1.562l0.011-1.822c0-0.033,0.01-3.032-0.688-5.046 c-0.975,0.5-2.138,0.762-3.399,0.762c-2.25,0-4.731-0.797-7.196-2.309c-2.055,1.711-2.053,6.542-2.053,6.593l0.013,2.305 L29.199,50.913z"/><path fill="#472b29" d="M36.969,37.198c1.048,0,2.154,0.253,3.249,0.855c2.448,1.346,2.903,1.796,3.984,1.796 c0.088,0,0.18-0.003,0.277-0.009c0.128-0.007,0.256-0.018,0.373-0.018c0.266,0,0.479,0.054,0.515,0.322 c0.17,1.258-0.933,2.231-0.628,3.218c1.244,4.026-0.752,7.342-0.752,7.342s0.024-3.675-0.938-5.771 c-0.993,0.646-2.238,0.984-3.649,0.984c-2.132,0-4.641-0.771-7.22-2.414c-2.56,1.679-2.529,7.201-2.529,7.201 s-4.847-10.491,3.429-12.274C34.134,37.698,35.493,37.198,36.969,37.198 M36.969,36.198l0,1L36.969,36.198 c-1.499,0-3.015,0.459-4.291,1.297c-2.22,0.523-3.789,1.676-4.664,3.43c-2.044,4.095,0.617,9.951,0.731,10.198l1.925,4.167 l-0.018-4.591c-0.005-1.254,0.292-4.52,1.621-5.967c2.435,1.432,4.887,2.185,7.127,2.185c1.117,0,2.163-0.195,3.086-0.57 c0.415,1.561,0.506,3.571,0.501,4.35l-0.024,3.647l1.881-3.125c0.091-0.151,2.211-3.75,0.85-8.153 c-0.047-0.154,0.097-0.505,0.237-0.844c0.243-0.589,0.546-1.322,0.426-2.212c-0.077-0.574-0.514-1.188-1.506-1.188 c-0.11,0-0.227,0.007-0.345,0.014l-0.086,0.005c-0.077,0.004-0.15,0.007-0.219,0.007c-0.542,0-0.823-0.15-2.062-0.86 c-0.392-0.225-0.861-0.494-1.44-0.812C39.519,36.527,38.264,36.198,36.969,36.198L36.969,36.198z"/><path fill="#fabf82" d="M47.128,66.081c-0.465-0.324-6.427-2.384-6.427-2.384c-0.379-0.1-0.59-0.406-0.658-0.748 c-0.191-0.967-0.168-3.293-0.164-3.709c0.001-0.033-0.03-0.057-0.067-0.057h-0.225H34.06h-0.225c-0.037,0-0.067,0.025-0.067,0.057 c0.004,0.411,0.024,2.69-0.164,3.709c-0.063,0.343-0.279,0.647-0.658,0.748l-4.873,1.671c-0.488,0.133-0.957,0.324-1.368,0.589 c-2.151,1.387-2.213,3.657-2.302,4.08c-0.008,0.036,0.024,0.069,0.066,0.069h12.355h12.355c0.042,0,0.073-0.033,0.066-0.069 C49.16,69.626,49.128,67.475,47.128,66.081z"/><path fill="#472b29" d="M39.814,59.182c0.037,0,0.067,0.025,0.067,0.057c-0.005,0.415-0.028,2.742,0.164,3.709 c0.068,0.342,0.279,0.647,0.658,0.748c0,0,5.962,2.06,6.427,2.384c2,1.395,2.031,3.546,2.118,3.956 c0.008,0.036-0.024,0.069-0.066,0.069H36.825H24.47c-0.042,0-0.073-0.033-0.066-0.069c0.089-0.423,0.151-2.693,2.302-4.08 c0.412-0.266,0.881-0.456,1.368-0.589l4.873-1.671c0.379-0.1,0.594-0.405,0.658-0.748c0.187-1.018,0.168-3.298,0.164-3.709 c-0.001-0.033,0.03-0.057,0.067-0.057h0.225h5.528L39.814,59.182 M39.814,58.499h-0.225h-5.528h-0.225 c-0.204,0-0.402,0.081-0.544,0.223c-0.141,0.141-0.218,0.328-0.216,0.526c0.014,1.255-0.019,2.855-0.152,3.579 c-0.033,0.178-0.125,0.202-0.156,0.21l-0.024,0.006l-0.024,0.008l-4.853,1.664c-0.583,0.161-1.102,0.387-1.54,0.669 c-2.175,1.402-2.478,3.623-2.578,4.352c-0.01,0.07-0.016,0.124-0.024,0.161c-0.046,0.218,0.01,0.442,0.152,0.615 c0.145,0.176,0.36,0.276,0.592,0.276h12.355h12.355c0.231,0,0.447-0.1,0.592-0.276c0.143-0.173,0.198-0.397,0.152-0.615 c-0.008-0.038-0.014-0.094-0.024-0.165c-0.1-0.768-0.364-2.808-2.373-4.21c-0.473-0.33-4.336-1.69-6.597-2.471l-0.024-0.008 l-0.025-0.007c-0.03-0.008-0.121-0.032-0.157-0.219c-0.135-0.683-0.166-2.292-0.15-3.57c0.002-0.198-0.074-0.385-0.216-0.526 C40.216,58.58,40.018,58.499,39.814,58.499L39.814,58.499z"/><path fill="#fddbbc" d="M46.273,51.954c0.106-0.359,0.195-0.711,0.321-1.061c0.164-0.458,0.048-0.751-0.466-1.035 c-0.024-0.013-0.043-0.028-0.063-0.043c-0.082-0.013-0.161-0.023-0.228-0.031c-0.463-0.054-1.285-0.078-1.524-0.553 c-0.271-0.539-0.136-1.111-0.067-1.68c0.077-0.626-0.161-1.229-0.164-1.854c-0.043-0.061-0.073-0.134-0.082-0.221 c-0.095-0.921-0.367-1.802-0.731-2.654c-1.28-1.673-3.67-2.801-6.405-2.801c-4.079,0-7.397,2.508-7.397,5.59 c0,0.146,0.01,0.29,0.025,0.433c-0.04,0.557-0.094,1.054-0.068,1.664c0.023,0.54-0.057,0.94-0.004,1.653 c0.03,0.402-0.156,0.143-0.806,0.174c-0.083,0-0.164,0.001-0.242,0.006c-0.714,0.047-1.291,0.5-1.414,1.061 c0.087,0.053,0.157,0.138,0.189,0.264c0.26,1.041,0.224,2.245,0.75,3.212c0.294,0.54,0.752,0.615,1.224,0.964 c0.261,0.193,0.311,0.411,0.382,0.7c0.265,1.069,0.998,1.978,1.803,2.754c0.407,0.393,0.845,0.746,1.286,1.103 c0.367,0.296,0.75,0.639,1.204,0.815c0.152,0.059,0.246,0.165,0.292,0.283c0.301,0.159,0.726,0.383,0.726,0.379 c1.453,0.576,2.846,0.625,4.316-0.028c0,0.005,0,0.011,0,0.016c0.008-0.005,0.716-0.342,1.005-0.5 c0.023-0.031,0.049-0.061,0.084-0.09c0.445-0.372,0.939-0.682,1.397-1.037c0.377-0.292,0.686-0.615,0.978-0.966 c-0.067-0.152,0.082-0.021,0.22-0.18c0.652-0.747,1.264-1.923,1.37-2.88c0.006-0.049,0.042-0.085,0.068-0.12 c-0.085-0.266,0.125-0.41,0.51-0.421c0.348-0.009,0.555-0.398,0.822-0.585C45.784,53.533,46.053,52.697,46.273,51.954z"/><path fill="#9f8066" d="M44.51,51.326c0.008-0.122,0.01-0.244-0.003-0.365l0.923,0.176l-0.335,1.651l-0.372-0.067 l0.264-1.305L44.51,51.326z" opacity=".8"/><path fill="#472b29" d="M45.756,49.558c-0.317-0.079-0.654-0.087-1.011-0.13c0-0.038-0.091,0.04-0.091,0.003 c-0.225-0.022-0.344-0.284-0.348-0.558c-0.006-0.553-0.076-1.158-0.026-1.738c0.015-0.522-0.08-0.856-0.182-1.227 c0.016-0.152,0.026-0.305,0.026-0.46c0-3.168-3.319-5.746-7.397-5.746s-7.397,2.578-7.397,5.746c0,0.15,0.01,0.298,0.025,0.445 c-0.04,0.573-0.094,1.083-0.068,1.71c0.023,0.555-0.057,0.966-0.004,1.699c0.03,0.413-0.156,0.147-0.806,0.179 c-0.083,0-0.164,0.001-0.242,0.006c-0.885,0.06-1.561,0.761-1.42,1.519c0.163,0.878,0.358,1.752,0.578,2.619 c0.218,0.858,0.649,1.561,1.692,1.66c0.134,1.116,0.374,1.683,1.088,2.563c0.969,1.195,2.119,2.214,3.508,2.957 c0.144,0.077,0.998,0.543,0.998,0.537c1.453,0.592,2.846,0.642,4.316-0.029c0,0.005,0,0.011,0,0.017 c0.009-0.005,0.926-0.455,1.099-0.57c0.697-0.462,1.408-0.923,2.021-1.475c1.216-1.094,2.363-2.254,2.483-4.004 c1.031-0.092,1.458-0.784,1.679-1.622c0.215-0.821,0.372-1.656,0.546-2.487C46.986,50.377,46.594,49.766,45.756,49.558z M29.079,54.683c-0.517,0.013-0.859-0.188-1.04-0.757c-0.248-0.781-0.618-2.41-0.622-2.424c-0.391-1.188,0.347-1.715,1.662-1.466 v0.69c-0.006,0-0.013,0.573,0.001,0.576L29.079,54.683L29.079,54.683z M44.023,55.498c-0.003,0.308-0.055,0.656-0.211,0.917 c-1.442,2.406-3.471,4.156-6.379,4.851c-1.009,0.241-1.954-0.105-2.832-0.52c-1.838-0.869-3.309-2.144-4.433-3.767 c-0.368-0.532-0.565-1.103-0.537-1.757c0.037-0.863,0.009-1.729,0.009-2.595c0-0.107,0.008-0.213-0.001-0.318 c-0.216-2.375,0.285-6.774,0.285-6.861c0-2.86,3.051-5.186,6.802-5.186s6.925,2.326,6.925,5.186c0,0.059,0.024,0.128,0.021,0.186 c0.257,0.242,0.067,2.554,0.334,3.72c0.03,0.132,0.025,0.272,0.025,0.408C44.034,51.674,44.042,53.586,44.023,55.498z M46.334,50.975c-0.191,0.996-0.424,1.987-0.707,2.963c-0.16,0.551-0.461,0.717-1.034,0.77v-3.399 c0.001-0.001,0.003-0.001,0.003-0.001c-0.001-0.011-0.003-0.02-0.003-0.032v-0.718c-0.004-0.002-0.008-0.004-0.012-0.006v-0.573 c0.308,0,0.594-0.018,0.877,0.004C46.031,50.029,46.437,50.439,46.334,50.975z"/><path fill="#9f8066" d="M29.213,51.622c-0.009-0.128-0.01-0.256,0.003-0.383l-0.969,0.185l0.351,1.736l0.391-0.07 l-0.278-1.372L29.213,51.622z" opacity=".8"/><path fill="#472b29" d="M36.791,54.669c0.49,0,0.965-0.211,1.271-0.564c0.03-0.036,0.026-0.089-0.009-0.12l0,0 c-0.036-0.03-0.09-0.027-0.121,0.008c-0.249,0.281-0.665,0.442-1.14,0.442c-0.476,0-0.892-0.161-1.141-0.442 c-0.017-0.019-0.041-0.029-0.065-0.029c-0.02,0-0.04,0.007-0.056,0.02c-0.036,0.031-0.04,0.084-0.009,0.12 C35.825,54.458,36.301,54.669,36.791,54.669z"/><path fill="#472b29" d="M35.227,48.14l0.311-0.589c-1.315-0.304-2.829-0.255-4.079,0.127l0.392,0.574 C32.878,47.917,34.141,47.875,35.227,48.14z"/><path fill="#472b29" d="M41.812,48.14l0.311-0.589c-1.315-0.304-2.829-0.255-4.079,0.127l0.392,0.574 C39.463,47.917,40.726,47.875,41.812,48.14z"/><path fill="#472b29" d="M33.334,48.971c-0.316,0-0.593,0.206-0.753,0.517c0.04-0.012,0.081-0.02,0.125-0.02 c0.259,0,0.469,0.231,0.469,0.516c0,0.285-0.21,0.516-0.469,0.516c-0.085,0-0.164-0.027-0.232-0.07 c0.111,0.468,0.454,0.809,0.861,0.809c0.496,0,0.899-0.507,0.899-1.134S33.831,48.971,33.334,48.971z"/><path fill="#472b29" d="M40.209,48.971c-0.27,0-0.511,0.15-0.676,0.388c0.051-0.021,0.107-0.035,0.165-0.035 c0.259,0,0.469,0.231,0.469,0.516c0,0.285-0.21,0.516-0.469,0.516c-0.161,0-0.302-0.089-0.387-0.225 c0.012,0.613,0.409,1.106,0.897,1.106c0.496,0,0.899-0.507,0.899-1.134C41.108,49.478,40.706,48.971,40.209,48.971z"/><path fill="#472b29" d="M40.59,55.982c0.037-0.029,0.042-0.083,0.012-0.119l0,0c-0.03-0.036-0.084-0.042-0.121-0.013 c-0.81,0.637-2.155,1.002-3.691,1.002s-2.881-0.365-3.691-1.002c-0.016-0.012-0.035-0.018-0.054-0.018 c-0.025,0-0.051,0.011-0.067,0.031c-0.03,0.036-0.024,0.089,0.012,0.12c0.915,0.737,2.335,1.177,3.8,1.177 C38.255,57.159,39.676,56.719,40.59,55.982z"/><path fill="#68c8d0" d="M47.212,66.016c-0.466-0.329-1.004-0.571-1.573-0.729l-0.599-0.159 c0.004-0.001,0.008-0.002,0.012-0.003l-3.123-1.013c-1.585,0.426-3.285,0.659-5.057,0.659s-3.473-0.234-5.057-0.659l-3.123,1.013 c0.004,0.001,0.008,0.002,0.012,0.003l-0.615,0.163c-0.49,0.135-0.96,0.329-1.373,0.598c-2.16,1.41-2.221,3.716-2.311,4.145 c-0.008,0.037,0.024,0.07,0.066,0.07h12.4h12.4c0.042,0,0.073-0.033,0.066-0.07C49.25,69.619,49.219,67.433,47.212,66.016z"/><path fill="#472b29" d="M36.811,64.942c-1.669,0-3.624-0.268-5.365-0.734c-0.092-0.025-0.147-0.119-0.122-0.21 c0.025-0.091,0.119-0.143,0.213-0.12c1.712,0.459,3.635,0.723,5.274,0.723c0.644,0,1.294-0.032,1.933-0.095 c0.099-0.01,0.18,0.06,0.189,0.154c0.01,0.094-0.06,0.178-0.155,0.186C38.128,64.91,37.466,64.942,36.811,64.942z"/><path fill="#472b29" d="M40.019,64.682c-0.083,0-0.157-0.059-0.17-0.143c-0.015-0.093,0.049-0.181,0.143-0.196 c0.13-0.02,0.261-0.044,0.39-0.068c0.118-0.022,0.237-0.045,0.355-0.07c0.092-0.014,0.185,0.04,0.204,0.133 c0.019,0.092-0.042,0.182-0.135,0.201c-0.119,0.024-0.24,0.047-0.361,0.07c-0.132,0.025-0.265,0.048-0.398,0.07 C40.037,64.681,40.028,64.682,40.019,64.682z"/><path fill="#472b29" d="M24.47,70.208c-0.019,0-0.039-0.005-0.057-0.016c-0.048-0.031-0.062-0.095-0.03-0.142l3.343-5.043 c0.031-0.047,0.096-0.061,0.144-0.03c0.048,0.031,0.062,0.095,0.03,0.142l-3.343,5.043C24.537,70.191,24.504,70.208,24.47,70.208z"/><path fill="#472b29" d="M25.499,70.378c-0.019,0-0.039-0.005-0.057-0.016c-0.048-0.031-0.062-0.095-0.03-0.142l3.733-5.631 c0.031-0.048,0.096-0.061,0.144-0.03c0.048,0.031,0.062,0.095,0.03,0.142l-3.733,5.631C25.567,70.361,25.533,70.378,25.499,70.378 z"/><path fill="#472b29" d="M26.773,70.208c-0.019,0-0.039-0.005-0.057-0.016c-0.048-0.031-0.062-0.095-0.03-0.142l3.733-5.631 c0.031-0.047,0.096-0.061,0.144-0.03c0.048,0.031,0.062,0.095,0.03,0.142l-3.733,5.631C26.84,70.191,26.807,70.208,26.773,70.208z"/><path fill="#472b29" d="M27.813,70.378c-0.019,0-0.039-0.005-0.057-0.016c-0.048-0.031-0.062-0.095-0.03-0.142l3.733-5.631 c0.032-0.048,0.096-0.061,0.144-0.03c0.048,0.031,0.062,0.095,0.03,0.142l-3.733,5.631C27.88,70.361,27.847,70.378,27.813,70.378z"/><path fill="#472b29" d="M28.891,70.502c-0.019,0-0.039-0.005-0.057-0.016c-0.048-0.031-0.062-0.095-0.03-0.142l2.652-4 c0.031-0.047,0.096-0.061,0.144-0.03c0.048,0.031,0.062,0.095,0.03,0.142l-2.652,4C28.957,70.486,28.925,70.502,28.891,70.502z"/><path fill="#472b29" d="M30.007,70.628c-0.019,0-0.039-0.005-0.057-0.016c-0.048-0.031-0.062-0.095-0.03-0.142l1.326-2.001 c0.031-0.047,0.096-0.061,0.144-0.03c0.048,0.031,0.062,0.095,0.03,0.142l-1.326,2C30.074,70.611,30.041,70.628,30.007,70.628z"/><g><path fill="#512c2b" d="M37.603,59.198c0.043,0,0.079-0.049,0.079-0.107s-0.036-0.107-0.079-0.107h-1.781 c-0.043,0-0.079,0.049-0.079,0.107s0.036,0.107,0.079,0.107H37.603z"/></g><g><path fill="#be7841" d="M45.368,40.186c-0.052-0.386-0.473-0.328-0.889-0.303c-1.297,0.076-1.614-0.332-4.261-1.787 c-2.638-1.45-5.338-0.872-7.137,0.376c-8.276,1.784-3.429,12.274-3.429,12.274s-0.03-5.522,2.529-7.201 c4.286,2.729,8.375,3.053,10.869,1.43c0.962,2.095,0.938,5.77,0.938,5.77s1.995-3.316,0.752-7.342 C44.435,42.416,45.538,41.443,45.368,40.186L45.368,40.186z"/></g><g><path fill="#472b29" d="M44.372,50.718l-0.5-0.004c0-0.034,0.011-3.354-0.82-5.407c-2.736,1.563-6.882,1.002-10.94-1.493 c-2.33,1.686-2.331,6.848-2.33,6.901l-0.5,0.002c-0.001-0.23-0.001-5.678,2.688-7.411c0.082-0.052,0.186-0.053,0.268-0.002 c4.062,2.541,8.199,3.09,10.794,1.431c0.06-0.037,0.135-0.05,0.205-0.029c0.069,0.021,0.126,0.069,0.157,0.135 C44.385,46.962,44.373,50.565,44.372,50.718z"/></g><g><path fill="#fff" d="M16.405,54H6.5C6.224,54,6,53.776,6,53.5S6.224,53,6.5,53h9.905c0.276,0,0.5,0.224,0.5,0.5 S16.682,54,16.405,54z"/><path fill="#fff" d="M19.5,54h-1c-0.276,0-0.5-0.224-0.5-0.5s0.224-0.5,0.5-0.5h1c0.276,0,0.5,0.224,0.5,0.5 S19.777,54,19.5,54z"/><path fill="#fff" d="M24.491,56H15.5c-0.276,0-0.5-0.224-0.5-0.5s0.224-0.5,0.5-0.5h8.991c0.276,0,0.5,0.224,0.5,0.5 S24.767,56,24.491,56z"/><path fill="#fff" d="M13.5,56h-1c-0.276,0-0.5-0.224-0.5-0.5s0.224-0.5,0.5-0.5h1c0.276,0,0.5,0.224,0.5,0.5 S13.777,56,13.5,56z"/><path fill="#fff" d="M10.5,56h-2C8.224,56,8,55.776,8,55.5S8.224,55,8.5,55h2c0.276,0,0.5,0.224,0.5,0.5 S10.777,56,10.5,56z"/><path fill="#fff" d="M16.5,58h-2c-0.276,0-0.5-0.224-0.5-0.5s0.224-0.5,0.5-0.5h2c0.276,0,0.5,0.224,0.5,0.5 S16.776,58,16.5,58z"/><path fill="#fff" d="M19.5,49c-0.177,0-0.823,0-1,0c-0.276,0-0.5,0.224-0.5,0.5c0,0.276,0.224,0.5,0.5,0.5 c0.177,0,0.823,0,1,0c0.276,0,0.5-0.224,0.5-0.5C20,49.224,19.776,49,19.5,49z"/><path fill="#fff" d="M19.5,51c-0.177,0-4.823,0-5,0c-0.276,0-0.5,0.224-0.5,0.5c0,0.276,0.224,0.5,0.5,0.5 c0.177,0,4.823,0,5,0c0.276,0,0.5-0.224,0.5-0.5C20,51.224,19.776,51,19.5,51z"/><path fill="#fff" d="M24.5,53c-0.177,0-2.823,0-3,0c-0.276,0-0.5,0.224-0.5,0.5c0,0.276,0.224,0.5,0.5,0.5 c0.177,0,2.823,0,3,0c0.276,0,0.5-0.224,0.5-0.5C25,53.224,24.776,53,24.5,53z"/></g><g><path fill="#fdfcef" d="M66.237,60.464c-1.208-0.569-2.604-0.166-3.119,0.9c-0.064,0.132-0.111,0.269-0.143,0.408"/><path fill="#472b29" d="M62.975,61.949c-0.013,0-0.026-0.001-0.04-0.004c-0.095-0.022-0.155-0.117-0.134-0.213 c0.035-0.153,0.087-0.303,0.156-0.445c0.557-1.153,2.064-1.593,3.355-0.984c0.089,0.042,0.127,0.148,0.085,0.237 c-0.042,0.089-0.149,0.126-0.236,0.085c-1.118-0.528-2.411-0.161-2.884,0.816c-0.057,0.119-0.101,0.243-0.129,0.37 C63.129,61.894,63.056,61.949,62.975,61.949z"/><path fill="#d8ad8f" d="M75.858,66.277c-0.487-0.34-6.736-2.504-6.736-2.504c-0.397-0.106-0.618-0.426-0.689-0.786 c-0.085-0.433-0.13-1.126-0.153-1.812c1.682-0.924,3.001-2.277,4.032-3.955c0.171-0.279,0.305-0.78,0.309-1.106 c0.006-0.648,0.006-1.295,0.008-1.943c0.399-0.056,0.675-0.283,0.832-0.78c0.26-0.82,0.648-2.531,0.652-2.545 c0.348-1.062-0.168-1.611-1.179-1.591c0.126-0.078,0.512-0.473,0.665-0.778c0.024,0.001,0.048,0.004,0.072,0.004 c0.098,0,0.195-0.008,0.29-0.02c1.33,0.429,3.355,0.167,3.888-2.955c-0.488,0.627-1.3,0.892-1.981,0.831 c-0.005-0.284-0.067-0.554-0.178-0.8c0.394-0.368,0.639-0.882,0.639-1.451c0-1.12-0.947-2.028-2.115-2.028 c-0.009,0-0.017,0.001-0.025,0.001c0.082-0.248,0.127-0.513,0.127-0.787c0-1.439-1.217-2.606-2.717-2.606 c-0.258,0-0.507,0.037-0.743,0.101c0.001-0.034,0.006-0.067,0.006-0.101c0-1.705-1.519-3.088-3.392-3.088 c-1.083,0-2.045,0.463-2.666,1.182c-0.691-0.433-1.559-0.693-2.504-0.693c-2.247,0-4.068,1.456-4.068,3.253 c0,0.079,0.008,0.157,0.015,0.235c-0.528,0.253-0.935,0.665-1.114,1.197c-0.176,0.524,0.403,1.99,0.38,2.042l0,0 c-0.148,0.002-1.558,0.105-1.247,1.546c0.067,0.312,0.572,4.778,0.841,4.91c-1.01-0.02-1.524,0.532-1.176,1.594 c0.005,0.015,0.392,1.725,0.652,2.545c0.175,0.552,0.495,0.771,0.969,0.792c0.005,0.547,0.006,1.094-0.017,1.64 c-0.03,0.687,0.177,1.286,0.563,1.845c0.985,1.427,2.23,2.593,3.737,3.472c-0.023,0.686-0.067,1.388-0.151,1.846 c-0.066,0.36-0.292,0.68-0.689,0.786l-5.109,1.755c-0.512,0.14-1.003,0.34-1.434,0.619c-2.255,1.457-2.388,4.357-2.344,4.522 h12.951h12.951C78.053,70.505,77.954,67.742,75.858,66.277z"/><path fill="#efa21b" d="M68.384,46.087c0.447,0.891,1.414,1.51,2.54,1.51c0.275,0,0.541-0.039,0.793-0.108 c0.394,0.467,1.005,0.768,1.692,0.768c0.096,0,0.191-0.008,0.284-0.019c1.248,0.391,3.281,0.628,3.894-2.005 c-0.471,0.357-1.351,0.452-1.757,0.201c-0.005-0.279-0.072-0.743-0.182-0.985c0.391-0.362,0.634-0.867,0.634-1.427 c0-1.101-0.941-1.994-2.101-1.994c-0.008,0-0.017,0.001-0.025,0.001c0.081-0.244,0.126-0.504,0.126-0.774 c0-1.415-1.209-2.563-2.7-2.563c-0.256,0-0.503,0.036-0.738,0.099c0.001-0.033,0.006-0.066,0.006-0.099 c0-1.677-1.509-3.036-3.371-3.036c-1.076,0-2.032,0.456-2.649,1.163c-0.686-0.426-1.549-0.682-2.488-0.682 c-2.232,0-4.042,1.432-4.042,3.199c0,0.078,0.008,0.154,0.015,0.231c-0.525,0.249-0.929,0.654-1.107,1.177 c-0.012,0.035,0.323,1.772,0.372,1.968c0.36,0.468,0.914,0.855,1.598,1.061c0.701,0.211,1.409,0.193,2.004-0.003 c0.494,1.646,2.399,2.874,4.676,2.874C66.783,46.645,67.649,46.44,68.384,46.087z"/><path fill="#d8ad8f" d="M65.055,70.609h12.861c0.044-0.159-0.055-2.824-2.136-4.237c-0.484-0.328-6.69-2.416-6.69-2.416 c-0.395-0.102-0.651-0.388-0.8-0.709c-0.245-0.532-0.139-2.142-0.139-2.142s-1.533,0.927-2.782,1.165 c-1.225,0.121-3.331-1.066-3.331-1.066s-0.108,1.568-0.192,2.01c-0.065,0.347-0.433,0.641-0.828,0.743l-5.073,1.693 c-0.508,0.135-0.996,0.328-1.424,0.597c-2.24,1.406-2.372,4.203-2.328,4.362H65.055z"/><path fill="#00a5a5" d="M75.763,66.335c-0.475-0.312-2.589-1.152-2.589-1.152s-5.297,2.964-7.592,3.432 c-3.668,0.748-8.528,1.184-13.24,0.698l0,0c-0.133,0.551-0.227,0.991-0.235,1.357l13.124-0.061c0,0,12.7,0.035,12.692,0 C77.835,70.214,77.806,67.677,75.763,66.335z"/><path fill="#6d3c14" d="M57.775,43.059c-0.126,0.022-0.354,0.109-0.454,0.128c-0.793,0.154-0.724,0.823-0.724,0.823 l0.746,4.791c0.024-0.414,0.128-4.108,1.304-5.117C58.586,43.656,57.831,43.167,57.775,43.059z" opacity=".34"/><path fill="#472b29" d="M63.42,49.725l0.39-0.581c-1.337-0.461-2.92-0.576-4.266-0.314 C59.545,48.83,62.319,49.329,63.42,49.725z"/><path fill="#472b29" d="M70.696,48.919c-1.379-0.319-2.965-0.268-4.275,0.133l0.411,0.603 C67.908,49.304,70.696,48.919,70.696,48.919z"/><path fill="#472b29" d="M61.484,50.114c-0.331,0-0.622,0.216-0.79,0.543c0.042-0.013,0.085-0.022,0.131-0.022 c0.272,0,0.492,0.243,0.492,0.542s-0.22,0.542-0.492,0.542c-0.089,0-0.171-0.028-0.243-0.074c0.116,0.491,0.476,0.849,0.902,0.849 c0.52,0,0.942-0.533,0.942-1.191C62.426,50.647,62.005,50.114,61.484,50.114z"/><path fill="#472b29" d="M68.691,50.114c-0.283,0-0.535,0.158-0.708,0.407c0.054-0.022,0.112-0.036,0.173-0.036 c0.272,0,0.492,0.243,0.492,0.542c0,0.299-0.22,0.542-0.492,0.542c-0.168,0-0.317-0.094-0.405-0.236 c0.012,0.644,0.428,1.162,0.941,1.162c0.52,0,0.942-0.533,0.942-1.191C69.633,50.647,69.211,50.114,68.691,50.114z"/><path fill="#472b29" d="M65.07,56.244c0.55,0,1.085-0.238,1.43-0.637c0.077-0.09,0.067-0.226-0.024-0.303 c-0.091-0.077-0.228-0.066-0.305,0.022c-0.237,0.268-0.638,0.422-1.1,0.422s-0.863-0.154-1.1-0.422 c-0.075-0.085-0.215-0.097-0.306-0.021c-0.09,0.077-0.101,0.212-0.023,0.302C63.985,56.006,64.52,56.244,65.07,56.244z" opacity=".41"/><path fill="#472b29" d="M69.165,57.12c-0.037-0.045-0.088-0.073-0.147-0.079c-0.058-0.007-0.115,0.01-0.159,0.046 c-0.827,0.651-2.209,1.025-3.79,1.025c-1.581,0-2.962-0.373-3.789-1.024c-0.09-0.073-0.234-0.055-0.306,0.032 c-0.075,0.092-0.061,0.227,0.032,0.301c0.981,0.792,2.5,1.265,4.063,1.265s3.082-0.473,4.063-1.264 C69.226,57.347,69.24,57.212,69.165,57.12z" opacity=".49"/><path fill="#472b29" d="M65.244,62.363c-1.301,0-3.392-1.172-3.485-1.224c-0.085-0.049-0.116-0.157-0.067-0.242 c0.048-0.085,0.155-0.115,0.242-0.067c0.023,0.013,2.305,1.291,3.464,1.17c1.177-0.119,2.89-1.183,2.908-1.193 c0.083-0.052,0.193-0.026,0.245,0.056c0.052,0.083,0.027,0.193-0.057,0.245c-0.073,0.046-1.8,1.117-3.06,1.246 C65.373,62.361,65.31,62.363,65.244,62.363z"/><path fill="#472b29" d="M56.623,69.726c-1.419,0-2.858-0.079-4.3-0.237c-0.098-0.01-0.168-0.098-0.157-0.196 c0.011-0.098,0.1-0.177,0.196-0.157c4.561,0.5,9.076,0.197,13.06-0.875c1.161-0.313,2.314-0.705,3.426-1.166 c0.092-0.036,0.195,0.006,0.232,0.096c0.037,0.091-0.006,0.194-0.096,0.232c-1.126,0.466-2.294,0.863-3.47,1.18 C62.75,69.349,59.733,69.726,56.623,69.726z"/><path fill="#472b29" d="M70.281,66.829c-0.066,0-0.13-0.037-0.16-0.101c-0.042-0.089-0.005-0.194,0.084-0.237 c0.543-0.259,1.246-0.623,1.791-0.927c0.085-0.047,0.194-0.017,0.242,0.069c0.048,0.086,0.017,0.194-0.068,0.242 c-0.551,0.307-1.262,0.675-1.812,0.936C70.333,66.824,70.307,66.829,70.281,66.829z"/><path fill="#e2900e" d="M75.828,46.36c-0.005-0.277-0.072-0.738-0.182-0.978c0.391-0.36,0.634-0.861,0.634-1.417 c0-1.094-0.941-1.981-2.101-1.981c-0.008,0-0.017,0.001-0.025,0.001c0.081-0.243,0.126-0.501,0.126-0.769 c0-1.406-1.209-2.545-2.7-2.545c-0.256,0-0.503,0.036-0.738,0.099c0.001-0.033,0.006-0.065,0.006-0.099 c0-1.666-1.509-3.016-3.371-3.016c-0.838,0-1.6,0.277-2.189,0.73c0.276,0.28,0.094-0.038,0.276,0.28 c0.88-0.323,2.371-0.114,3.316,0.397c1.635,0.885,2.295,3.254,1.493,4.717c-0.016,0.029-0.035,0.056-0.052,0.084 c0.237,0.056,0.471,0.142,0.696,0.264c1.309,0.709,1.822,2.284,1.145,3.518c-0.129,0.235-0.292,0.441-0.481,0.615 c0.007,0.004,0.015,0.007,0.022,0.011c0.709,0.384,1.108,1.094,1.114,1.814c0.189,0.051,0.385,0.085,0.592,0.085 c0.096,0,0.191-0.008,0.284-0.019c1.248,0.388,3.281,0.624,3.894-1.991C77.114,46.515,76.234,46.61,75.828,46.36z"/><path fill="#472b29" d="M74.989,48.746c-0.511,0-1.01-0.13-1.275-0.337c-0.075,0.008-0.15,0.012-0.227,0.012 c-0.68,0-1.317-0.271-1.763-0.747c-1.33,0.314-2.73-0.28-3.369-1.372c-0.751,0.331-1.601,0.505-2.469,0.505 c-2.263,0-4.214-1.157-4.82-2.835c-0.615,0.164-1.302,0.149-1.953-0.046c-0.784-0.235-1.432-0.695-1.825-1.297 c-0.053-0.083-0.03-0.192,0.052-0.246c0.083-0.055,0.193-0.031,0.246,0.051c0.347,0.532,0.925,0.94,1.629,1.151 c0.642,0.192,1.321,0.192,1.91-0.002c0.045-0.016,0.095-0.01,0.138,0.011c0.042,0.022,0.074,0.06,0.088,0.106 c0.488,1.619,2.353,2.75,4.536,2.75c0.875,0,1.729-0.187,2.469-0.541c0.088-0.04,0.192-0.006,0.235,0.081 c0.539,1.069,1.888,1.655,3.148,1.312c0.066-0.019,0.137,0.003,0.182,0.056c0.437,0.514,1.151,0.776,1.83,0.688 c0.055-0.005,0.11,0.012,0.149,0.051c0.245,0.247,1.283,0.454,1.957,0.117c0.089-0.042,0.195-0.008,0.238,0.08 c0.044,0.087,0.008,0.194-0.079,0.238C75.719,48.681,75.351,48.746,74.989,48.746z"/><path fill="#472b29" d="M78.074,71.025H52.172c-0.161,0-0.302-0.108-0.343-0.263c-0.054-0.202,0.014-0.958,0.244-1.745 c0.005-0.022,0.011-0.044,0.019-0.065c0.29-0.95,0.911-2.25,2.231-3.103c0.434-0.28,0.95-0.502,1.533-0.663l5.088-1.748 c0.333-0.09,0.426-0.36,0.455-0.514c0.063-0.346,0.109-0.878,0.137-1.584c-1.453-0.881-2.686-2.047-3.667-3.468 c-0.452-0.654-0.657-1.329-0.625-2.062c0.019-0.439,0.022-0.879,0.019-1.319c-0.463-0.12-0.783-0.452-0.954-0.991 c-0.106-0.335-0.304-1.04-0.642-2.498c-0.263-0.817-0.086-1.289,0.106-1.55c0.156-0.21,0.446-0.452,0.975-0.53 c-0.083-0.471-0.222-1.299-0.402-2.374c-0.164-0.982-0.335-1.997-0.364-2.131c-0.12-0.555-0.037-1.016,0.246-1.369 c0.23-0.289,0.547-0.44,0.815-0.519c-0.333-0.741-0.391-1.39-0.176-1.911c0.225-0.544,0.593-0.977,1.072-1.265 c0-0.01,0-0.021,0-0.031c0-1.99,1.984-3.608,4.423-3.608c0.877,0,1.714,0.206,2.439,0.6c0.708-0.695,1.687-1.089,2.731-1.089 c1.946,0,3.55,1.369,3.731,3.113c1.835-0.226,3.472,1.174,3.472,2.936c0,0.158-0.013,0.314-0.039,0.468 c1.173,0.198,2.052,1.174,2.052,2.345c0,0.569-0.204,1.106-0.581,1.534c0.04,0.119,0.069,0.241,0.09,0.365 c0.454-0.031,1.006-0.223,1.375-0.697c0.1-0.128,0.276-0.173,0.424-0.108c0.149,0.066,0.234,0.225,0.207,0.385 c-0.294,1.725-0.73,2.749-2.188,3.224c-1.029,0.276-1.878,0.139-2.231,0.072c-0.032,0.046-0.066,0.092-0.101,0.137 c0.333,0.11,0.535,0.292,0.656,0.456c0.192,0.26,0.368,0.731,0.115,1.501c-0.348,1.502-0.545,2.207-0.651,2.542 c-0.153,0.484-0.427,0.801-0.817,0.948v0.063c-0.001,0.536-0.002,1.072-0.007,1.607c-0.004,0.4-0.162,0.967-0.361,1.289 c-1.06,1.727-2.396,3.062-3.972,3.971c0.028,0.691,0.075,1.22,0.138,1.54c0.031,0.156,0.128,0.43,0.431,0.511 c1.076,0.372,6.346,2.205,6.849,2.556c2.282,1.595,2.351,4.548,2.291,4.775C78.376,70.916,78.235,71.025,78.074,71.025z M52.537,70.314h25.186c-0.063-0.731-0.443-2.655-2.003-3.745c-0.355-0.238-4.266-1.635-6.649-2.46 c-0.462-0.121-0.816-0.518-0.921-1.053c-0.078-0.395-0.131-1.024-0.159-1.869c-0.005-0.134,0.067-0.259,0.184-0.323 c1.55-0.85,2.862-2.138,3.9-3.829c0.132-0.214,0.254-0.654,0.256-0.924c0.006-0.534,0.006-1.068,0.007-1.602l0.001-0.338 c0-0.177,0.131-0.326,0.306-0.351c0.235-0.033,0.417-0.137,0.543-0.536c0.102-0.323,0.294-1.008,0.627-2.443 c0.015-0.065,0.024-0.101,0.025-0.103c0.088-0.269,0.157-0.634-0.01-0.861c-0.133-0.18-0.421-0.287-0.823-0.267 c-0.002,0-0.005,0-0.007,0c-0.158,0-0.296-0.103-0.341-0.255c-0.045-0.153,0.018-0.319,0.154-0.403 c0.077-0.051,0.412-0.391,0.534-0.634c0.062-0.123,0.192-0.193,0.328-0.196c0.087,0.004,0.148,0.011,0.238,0.029 c0.282,0.057,1.033,0.207,1.961-0.042c0.796-0.26,1.203-0.687,1.484-1.705c-0.442,0.225-0.954,0.33-1.457,0.287 c-0.181-0.016-0.32-0.167-0.323-0.348c-0.004-0.231-0.053-0.453-0.147-0.661c-0.062-0.138-0.03-0.301,0.081-0.405 c0.339-0.317,0.526-0.741,0.526-1.192c0-0.922-0.789-1.673-1.759-1.673c-0.114,0-0.234-0.054-0.301-0.146 c-0.067-0.092-0.098-0.21-0.062-0.319c0.073-0.219,0.109-0.446,0.109-0.676c0-1.241-1.059-2.251-2.362-2.251 c-0.215,0-0.434,0.03-0.65,0.089c-0.109,0.03-0.226,0.006-0.315-0.065c-0.088-0.071-0.138-0.18-0.134-0.293l0.329-0.079 l-0.002-0.008h-0.322c0-1.507-1.362-2.732-3.037-2.732c-0.942,0-1.816,0.386-2.397,1.06c-0.115,0.133-0.309,0.162-0.458,0.069 c-0.667-0.418-1.468-0.639-2.316-0.639c-2.047,0-3.713,1.3-3.713,2.898c0,0.065,0.007,0.128,0.012,0.192 c0.014,0.148-0.065,0.299-0.199,0.364c-0.425,0.203-0.75,0.554-0.939,1.012c-0.167,0.403-0.047,1.002,0.338,1.687 c0.054,0.096,0.084,0.257,0.041,0.358c-0.055,0.13-0.182,0.215-0.323,0.217c-0.006,0-0.54,0.019-0.797,0.34 c-0.143,0.179-0.179,0.44-0.106,0.776c0.03,0.14,0.16,0.911,0.37,2.163c0.192,1.146,0.431,2.571,0.471,2.742 c0.025,0.107-0.001,0.219-0.07,0.305c-0.069,0.085-0.19,0.132-0.283,0.131c-0.4-0.019-0.687,0.087-0.82,0.267 c-0.168,0.228-0.099,0.593-0.011,0.861c0.002,0.006,0.011,0.042,0.026,0.106c0.333,1.435,0.525,2.12,0.627,2.443 c0.138,0.437,0.35,0.532,0.646,0.545c0.189,0.008,0.338,0.163,0.34,0.352c0.005,0.553,0.006,1.106-0.018,1.659 c-0.025,0.573,0.139,1.105,0.5,1.627c0.963,1.394,2.182,2.527,3.624,3.367c0.113,0.065,0.18,0.188,0.176,0.319 c-0.028,0.847-0.081,1.485-0.157,1.898c-0.098,0.536-0.452,0.933-0.947,1.065l-5.085,1.748c-0.535,0.148-0.984,0.341-1.357,0.581 c-1.151,0.744-1.692,1.9-1.944,2.738c0,0.001,0,0.001-0.001,0.002c0,0,0,0.001,0,0.001C52.623,69.658,52.562,70.057,52.537,70.314 z"/><path fill="#9f8066" d="M57.282,51.028c-0.006-0.089-0.007-0.178,0.002-0.267l-0.625,0.129l0.227,1.207l0.252-0.049 l-0.179-0.954L57.282,51.028z" opacity=".8"/><ellipse cx="60.424" cy="55.253" fill="#ba8964" opacity=".8" rx="1.289" ry="1.309"/><ellipse cx="70.337" cy="55.253" fill="#ba8964" opacity=".8" rx="1.289" ry="1.309"/><ellipse cx="63.077" cy="52.64" fill="#9f8066" opacity=".8" rx=".146" ry=".148"/><ellipse cx="63.223" cy="53.766" fill="#9f8066" opacity=".8" rx=".146" ry=".148"/><ellipse cx="64.223" cy="53.151" fill="#9f8066" opacity=".8" rx=".146" ry=".148"/><ellipse cx="66.325" cy="53.13" fill="#9f8066" opacity=".8" rx=".146" ry=".148"/><ellipse cx="66.894" cy="54.107" fill="#9f8066" opacity=".8" rx=".146" ry=".148"/><ellipse cx="67.575" cy="53.142" fill="#9f8066" opacity=".8" rx=".146" ry=".148"/><path fill="#472b29" d="M57.759,54.391c-0.109,0-0.202-0.083-0.212-0.194l-0.456-4.966 c-0.011-0.117,0.076-0.221,0.193-0.232c0.118-0.007,0.221,0.076,0.232,0.193l0.456,4.966c0.011,0.117-0.076,0.221-0.193,0.232 C57.773,54.391,57.766,54.391,57.759,54.391z"/><path fill="#9f8066" d="M72.932,50.958c0.006-0.089,0.007-0.178-0.002-0.267l0.625,0.129l-0.227,1.207l-0.252-0.049 l0.179-0.954L72.932,50.958z" opacity=".8"/><path fill="#472b29" d="M72.564,54.322c-0.005,0-0.009,0-0.013,0c-0.118-0.008-0.207-0.108-0.2-0.226l0.295-4.847 c0.007-0.118,0.123-0.197,0.226-0.2c0.118,0.008,0.207,0.108,0.2,0.226l-0.295,4.847C72.769,54.235,72.675,54.322,72.564,54.322z"/><path fill="#472b29" d="M77.579,70.648c-0.035,0-0.069-0.017-0.089-0.049l-3.429-5.247 c-0.032-0.049-0.018-0.115,0.031-0.148c0.049-0.032,0.115-0.018,0.147,0.031l3.429,5.247c0.032,0.049,0.018,0.115-0.031,0.148 C77.619,70.642,77.599,70.648,77.579,70.648z"/><path fill="#472b29" d="M76.523,70.824c-0.035,0-0.069-0.017-0.089-0.049l-3.829-5.859 c-0.032-0.049-0.018-0.115,0.031-0.148c0.05-0.032,0.116-0.018,0.147,0.031l3.829,5.859c0.032,0.049,0.018,0.115-0.031,0.148 C76.563,70.819,76.543,70.824,76.523,70.824z"/><path fill="#472b29" d="M75.217,70.648c-0.035,0-0.069-0.017-0.089-0.049l-3.094-4.735 c-0.032-0.049-0.018-0.115,0.031-0.148c0.049-0.032,0.115-0.018,0.147,0.031l3.094,4.735c0.032,0.049,0.018,0.115-0.031,0.148 C75.257,70.642,75.237,70.648,75.217,70.648z"/><path fill="#472b29" d="M74.15,70.824c-0.035,0-0.069-0.017-0.089-0.049l-2.955-4.522 c-0.032-0.049-0.018-0.115,0.031-0.148c0.049-0.032,0.115-0.018,0.147,0.031l2.955,4.522c0.032,0.049,0.018,0.115-0.031,0.148 C74.19,70.819,74.17,70.824,74.15,70.824z"/><path fill="#472b29" d="M73.045,70.954c-0.035,0-0.069-0.017-0.089-0.049l-2.19-3.35 c-0.032-0.049-0.018-0.115,0.031-0.148c0.049-0.032,0.115-0.018,0.147,0.031l2.19,3.35c0.032,0.049,0.018,0.115-0.031,0.148 C73.085,70.948,73.065,70.954,73.045,70.954z"/><path fill="#472b29" d="M71.899,71.085c-0.035,0-0.069-0.017-0.089-0.049l-0.875-1.339 c-0.032-0.049-0.018-0.115,0.031-0.148c0.05-0.032,0.115-0.018,0.147,0.031l0.875,1.339c0.032,0.049,0.018,0.115-0.031,0.148 C71.939,71.08,71.919,71.085,71.899,71.085z"/></g><g><path fill="#88ae45" d="M65.473,74.806c-0.082-1.642-0.147-2.913-0.147-2.913c-0.288-1.526-0.91-2.419-2.376-2.862 c-0.064-0.019-0.149-0.05-0.246-0.087c-0.111-0.048-0.252-0.105-0.416-0.169c-0.481-0.203-5.209-1.853-6.729-2.419 c-2.074,1.461-3.006,2.024-4.39,2.024c-1.475,0-2.86-0.644-4.378-2.133l-2.302,0.85c-0.006-0.003-0.012-0.006-0.017-0.009 l-0.223,0.059l-3.15,1.142c-0.56,0.147-1.098,0.356-1.571,0.647c-1.275,0.787-1.92,1.968-2.249,2.958c0,0-0.333,2.358-0.32,2.442 c-0.006,0.061-0.012,0.232-0.018,0.471H65.473z"/><path fill="#fdfcef" d="M47.684,71.09c0.271,0.733-0.135,1.788-0.154,2.533c-0.011,0.42,0.02,0.808,0.072,1.183h7.685 c0.236-0.359,0.493-0.708,0.783-1.045c-0.522-0.656-0.886-1.416-1.416-2.064c-0.128-0.157-0.137-0.348,0-0.503 c0.298-0.336,0.713-0.506,1.12-0.675c0.448-0.185,0.882-0.387,1.334-0.554c-0.286-1.186-0.85-2.26-1.555-3.251 c-0.093-0.131-0.074-0.259-0.003-0.355c-2.069,1.457-3.001,2.02-4.384,2.02c-1.41,0-2.816-0.567-4.125-1.975 c-0.174,1.081-1.156,2.541-0.428,3.604C46.902,70.428,47.493,70.573,47.684,71.09z"/><path fill="#d5e27b" d="M50.017,71.685l-1.175-2.926h4.706l-1.175,2.926C51.849,72.719,50.54,72.719,50.017,71.685z"/><path fill="#e1e0d8" d="M46.919,66.042l-0.998,0.801l2.615,5.646l2.811-4.05C51.347,68.439,47.127,67.176,46.919,66.042z"/><path fill="#e1e0d8" d="M55.282,66.042l1.151,0.693l-2.768,5.754l-2.811-4.05C50.854,68.439,55.074,67.176,55.282,66.042 z"/><path fill="#db9e71" d="M59.848,53.005c-0.083-0.006-0.168-0.007-0.256-0.006c-0.686-0.033-0.882,0.241-0.85-0.184 c0.055-0.754-0.05-3.811-0.05-3.966c0-3.168-3.308-5.752-7.441-5.896v-0.009c-0.028,0.001-0.055,0.004-0.083,0.005 c-0.028-0.001-0.055-0.004-0.083-0.005v0.009c-4.133,0.143-7.441,2.727-7.441,5.896c0,0.154-0.105,3.212-0.05,3.966 c0.031,0.425-0.164,0.151-0.85,0.184c-0.088,0-0.173,0.001-0.256,0.006c-0.752,0.05-1.361,0.529-1.491,1.122 c0.092,0.056,0.435,2.653,0.989,3.676c0.31,0.571,0.793,0.651,1.29,1.019c0.275,0.204,0.328,0.435,0.404,0.74 c0.279,1.131,1.053,2.092,1.901,2.912c0.419,0.405,3.198,3.368,5.587,3.218c2.399-0.09,5.168-2.813,5.587-3.218 c0.849-0.82,1.623-1.781,1.901-2.912c0.075-0.305,0.128-0.536,0.404-0.74c0.497-0.369,0.981-0.448,1.29-1.019 c0.555-1.023,0.897-3.62,0.989-3.676C61.209,53.534,60.601,53.055,59.848,53.005z"/><path fill="#512c2b" d="M51.211,58.024c0.485,0,0.956-0.212,1.259-0.567c0.03-0.036,0.026-0.09-0.009-0.12l0,0 c-0.035-0.03-0.089-0.027-0.12,0.008c-0.247,0.282-0.659,0.444-1.13,0.444c-0.471,0-0.883-0.162-1.13-0.444 c-0.017-0.019-0.041-0.029-0.064-0.029c-0.02,0-0.04,0.007-0.056,0.021c-0.035,0.031-0.04,0.085-0.009,0.12 C50.255,57.812,50.725,58.024,51.211,58.024z"/><path fill="#512c2b" d="M49.662,51.464l0.308-0.592c-1.303-0.305-2.802-0.257-4.04,0.127l0.388,0.577 C47.336,51.241,48.587,51.198,49.662,51.464z"/><path fill="#88ae45" d="M56.252,74.806l0.718-1.251l-1.872-2.144l2.903-1.071c-1.223-3.928-2.903-4.643-2.903-4.643 c-0.381,2.942-1.009,6.205-1.638,9.109H56.252z"/><path fill="#88ae45" d="M45.202,73.556l0.705,1.251h2.773c-0.612-2.904-1.227-6.166-1.607-9.109 c0,0-1.68,0.715-2.904,4.643l2.904,1.071L45.202,73.556z"/><path fill="#512c2b" d="M56.183,51.464l0.308-0.592c-1.303-0.305-2.802-0.257-4.04,0.127l0.388,0.577 C53.857,51.241,55.108,51.198,56.183,51.464z"/><path fill="#512c2b" d="M47.788,52.299c-0.313,0-0.587,0.207-0.746,0.519c0.04-0.012,0.08-0.021,0.124-0.021 c0.257,0,0.465,0.232,0.465,0.519c0,0.286-0.208,0.519-0.465,0.519c-0.084,0-0.162-0.027-0.23-0.07 c0.11,0.47,0.45,0.812,0.852,0.812c0.491,0,0.89-0.51,0.89-1.139C48.677,52.809,48.279,52.299,47.788,52.299z"/><path fill="#512c2b" d="M54.596,52.299c-0.267,0-0.506,0.151-0.669,0.39c0.051-0.021,0.106-0.035,0.163-0.035 c0.257,0,0.465,0.232,0.465,0.519c0,0.286-0.208,0.519-0.465,0.519c-0.159,0-0.299-0.09-0.383-0.226 c0.012,0.616,0.405,1.111,0.889,1.111c0.491,0,0.89-0.51,0.89-1.139C55.486,52.809,55.088,52.299,54.596,52.299z"/><path fill="#472b29" d="M45.031,75.823c-5.127,0-8.028-0.043-8.071-0.044c-0.261-0.004-0.475-0.208-0.491-0.469 c-0.005-0.078-0.115-1.931,0.329-3.459c0.466-1.606,1.042-2.364,2.466-3.244c0.483-0.298,1.057-0.535,1.707-0.705l5.021-1.822 c0.34-0.089,0.565-0.289,0.592-0.43c0.016-0.08,0.055-0.367,0.103-1.35c-0.709-0.505-1.283-0.955-1.455-1.123 c-1.129-1.104-1.777-2.115-2.038-3.184c-0.076-0.313-0.101-0.379-0.218-0.468c-0.142-0.106-0.284-0.185-0.418-0.261 c-0.344-0.194-0.735-0.415-1.013-0.934c-0.616-1.148-1.048-3.251-1.048-3.953c0-0.035,0.004-0.071,0.011-0.105 c0.181-0.836,0.981-1.463,1.946-1.527c0.092-0.007,0.189-0.008,0.289-0.008c0.125-0.004,0.238-0.002,0.339,0.005 c-0.017-0.898,0.03-2.562,0.051-3.337l0.01-0.365c0-3.443,3.432-6.266,7.831-6.458c0.043-0.011,0.084-0.015,0.129-0.014 c0.003,0,0.092,0.001,0.121,0c0.04,0,0.021,0,0.027,0c0.04,0,0.079,0.005,0.117,0.014c4.396,0.194,7.824,3.016,7.824,6.458 l0.01,0.366c0.021,0.783,0.069,2.475,0.053,3.337c0.11-0.01,0.231-0.013,0.362-0.005c0.08-0.001,0.173,0,0.267,0.007 c0.963,0.064,1.763,0.691,1.943,1.527c0.008,0.034,0.012,0.07,0.012,0.105c0,0.786-0.45,2.838-1.049,3.953 c-0.277,0.519-0.668,0.739-1.012,0.934c-0.135,0.076-0.276,0.154-0.419,0.262c-0.117,0.088-0.142,0.153-0.214,0.452 c-0.265,1.084-0.912,2.096-2.041,3.198c-0.175,0.171-0.772,0.663-1.551,1.228c0.003,0.641,0.07,1.018,0.139,1.163 c0.125,0.269,0.312,0.436,0.552,0.497c0.266,0.095,5.35,1.971,6.237,2.346c0.16,0.063,0.307,0.122,0.424,0.173 c0.063,0.023,0.136,0.05,0.191,0.067c1.548,0.467,2.361,1.422,2.709,3.188c0.438,1.023,0.436,3.194,0.434,3.443 c-0.002,0.274-0.226,0.496-0.5,0.496c-0.001,0-0.002,0-0.002,0c-0.074,0.001-7.496-0.034-11.348,0 C50.76,75.813,47.613,75.823,45.031,75.823z M37.455,74.785c1.689,0.021,7.766,0.078,16.925-0.006 c3.273-0.028,9.104-0.01,10.854-0.002c-0.023-0.797-0.11-2.038-0.361-2.574c-0.018-0.038-0.03-0.078-0.038-0.119 c-0.272-1.441-0.822-2.112-2.029-2.477c-0.074-0.022-0.173-0.057-0.281-0.1c-0.126-0.055-0.261-0.108-0.418-0.17 c-0.88-0.371-6.104-2.3-6.157-2.319c-0.479-0.118-0.91-0.488-1.162-1.026c-0.17-0.363-0.248-0.987-0.23-1.854 c0.003-0.158,0.081-0.306,0.21-0.397c0.855-0.609,1.5-1.141,1.64-1.277c0.989-0.967,1.551-1.826,1.766-2.706 c0.083-0.344,0.174-0.718,0.588-1.029c0.181-0.135,0.357-0.236,0.527-0.333c0.29-0.164,0.481-0.271,0.623-0.535 c0.512-0.954,0.905-2.782,0.929-3.424c-0.109-0.371-0.529-0.659-1.022-0.691c-0.073-0.005-0.146-0.006-0.223-0.006 c-0.227-0.01-0.373,0.014-0.492,0.032c-0.175,0.029-0.442,0.07-0.662-0.132c-0.226-0.207-0.204-0.499-0.195-0.623 c0.043-0.591-0.018-2.763-0.041-3.581c-0.006-0.218-0.01-0.362-0.01-0.394c0-2.927-3.057-5.326-6.959-5.462 c-0.02-0.001-0.039-0.003-0.059-0.006c-0.008,0-0.014,0.001-0.019,0.001c-0.018,0.002-0.035,0.004-0.054,0.005 c-3.902,0.136-6.959,2.535-6.959,5.462c0,0.031-0.004,0.175-0.01,0.393c-0.023,0.818-0.084,2.991-0.041,3.582 c0.009,0.125,0.03,0.416-0.195,0.623c-0.218,0.202-0.485,0.161-0.662,0.132c-0.119-0.02-0.269-0.037-0.467-0.033 c-0.101,0.001-0.174,0.002-0.246,0.007c-0.495,0.032-0.915,0.32-1.025,0.691c0.024,0.649,0.436,2.504,0.929,3.424 c0.141,0.264,0.333,0.371,0.623,0.535c0.17,0.097,0.348,0.197,0.528,0.332c0.415,0.313,0.505,0.687,0.585,1.017 c0.218,0.893,0.779,1.753,1.769,2.72c0.11,0.108,0.697,0.578,1.554,1.177c0.141,0.099,0.221,0.262,0.213,0.433 c-0.063,1.406-0.115,1.678-0.132,1.767c-0.121,0.632-0.73,1.056-1.281,1.195l-5.018,1.821c-0.597,0.159-1.08,0.357-1.479,0.604 c-1.215,0.75-1.633,1.3-2.031,2.672C37.488,73.062,37.451,74.173,37.455,74.785z"/><path fill="#895d3d" d="M59.979,56.484l-0.596-0.066l0.125-1.116l-0.581,0.252l-0.238-0.551l1.057-0.458 c0.099-0.043,0.212-0.029,0.298,0.034s0.132,0.168,0.119,0.274L59.979,56.484z"/><path fill="#895d3d" d="M42.588,56.241l-0.184-1.631c-0.012-0.106,0.034-0.211,0.12-0.274 c0.085-0.065,0.2-0.077,0.297-0.034l1.057,0.458l-0.238,0.551l-0.582-0.252l0.126,1.116L42.588,56.241z"/><path fill="#472b29" d="M43.626,59.447c-0.001,0-0.002,0-0.004,0c-0.11-0.002-0.198-0.094-0.196-0.204l0.117-6.147 c0.002-0.109,0.091-0.196,0.2-0.196c0.001,0,0.002,0,0.004,0c0.11,0.002,0.198,0.094,0.196,0.204l-0.117,6.147 C43.824,59.36,43.735,59.447,43.626,59.447z"/><path fill="#472b29" d="M58.827,59.447c-0.108,0-0.198-0.087-0.2-0.196l-0.117-6.147c-0.002-0.11,0.086-0.202,0.196-0.204 c0.001,0,0.003,0,0.004,0c0.108,0,0.198,0.087,0.2,0.196l0.117,6.147c0.002,0.11-0.086,0.202-0.196,0.204 C58.83,59.447,58.828,59.447,58.827,59.447z"/><path fill="#6d1b18" d="M48.735,60.308c-0.029,0.11-0.045,0.223-0.045,0.339c0,0.993,1.099,1.798,2.454,1.798 c1.355,0,2.454-0.805,2.454-1.798c0-0.116-0.016-0.229-0.045-0.339H48.735z"/><path fill="#ee3e54" d="M52.44,62.168c-0.215-0.252-0.714-0.428-1.296-0.428c-0.582,0-1.081,0.176-1.296,0.428 c0.377,0.173,0.819,0.277,1.296,0.277S52.063,62.341,52.44,62.168z"/><path fill="#fdfcef" d="M49.438,60.308c-0.001,0.011-0.005,0.021-0.005,0.032v0.304c0,0.266,0.35,0.483,0.779,0.483h1.865 c0.428,0,0.779-0.217,0.779-0.483V60.34c0-0.011-0.004-0.021-0.005-0.032H49.438z"/><path fill="#472b29" d="M51.145,62.646c-1.463,0-2.654-0.896-2.654-1.998c0-0.128,0.018-0.26,0.052-0.391 c0.023-0.088,0.103-0.149,0.193-0.149h4.817c0.091,0,0.17,0.062,0.193,0.148c0.034,0.13,0.052,0.261,0.052,0.392 C53.798,61.749,52.607,62.646,51.145,62.646z M48.899,60.508c-0.006,0.047-0.009,0.094-0.009,0.14 c0,0.881,1.011,1.598,2.254,1.598c1.242,0,2.253-0.717,2.253-1.598c0-0.047-0.003-0.093-0.009-0.14H48.899z"/><g><path fill="#512c2b" d="M58.863,57.458c-0.52,1.507-1.062,2.854-1.462,3.759c-0.169,0.382-0.736,0.407-0.937,0.038 c-0.341-0.627-0.927-1.296-1.719-1.661c-1.92-0.885-3.412,0.204-3.412,0.204c0.799,0.022,1.837,0.185,2.275,0.908 c1.538,2.538-2.187,2.951-2.331,2.816c-0.145,0.135-3.869-0.277-2.331-2.816c0.438-0.723,1.475-0.885,2.275-0.908 c0,0-1.493-1.09-3.412-0.204c-0.791,0.365-1.378,1.035-1.719,1.661c-0.201,0.368-0.768,0.344-0.937-0.038 c-0.366-0.828-0.851-2.033-1.33-3.385c-0.068,0.814-0.194,1.623-0.264,2.437c0.023,0.105,0.045,0.21,0.07,0.314 c0.409,1.744,0.931,5.925,6.486,7.76c0.632,0.209,1.679,0.21,2.312,0.004c5.256-1.711,6.005-5.474,6.415-7.385 C58.781,59.796,58.811,58.63,58.863,57.458z"/></g><g><path fill="#d5e27b" d="M52.39,74.806l0.079-1.807c-0.566-1.172-1.982-1.172-2.548,0l-0.02,1.807H52.39z"/></g><g><line x1="47.012" x2="48.747" y1="66.763" y2="75.279" fill="#fff"/><polygon fill="#472b29" points="48.624,75.305 46.889,66.788 47.134,66.737 48.869,75.254"/><path fill="#472b29" d="M45.588,70.862c-0.006-0.003-0.642-0.241-1.384-0.554l-0.102-0.043l0.029-0.105 c0.198-0.711,1.338-3.298,1.386-3.408l0.229,0.102c-0.011,0.025-1.078,2.446-1.342,3.269c0.692,0.289,1.266,0.504,1.271,0.506 L45.588,70.862z"/><polygon fill="#472b29" points="46.078,75.227 45.048,73.544 45.106,73.476 46.912,71.323 46.306,71.142 46.378,70.901 47.348,71.192 45.355,73.567 46.291,75.096"/><polygon fill="#472b29" points="55.507,72.161 54.896,71.354 57.839,70.268 56.506,66.771 56.74,66.682 58.163,70.414 55.299,71.471 55.706,72.011"/><polygon fill="#472b29" points="56.027,75.268 55.816,75.133 56.813,73.57 56.027,72.723 56.211,72.553 57.127,73.541"/><rect width="1.464" height=".25" x="52.766" y="74.524" fill="#472b29" transform="rotate(-75.965 53.499 74.652)"/><polygon fill="#472b29" points="53.941,73.117 51.146,69.064 48.294,72.753 48.096,72.601 51.157,68.641 53.803,72.475 54.774,67.018 55.021,67.061"/><path fill="#472b29" d="M49.936,75.36l-0.25-0.004l0.04-2.129c0.004-0.038,0.083-0.591,0.548-0.974 c-0.053-0.075-0.11-0.146-0.17-0.219c-0.201-0.247-0.428-0.526-0.572-1.102l0.242-0.061c0.131,0.521,0.331,0.767,0.523,1.004 c0.086,0.105,0.175,0.214,0.251,0.342l0.06,0.101l-0.096,0.066c-0.462,0.319-0.538,0.854-0.539,0.86L49.936,75.36z"/><g><path fill="#472b29" d="M52.367,75.36l-0.039-2.129l0,0c-0.001,0.001-0.083-0.531-0.538-0.846l-0.096-0.066l0.06-0.101 c0.077-0.128,0.165-0.236,0.251-0.342c0.193-0.237,0.394-0.482,0.523-1.004l0.242,0.061c-0.144,0.575-0.371,0.854-0.571,1.102 c-0.06,0.073-0.117,0.144-0.17,0.219c0.466,0.383,0.544,0.935,0.548,0.959l0.04,2.144L52.367,75.36z"/></g></g></g><g><path fill="#fdfcef" d="M82.178,77.287c1.883,0,3.517,0,3.54,0c2.11,0,3.821-1.674,3.821-3.739 c0-1.802-1.302-3.305-3.035-3.66c0.02-0.158,0.034-0.317,0.034-0.48c0-2.139-1.772-3.873-3.957-3.873 c-1.29,0-2.433,0.607-3.155,1.543c-0.185-2.381-2.358-4.218-4.9-3.913c-1.859,0.223-3.397,1.629-3.739,3.431 c-0.11,0.578-0.098,1.139,0.011,1.665c-0.498-0.525-1.208-0.856-1.998-0.856c-1.446,0-2.627,1.102-2.72,2.494 c-0.657-0.142-1.371-0.133-2.123,0.143c-1.438,0.528-2.462,1.853-2.522,3.356c-0.085,2.133,1.657,3.889,3.818,3.889 c0.164,0,0.741,0,0.874,0h7.934 M75.701,77.287h0.36"/><path fill="#472b29" d="M85.718,77.788h-3.54c-0.276,0-0.5-0.224-0.5-0.5s0.224-0.5,0.5-0.5h3.54 c1.831,0,3.321-1.453,3.321-3.239c0-1.524-1.108-2.858-2.636-3.17c-0.256-0.053-0.429-0.294-0.396-0.554 c0.018-0.137,0.03-0.275,0.03-0.417c0-1.86-1.551-3.373-3.457-3.373c-1.092,0-2.098,0.491-2.76,1.349 c-0.126,0.164-0.341,0.231-0.539,0.174c-0.198-0.06-0.339-0.234-0.355-0.44c-0.079-1.02-0.565-1.944-1.369-2.604 c-0.829-0.68-1.885-0.979-2.973-0.853c-1.646,0.197-3.006,1.442-3.307,3.027c-0.094,0.495-0.091,0.99,0.009,1.472 c0.045,0.219-0.06,0.441-0.258,0.545c-0.197,0.102-0.44,0.063-0.594-0.1c-0.428-0.451-1.009-0.7-1.635-0.7 c-1.169,0-2.145,0.891-2.221,2.027c-0.01,0.146-0.082,0.278-0.198,0.366c-0.116,0.087-0.264,0.12-0.406,0.089 c-0.639-0.138-1.243-0.098-1.846,0.125c-1.262,0.463-2.144,1.631-2.195,2.905c-0.035,0.876,0.283,1.709,0.895,2.346 c0.635,0.66,1.496,1.024,2.423,1.024h8.807c0.276,0,0.5,0.224,0.5,0.5s-0.224,0.5-0.5,0.5h-8.807 c-1.185,0-2.331-0.485-3.144-1.331c-0.803-0.836-1.219-1.929-1.173-3.078c0.067-1.675,1.212-3.204,2.849-3.806 c0.61-0.225,1.24-0.304,1.88-0.244c0.344-1.396,1.629-2.424,3.135-2.424c0.493,0,0.977,0.113,1.414,0.323 c0.009-0.242,0.037-0.484,0.083-0.727c0.381-2.009,2.096-3.585,4.17-3.833c1.365-0.167,2.685,0.218,3.726,1.071 c0.748,0.613,1.278,1.409,1.546,2.302c0.791-0.648,1.786-1.007,2.842-1.007c2.458,0,4.457,1.962,4.457,4.373 c0,0.034,0,0.068-0.001,0.103c1.764,0.555,3.003,2.188,3.003,4.038C90.039,75.886,88.101,77.788,85.718,77.788z M76.061,77.788 h-0.36c-0.276,0-0.5-0.224-0.5-0.5s0.224-0.5,0.5-0.5h0.36c0.276,0,0.5,0.224,0.5,0.5S76.337,77.788,76.061,77.788z"/><g><path fill="#472b29" d="M84.011,71.984c-0.018,0-0.036-0.002-0.055-0.006c-0.135-0.03-0.22-0.164-0.189-0.299 c0.037-0.164,0.094-0.325,0.17-0.479c0.604-1.224,2.272-1.677,3.722-1.007c0.125,0.058,0.18,0.206,0.122,0.331 c-0.058,0.126-0.207,0.179-0.332,0.122c-1.201-0.556-2.577-0.208-3.063,0.774c-0.058,0.118-0.102,0.242-0.13,0.367 C84.229,71.905,84.126,71.984,84.011,71.984z"/></g><g><path fill="#472b29" d="M78.852,77.788h-1.107c-0.276,0-0.5-0.224-0.5-0.5s0.224-0.5,0.5-0.5h1.107 c0.276,0,0.5,0.224,0.5,0.5S79.129,77.788,78.852,77.788z"/></g></g><g><path fill="#f5e690" d="M34.468,42.263c0.563-1.21,0.92-2.813,0.92-4.188c0-0.25-0.134-0.481-0.35-0.606 c-2.759-1.594-4.34-3.943-4.338-6.443c0-4.591,5.293-8.325,11.8-8.325s11.8,3.734,11.8,8.324s-5.293,8.324-11.8,8.324h-1.563 c-0.181,0-0.355,0.07-0.485,0.196C39.29,40.663,37.014,41.91,34.468,42.263z"/><path fill="#472b29" d="M42.5,23.4c6.121,0,11.1,3.42,11.1,7.625c0,4.204-4.979,7.625-11.1,7.625h-1.562 c-0.362,0-0.71,0.14-0.971,0.391c-0.866,0.834-2.505,1.796-4.396,2.288c0.326-1.051,0.516-2.214,0.516-3.254 c0-0.5-0.267-0.962-0.699-1.212c-2.536-1.466-3.99-3.594-3.988-5.838C31.4,26.82,36.379,23.4,42.5,23.4 M42.5,22 C35.596,22,30,26.041,30,31.024c-0.002,2.742,1.722,5.337,4.688,7.051c0,1.483-0.441,3.126-0.992,4.17 C33.509,42.597,33.778,43,34.168,43c0.02,0,0.041-0.001,0.062-0.003c2.736-0.295,5.329-1.621,6.707-2.948H42.5 c6.904,0,12.5-4.041,12.5-9.025C55,26.041,49.403,22,42.5,22L42.5,22z"/><g><path fill="#472b29" d="M38.514,26.317c-0.107,0-0.207-0.069-0.239-0.178c-0.04-0.132,0.035-0.271,0.167-0.312 c1.269-0.384,2.634-0.578,4.059-0.578c0.138,0,0.25,0.112,0.25,0.25s-0.112,0.25-0.25,0.25c-1.375,0-2.692,0.188-3.914,0.557 C38.562,26.314,38.538,26.317,38.514,26.317z"/><path fill="#472b29" d="M51.161,29.75c-0.095,0-0.185-0.054-0.227-0.145c-0.854-1.846-3.307-3.268-6.401-3.713 c-0.137-0.02-0.231-0.146-0.212-0.282c0.02-0.138,0.146-0.237,0.283-0.212c3.26,0.468,5.86,2,6.784,3.996 c0.059,0.126,0.004,0.274-0.121,0.332C51.232,29.742,51.196,29.75,51.161,29.75z"/><path fill="#472b29" d="M42.5,36.75c-0.686,0-1.37-0.047-2.033-0.138c-0.137-0.02-0.232-0.146-0.213-0.282 s0.151-0.222,0.282-0.214c0.641,0.089,1.301,0.134,1.964,0.134c4.825,0,8.75-2.355,8.75-5.25c0-0.138,0.112-0.25,0.25-0.25 s0.25,0.112,0.25,0.25C51.75,34.171,47.601,36.75,42.5,36.75z"/><path fill="#472b29" d="M37.782,35.935c-0.029,0-0.059-0.005-0.088-0.016C34.911,34.869,33.25,33.03,33.25,31 c0-1.815,1.327-3.483,3.639-4.577c0.123-0.06,0.273-0.007,0.333,0.119c0.059,0.124,0.006,0.273-0.119,0.332 C34.972,27.882,33.75,29.386,33.75,31c0,1.814,1.541,3.478,4.121,4.45c0.129,0.049,0.194,0.193,0.146,0.322 C37.979,35.873,37.883,35.935,37.782,35.935z"/><path fill="#472b29" d="M37.5,39.25c-0.082,0-0.162-0.04-0.209-0.113c-0.076-0.115-0.043-0.27,0.072-0.346 c0.019-0.013,1.882-1.243,2.875-2.566c0.084-0.109,0.241-0.131,0.35-0.05c0.11,0.083,0.133,0.239,0.05,0.351 c-1.046,1.394-2.921,2.632-3,2.684C37.595,39.236,37.547,39.25,37.5,39.25z"/></g></g><g><path fill="#fefdef" d="M67.531,42.213c-2.546-0.352-4.821-1.599-5.983-2.717c-0.13-0.126-0.305-0.196-0.485-0.196H59.5 c-6.507,0-11.8-3.734-11.8-8.324s5.293-8.324,11.8-8.324s11.8,3.734,11.8,8.324c0.002,2.5-1.579,4.85-4.338,6.445 c-0.216,0.125-0.35,0.355-0.35,0.605C66.612,39.399,66.968,41.002,67.531,42.213z"/><path fill="#472b29" d="M59.5,23.351c6.121,0,11.1,3.42,11.1,7.626c0.002,2.243-1.452,4.371-3.988,5.837 c-0.433,0.25-0.699,0.712-0.699,1.212c0,1.04,0.191,2.202,0.517,3.254c-1.891-0.493-3.53-1.455-4.396-2.288 c-0.261-0.251-0.609-0.391-0.971-0.391H59.5c-6.121,0-11.1-3.42-11.1-7.625C48.4,26.771,53.379,23.351,59.5,23.351 M59.5,21.951 c-6.904,0-12.5,4.041-12.5,9.025C47,35.959,52.596,40,59.5,40h1.563c1.378,1.326,3.971,2.653,6.707,2.948 c0.021,0.002,0.042,0.003,0.062,0.003c0.39,0,0.659-0.403,0.473-0.755c-0.551-1.044-0.992-2.687-0.992-4.17 c2.965-1.714,4.69-4.308,4.688-7.05C72,25.991,66.403,21.951,59.5,21.951L59.5,21.951z"/><g><path fill="#472b29" d="M63.486,26.317c-0.023,0-0.048-0.003-0.072-0.011c-1.223-0.369-2.539-0.557-3.914-0.557 c-0.138,0-0.25-0.112-0.25-0.25s0.112-0.25,0.25-0.25c1.424,0,2.789,0.194,4.059,0.578c0.132,0.04,0.207,0.18,0.167,0.312 C63.693,26.248,63.594,26.317,63.486,26.317z"/><path fill="#472b29" d="M50.839,29.75c-0.035,0-0.071-0.008-0.105-0.023c-0.125-0.058-0.18-0.206-0.122-0.332 c0.924-1.996,3.524-3.528,6.785-3.996c0.132-0.022,0.263,0.074,0.282,0.212c0.021,0.137-0.075,0.263-0.212,0.282 c-3.094,0.445-5.547,1.867-6.401,3.713C51.023,29.696,50.933,29.75,50.839,29.75z"/><path fill="#472b29" d="M59.5,36.75c-5.101,0-9.25-2.579-9.25-5.75c0-0.138,0.112-0.25,0.25-0.25s0.25,0.112,0.25,0.25 c0,2.895,3.925,5.25,8.75,5.25c0.663,0,1.324-0.045,1.964-0.134c0.149-0.01,0.263,0.078,0.282,0.214 c0.019,0.137-0.077,0.263-0.214,0.282C60.87,36.703,60.186,36.75,59.5,36.75z"/><path fill="#472b29" d="M64.218,35.935c-0.101,0-0.196-0.062-0.234-0.162C63.936,35.644,64,35.499,64.13,35.45 c2.58-0.973,4.12-2.636,4.12-4.45c0-1.614-1.222-3.118-3.353-4.126c-0.125-0.059-0.179-0.208-0.119-0.332 c0.059-0.126,0.209-0.179,0.332-0.119c2.313,1.094,3.64,2.762,3.64,4.577c0,2.03-1.661,3.869-4.444,4.919 C64.277,35.93,64.247,35.935,64.218,35.935z"/><path fill="#472b29" d="M64.5,39.25c-0.047,0-0.095-0.014-0.137-0.041c-0.08-0.052-1.955-1.29-3.001-2.684 c-0.083-0.111-0.061-0.268,0.05-0.351c0.11-0.081,0.269-0.06,0.351,0.05c0.992,1.323,2.855,2.554,2.874,2.566 c0.116,0.076,0.148,0.23,0.072,0.346C64.661,39.21,64.581,39.25,64.5,39.25z"/></g></g></svg>