<svg xmlns="http://www.w3.org/2000/svg" viewBox="0 0 100 100" width="100px" height="100px"><path fill="#c7ede6" d="M88.366,56.798c0.3-0.616,0.566-1.264,0.796-1.943c2.633-7.77-1.349-17.078-9.733-19.325c-0.906-11.384-8.906-19.193-17.941-20.526C51.147,13.48,41.674,20.049,38.522,30.49c-3.799-1.346-7.501-1.182-10.99,0.857c-1.583,0.732-3.031,1.812-4.33,3.233c-1.907,2.086-3.147,4.719-3.652,7.495c-0.748,0.118-1.483,0.236-2.176,0.484c-4.04,1.449-6.589,4.431-7.288,8.923c-0.435,2.797,0.443,5.587,0.933,6.714c1.935,4.455,6.422,6.98,10.981,6.312c0.227-0.033,0.557,0.069,0.752,0.233c0.241,7.12,3.698,13.417,8.884,17.014c8.321,5.772,19.027,3.994,25.781-3.921c2.894,2.96,6.338,4.398,10.384,3.876c4.023-0.519,7.147-2.739,9.426-6.349c1.053,0.283,2.051,0.691,3.083,0.804c4.042,0.442,7.324-1.165,9.732-4.8c0.922-1.391,1.793-3.194,1.793-6.354C91.836,61.755,90.543,58.788,88.366,56.798z"/><path fill="#fdfcef" d="M40.221,69.885c0,0,10.309,0,10.371,0c2.381,0,4.31-1.93,4.31-4.311c0-2.077-1.469-3.81-3.425-4.219c0.023-0.182,0.038-0.366,0.038-0.554c0-2.466-1.999-4.465-4.464-4.465c-1.456,0-2.745,0.7-3.56,1.778c-0.208-2.745-2.66-4.862-5.528-4.511c-2.097,0.257-3.832,1.878-4.218,3.955c-0.124,0.666-0.111,1.313,0.012,1.92c-0.562-0.606-1.363-0.987-2.254-0.987c-1.632,0-2.963,1.27-3.069,2.875c-0.741-0.164-1.547-0.153-2.396,0.165c-1.622,0.609-2.778,2.137-2.845,3.868c-0.096,2.459,1.869,4.483,4.307,4.483c0.185,0,0.836,0,0.986,0h8.951"/><path fill="#472b29" d="M50.593,70.385H40.221c-0.276,0-0.5-0.224-0.5-0.5s0.224-0.5,0.5-0.5h10.372c2.101,0,3.81-1.709,3.81-3.811c0-1.795-1.273-3.363-3.026-3.729c-0.255-0.053-0.426-0.292-0.394-0.551c0.02-0.161,0.034-0.325,0.034-0.492c0-2.187-1.778-3.965-3.964-3.965c-1.25,0-2.402,0.576-3.161,1.58c-0.125,0.166-0.339,0.237-0.54,0.178c-0.199-0.059-0.342-0.234-0.357-0.441c-0.091-1.198-0.678-2.324-1.61-3.089c-0.942-0.772-2.137-1.112-3.359-0.965c-1.884,0.231-3.442,1.691-3.787,3.551c-0.108,0.58-0.104,1.162,0.011,1.729c0.044,0.22-0.063,0.442-0.262,0.545c-0.198,0.103-0.441,0.059-0.595-0.105c-0.494-0.533-1.165-0.827-1.888-0.827c-1.353,0-2.481,1.058-2.569,2.408c-0.01,0.146-0.082,0.28-0.199,0.368c-0.117,0.087-0.268,0.119-0.408,0.088c-0.73-0.162-1.421-0.114-2.112,0.145c-1.45,0.544-2.463,1.918-2.522,3.42c-0.041,1.048,0.336,2.041,1.061,2.795c0.726,0.754,1.701,1.169,2.747,1.169h9.937c0.276,0,0.5,0.224,0.5,0.5s-0.224,0.5-0.5,0.5h-9.937c-1.32,0-2.552-0.524-3.467-1.477c-0.915-0.951-1.391-2.204-1.339-3.526c0.074-1.899,1.348-3.634,3.169-4.316c0.698-0.263,1.417-0.354,2.15-0.273c0.358-1.607,1.798-2.8,3.49-2.8c0.581,0,1.149,0.144,1.656,0.409c0.005-0.311,0.037-0.622,0.094-0.934c0.424-2.284,2.336-4.077,4.649-4.36c1.498-0.184,2.959,0.237,4.114,1.184c0.87,0.714,1.495,1.684,1.792,2.754c0.893-0.776,2.031-1.208,3.242-1.208c2.737,0,4.964,2.228,4.964,4.965c0,0.059-0.001,0.117-0.004,0.176c1.989,0.614,3.391,2.481,3.391,4.597C55.403,68.227,53.245,70.385,50.593,70.385z"/><path fill="#fdfcef" d="M52.338,61.861c-1.498-0.706-3.231-0.206-3.87,1.117c-0.079,0.164-0.138,0.334-0.177,0.506"/><path fill="#472b29" d="M48.29,63.734c-0.019,0-0.037-0.002-0.056-0.007c-0.134-0.03-0.218-0.165-0.188-0.299c0.044-0.194,0.11-0.382,0.196-0.559c0.698-1.444,2.583-1.998,4.202-1.235c0.125,0.06,0.179,0.208,0.12,0.333c-0.059,0.125-0.208,0.176-0.333,0.12c-1.372-0.647-2.96-0.199-3.539,0.999c-0.069,0.144-0.123,0.296-0.159,0.453C48.507,63.656,48.405,63.734,48.29,63.734z"/><path fill="#fff" d="M18.031 48.834H8c-.276 0-.5-.224-.5-.5s.224-.5.5-.5h10.031c.276 0 .5.224.5.5S18.307 48.834 18.031 48.834zM20.912 48.834h-1.446c-.276 0-.5-.224-.5-.5s.224-.5.5-.5h1.446c.276 0 .5.224.5.5S21.188 48.834 20.912 48.834zM24.967 48.834h-2.546c-.276 0-.5-.224-.5-.5s.224-.5.5-.5h2.546c.276 0 .5.224.5.5S25.243 48.834 24.967 48.834zM24.967 50.699H15.35c-.276 0-.5-.224-.5-.5s.224-.5.5-.5h9.616c.276 0 .5.224.5.5S25.243 50.699 24.967 50.699zM13.619 50.699h-.58c-.276 0-.5-.224-.5-.5s.224-.5.5-.5h.58c.276 0 .5.224.5.5S13.895 50.699 13.619 50.699zM11.242 50.699H9.786c-.276 0-.5-.224-.5-.5s.224-.5.5-.5h1.456c.276 0 .5.224.5.5S11.518 50.699 11.242 50.699zM20.378 46.969H15.35c-.276 0-.5-.224-.5-.5s.224-.5.5-.5h5.027c.276 0 .5.224.5.5S20.654 46.969 20.378 46.969zM20.378 45.104H19.12c-.276 0-.5-.224-.5-.5s.224-.5.5-.5h1.257c.276 0 .5.224.5.5S20.654 45.104 20.378 45.104zM17.109 52.564H15.35c-.276 0-.5-.224-.5-.5s.224-.5.5-.5h1.759c.276 0 .5.224.5.5S17.386 52.564 17.109 52.564zM71.209 22.557h-10.03c-.276 0-.5-.224-.5-.5s.224-.5.5-.5h10.03c.276 0 .5.224.5.5S71.485 22.557 71.209 22.557zM74.09 22.557h-1.446c-.276 0-.5-.224-.5-.5s.224-.5.5-.5h1.446c.276 0 .5.224.5.5S74.367 22.557 74.09 22.557zM78.144 22.557h-2.546c-.276 0-.5-.224-.5-.5s.224-.5.5-.5h2.546c.276 0 .5.224.5.5S78.421 22.557 78.144 22.557zM76.119 18.828h-9.617c-.276 0-.5-.224-.5-.5s.224-.5.5-.5h9.617c.276 0 .5.224.5.5S76.395 18.828 76.119 18.828zM64.771 18.828h-.58c-.276 0-.5-.224-.5-.5s.224-.5.5-.5h.58c.276 0 .5.224.5.5S65.047 18.828 64.771 18.828zM62.394 18.828h-1.456c-.276 0-.5-.224-.5-.5s.224-.5.5-.5h1.456c.276 0 .5.224.5.5S62.67 18.828 62.394 18.828zM73.556 20.692h-5.027c-.276 0-.5-.224-.5-.5s.224-.5.5-.5h5.027c.276 0 .5.224.5.5S73.832 20.692 73.556 20.692z"/><path fill="#fff" d="M73.556 18.828h-1.257c-.276 0-.5-.224-.5-.5s.224-.5.5-.5h1.257c.276 0 .5.224.5.5S73.832 18.828 73.556 18.828zM67.073 20.692h-1.759c-.276 0-.5-.224-.5-.5s.224-.5.5-.5h1.759c.276 0 .5.224.5.5S67.349 20.692 67.073 20.692z"/><path fill="#fdfcef" d="M66.848,53.419c1.883,0,3.517,0,3.54,0c2.11,0,3.821-1.674,3.821-3.739c0-1.802-1.302-3.305-3.035-3.66c0.02-0.158,0.034-0.317,0.034-0.48c0-2.139-1.772-3.873-3.957-3.873c-1.29,0-2.433,0.607-3.155,1.543c-0.185-2.381-2.358-4.218-4.9-3.913c-1.859,0.223-3.397,1.629-3.739,3.431c-0.11,0.578-0.098,1.139,0.011,1.665c-0.498-0.525-1.208-0.856-1.998-0.856c-1.446,0-2.627,1.102-2.72,2.494c-0.657-0.142-1.371-0.133-2.123,0.143c-1.438,0.528-2.462,1.853-2.522,3.356c-0.085,2.133,1.657,3.889,3.818,3.889c0.164,0,0.741,0,0.874,0h7.934 M60.37,53.419h0.36"/><path fill="#472b29" d="M70.388,53.919h-3.541c-0.276,0-0.5-0.224-0.5-0.5s0.224-0.5,0.5-0.5h3.541c1.831,0,3.32-1.453,3.32-3.239c0-1.524-1.108-2.857-2.635-3.169c-0.256-0.053-0.429-0.294-0.396-0.553c0.018-0.138,0.03-0.276,0.03-0.418c0-1.86-1.551-3.373-3.457-3.373c-1.092,0-2.098,0.491-2.76,1.348c-0.126,0.164-0.34,0.23-0.539,0.174c-0.198-0.06-0.339-0.234-0.355-0.44c-0.079-1.02-0.565-1.944-1.369-2.604c-0.828-0.68-1.884-0.98-2.973-0.853c-1.646,0.197-3.006,1.442-3.307,3.029c-0.094,0.494-0.09,0.988,0.01,1.47c0.045,0.219-0.06,0.441-0.258,0.545c-0.197,0.102-0.44,0.063-0.595-0.1c-0.429-0.451-1.009-0.7-1.635-0.7c-1.169,0-2.145,0.891-2.221,2.028c-0.01,0.146-0.082,0.279-0.198,0.366c-0.116,0.087-0.264,0.121-0.407,0.089c-0.639-0.136-1.241-0.097-1.844,0.124c-1.262,0.463-2.144,1.631-2.195,2.906c-0.035,0.875,0.283,1.707,0.895,2.345c0.635,0.66,1.496,1.024,2.423,1.024h8.808c0.276,0,0.5,0.224,0.5,0.5s-0.224,0.5-0.5,0.5h-8.808c-1.185,0-2.331-0.485-3.145-1.332c-0.802-0.835-1.218-1.928-1.172-3.076c0.067-1.676,1.212-3.205,2.849-3.806c0.61-0.225,1.241-0.307,1.88-0.244c0.344-1.396,1.629-2.425,3.136-2.425c0.493,0,0.976,0.113,1.414,0.323c0.009-0.241,0.036-0.483,0.082-0.725c0.381-2.01,2.097-3.587,4.17-3.835c1.364-0.166,2.685,0.217,3.727,1.071c0.748,0.613,1.278,1.41,1.546,2.303c0.791-0.648,1.786-1.007,2.842-1.007c2.458,0,4.457,1.962,4.457,4.373c0,0.034,0,0.068-0.001,0.103c1.764,0.555,3.003,2.188,3.003,4.037C74.708,52.018,72.77,53.919,70.388,53.919z M60.73,53.919H60.37c-0.276,0-0.5-0.224-0.5-0.5s0.224-0.5,0.5-0.5h0.359c0.276,0,0.5,0.224,0.5,0.5S61.006,53.919,60.73,53.919z"/><path fill="#472b29" d="M68.681 48.117c-.018 0-.036-.002-.054-.006-.135-.03-.22-.164-.19-.299.037-.165.094-.327.169-.479.604-1.224 2.272-1.676 3.722-1.006.125.058.18.206.122.331-.058.126-.207.18-.332.122-1.205-.557-2.579-.208-3.063.773-.058.117-.101.241-.129.368C68.899 48.037 68.795 48.117 68.681 48.117zM63.521 53.919h-1.107c-.276 0-.5-.224-.5-.5s.224-.5.5-.5h1.107c.276 0 .5.224.5.5S63.798 53.919 63.521 53.919z"/><path fill="#cbc9bc" d="M64.5,36.678v-2.932c0-0.412,0.338-0.75,0.75-0.75h0.399c0.412,0,0.75,0.338,0.75,0.75v2.932c0,0.412-0.338,0.75-0.75,0.75H65.25C64.838,37.428,64.5,37.091,64.5,36.678z"/><path fill="#472b29" d="M65.65,37.803H65.25c-0.62,0-1.125-0.505-1.125-1.125v-2.932c0-0.62,0.505-1.125,1.125-1.125h0.399c0.62,0,1.125,0.505,1.125,1.125v2.932C66.775,37.298,66.27,37.803,65.65,37.803z M65.25,33.371c-0.207,0-0.375,0.168-0.375,0.375v2.932c0,0.207,0.168,0.375,0.375,0.375h0.399c0.207,0,0.375-0.168,0.375-0.375v-2.932c0-0.207-0.168-0.375-0.375-0.375H65.25z"/><path fill="#e1e0d8" d="M59.817,73.198H45.126c-2.75,0-5-2.25-5-5v-34.95c0-2.75,2.25-5,5-5h14.691c2.75,0,5,2.25,5,5v34.95C64.817,70.948,62.567,73.198,59.817,73.198z"/><path fill="#472b29" d="M59.817,73.899h-14.69c-3.143,0-5.7-2.558-5.7-5.7v-34.95c0-3.143,2.557-5.7,5.7-5.7h14.69c3.143,0,5.7,2.558,5.7,5.7v34.95C65.517,71.341,62.96,73.899,59.817,73.899z M45.126,28.949c-2.371,0-4.3,1.929-4.3,4.3v34.95c0,2.371,1.929,4.3,4.3,4.3h14.69c2.371,0,4.3-1.929,4.3-4.3v-34.95c0-2.371-1.929-4.3-4.3-4.3H45.126z"/><path fill="#c5def0" d="M62.285 39.644L62.285 65.601 43.292 65.601 43.292 59.903 43.292 53.572 43.292 33.946 59.752 33.946 62.285 33.946z"/><path fill="#472b29" d="M42.975 53.631c-.207 0-.375-.168-.375-.375V33.63c0-.207.168-.375.375-.375h16.46c.207 0 .375.168.375.375s-.168.375-.375.375H43.35v19.251C43.35 53.463 43.182 53.631 42.975 53.631zM61.968 65.66H42.975c-.207 0-.375-.168-.375-.375v-5.698c0-.207.168-.375.375-.375s.375.168.375.375v5.323h18.243V39.328c0-.207.168-.375.375-.375s.375.168.375.375v25.957C62.343 65.492 62.175 65.66 61.968 65.66z"/><path fill="#cbc9bc" d="M52.155 67.184A1.583 1.583 0 1 0 52.155 70.35A1.583 1.583 0 1 0 52.155 67.184Z"/><path fill="#472b29" d="M52.155 70.724c-1.08 0-1.958-.878-1.958-1.957 0-1.08.878-1.958 1.958-1.958s1.958.878 1.958 1.958C54.113 69.846 53.235 70.724 52.155 70.724zM52.155 67.559c-.666 0-1.208.542-1.208 1.208s.542 1.207 1.208 1.207 1.208-.541 1.208-1.207S52.821 67.559 52.155 67.559zM55.004 31.414h-5.065c-.174 0-.317-.142-.317-.317l0 0c0-.174.142-.317.317-.317h5.065c.174 0 .317.142.317.317l0 0C55.32 31.271 55.178 31.414 55.004 31.414zM61.968 35.904c-.207 0-.375-.168-.375-.375V33.63c0-.207.168-.375.375-.375s.375.168.375.375v1.898C62.343 35.736 62.175 35.904 61.968 35.904zM61.964 37.169c-.05 0-.09-.011-.14-.03-.04-.021-.09-.04-.12-.08-.04-.03-.06-.07-.08-.12s-.03-.09-.03-.14c0-.051.01-.101.03-.15.02-.04.04-.08.08-.12.1-.1.27-.14.41-.08.04.021.08.05.12.08.03.04.06.08.08.12.02.05.03.1.03.15 0 .05-.01.09-.03.14-.02.05-.04.09-.08.12C62.164 37.129 62.064 37.169 61.964 37.169zM42.975 58.696c-.207 0-.375-.168-.375-.375v-1.267c0-.207.168-.375.375-.375s.375.168.375.375v1.267C43.35 58.528 43.182 58.696 42.975 58.696z"/><path fill="#fdfcee" d="M45.043 44.244H59.9V48.485H45.043z"/><path fill="#472b29" d="M59.9,48.809H45.043c-0.18,0-0.325-0.146-0.325-0.325v-4.24c0-0.18,0.146-0.325,0.325-0.325H59.9c0.18,0,0.325,0.146,0.325,0.325v4.24C60.225,48.663,60.079,48.809,59.9,48.809z M45.369,48.159h14.206v-3.59H45.369V48.159z"/><path fill="#f1bc19" d="M57.87,60.369H47.074c-1.117,0-2.03-0.914-2.03-2.03v-0.046c0-1.117,0.914-2.03,2.03-2.03H57.87c1.117,0,2.03,0.914,2.03,2.03v0.046C59.9,59.455,58.986,60.369,57.87,60.369z"/><path fill="#472b29" d="M57.869 60.668H47.074c-1.285 0-2.33-1.045-2.33-2.33 0-1.332 1.045-2.377 2.33-2.377h10.796c1.285 0 2.33 1.045 2.33 2.33C60.2 59.623 59.155 60.668 57.869 60.668zM47.074 56.561c-.954 0-1.73.776-1.73 1.73 0 1.001.776 1.777 1.73 1.777h10.796c.954 0 1.73-.776 1.73-1.73 0-1.001-.776-1.777-1.73-1.777H47.074zM59.591 50.988h-2.958c-.207 0-.375-.168-.375-.375s.168-.375.375-.375h2.958c.207 0 .375.168.375.375S59.798 50.988 59.591 50.988zM54.943 50.988h-9.899c-.207 0-.375-.168-.375-.375s.168-.375.375-.375h9.899c.207 0 .375.168.375.375S55.15 50.988 54.943 50.988zM50.825 53.488h-5.781c-.207 0-.375-.168-.375-.375s.168-.375.375-.375h5.781c.207 0 .375.168.375.375S51.032 53.488 50.825 53.488zM55.821 53.488h-3.604c-.207 0-.375-.168-.375-.375s.168-.375.375-.375h3.604c.207 0 .375.168.375.375S56.028 53.488 55.821 53.488zM59.591 53.488h-2.375c-.207 0-.375-.168-.375-.375s.168-.375.375-.375h2.375c.207 0 .375.168.375.375S59.798 53.488 59.591 53.488z"/><path fill="#fdfcef" d="M45.083,33.63h-2.078l-1.061,5.426c0,0-0.009,0.002-0.01,0.002c0,0.002,0-0.002,0,0l0,0l0,0c-0.006,0.126-0.01,0.26-0.01,0.41v0c0,0.77,0.625,1.4,1.39,1.4h0.241c0.764,0,1.528-0.63,1.528-1.4l0,0c0-0.148,0.005-0.284,0-0.41l0,0V33.63z"/><path fill="#472b29" d="M43.555,41.242h-0.241c-0.973,0-1.765-0.796-1.765-1.774c0-0.156,0.004-0.297,0.011-0.429c0.002-0.048,0.013-0.092,0.031-0.133l1.046-5.348c0.035-0.176,0.189-0.303,0.368-0.303h2.078c0.207,0,0.375,0.168,0.375,0.375v5.427c0.003,0.073,0.002,0.167,0.001,0.267l-0.001,0.144C45.458,40.412,44.569,41.242,43.555,41.242z M42.306,39.156c-0.004,0.098-0.006,0.2-0.006,0.312c0,0.564,0.455,1.024,1.015,1.024h0.241c0.593,0,1.153-0.498,1.153-1.024l0.001-0.153c0.001-0.084,0.002-0.165-0.001-0.241l0-5.067h-1.394l-1.001,5.122C42.31,39.137,42.308,39.147,42.306,39.156z"/><path fill="#78a0cf" d="M48.06,33.63h-2.978v5.332h0.01c-0.006,0.132-0.01,0.275-0.01,0.431c0,0.81,0.658,1.473,1.463,1.473h0.192c0.776,0,1.323-0.63,1.323-1.4c0-0.148,0.005-0.284,0-0.41l0,0V33.63z"/><path fill="#472b29" d="M46.737,41.242h-0.191c-1.013,0-1.838-0.829-1.838-1.849c0-0.129,0.002-0.249,0.007-0.361c-0.004-0.022-0.007-0.046-0.007-0.069V33.63c0-0.207,0.168-0.375,0.375-0.375h2.978c0.207,0,0.375,0.168,0.375,0.375v5.427c0.003,0.073,0.002,0.167,0.001,0.267l-0.001,0.144C48.435,40.462,47.689,41.242,46.737,41.242z M45.458,38.881c0.008,0.032,0.012,0.066,0.01,0.101c-0.006,0.126-0.01,0.262-0.01,0.411c0,0.605,0.488,1.099,1.088,1.099h0.191c0.541,0,0.948-0.44,0.948-1.024l0.001-0.153c0.001-0.084,0.002-0.165-0.001-0.241l0-5.067h-2.228V38.881z"/><path fill="#fdfcef" d="M51.038,33.63H48.06v5.332h0.01c-0.006,0.132-0.01,0.275-0.01,0.431c0,0.81,0.658,1.473,1.463,1.473h0.192c0.776,0,1.323-0.63,1.323-1.4c0-0.148,0.005-0.284,0-0.41l0,0V33.63z"/><path fill="#472b29" d="M49.715,41.242h-0.191c-1.013,0-1.838-0.829-1.838-1.849c0-0.129,0.002-0.249,0.007-0.361c-0.004-0.022-0.007-0.046-0.007-0.069V33.63c0-0.207,0.168-0.375,0.375-0.375h2.978c0.207,0,0.375,0.168,0.375,0.375v5.427c0.003,0.073,0.002,0.167,0.001,0.267l-0.001,0.144C51.413,40.462,50.667,41.242,49.715,41.242z M48.435,38.881c0.008,0.032,0.012,0.066,0.01,0.101c-0.006,0.126-0.01,0.262-0.01,0.411c0,0.605,0.488,1.099,1.088,1.099h0.191c0.541,0,0.948-0.44,0.948-1.024l0.001-0.153c0.001-0.084,0.002-0.165-0.001-0.241l0-5.067h-2.228V38.881z"/><path fill="#78a0cf" d="M54.018,33.63H51.04v5.332h0.01c-0.006,0.132-0.01,0.275-0.01,0.431c0,0.81,0.658,1.473,1.463,1.473h0.192c0.776,0,1.323-0.64,1.323-1.41c0-0.148,0.005-0.274,0-0.4l0,0V33.63z"/><path fill="#472b29" d="M52.695,41.242h-0.191c-1.013,0-1.838-0.829-1.838-1.849c0-0.129,0.002-0.249,0.007-0.361c-0.004-0.022-0.007-0.046-0.007-0.069V33.63c0-0.207,0.168-0.375,0.375-0.375h2.978c0.207,0,0.375,0.168,0.375,0.375v5.427c0.003,0.073,0.002,0.163,0.001,0.259l-0.001,0.141C54.393,40.457,53.647,41.242,52.695,41.242z M51.415,38.881c0.008,0.032,0.012,0.066,0.01,0.101c-0.006,0.126-0.01,0.262-0.01,0.411c0,0.605,0.488,1.099,1.088,1.099h0.191c0.541,0,0.948-0.445,0.948-1.035l0.001-0.15c0.001-0.082,0.002-0.157-0.001-0.233l0-5.067h-2.228V38.881z"/><path fill="#fdfcef" d="M56.995,33.63h-2.978v5.332h0.004c-0.002,0.09-0.004,0.182-0.004,0.281c0,0.893,0.659,1.623,1.465,1.623h0.192c0.777,0,1.323-0.712,1.323-1.56c0-0.094,0-0.163-0.001-0.249l0,0V33.63z"/><path fill="#472b29" d="M55.674,41.242h-0.192c-1.014,0-1.839-0.896-1.839-1.999l0.003-0.234c-0.002-0.015-0.003-0.03-0.003-0.046V33.63c0-0.207,0.168-0.375,0.375-0.375h2.978c0.207,0,0.375,0.168,0.375,0.375l0.001,5.63C57.372,40.391,56.626,41.242,55.674,41.242z M54.393,38.912c0.002,0.02,0.004,0.039,0.003,0.058l-0.003,0.272c0,0.688,0.489,1.249,1.089,1.249h0.192c0.541,0,0.948-0.51,0.948-1.186l-0.001-5.301h-2.228V38.912z"/><path fill="#78a0cf" d="M59.973,33.63h-2.978v5.332h0.01c-0.006,0.132-0.01,0.275-0.01,0.431c0,0.81,0.658,1.473,1.463,1.473h0.192c0.776,0,1.323-0.63,1.323-1.4c0-0.148,0.005-0.284,0-0.41l0,0V33.63z"/><path fill="#472b29" d="M58.65,41.242h-0.191c-1.013,0-1.838-0.829-1.838-1.849c0-0.129,0.002-0.248,0.007-0.36c-0.004-0.023-0.007-0.047-0.007-0.07V33.63c0-0.207,0.168-0.375,0.375-0.375h2.978c0.207,0,0.375,0.168,0.375,0.375v5.427c0.003,0.073,0.002,0.167,0.001,0.267l-0.001,0.144C60.348,40.462,59.602,41.242,58.65,41.242z M57.37,38.881c0.008,0.032,0.011,0.065,0.01,0.099c-0.006,0.127-0.01,0.264-0.01,0.413c0,0.605,0.488,1.099,1.088,1.099h0.191c0.541,0,0.948-0.44,0.948-1.024l0.001-0.153c0.001-0.084,0.002-0.165-0.001-0.241l0-5.067H57.37V38.881z"/><path fill="#fdfcef" d="M62.984,39.057L62.984,39.057l-0.949-5.427h-2.062v5.332h0.01c-0.006,0.132-0.01,0.275-0.01,0.431v0c0,0.81,0.658,1.473,1.463,1.473h0.168c0.764,0,1.39-0.63,1.39-1.4v0C62.993,39.318,62.99,39.183,62.984,39.057z"/><path fill="#472b29" d="M61.603,41.242h-0.167c-1.013,0-1.838-0.829-1.838-1.849c0-0.129,0.002-0.248,0.007-0.36c-0.004-0.023-0.007-0.047-0.007-0.07V33.63c0-0.207,0.168-0.375,0.375-0.375h2.062c0.182,0,0.338,0.131,0.37,0.311l0.949,5.427c0.002,0.016,0.004,0.032,0.005,0.049c0.006,0.131,0.009,0.271,0.009,0.426C63.368,40.446,62.577,41.242,61.603,41.242z M60.348,38.881c0.008,0.032,0.011,0.065,0.01,0.099c-0.006,0.127-0.01,0.264-0.01,0.413c0,0.605,0.488,1.099,1.088,1.099h0.167c0.56,0,1.015-0.46,1.015-1.024c0-0.134-0.003-0.256-0.007-0.37l-0.891-5.092h-1.372V38.881z"/><path fill="#472b29" d="M62.993,39.593H42.105c-0.138,0-0.25-0.112-0.25-0.25s0.112-0.25,0.25-0.25h20.888c0.138,0,0.25,0.112,0.25,0.25S63.131,39.593,62.993,39.593z"/><path fill="#78a0cf" d="M55.507,53.284v17.199c0,1.645,1.452,2.991,3.226,2.991h11.56c1.774,0,3.226-1.346,3.226-2.991V53.284H55.507z"/><path fill="#472b29" d="M70.293,73.974h-11.56c-2.054,0-3.726-1.566-3.726-3.491V53.284c0-0.276,0.224-0.5,0.5-0.5h18.012c0.276,0,0.5,0.224,0.5,0.5v17.199C74.019,72.408,72.348,73.974,70.293,73.974z M56.008,53.784v16.699c0,1.374,1.223,2.491,2.726,2.491h11.56c1.503,0,2.726-1.117,2.726-2.491V53.784H56.008z"/><path fill="#96c1ed" d="M55.847 53.632H73.179V55.198H55.847z"/><path fill="#472b29" d="M69.951 55.449H55.678c-.138 0-.25-.112-.25-.25s.112-.25.25-.25h14.273c.138 0 .25.112.25.25S70.089 55.449 69.951 55.449zM71.65 55.449h-1.02c-.138 0-.25-.112-.25-.25s.112-.25.25-.25h1.02c.138 0 .25.112.25.25S71.788 55.449 71.65 55.449zM73.132 55.449h-.68c-.138 0-.25-.112-.25-.25s.112-.25.25-.25h.68c.138 0 .25.112.25.25S73.27 55.449 73.132 55.449z"/><path fill="#96c1ed" d="M56.045,69.325l0.003,1.078c0,1.562,1.366,2.723,3.038,2.723h10.896c1.672,0,3.039-1.144,3.017-2.734l0.001-1.095L56.045,69.325z"/><path fill="#4980b7" d="M61.718,58.381c-0.214,0.533-0.81,0.788-1.331,0.568c-0.521-0.22-0.769-0.83-0.555-1.363c0.214-0.533,0.81-0.788,1.331-0.568C61.684,57.237,61.932,57.848,61.718,58.381z"/><path fill="#472b29" d="M60.774,59.354c-0.174,0-0.348-0.035-0.513-0.104c-0.683-0.288-1.01-1.088-0.73-1.784c0.138-0.343,0.398-0.608,0.735-0.749c0.331-0.138,0.694-0.136,1.024,0.002c0.682,0.288,1.009,1.089,0.729,1.784c-0.138,0.343-0.398,0.608-0.735,0.748C61.12,59.319,60.947,59.354,60.774,59.354z M60.775,57.264c-0.088,0-0.175,0.018-0.259,0.052c-0.174,0.073-0.31,0.212-0.382,0.392c-0.148,0.369,0.021,0.792,0.379,0.942c0.168,0.072,0.353,0.071,0.521,0.001c0.174-0.072,0.31-0.212,0.381-0.391c0.148-0.369-0.021-0.792-0.379-0.942C60.953,57.282,60.864,57.264,60.775,57.264z"/><path fill="#4980b7" d="M68.591 56.939A1.02 1.044 0 1 0 68.591 59.026999999999994A1.02 1.044 0 1 0 68.591 56.939Z"/><path fill="#472b29" d="M68.592 59.353c-.741 0-1.345-.614-1.345-1.369 0-.756.604-1.37 1.345-1.37s1.345.614 1.345 1.37C69.936 58.739 69.333 59.353 68.592 59.353zM68.592 57.264c-.383 0-.694.323-.694.72s.312.719.694.719.694-.322.694-.719S68.974 57.264 68.592 57.264zM71.65 69.846H57.037c-.207 0-.375-.168-.375-.375s.168-.375.375-.375H71.65c.207 0 .375.168.375.375S71.857 69.846 71.65 69.846z"/><path fill="#472b29" d="M68.592,58.234c-0.138,0-0.25-0.112-0.25-0.25v-4.572c0-1.756-1.203-3.185-2.681-3.185h-1.954c-1.479,0-2.681,1.429-2.681,3.185v4.572c0,0.138-0.112,0.25-0.25,0.25s-0.25-0.112-0.25-0.25v-4.572c0-2.031,1.427-3.685,3.181-3.685h1.954c1.754,0,3.181,1.653,3.181,3.685v4.572C68.842,58.121,68.73,58.234,68.592,58.234z"/></svg>