<svg xmlns="http://www.w3.org/2000/svg" viewBox="0 0 64 64" width="128px" height="128px"><path fill="#faefde" d="M43.554,25.579c0.54-0.351,1.089-0.511,1.599-0.375c1.6,0.429,2.202,3.371,1.345,6.572 c-0.787,2.939-2.528,5.046-4.047,5.044C39.744,45.93,32.551,55,24.1,55S8.457,45.93,5.75,36.821 c-1.519,0.002-3.26-2.106-4.047-5.044c-0.858-3.201-0.256-6.143,1.345-6.572c0.51-0.137,1.059,0.023,1.599,0.375l-0.289-7.69 l15.079-6.056c2.932-1.178,6.202-1.196,9.147-0.051L42,17L43.554,25.579z"/><path fill="#efd8be" d="M5,25c0,0,0,9,1,12l-3.875-3.667l-0.583-6.167C1.542,27.167,3,25,5,25z"/><path fill="#fff8f8" d="M17,41h15c0,0-2,6-8,6S17,41,17,41z"/><path fill="#efd8be" d="M43,25c0,0,0,9-1,12l4.417-3.667L47,27.167C47,27.167,45,25,43,25z"/><path fill="#5dbc9d" d="M58,59H38c-0.552,0-1-0.448-1-1V42c0-0.552,0.448-1,1-1h20c0.552,0,1,0.448,1,1v16 C59,58.552,58.552,59,58,59z"/><path fill="#72caaf" d="M62,63H34c-0.552,0-1-0.448-1-1V46c0-0.552,0.448-1,1-1h28c0.552,0,1,0.448,1,1v16 C63,62.552,62.552,63,62,63z"/><path fill="#cda1a7" d="M5,23c0,0,5.421-1.009,8.147-8.279C17.703,16.188,20.74,20.467,42,19c0.697-0.048-0.467-1.547,0-2 c0.946-0.916,3.259-1.081,4-1C43.117,7.505,34.702,1,24.96,1h-1.817C19.502,1,16.199,2.409,14,4 c-0.278,0.201-1.424,0.642-1.761,0.726c-3.635,0.909-6.526,4.442-7.269,9.087c-0.574,3.589-0.771,6.345-0.541,8.084 C4.432,21.925,4.996,22.972,5,23z"/><path fill="#bbdef9" d="M48 48A5 6 0 1 0 48 60A5 6 0 1 0 48 48Z"/><path fill="#dbb2ba" d="M25.96,1h-1.817c-3.641,0-6.888,1.135-9.087,2.726c-0.042,0.03-0.036,0.154,0.004,0.341 c0.47,2.197,2.876,3.411,4.962,2.576c1.457-0.583,3.138-1.1,4.52-1.1h1.585c7.655,0,13.483,4.651,16.402,11.784 c1.906-0.271,2.467-1.111,3.534-0.994C43.181,7.839,35.702,1,25.96,1z"/><path fill="#8d6c9f" d="M14.611 15.753l2.345 1.143c4.265 2.078 8.773 3.131 13.401 3.131.552 0 1-.448 1-1s-.448-1-1-1c-4.322 0-8.536-.985-12.525-2.929l-2.345-1.143c-1.125-.548-2.493-.173-3.183.872L9.9 18.477c-.304.461-.176 1.082.285 1.385.169.112.36.165.549.165.325 0 .644-.158.836-.45l2.404-3.649C14.112 15.718 14.386 15.644 14.611 15.753zM37.369 18.027h-3.005c-.552 0-1 .448-1 1s.448 1 1 1h3.005c.552 0 1-.448 1-1S37.921 18.027 37.369 18.027zM15 26A2 2 0 1 0 15 30 2 2 0 1 0 15 26zM33 26A2 2 0 1 0 33 30 2 2 0 1 0 33 26zM24.133 7.532c.027 0 .054-.001.081-.003.55-.044.961-.526.917-1.077l-.145-1.802c-.044-.55-.53-.967-1.077-.917-.55.044-.961.526-.917 1.077l.145 1.802C23.179 7.135 23.617 7.532 24.133 7.532zM36.932 11.915c.298 0 .593-.133.791-.387l1.075-1.385c.338-.437.259-1.064-.177-1.403-.437-.338-1.064-.26-1.403.177l-1.075 1.385c-.338.437-.259 1.064.177 1.403C36.501 11.847 36.717 11.915 36.932 11.915zM32.677 9.166c.129.056.263.082.396.082.387 0 .756-.227.919-.604l.707-1.639c.219-.507-.015-1.096-.522-1.314-.508-.219-1.096.016-1.314.522l-.707 1.639C31.936 8.358 32.169 8.947 32.677 9.166zM28.546 7.739c.055.009.109.013.163.013.481 0 .906-.348.986-.838l.292-1.781c.089-.545-.28-1.059-.825-1.148-.548-.085-1.06.281-1.148.825l-.292 1.781C27.631 7.136 28.001 7.65 28.546 7.739zM32.847 40.494c-.183-.291-.503-.468-.847-.468H16.201c-.344 0-.664.177-.847.468s-.204.656-.055.965C16.75 44.477 19.925 48 24.1 48c4.174 0 7.35-3.523 8.801-6.54C33.05 41.15 33.03 40.785 32.847 40.494zM24.1 46c-2.634 0-4.812-1.917-6.18-3.974h12.36C28.912 44.082 26.734 46 24.1 46z"/><path fill="#8d6c9f" d="M62,44h-2v-2c0-1.1-0.9-2-2-2H42.39c0.31-0.76,0.59-1.52,0.83-2.29c1.77-0.51,3.45-2.7,4.24-5.67 c1.04-3.86,0.15-7.21-2.05-7.8c-0.342-0.092-0.829-0.132-1.414,0.039c-0.056-2.168-0.367-4.022-0.95-5.605 c-0.199-0.539-0.168-0.767-0.185-0.777c0.328-0.197,1.733,0.06,2.859,0.526c0.343,0.142,0.739,0.082,1.025-0.156 c0.286-0.239,0.416-0.617,0.336-0.98C44.716,6.462,36.685,0,25.6,0h-1.5c-3.273,0-7.962,1.031-10.802,3.005 C8.2,3.174,4.234,7.607,3.605,13.902c-0.482,4.821-0.045,7.214,0.216,8.644c0.046,0.252,0.086,0.467,0.11,0.655 c0.037,0.288,0.066,0.647,0.09,1.031c-0.5-0.113-0.92-0.073-1.231,0.009c-1.16,0.31-1.98,1.38-2.32,3.01 c-0.28,1.39-0.19,3.09,0.27,4.79c0.79,2.97,2.47,5.16,4.24,5.67C7.9,46.9,15.3,56,24.1,56c2.81,0,5.48-0.93,7.9-2.5V62 c0,1.1,0.9,2,2,2h28c1.1,0,2-0.9,2-2V46C64,44.9,63.1,44,62,44z M58,42v2H38v-2h1.3h2.22H58z M24.1,54 c-8.01,0-14.81-8.79-17.39-17.46c-0.13-0.43-0.52-0.72-0.96-0.72c-0.81,0-2.33-1.49-3.08-4.3c-0.37-1.38-0.46-2.79-0.24-3.87 c0.17-0.81,0.5-1.38,0.88-1.48c0.243-0.068,0.578,0.118,0.771,0.239c-0.001,0.225-0.005,0.431-0.012,0.586 c-0.026,0.552,0.4,1.02,0.952,1.046c0.558,0.02,1.02-0.4,1.046-0.952c0.042-0.887,0.003-2.942-0.152-4.144 c-0.028-0.218-0.073-0.466-0.126-0.758c-0.243-1.326-0.648-3.545-0.194-8.085C6.131,8.743,9.423,5,13.627,5 c0.216,0,0.426-0.07,0.6-0.2C16.656,2.981,21.126,2,24.1,2h1.5c9.629,0,16.501,5.077,19.095,14.005 c-1.118-0.244-2.433-0.304-3.217,0.446c-0.677,0.65-0.781,1.63-0.308,2.914c0.724,1.965,0.977,4.455,0.773,7.612 c-0.036,0.551,0.382,1.027,0.934,1.062c0.022,0.001,0.044,0.002,0.065,0.002c0.523,0,0.963-0.406,0.997-0.936 c0.014-0.217,0.02-0.423,0.03-0.634c0.043-0.02,0.091-0.025,0.132-0.052c0.19-0.12,0.54-0.32,0.79-0.25 c0.79,0.21,1.43,2.4,0.64,5.35c-0.37,1.4-0.94,2.48-1.52,3.2c-0.57,0.73-1.15,1.1-1.56,1.1c-0.44,0-0.83,0.29-0.96,0.72 c-0.34,1.16-0.76,2.32-1.26,3.46H38c-1.1,0-2,0.9-2,2v2h-2c-1.1,0-2,0.9-2,2v5.1C29.61,52.9,26.93,54,24.1,54z M62,62H34v-9.97 v-2.65V46h24h2h2V62z"/><path fill="#8d6c9f" d="M48 47.286c-3.309 0-6 3.012-6 6.714s2.691 6.714 6 6.714 6-3.012 6-6.714S51.309 47.286 48 47.286zM48 58.714c-2.206 0-4-2.115-4-4.714s1.794-4.714 4-4.714S52 51.4 52 54 50.206 58.714 48 58.714zM38 52A2 2 0 1 0 38 56 2 2 0 1 0 38 52zM58 52A2 2 0 1 0 58 56 2 2 0 1 0 58 52z"/></svg>