<svg xmlns="http://www.w3.org/2000/svg" viewBox="0 0 64 64" width="128px" height="128px"><path fill="#8d6c9f" d="M21,44.043c-0.256,0-0.512-0.098-0.707-0.293c-0.391-0.391-0.391-1.023,0-1.414l22-22 c0.391-0.391,1.023-0.391,1.414,0s0.391,1.023,0,1.414l-22,22C21.512,43.945,21.256,44.043,21,44.043z"/><path fill="#8d6c9f" d="M42.95,43.993c-0.256,0-0.512-0.098-0.707-0.293l-21.9-21.9c-0.391-0.391-0.391-1.023,0-1.414 s1.023-0.391,1.414,0l21.9,21.9c0.391,0.391,0.391,1.023,0,1.414C43.462,43.896,43.206,43.993,42.95,43.993z"/><path fill="#e0678f" d="M32 26A6 6 0 1 0 32 38A6 6 0 1 0 32 26Z"/><path fill="#8d6c9f" d="M15.5 23A1.5 1.5 0 1 0 15.5 26 1.5 1.5 0 1 0 15.5 23zM8.5 23A1.5 1.5 0 1 0 8.5 26 1.5 1.5 0 1 0 8.5 23z"/><path fill="#fff6ae" d="M5.656 17L16.953 17 18 9.067 3 9z"/><path fill="#8d6c9f" d="M16.952,18H5.656c-0.431,0-0.813-0.276-0.949-0.685l-2.656-8c-0.102-0.306-0.05-0.641,0.14-0.902 C2.379,8.153,2.68,8,3,8c0.002,0,0.003,0,0.005,0l15,0.067c0.287,0.001,0.56,0.126,0.749,0.342 c0.188,0.217,0.275,0.504,0.237,0.789l-1.048,7.933C17.878,17.628,17.454,18,16.952,18z M6.378,16h9.697l0.785-5.938L4.388,10.006 L6.378,16z"/><path fill="#8d6c9f" d="M17.876 10.938c-.058 0-.116-.005-.176-.015-.544-.097-.906-.616-.81-1.159l.875-4.938C17.85 4.348 18.265 4 18.75 4h5c.553 0 1 .448 1 1s-.447 1-1 1h-4.162l-.729 4.112C18.773 10.597 18.352 10.938 17.876 10.938zM17 22H6c-.553 0-1-.448-1-1s.447-1 1-1h9.492l-1.089-2.58c-.215-.509.023-1.096.532-1.311.508-.215 1.095.023 1.31.532l1.676 3.969c.131.309.098.663-.088.942C17.648 21.832 17.335 22 17 22zM51 10h-2V7.609C49 5.619 51.019 4 53.5 4S58 5.619 58 7.609v2.282h-2V7.609C56 6.752 54.832 6 53.5 6S51 6.752 51 7.609V10z"/><path fill="#bbdef9" d="M58.917 10L48.083 10 47 23 60 23z"/><path fill="#8d6c9f" d="M60,24H47c-0.279,0-0.547-0.117-0.736-0.323c-0.188-0.206-0.283-0.481-0.26-0.76l1.083-13 C47.13,9.398,47.563,9,48.083,9h10.834c0.521,0,0.953,0.398,0.996,0.917l1.083,13c0.023,0.279-0.071,0.554-0.26,0.76 C60.547,23.883,60.279,24,60,24z M48.087,22h10.826l-0.916-11h-8.994L48.087,22z"/><path fill="#f7a1c8" d="M59.643 59L46.357 59 45 49 61 49z"/><path fill="#8d6c9f" d="M59.643,60H46.357c-0.5,0-0.924-0.37-0.991-0.866l-1.357-10c-0.038-0.286,0.048-0.575,0.238-0.792 C44.437,48.125,44.711,48,45,48h16c0.289,0,0.563,0.125,0.753,0.342c0.19,0.217,0.276,0.506,0.238,0.792l-1.357,10 C60.566,59.63,60.143,60,59.643,60z M47.23,58H58.77l1.086-8H46.145L47.23,58z"/><path fill="#72caaf" d="M4 49H18V59H4z"/><path fill="#8d6c9f" d="M18 60H4c-.553 0-1-.448-1-1V49c0-.552.447-1 1-1h14c.553 0 1 .448 1 1v10C19 59.552 18.553 60 18 60zM5 58h12v-8H5V58zM57 50h-8c-.553 0-1-.448-1-1v-4c0-.552.447-1 1-1h8c.553 0 1 .448 1 1v4C58 49.552 57.553 50 57 50zM50 48h6v-2h-6V48z"/><path fill="#8d6c9f" d="M12,54h-2c-0.553,0-1-0.448-1-1s0.447-1,1-1h2c0.553,0,1,0.448,1,1S12.553,54,12,54z"/><path fill="#72caaf" d="M3 46H19V50H3z"/><path fill="#8d6c9f" d="M19,51H3c-0.553,0-1-0.448-1-1v-4c0-0.552,0.447-1,1-1h16c0.553,0,1,0.448,1,1v4 C20,50.552,19.553,51,19,51z M4,49h14v-2H4V49z"/><path fill="#e080a5" d="M31.833,38c-3.314,0-6-2.686-6-6h12C37.833,35.314,35.147,38,31.833,38z"/><path fill="#8d6c9f" d="M32,39c-3.859,0-7-3.141-7-7c0-3.86,3.141-7,7-7s7,3.14,7,7C39,35.859,35.859,39,32,39z M32,27 c-2.757,0-5,2.243-5,5s2.243,5,5,5s5-2.243,5-5S34.757,27,32,27z"/><path fill="#8eccef" d="M59,22c-0.499-1.722-2.232-3-4.312-3h-2.235c-2.08,0-3.813,1.278-4.312,3H59z"/><path fill="#e080a5" d="M58.859,58c-0.446-1.722-1.997-3-3.859-3h-4c-1.862,0-3.412,1.278-3.859,3H58.859z"/><g><path fill="#64ad93" d="M16.859,58c-0.446-1.722-1.997-3-3.859-3H9c-1.862,0-3.412,1.278-3.859,3H16.859z"/></g><g><path fill="#f9dd8f" d="M16,16c-0.554-1.722-2.48-3-4.792-3l0,0c-2.312,0-4.238,1.278-4.792,3H16z"/></g><g><path fill="#8d6c9f" d="M49,56c-0.553,0-1-0.448-1-1v-2c0-0.552,0.447-1,1-1s1,0.448,1,1v2C50,55.552,49.553,56,49,56z"/></g><g><path fill="#8d6c9f" d="M53,56c-0.553,0-1-0.448-1-1v-2c0-0.552,0.447-1,1-1s1,0.448,1,1v2C54,55.552,53.553,56,53,56z"/></g><g><path fill="#8d6c9f" d="M57,56c-0.553,0-1-0.448-1-1v-2c0-0.552,0.447-1,1-1s1,0.448,1,1v2C58,55.552,57.553,56,57,56z"/></g></svg>