<svg width="56" height="56" viewBox="0 0 56 56" fill="none" xmlns="http://www.w3.org/2000/svg">
<path d="M33.6001 15.4H12.6001V33.6H33.6001V15.4Z" stroke="#F38C06" stroke-width="2" stroke-linecap="round" stroke-linejoin="round"/>
<path d="M33.6001 22.4H39.2001L43.4001 26.6V33.6H33.6001V22.4Z" stroke="#F38C06" stroke-width="2" stroke-linecap="round" stroke-linejoin="round"/>
<path d="M18.8999 40.6C20.8329 40.6 22.3999 39.033 22.3999 37.1C22.3999 35.167 20.8329 33.6 18.8999 33.6C16.9669 33.6 15.3999 35.167 15.3999 37.1C15.3999 39.033 16.9669 40.6 18.8999 40.6Z" stroke="#F38C06" stroke-width="2" stroke-linecap="round" stroke-linejoin="round"/>
<path d="M37.1001 40.6C39.0331 40.6 40.6001 39.033 40.6001 37.1C40.6001 35.167 39.0331 33.6 37.1001 33.6C35.1671 33.6 33.6001 35.167 33.6001 37.1C33.6001 39.033 35.1671 40.6 37.1001 40.6Z" stroke="#F38C06" stroke-width="2" stroke-linecap="round" stroke-linejoin="round"/>
</svg>
