<svg width="32" height="32" viewBox="0 0 32 32" fill="none" xmlns="http://www.w3.org/2000/svg">
<path d="M28 32H4C1.792 32 0 30.208 0 28V4C0 1.792 1.792 0 4 0H28C30.208 0 32 1.792 32 4V28C32 30.208 30.208 32 28 32Z" fill="#1DA1F2"/>
<path d="M12.2881 24.1281C19.8321 24.1281 23.9601 17.8721 23.9601 12.4561C23.9601 12.2801 23.9601 12.1041 23.9521 11.9281C24.7521 11.3521 25.4481 10.6241 26.0001 9.80007C25.2641 10.1281 24.4721 10.3441 23.6401 10.4481C24.4881 9.94407 25.1361 9.13607 25.4481 8.17607C24.6561 8.64807 23.7761 8.98407 22.8401 9.16807C22.0881 8.36807 21.0241 7.87207 19.8481 7.87207C17.5841 7.87207 15.7441 9.71207 15.7441 11.9761C15.7441 12.2961 15.7841 12.6081 15.8481 12.9121C12.4401 12.7441 9.41606 11.1041 7.39206 8.62407C7.04006 9.23207 6.84006 9.93607 6.84006 10.6881C6.84006 12.1121 7.56806 13.3681 8.66406 14.1041C7.99206 14.0801 7.36006 13.8961 6.80806 13.5921C6.80806 13.6081 6.80806 13.6241 6.80806 13.6481C6.80806 15.6321 8.22406 17.2961 10.0961 17.6721C9.75206 17.7681 9.39206 17.8161 9.01606 17.8161C8.75206 17.8161 8.49606 17.7921 8.24806 17.7441C8.76806 19.3761 10.2881 20.5601 12.0801 20.5921C10.6721 21.6961 8.90406 22.3521 6.98406 22.3521C6.65606 22.3521 6.32806 22.3361 6.00806 22.2961C7.81606 23.4481 9.97606 24.1281 12.2881 24.1281Z" fill="white"/>
</svg>
