<svg width="45" height="46" viewBox="0 0 45 46" fill="none" xmlns="http://www.w3.org/2000/svg">
<ellipse cx="22.3172" cy="23" rx="22.2962" ry="23" fill="#4CB9B2"/>
<path d="M20.8935 24.2422C20.8935 26.6016 20.4201 28.4062 19.4735 29.6562C18.5268 30.9062 17.1408 31.5312 15.3156 31.5312C13.5132 31.5312 12.1348 30.918 11.1805 29.6914C10.2263 28.4648 9.73781 26.707 9.71509 24.418V21.2773C9.71509 18.8945 10.1922 17.0859 11.1465 15.8516C12.1083 14.6172 13.4904 14 15.2929 14C17.0954 14 18.4738 14.6133 19.428 15.8398C20.3823 17.0586 20.8707 18.8125 20.8935 21.1016V24.2422ZM17.6104 20.7969C17.6104 19.3828 17.4211 18.3555 17.0424 17.7148C16.6713 17.0664 16.0881 16.7422 15.2929 16.7422C14.5204 16.7422 13.9486 17.0508 13.5775 17.668C13.214 18.2773 13.0209 19.2344 12.9982 20.5391V24.6875C12.9982 26.0781 13.1799 27.1133 13.5435 27.793C13.9146 28.4648 14.5053 28.8008 15.3156 28.8008C16.1184 28.8008 16.6978 28.4766 17.0537 27.8281C17.4097 27.1797 17.5952 26.1875 17.6104 24.8516V20.7969Z" fill="white"/>
<path d="M34.4575 31.2969H23.1201V28.9766L28.4707 23.0938C29.2053 22.2656 29.7468 21.543 30.0952 20.9258C30.4511 20.3086 30.6291 19.7227 30.6291 19.168C30.6291 18.4102 30.4436 17.8164 30.0725 17.3867C29.7014 16.9492 29.1712 16.7305 28.482 16.7305C27.7398 16.7305 27.1529 16.9961 26.7212 17.5273C26.2971 18.0508 26.0851 18.7422 26.0851 19.6016H22.7906C22.7906 18.5625 23.0292 17.6133 23.5063 16.7539C23.991 15.8945 24.6726 15.2227 25.5511 14.7383C26.4296 14.2461 27.4256 14 28.5388 14C30.2429 14 31.5644 14.4219 32.5035 15.2656C33.4502 16.1094 33.9236 17.3008 33.9236 18.8398C33.9236 19.6836 33.7115 20.543 33.2874 21.418C32.8633 22.293 32.1362 23.3125 31.1062 24.4766L27.346 28.5664H34.4575V31.2969Z" fill="white"/>
</svg>
