<svg xmlns="http://www.w3.org/2000/svg" viewBox="0 0 127.07 67.23"><defs><style>.cls-1{fill:#2c2d84;}</style></defs><title>Oja Logo</title><g id="Layer_2" data-name="Layer 2"><g id="Layer_1-2" data-name="Layer 1"><path class="cls-1" d="M102.66,0a24.24,24.24,0,1,0,13.23,44.66h0a2.56,2.56,0,0,0,2.56,2.56h6a2.59,2.59,0,0,0,2.6-2.59v-20C127.07,11.23,116.08-.09,102.66,0Zm.17,37.3a13.05,13.05,0,1,1,13-13.81A13.05,13.05,0,0,1,102.83,37.3Z"/><path class="cls-1" d="M69.79,3.83V43.24A24.25,24.25,0,0,1,56.67,64.79l-.14.08a18.63,18.63,0,0,1-8.39,2,2.59,2.59,0,0,1-2.59-2.6V58.67a2.58,2.58,0,0,1,2-2.51l.4-.07a13.07,13.07,0,0,0,10.7-12.84V3.83A2.59,2.59,0,0,1,61.2,1.24h6A2.59,2.59,0,0,1,69.79,3.83Z"/><rect class="cls-1" x="19.37" y="56.49" width="11.18" height="10.75" rx="2.59"/><circle class="cls-1" cx="24.97" cy="25.06" r="5.79"/><path class="cls-1" d="M36.56,47.09c-.41.22-.82.42-1.25.61a5,5,0,0,1-2.38.43A6.22,6.22,0,0,1,29.78,47a5.5,5.5,0,0,1-2-2.63v0a3.54,3.54,0,0,1,.73-3.56l1.06-1.16,2.62-2.89.57-.63a11.46,11.46,0,0,1,1-1,13.44,13.44,0,0,0-9.44-23.58h0A13.45,13.45,0,0,0,11.54,25.61a14,14,0,0,0,6.33,10.78,3.44,3.44,0,0,1,.36.28l4,3.6a3.47,3.47,0,0,1,1.13,2.82,6.25,6.25,0,0,1-.52,2,5.53,5.53,0,0,1-1.23,1.72,6,6,0,0,1-3.27,1.58,5.85,5.85,0,0,1-3.13-.51l-.76-.33A25,25,0,0,1,23.78,0h0A25,25,0,0,1,36.56,47.09Z"/></g></g></svg>