<svg width="120" height="121" viewBox="0 0 120 121" fill="none" xmlns="http://www.w3.org/2000/svg">
<g clip-path="url(#clip0)">
<path d="M60 5.96973C28.2867 5.96973 2.57812 31.6783 2.57812 63.3916H117.422C117.422 31.6783 91.7133 5.96973 60 5.96973Z" fill="#6EDB9A"/>
<path d="M85.7056 1.02235C75.6331 2.39485 74.6759 8.1054 74.6714 10.2007C74.6705 10.6402 74.427 11.0473 74.0321 11.2395C68.7926 13.7883 71.6175 26.0721 71.6175 26.0721C72.1437 26.1073 72.6942 26.3203 73.1051 26.5193C73.2056 25.8933 73.3699 25.2771 73.6017 24.6813C73.7785 24.2274 73.9995 23.7689 74.2753 23.3356C74.7544 22.5839 74.9726 21.697 74.9077 20.8106C74.7195 18.248 74.8099 13.1984 78.1927 11.6763C81.0584 10.3868 84.5735 11.1335 86.8153 11.8791C88.2713 12.3631 89.8481 12.3631 91.3041 11.8791C93.5459 11.1335 97.061 10.3868 99.9267 11.6763C103.3 13.1942 103.4 18.2194 103.213 20.7888C103.149 21.6823 103.361 22.5781 103.844 23.3356C104.129 23.7827 104.355 24.2569 104.535 24.7252C104.758 25.3074 104.916 25.9085 105.014 26.5193C105.532 26.2685 106.272 25.9952 106.905 26.0848C106.983 23.3988 107.23 20.5031 107.23 20.5031C110.216 5.884 96.5508 -0.45538 85.7056 1.02235Z" fill="#0052A9"/>
<path d="M85.7056 1.02258C75.6331 2.39508 74.6759 8.10563 74.6714 10.2009C74.6705 10.6404 74.4272 11.0475 74.0321 11.2397C68.7926 13.7885 71.6175 26.0723 71.6175 26.0723C72.1437 26.1075 72.6945 26.3206 73.1051 26.5195C73.2056 25.8935 73.3699 25.2773 73.6017 24.6816C73.7785 24.2276 73.9995 23.7691 74.2756 23.3358C74.7546 22.5841 74.9731 21.6973 74.9079 20.8109C74.7195 18.2482 74.8104 13.1986 78.1929 11.6766C80.7996 10.5035 83.941 11.0161 86.1753 11.6791C86.1333 11.6236 86.0953 11.5676 86.0524 11.5123C81.0176 5.05126 85.7056 1.02258 85.7056 1.02258Z" fill="#003370"/>
<path d="M117.422 63.3916C117.422 63.1828 117.416 62.9754 117.414 62.767C106.704 58.0802 105.369 58.2832 104.187 57.8887C104.225 57.9255 104.258 57.9665 104.283 58.0158C104.239 58.3823 104.474 58.3221 103.613 60.5358C101.829 64.964 98.5839 68.8528 94.8236 71.8265C94.4437 72.1265 93.9182 72.1465 93.5153 71.8776C92.8668 71.4445 91.7252 75.5353 91.7871 76.6964C91.8091 77.3927 91.7924 76.564 91.7983 86.0283C91.7983 86.4012 91.4894 86.7044 91.1097 86.7044C91.0781 86.7044 87.13 86.7044 87.2498 86.7044C86.8703 86.7044 86.5612 86.4012 86.5612 86.0283C86.5668 76.5689 86.5504 77.3908 86.5722 76.6973C86.572 76.6896 86.5717 76.6762 86.5717 76.6685C86.4121 74.6222 85.4301 71.4865 84.8442 71.8776C84.4415 72.1465 83.9158 72.1265 83.5359 71.8265C79.7756 68.8528 76.5306 64.964 74.7461 60.5358C73.885 58.3221 74.1203 58.3823 74.0765 58.0158C74.1014 57.9665 74.1349 57.9258 74.1721 57.8887C72.9328 58.3024 71.5244 58.0587 59.2999 63.4929C58.7057 63.7258 58.3635 63.9056 58.1069 64.0277L58.1083 64.0303C48.191 69.1357 49.8937 84.9729 49.8937 84.9729C49.0139 88.1351 48.5339 99.2653 48.3025 102.643C48.1476 104.903 49.9455 106.818 52.211 106.818H97.5705C109.729 96.2892 117.422 80.7387 117.422 63.3916Z" fill="#E779B5"/>
<path d="M61.552 85.5049C61.473 81.7715 62.001 72.6935 68.6514 69.2697L68.6505 69.2674C69.9423 68.6522 74.7074 66.589 77.508 65.5326C76.3973 63.9673 75.4548 62.295 74.7459 60.5358C73.8848 58.3221 74.1201 58.3823 74.076 58.0158C74.1009 57.9665 74.1341 57.9258 74.1714 57.8887C72.932 58.3024 71.5237 58.0587 59.2991 63.4929C58.705 63.7258 58.3628 63.9054 58.1062 64.0277L58.1076 64.0305C48.1902 69.1359 49.893 84.9731 49.893 84.9731C49.0129 88.1353 48.5331 99.2655 48.3018 102.643C48.1469 104.903 49.9448 106.818 52.2102 106.818H60.1347C60.2908 98.0979 61.6227 88.8295 61.552 85.5049Z" fill="#E25CA5"/>
<path d="M77.8651 54.7683L78.0702 55.8969C78.0704 55.8971 78.0765 55.9233 78.0765 55.9233C78.1358 56.183 78.2036 56.4441 78.2774 56.6998L78.2889 56.7385C78.3135 56.8236 78.3397 56.9103 78.3665 56.9951L78.3826 57.0467C78.411 57.1358 78.4403 57.2262 78.4722 57.3209L78.4829 57.3521C79.1579 59.3347 80.6329 62.2245 83.8225 64.7316C84.6491 65.3815 85.5529 65.9792 86.5079 66.5075C86.9371 66.7447 87.2495 67.1056 87.4119 67.5509C87.4227 67.5805 87.4391 67.6079 87.4597 67.6313C87.9493 68.1823 88.4174 68.7882 88.8505 69.432C88.9438 69.5705 89.1735 69.5705 89.2663 69.432C89.6976 68.7903 90.1668 68.1837 90.6604 67.6285C90.6815 67.6051 90.6976 67.5776 90.7082 67.5483C90.8713 67.104 91.1835 66.744 91.611 66.5075C98.4702 62.7137 99.9451 57.1217 100.259 54.7273C99.4194 52.8052 99.1513 50.4289 99.0885 48.605C98.0755 49.7851 97.0124 50.7718 95.9964 51.5607C94.0171 53.0977 91.5749 53.9323 89.0594 53.9323C86.5438 53.9323 84.1014 53.0975 82.1223 51.5607C81.1063 50.7718 80.0432 49.7848 79.0302 48.605C78.9674 50.4289 78.699 52.8054 77.8597 54.7276L77.8651 54.7683Z" fill="#FCA870"/>
<path d="M83.8222 64.7316C84.6489 65.3815 85.5526 65.9792 86.5077 66.5075C86.9368 66.7447 87.2493 67.1056 87.4117 67.5509C87.4225 67.5805 87.4389 67.6079 87.4595 67.6313C87.9491 68.1823 88.4172 68.7882 88.8503 69.432C88.9436 69.5705 89.1732 69.5705 89.2661 69.432C89.6973 68.7903 90.1665 68.1837 90.6601 67.6285C90.6812 67.6051 90.6974 67.5776 90.7079 67.5483C90.8711 67.104 91.1832 66.744 91.6107 66.5075C98.47 62.7137 99.9449 57.1217 100.259 54.7273C99.4192 52.8052 99.1511 50.4289 99.0883 48.605C98.0753 49.7851 97.0122 50.7718 95.9961 51.5607C94.0168 53.0977 91.5747 53.9323 89.0591 53.9323C86.5436 53.9323 84.1011 53.0975 82.1221 51.5607C81.1061 50.7718 80.0429 49.7848 79.03 48.605C78.9672 50.4289 78.6988 52.8054 77.8595 54.7276C77.9992 55.0946 78.4295 60.4925 83.8222 64.7316Z" fill="#FCA870"/>
<path d="M82.1226 51.5607C81.1068 50.7718 80.0434 49.7848 79.0305 48.605C78.9676 50.4289 78.6993 52.8054 77.86 54.7276C78.1616 55.5915 78.497 60.5098 83.7672 64.6866C83.8382 64.6372 83.9085 64.587 83.9772 64.535C88.9394 60.7883 89.0596 53.9323 89.0596 53.9323C86.544 53.9323 84.1019 53.0975 82.1226 51.5607Z" fill="#F9955F"/>
<path d="M108.038 26.4337C107.253 25.7147 105.69 26.0791 105.015 26.5195C105.163 27.4413 105.171 28.3842 105.043 29.3154L104.246 35.1225C104.246 35.5905 104.231 36.0499 104.204 36.5011C106.148 37.0875 107.114 35.3421 107.277 34.1442C107.347 33.6286 107.461 33.1204 107.62 32.6245C108.137 31.0094 110.003 28.2351 108.038 26.4337Z" fill="#FCA870"/>
<path d="M106.545 31.727C105.89 31.727 105.285 31.5161 104.79 31.1617L104.246 35.1226C104.246 35.5907 104.231 36.05 104.204 36.5012C106.148 37.0876 107.114 35.3422 107.277 34.1443C107.347 33.6287 107.461 33.1206 107.62 32.6247C107.748 32.2262 107.957 31.7568 108.171 31.2493C107.701 31.5503 107.144 31.727 106.545 31.727Z" fill="#F9955F"/>
<path d="M70.0818 26.4337C70.8663 25.7147 72.4291 26.0791 73.1045 26.5195C72.9564 27.4413 72.948 28.3842 73.076 29.3154L73.8733 35.1225C73.8733 35.5905 73.8881 36.0499 73.9153 36.5011C71.9711 37.0875 71.0053 35.3421 70.8426 34.1442C70.7725 33.6286 70.6581 33.1204 70.4992 32.6245C69.9822 31.0094 68.1163 28.2351 70.0818 26.4337Z" fill="#FCA870"/>
<path d="M73.3298 31.1614C72.8346 31.516 72.2299 31.7268 71.5746 31.7268C70.9753 31.7268 70.4182 31.55 69.9482 31.2491C70.1622 31.7567 70.372 32.226 70.4997 32.6244C70.6584 33.1203 70.773 33.6285 70.8428 34.1441C71.0055 35.342 71.9714 37.0874 73.9155 36.501C73.8883 36.0498 73.8735 35.5904 73.8735 35.1224L73.3298 31.1614Z" fill="#F9955F"/>
<path d="M89.2358 69.5585C87.8687 67.4456 86.521 66.3361 86.521 66.3361L83.0385 71.9294C85.5472 73.5443 85.9953 77.489 86.0753 78.76C86.2834 74.6754 87.8305 71.5711 89.2358 69.5585Z" fill="#C6237C"/>
<path d="M92.0266 86.9083V79.1639C92.0266 79.1639 92.0702 73.8672 95.0807 71.9294L91.5984 66.3361C91.5984 66.3361 86.0491 70.8958 86.0491 79.1639V86.9083H92.0266Z" fill="#DD3F95"/>
<path d="M86.6293 66.2881C79.6841 62.447 78.3454 56.7282 78.0887 54.5377C78.0433 54.1498 77.5942 53.9581 77.2792 54.189L72.5779 57.6357C72.3269 57.8197 72.2066 58.137 72.2823 58.4389C74.1526 65.8841 80.1658 71.3202 82.8163 73.4157C83.4908 73.9492 84.475 73.7945 84.9552 73.081C85.6342 72.0718 86.5947 70.6447 87.3873 69.4667C88.1275 68.367 87.7895 66.9298 86.6293 66.2881Z" fill="#E25CA5"/>
<path d="M83.9776 64.5348C79.326 60.8784 78.3088 56.414 78.0887 54.5378C78.0433 54.1499 77.5942 53.9582 77.2792 54.1893L72.5779 57.636C72.3269 57.82 72.2066 58.1376 72.2823 58.4392C73.4793 63.2036 76.3719 67.143 78.9951 69.9128C81.0775 63.077 83.3999 64.1357 83.9776 64.5348Z" fill="#DD3F95"/>
<path d="M105.542 57.636L100.84 54.1893C100.525 53.9582 100.076 54.1502 100.031 54.5381C99.7738 56.7283 98.4353 62.447 91.4898 66.2885C90.3297 66.9302 89.9917 68.3674 90.7319 69.4673C91.5245 70.6453 92.485 72.0724 93.164 73.0816C93.6442 73.795 94.6281 73.9497 95.3029 73.4163C97.9534 71.3207 103.967 65.8844 105.837 58.4395C105.913 58.1374 105.793 57.8198 105.542 57.636Z" fill="#E25CA5"/>
<path d="M89.3214 78.0801C89.9699 78.0801 90.4957 77.5544 90.4957 76.9059C90.4957 76.2573 89.9699 75.7316 89.3214 75.7316C88.6729 75.7316 88.1472 76.2573 88.1472 76.9059C88.1472 77.5544 88.6729 78.0801 89.3214 78.0801Z" fill="#E25CA5"/>
<path d="M89.0597 83.9049C89.7082 83.9049 90.2339 83.3792 90.2339 82.7307C90.2339 82.0822 89.7082 81.5565 89.0597 81.5565C88.4112 81.5565 87.8855 82.0822 87.8855 82.7307C87.8855 83.3792 88.4112 83.9049 89.0597 83.9049Z" fill="#E25CA5"/>
<path d="M104.652 24.6806C104.454 24.1635 104.217 23.6885 103.95 23.2685C103.492 22.5506 103.275 21.6733 103.338 20.7979C103.541 18.0042 103.373 13.09 99.9781 11.5621C97.1267 10.2794 93.666 10.9617 91.265 11.7602C89.8428 12.2336 88.2765 12.2332 86.8545 11.7602C84.4534 10.9617 80.9926 10.2787 78.1414 11.5621C76.6815 12.2191 74.3038 14.2957 74.7828 20.8202C74.8461 21.6796 74.6284 22.5492 74.1699 23.2687C73.91 23.6765 73.6796 24.1366 73.4851 24.636C72.9156 26.099 72.7313 27.7225 72.9521 29.3313L73.7483 35.1225C73.7483 44.7133 79.5512 50.2546 82.0459 52.1918C84.0371 53.7384 86.5281 54.5901 89.0598 54.5901C91.5913 54.5901 94.0822 53.7384 96.0735 52.1918C98.5684 50.2544 104.371 44.7131 104.37 35.1396L105.167 29.3325C105.386 27.7399 105.208 26.1311 104.652 24.6806Z" fill="#F9BD91"/>
<path d="M88.7424 52.1918C86.9673 50.2545 82.8385 44.7134 82.8385 35.1225L82.272 29.3313C82.115 27.7226 82.246 26.0991 82.651 24.6361C82.7895 24.1366 82.9534 23.6766 83.1383 23.2688C83.4645 22.5495 83.6192 21.6797 83.5745 20.8202C83.2334 14.2957 84.9254 12.2194 85.9641 11.5622C85.9932 11.5439 86.023 11.5299 86.052 11.5123C83.7216 10.8394 80.6893 10.4152 78.1412 11.5622C76.681 12.2191 74.3035 14.2957 74.7826 20.8202C74.8459 21.6797 74.6281 22.5492 74.1697 23.2688C73.9098 23.6766 73.6794 24.1366 73.4848 24.6361C72.9153 26.0991 72.7311 27.7226 72.9519 29.3313L73.748 35.1225C73.748 44.7134 79.5509 50.2547 82.0459 52.1918C84.0371 53.7384 86.528 54.5902 89.0598 54.5902C89.9827 54.5902 90.9001 54.4756 91.79 54.2569C90.6866 53.8756 89.6427 53.1745 88.7424 52.1918Z" fill="#FCA870"/>
<path d="M27.3462 1.02235C17.2737 2.39485 16.3165 8.1054 16.3121 10.2007C16.3111 10.6402 16.0676 11.0473 15.6727 11.2395C10.4335 13.7883 13.2582 26.0721 13.2582 26.0721C13.7843 26.1073 14.3349 26.3203 14.7458 26.5193C14.8463 25.8933 15.0106 25.2771 15.2424 24.6813C15.4191 24.2274 15.6399 23.7689 15.916 23.3356C16.3953 22.5839 16.6133 21.697 16.5483 20.8106C16.3601 18.248 16.4508 13.1984 19.8333 11.6763C22.699 10.3868 26.2144 11.1335 28.456 11.8791C29.9119 12.3631 31.4888 12.3631 32.9447 11.8791C35.1865 11.1335 38.7017 10.3868 41.5674 11.6763C44.9403 13.1942 45.0404 18.2194 44.854 20.7888C44.7893 21.6823 45.0017 22.5781 45.4845 23.3356C45.7695 23.7827 45.9957 24.2569 46.1752 24.7252C46.3983 25.3074 46.557 25.9085 46.655 26.5193C47.1727 26.2685 47.9126 25.9952 48.5457 26.0848C48.6233 23.3988 48.871 20.5031 48.871 20.5031C51.8565 5.884 38.1915 -0.45538 27.3462 1.02235Z" fill="#0052A9"/>
<path d="M27.3463 1.02258C17.2738 2.39508 16.3166 8.10563 16.3122 10.2009C16.3112 10.6404 16.068 11.0475 15.6728 11.2397C10.4333 13.7885 13.2583 26.0723 13.2583 26.0723C13.7844 26.1075 14.3352 26.3206 14.7458 26.5195C14.8464 25.8935 15.0107 25.2773 15.2425 24.6816C15.4192 24.2276 15.6402 23.7691 15.9161 23.3358C16.3954 22.5841 16.6136 21.6973 16.5484 20.8109C16.3602 18.2484 16.4509 13.1988 19.8334 11.6768C22.4404 10.5038 25.5815 11.0163 27.8158 11.6794C27.7738 11.6238 27.7358 11.5678 27.693 11.5125C22.6583 5.05125 27.3463 1.02258 27.3463 1.02258Z" fill="#003370"/>
<path d="M70.107 84.9731C70.107 84.9731 71.8095 69.1359 61.8921 64.0305L61.8933 64.028C61.6366 63.9058 61.2947 63.7261 60.7006 63.4931C48.476 58.0589 47.0674 58.3024 45.8283 57.889C45.8655 57.9258 45.8991 57.9668 45.9239 58.016C45.8801 58.3826 46.1152 58.3223 45.2543 60.536C43.4695 64.9643 40.2248 68.853 36.4645 71.8268C36.0846 72.1268 35.5589 72.1467 35.1563 71.8779C34.5077 71.4448 33.3661 75.5355 33.428 76.6966C33.45 77.393 33.4334 76.5642 33.4392 86.0285C33.4392 86.4014 33.1303 86.7047 32.7506 86.7047C32.7188 86.7047 28.7709 86.7047 28.8907 86.7047C28.5113 86.7047 28.2021 86.4014 28.2021 86.0285C28.208 76.5691 28.1913 77.3911 28.2134 76.6976C28.2131 76.6898 28.2129 76.6765 28.2129 76.6687C28.0533 74.6224 27.071 71.4867 26.4853 71.8779C26.0827 72.1467 25.557 72.1268 25.177 71.8268C21.4167 68.853 18.1718 64.9643 16.3873 60.536C15.5262 58.3223 15.7615 58.3826 15.7177 58.016C15.7425 57.9668 15.7758 57.926 15.8133 57.889C14.632 58.2832 13.2968 58.0802 2.5868 62.7673C2.58375 62.9754 2.57812 63.1828 2.57812 63.3916C2.57812 80.7387 10.2705 96.2892 22.4299 106.818H67.7897C70.0552 106.818 71.8531 104.903 71.6979 102.643C71.4666 99.2658 70.9868 88.1355 70.107 84.9731Z" fill="#FCE453"/>
<path d="M4.24852 77.179C5.20898 74.0465 6.99961 70.965 10.2923 69.2697L10.2914 69.2674C11.583 68.6522 16.3484 66.589 19.1489 65.5326C18.0382 63.9673 17.0958 62.295 16.387 60.5358C15.5259 58.3221 15.7612 58.3823 15.7172 58.0158C15.742 57.9665 15.7753 57.9258 15.8128 57.8887C14.6316 58.283 13.2966 58.08 2.58633 62.767C2.58375 62.9754 2.57812 63.1828 2.57812 63.3916C2.57812 68.145 3.15961 72.7617 4.24852 77.179Z" fill="#FFC533"/>
<path d="M19.506 54.7683L19.7111 55.8969C19.7113 55.8971 19.7174 55.9233 19.7174 55.9233C19.777 56.183 19.8445 56.4441 19.9183 56.6998L19.9298 56.7385C19.9544 56.8236 19.9806 56.9103 20.0073 56.9951L20.0235 57.0467C20.0519 57.1358 20.0812 57.2262 20.1131 57.3209L20.1238 57.3521C20.7991 59.3347 22.2738 62.2245 25.4634 64.7316C26.29 65.3815 27.1938 65.9792 28.1488 66.5075C28.578 66.7447 28.8904 67.1056 29.0528 67.5509C29.0636 67.5805 29.08 67.6079 29.1009 67.6313C29.5905 68.1823 30.0585 68.7882 30.4916 69.432C30.5852 69.5705 30.8146 69.5705 30.9074 69.432C31.3387 68.7903 31.8079 68.1837 32.3015 67.6285C32.3226 67.6051 32.3388 67.5776 32.3495 67.5483C32.5127 67.104 32.8248 66.744 33.2523 66.5075C40.1116 62.7137 41.5865 57.1217 41.9003 54.7273C41.0608 52.8052 40.7927 50.4289 40.7298 48.605C39.7169 49.7851 38.6538 50.7718 37.6377 51.5607C35.6584 53.0977 33.2163 53.9323 30.7007 53.9323C28.1852 53.9323 25.7427 53.0975 23.7637 51.5607C22.7477 50.7718 21.6845 49.7848 20.6716 48.605C20.6088 50.4289 20.3406 52.8054 19.5011 54.7276L19.506 54.7683Z" fill="#FCA870"/>
<path d="M25.4629 64.7316C26.2895 65.3815 27.1933 65.9792 28.1483 66.5075C28.5775 66.7447 28.8899 67.1056 29.0523 67.5509C29.0631 67.5805 29.0795 67.6079 29.1004 67.6313C29.59 68.1823 30.058 68.7882 30.4912 69.432C30.5847 69.5705 30.8141 69.5705 30.9069 69.432C31.3382 68.7903 31.8074 68.1837 32.301 67.6285C32.3221 67.6051 32.3383 67.5776 32.349 67.5483C32.5122 67.104 32.8244 66.744 33.2519 66.5075C40.1111 62.7137 41.586 57.1217 41.8998 54.7273C41.0603 52.8052 40.7922 50.4289 40.7294 48.605C39.7164 49.7851 38.6533 50.7718 37.6372 51.5607C35.658 53.0977 33.2158 53.9323 30.7002 53.9323C28.1847 53.9323 25.7422 53.0975 23.7632 51.5607C22.7472 50.7718 21.684 49.7848 20.6711 48.605C20.6083 50.4289 20.3401 52.8054 19.5006 54.7276C19.6398 55.0946 20.0704 60.4925 25.4629 64.7316Z" fill="#FCA870"/>
<path d="M23.7634 51.5607C22.7474 50.7718 21.6843 49.7848 20.6713 48.605C20.6085 50.4289 20.3402 52.8054 19.5009 54.7276C19.8025 55.5915 20.1379 60.5098 25.408 64.6866C25.4791 64.6372 25.5494 64.587 25.618 64.535C30.5802 60.7883 30.7005 53.9323 30.7005 53.9323C28.1849 53.9323 25.7425 53.0975 23.7634 51.5607Z" fill="#F9955F"/>
<path d="M49.6782 26.4337C48.8937 25.7147 47.3309 26.0791 46.6552 26.5195C46.8033 27.4413 46.8118 28.3842 46.6838 29.3154L45.8864 35.1225C45.8864 35.5905 45.8717 36.0499 45.8447 36.5011C47.7889 37.0875 48.7547 35.3421 48.9174 34.1442C48.9875 33.6286 49.1018 33.1204 49.2607 32.6245C49.778 31.0094 51.6436 28.2351 49.6782 26.4337Z" fill="#FCA870"/>
<path d="M48.1857 31.727C47.5303 31.727 46.9254 31.5161 46.4304 31.1617L45.8864 35.1226C45.8864 35.5907 45.8717 36.05 45.8447 36.5012C47.7889 37.0876 48.7547 35.3422 48.9174 34.1443C48.9872 33.6287 49.1018 33.1206 49.2607 32.6247C49.3885 32.2262 49.5982 31.7568 49.812 31.2493C49.3423 31.5503 48.7852 31.727 48.1857 31.727Z" fill="#F9955F"/>
<path d="M11.7229 26.4337C12.5073 25.7147 14.0701 26.0791 14.7456 26.5195C14.5975 27.4413 14.5893 28.3842 14.717 29.3154L15.5143 35.1225C15.5143 35.5905 15.5291 36.0499 15.5563 36.5011C13.6119 37.0875 12.6463 35.3421 12.4836 34.1442C12.4136 33.6286 12.2992 33.1204 12.1403 32.6245C11.623 31.0094 9.75739 28.2351 11.7229 26.4337Z" fill="#FCA870"/>
<path d="M14.9707 31.1614C14.4757 31.516 13.8708 31.7268 13.2154 31.7268C12.6161 31.7268 12.059 31.55 11.5891 31.2491C11.8031 31.7567 12.0129 32.226 12.1404 32.6244C12.299 33.1203 12.4136 33.6285 12.4837 34.1441C12.6464 35.342 13.6122 37.0874 15.5564 36.501C15.5292 36.0498 15.5144 35.5904 15.5144 35.1224L14.9707 31.1614Z" fill="#F9955F"/>
<path d="M30.8767 69.5585C29.5096 67.4456 28.1619 66.3361 28.1619 66.3361L24.6793 71.9294C27.1881 73.5443 27.6362 77.489 27.7161 78.76C27.9242 74.6754 29.4711 71.5711 30.8767 69.5585Z" fill="#F78C2D"/>
<path d="M33.6672 86.9083V79.1639C33.6672 79.1639 33.7108 73.8672 36.7213 71.9294L33.239 66.3361C33.239 66.3361 27.6897 70.8958 27.6897 79.1639V86.9083H33.6672Z" fill="#F9A52B"/>
<path d="M28.2702 66.2881C21.325 62.447 19.9862 56.7282 19.7296 54.5377C19.6841 54.1498 19.2351 53.9581 18.9201 54.189L14.219 57.6357C13.968 57.8197 13.8477 58.137 13.9234 58.4389C15.7937 65.8841 21.8069 71.3202 24.4574 73.4157C25.1319 73.9492 26.1161 73.7945 26.5963 73.081C27.2753 72.0718 28.2358 70.6447 29.0284 69.4667C29.7684 68.367 29.4302 66.9298 28.2702 66.2881Z" fill="#FFC533"/>
<path d="M25.6183 64.5348C20.9666 60.8784 19.9494 56.414 19.7294 54.5378C19.6839 54.1499 19.2348 53.9582 18.9198 54.1893L14.2185 57.636C13.9675 57.82 13.8472 58.1376 13.9229 58.4392C15.1199 63.2036 18.0126 67.143 20.6357 69.9128C22.7181 63.077 25.0408 64.1357 25.6183 64.5348Z" fill="#F9A52B"/>
<path d="M47.1824 57.636L42.4811 54.1893C42.1661 53.9582 41.717 54.1502 41.6716 54.5381C41.4147 56.7283 40.0762 62.447 33.1307 66.2885C31.9705 66.9302 31.6326 68.3674 32.3727 69.4673C33.1654 70.6453 34.1259 72.0724 34.8048 73.0816C35.2848 73.795 36.269 73.9497 36.9438 73.4163C39.5943 71.3207 45.6074 65.8844 47.4777 58.4395C47.5537 58.1374 47.4332 57.8198 47.1824 57.636Z" fill="#FFC533"/>
<path d="M30.9619 78.0802C31.6104 78.0802 32.1362 77.5545 32.1362 76.906C32.1362 76.2575 31.6104 75.7318 30.9619 75.7318C30.3134 75.7318 29.7877 76.2575 29.7877 76.906C29.7877 77.5545 30.3134 78.0802 30.9619 78.0802Z" fill="#FFC533"/>
<path d="M30.7003 83.9048C31.3488 83.9048 31.8746 83.3791 31.8746 82.7306C31.8746 82.0821 31.3488 81.5564 30.7003 81.5564C30.0518 81.5564 29.5261 82.0821 29.5261 82.7306C29.5261 83.3791 30.0518 83.9048 30.7003 83.9048Z" fill="#FFC533"/>
<path d="M46.2924 24.6806C46.0944 24.1635 45.8581 23.6885 45.5905 23.2685C45.1327 22.5506 44.9157 21.6733 44.979 20.7979C45.1815 18.0042 45.0139 13.09 41.6187 11.5621C38.7673 10.2794 35.3066 10.9617 32.9056 11.7602C31.4834 12.2336 29.9171 12.2332 28.4952 11.7602C26.094 10.9617 22.6332 10.2787 19.7818 11.5621C18.3219 12.2191 15.9441 14.2957 16.4232 20.8202C16.4865 21.6796 16.2688 22.5492 15.8103 23.2687C15.5504 23.6765 15.32 24.1366 15.1255 24.636C14.5559 26.099 14.3717 27.7225 14.5925 29.3313L15.3887 35.1225C15.3887 44.7133 21.1916 50.2546 23.6863 52.1918C25.6775 53.7384 28.1684 54.5901 30.6999 54.5901C33.2314 54.5901 35.7223 53.7384 37.7136 52.1918C40.2085 50.2544 46.0112 44.7131 46.01 35.1396L46.8073 29.3325C47.0267 27.7399 46.8484 26.1311 46.2924 24.6806Z" fill="#F9BD91"/>
<path d="M30.383 52.1918C28.6079 50.2545 24.4791 44.7134 24.4791 35.1225L23.9127 29.3313C23.7556 27.7226 23.8866 26.0991 24.2916 24.6361C24.4302 24.1366 24.594 23.6766 24.7789 23.2688C25.1049 22.5495 25.2598 21.6797 25.2151 20.8202C24.8741 14.2957 26.566 12.2194 27.6048 11.5622C27.6338 11.5439 27.6636 11.5299 27.6927 11.5123C25.3623 10.8394 22.3299 10.4152 19.7818 11.5622C18.3219 12.2191 15.9441 14.2957 16.4232 20.8202C16.4865 21.6797 16.2688 22.5492 15.8103 23.2688C15.5504 23.6766 15.32 24.1366 15.1255 24.6361C14.5559 26.0991 14.3717 27.7226 14.5925 29.3313L15.3887 35.1225C15.3887 44.7134 21.1916 50.2547 23.6865 52.1918C25.6777 53.7384 28.1687 54.5902 30.7002 54.5902C31.6231 54.5902 32.5405 54.4756 33.4304 54.2569C32.3274 53.8756 31.2833 53.1745 30.383 52.1918Z" fill="#FCA870"/>
<path d="M56.5243 22.0491C46.4518 23.4216 45.4946 29.1322 45.4902 31.2275C45.4892 31.667 45.2457 32.0741 44.8508 32.2663C39.6116 34.8151 42.4363 47.0989 42.4363 47.0989C42.9624 47.1341 43.513 47.3471 43.9239 47.5461C44.0244 46.9201 44.1887 46.3039 44.4205 45.7081C44.5972 45.2541 44.8182 44.7957 45.0941 44.3624C45.5732 43.6107 45.7914 42.7238 45.7264 41.8374C45.5382 39.2748 45.6287 34.2252 49.0114 32.7031C51.8771 31.4136 55.3925 32.1603 57.6341 32.9059C59.09 33.3901 60.6669 33.3901 62.1228 32.9059C64.3646 32.1603 67.8798 31.4136 70.7455 32.7031C74.1184 34.2209 74.2185 39.2462 74.0321 41.8156C73.9675 42.7088 74.1798 43.6049 74.6626 44.3624C74.9476 44.8095 75.1738 45.2837 75.3533 45.752C75.5764 46.3342 75.7351 46.9353 75.8331 47.5461C76.3508 47.2953 77.0907 47.022 77.7238 47.1116C77.8014 44.4256 78.0491 41.5299 78.0491 41.5299C81.0346 26.9108 67.3696 20.5714 56.5243 22.0491Z" fill="#0052A9"/>
<path d="M56.5244 22.0493C46.4519 23.4218 45.4947 29.1324 45.4903 31.2277C45.4893 31.6671 45.2458 32.0742 44.8509 32.2664C39.6114 34.8153 42.4364 47.0991 42.4364 47.0991C42.9625 47.1342 43.5133 47.3473 43.9239 47.5463C44.0245 46.9203 44.1888 46.3041 44.4206 45.7083C44.5973 45.2543 44.8183 44.7959 45.0942 44.3625C45.5735 43.6109 45.7917 42.724 45.7265 41.8376C45.5381 39.2749 45.6288 34.2253 49.0115 32.7033C51.6182 31.5303 54.7596 32.0428 56.9939 32.7059C56.9519 32.6503 56.9142 32.5943 56.871 32.539C51.8364 26.0778 56.5244 22.0493 56.5244 22.0493Z" fill="#003370"/>
<path d="M91.0704 85.0573L91.0716 85.0545C90.8149 84.9322 90.473 84.7526 89.8789 84.5197C77.6543 79.0855 76.2457 79.329 75.0066 78.9155C75.0439 78.9523 75.0774 78.9933 75.1022 79.0426C75.0584 79.4091 75.2935 79.3489 74.4326 81.5623C72.6478 85.9906 69.4032 89.8794 65.6426 92.8531C65.2627 93.1531 64.7372 93.173 64.3343 92.9042C63.6858 92.4711 62.5442 96.5619 62.606 97.723C62.6281 98.4193 62.6114 97.5905 62.6173 107.055C62.6173 107.428 62.3084 107.731 61.9287 107.731C61.8968 107.731 57.949 107.731 58.0688 107.731C57.6893 107.731 57.3802 107.428 57.3802 107.055C57.386 97.5954 57.3694 98.4174 57.3914 97.7239C57.3912 97.7162 57.391 97.7028 57.391 97.6951C57.2314 95.6487 56.2491 92.513 55.6634 92.9042C55.2607 93.173 54.735 93.1531 54.3551 92.8531C50.5948 89.8794 47.3499 85.9906 45.5653 81.5623C44.7042 79.3489 44.9396 79.4089 44.8957 79.0426C44.9206 78.9933 44.9541 78.9526 44.9914 78.9155C43.752 79.3292 42.3436 79.0855 30.1191 84.5197C29.5249 84.7526 29.1828 84.9322 28.9261 85.0545L28.9275 85.0573C20.3386 89.4788 20.4652 101.948 20.6532 105.209C30.93 114.883 44.7715 120.814 60 120.814C75.2269 120.814 89.0672 114.884 99.3446 105.212C99.5325 101.955 99.6617 89.48 91.0704 85.0573Z" fill="#65D2FC"/>
<path d="M45.5647 81.5623C44.7036 79.3489 44.9389 79.4089 44.8949 79.0426C44.9197 78.9933 44.9532 78.9526 44.9905 78.9155C43.7511 79.3292 42.3428 79.0855 30.1182 84.5197C29.5241 84.7526 29.1819 84.9322 28.9253 85.0545L28.9267 85.0573C20.3378 89.4788 20.4643 101.948 20.6523 105.209C23.93 108.294 27.5692 111 31.5015 113.253C31.921 110.233 32.4146 108.59 32.3708 106.532C32.2918 102.798 32.8199 93.7203 39.4703 90.2965L39.4691 90.2942C40.761 89.679 45.526 87.6158 48.3266 86.5592C47.2161 84.9938 46.2737 83.3216 45.5647 81.5623Z" fill="#33BAFE"/>
<path d="M48.6843 75.7947L48.8894 76.9232C48.8897 76.9235 48.8958 76.9497 48.8958 76.9497C48.955 77.2094 49.0228 77.4705 49.0966 77.7262L49.1081 77.7649C49.1327 77.85 49.159 77.9367 49.1857 78.0215L49.2018 78.0731C49.2302 78.1621 49.2595 78.2526 49.2914 78.3473L49.3022 78.3785C49.9774 80.361 51.4521 83.2509 54.6417 85.7582C55.4683 86.4082 56.3721 87.0058 57.3272 87.5341C57.7563 87.7713 58.0687 88.1322 58.2311 88.5775C58.2419 88.6071 58.2583 88.6345 58.279 88.6579C58.7686 89.2089 59.2366 89.8148 59.6697 90.4586C59.7632 90.5971 59.9927 90.5971 60.0855 90.4586C60.5168 89.8171 60.986 89.2103 61.4796 88.6551C61.5007 88.6317 61.5168 88.6043 61.5274 88.575C61.6905 88.1306 62.0027 87.7706 62.4302 87.5341C69.2894 83.7403 70.7643 78.1483 71.0782 75.7539C70.2386 73.8318 69.9705 71.4555 69.9077 69.6316C68.8947 70.8114 67.8316 71.7984 66.8156 72.5873C64.8363 74.1241 62.3941 74.9589 59.8786 74.9589C57.363 74.9589 54.9206 74.1241 52.9415 72.5873C51.9255 71.7984 50.8624 70.8114 49.8494 69.6316C49.7866 71.4555 49.5183 73.8321 48.679 75.7542L48.6843 75.7947Z" fill="#FCA870"/>
<path d="M54.6414 85.758C55.4681 86.4079 56.3718 87.0056 57.3269 87.5338C57.7561 87.771 58.0685 88.132 58.2309 88.5773C58.2417 88.6068 58.2581 88.6342 58.2787 88.6577C58.7683 89.2087 59.2364 89.8145 59.6695 90.4584C59.763 90.5969 59.9925 90.5969 60.0853 90.4584C60.5165 89.8169 60.9857 89.2101 61.4793 88.6549C61.5004 88.6314 61.5166 88.604 61.5272 88.5747C61.6903 88.1303 62.0025 87.7703 62.43 87.5338C69.2892 83.74 70.7641 78.1481 71.0779 75.7537C70.2384 73.8316 69.9703 71.4553 69.9075 69.6313C68.8945 70.8112 67.8314 71.7981 66.8154 72.5871C64.8361 74.1239 62.3939 74.9587 59.8783 74.9587C57.3628 74.9587 54.9204 74.1239 52.9413 72.5871C51.9253 71.7981 50.8621 70.8112 49.8492 69.6313C49.7864 71.4553 49.518 73.8318 48.6787 75.7539C48.8184 76.121 49.2487 81.5191 54.6414 85.758Z" fill="#FCA870"/>
<path d="M52.9417 72.5871C51.9256 71.7981 50.8625 70.8112 49.8495 69.6313C49.7867 71.4553 49.5184 73.8316 48.6791 75.7539C48.9807 76.6178 49.3161 81.5362 54.5863 85.713C54.6573 85.6635 54.7276 85.6134 54.7963 85.5613C59.7585 81.8146 59.8787 74.9587 59.8787 74.9587C57.3629 74.9589 54.9207 74.1241 52.9417 72.5871Z" fill="#F9955F"/>
<path d="M78.8563 47.4603C78.0718 46.7413 76.509 47.1057 75.8333 47.5461C75.9814 48.4679 75.9899 49.4108 75.8619 50.3422L75.0645 56.1493C75.0645 56.6174 75.0498 57.0767 75.0226 57.5279C76.9667 58.1143 77.9326 56.3689 78.0952 55.171C78.1653 54.6554 78.2797 54.1473 78.4386 53.6513C78.9561 52.036 80.8217 49.2617 78.8563 47.4603Z" fill="#FCA870"/>
<path d="M77.3638 52.7536C76.7085 52.7536 76.1035 52.5427 75.6085 52.1883L75.0645 56.1492C75.0645 56.6173 75.0498 57.0767 75.0228 57.5278C76.967 58.1142 77.9328 56.3688 78.0955 55.1709C78.1653 54.6553 78.2799 54.1472 78.4386 53.6513C78.5663 53.2528 78.7761 52.7836 78.9901 52.2759C78.5202 52.5769 77.9631 52.7536 77.3638 52.7536Z" fill="#F9955F"/>
<path d="M40.9009 47.4603C41.6854 46.7413 43.2482 47.1057 43.9236 47.5461C43.7755 48.4679 43.7671 49.4108 43.895 50.3422L44.6924 56.1493C44.6924 56.6174 44.7072 57.0767 44.7343 57.5279C42.7902 58.1143 41.8243 56.3689 41.6617 55.171C41.5916 54.6554 41.4772 54.1473 41.3183 53.6513C40.8013 52.036 38.9354 49.2617 40.9009 47.4603Z" fill="#FCA870"/>
<path d="M44.1485 52.1883C43.6533 52.5429 43.0486 52.7538 42.3933 52.7538C41.7938 52.7538 41.2369 52.5771 40.767 52.2762C40.981 52.7838 41.1907 53.2531 41.3182 53.6515C41.4769 54.1474 41.5915 54.6556 41.6613 55.1712C41.824 56.3691 42.7899 58.1145 44.734 57.5281C44.7068 57.0769 44.692 56.6175 44.692 56.1495L44.1485 52.1883Z" fill="#F9955F"/>
<path d="M60.0546 90.5851C58.6875 88.4722 57.3399 87.3627 57.3399 87.3627L53.8573 92.956C56.366 94.5709 56.8142 98.5156 56.8941 99.7867C57.1022 95.702 58.6493 92.5977 60.0546 90.5851Z" fill="#0090FC"/>
<path d="M62.8454 107.935V100.19C62.8454 100.19 62.889 94.8936 65.8996 92.956L62.4172 87.3627C62.4172 87.3627 56.8679 91.9224 56.8679 100.19V107.935H62.8454Z" fill="#00A8FD"/>
<path d="M57.4482 87.3147C50.503 83.4736 49.1642 77.7548 48.9076 75.5643C48.8621 75.1764 48.4131 74.9847 48.0981 75.2156L43.397 78.6623C43.1459 78.8463 43.0257 79.1639 43.1014 79.4655C44.9717 86.9107 50.9848 92.3468 53.6354 94.4423C54.3099 94.9757 55.2941 94.8211 55.7743 94.1076C56.4533 93.0984 57.4138 91.6713 58.2064 90.4933C58.9463 89.3936 58.6084 87.9564 57.4482 87.3147Z" fill="#33BAFE"/>
<path d="M54.7965 85.5617C50.1448 81.9052 49.1277 77.4408 48.9076 75.5646C48.8621 75.1767 48.413 74.985 48.098 75.2161L43.3967 78.6628C43.1457 78.8468 43.0255 79.1644 43.1012 79.466C44.2981 84.2304 47.1908 88.1698 49.8139 90.9399C51.8963 84.1038 54.219 85.1625 54.7965 85.5617Z" fill="#00A8FD"/>
<path d="M76.3603 78.6625L71.6589 75.2158C71.344 74.985 70.8949 75.1767 70.8494 75.5646C70.5925 77.7548 69.254 83.4736 62.3088 87.315C61.1486 87.9567 60.8107 89.3939 61.5508 90.4938C62.3435 91.6718 63.304 93.0989 63.9829 94.1081C64.4629 94.8215 65.4471 94.9762 66.1218 94.4428C68.7724 92.347 74.7855 86.9109 76.6558 79.466C76.7318 79.1641 76.6113 78.8465 76.3603 78.6625Z" fill="#33BAFE"/>
<path d="M60.1405 99.1069C60.789 99.1069 61.3147 98.5812 61.3147 97.9326C61.3147 97.2841 60.789 96.7584 60.1405 96.7584C59.492 96.7584 58.9663 97.2841 58.9663 97.9326C58.9663 98.5812 59.492 99.1069 60.1405 99.1069Z" fill="#33BAFE"/>
<path d="M59.8784 104.932C60.5269 104.932 61.0527 104.406 61.0527 103.757C61.0527 103.109 60.5269 102.583 59.8784 102.583C59.2299 102.583 58.7042 103.109 58.7042 103.757C58.7042 104.406 59.2299 104.932 59.8784 104.932Z" fill="#33BAFE"/>
<path d="M56.8679 107.673V109.867C56.8679 110.417 57.3191 110.862 57.8755 110.862H61.8378C62.3943 110.862 62.8454 110.417 62.8454 109.867V107.673H56.8679Z" fill="#0090FC"/>
<path d="M75.4707 45.7074C75.2726 45.1903 75.0364 44.7153 74.7687 44.2953C74.311 43.5774 74.094 42.6999 74.1572 41.8247C74.3595 39.0312 74.1922 34.1168 70.7972 32.5889C67.9458 31.3062 64.485 31.9885 62.0841 32.787C60.6619 33.2604 59.0956 33.26 57.6736 32.787C55.2725 31.9885 51.8117 31.3055 48.9605 32.5889C47.5004 33.2459 45.1229 35.3225 45.6019 41.847C45.6652 42.7064 45.4475 43.576 44.989 44.2955C44.7291 44.7033 44.4987 45.1634 44.3042 45.6628C43.7346 47.1258 43.5504 48.7493 43.7712 50.3581L44.5674 56.1492C44.5674 65.7401 50.3703 71.2814 52.865 73.2185C54.8562 74.7652 57.3472 75.6169 59.8786 75.6169C62.4101 75.6169 64.9011 74.7652 66.8923 73.2185C69.3872 71.2812 75.1899 65.7399 75.1887 56.1664L75.9861 50.3592C76.2047 48.7667 76.0266 47.1579 75.4707 45.7074Z" fill="#F9BD91"/>
<path d="M59.5613 73.2184C57.7861 71.2811 53.6574 65.74 53.6574 56.1491L53.0909 50.3579C52.9336 48.7492 53.0649 47.1257 53.4699 45.6627C53.6084 45.1633 53.7722 44.7032 53.9571 44.2954C54.2832 43.5761 54.4381 42.7065 54.3933 41.8469C54.0523 35.3223 55.7442 33.2458 56.783 32.5888C56.8121 32.5705 56.8418 32.5565 56.8709 32.5389C54.5405 31.866 51.5081 31.4418 48.96 32.5888C47.5001 33.2458 45.1224 35.3223 45.6014 41.8469C45.6647 42.7063 45.447 43.5761 44.9885 44.2954C44.7286 44.7032 44.4982 45.1633 44.3037 45.6627C43.7342 47.1257 43.5499 48.7492 43.7707 50.3579L44.5669 56.1491C44.5669 65.74 50.3698 71.2813 52.8647 73.2184C54.856 74.7651 57.3469 75.6168 59.8784 75.6168C60.8014 75.6168 61.7187 75.5022 62.6086 75.2835C61.5054 74.9019 60.4615 74.2012 59.5613 73.2184Z" fill="#FCA870"/>
</g>
<defs>
<clipPath id="clip0">
<rect y="0.813477" width="120" height="120" fill="white"/>
</clipPath>
</defs>
</svg>
