<svg width="246" height="248" viewBox="0 0 246 248" fill="none" xmlns="http://www.w3.org/2000/svg">
<path d="M192.662 4.96875L196.77 2.85808L196.544 7.47133L192.662 4.96875ZM5.14038 247.607L2.92178 243.556L7.53941 243.661L5.14038 247.607ZM196.278 4.74565C198.688 4.87242 201.005 5.01227 203.231 5.16512L203.177 5.96324C200.954 5.8107 198.642 5.67111 196.236 5.54455L196.278 4.74565ZM223.1 7.20423C232.21 8.55664 238.741 10.3148 243.006 12.4849L242.644 13.1979C238.495 11.0873 232.067 9.34418 222.983 7.99556L223.1 7.20423ZM244.998 29.2765C241.521 33.2339 236.085 37.6219 229.169 42.4244L228.713 41.7673C235.615 36.9742 240.986 32.6307 244.397 28.7485L244.998 29.2765ZM212.141 53.4141C206.727 56.7299 200.871 60.2038 194.677 63.8319L194.273 63.1416C200.464 59.5146 206.316 56.0438 211.723 52.7319L212.141 53.4141ZM177.086 74.0744C171.368 77.3985 165.474 80.8324 159.467 84.3747L159.061 83.6856C165.07 80.142 170.966 76.707 176.684 73.3828L177.086 74.0744ZM142.048 94.7937C136.317 98.2783 130.543 101.855 124.776 105.522L124.347 104.847C130.119 101.176 135.898 97.5971 141.632 94.1102L142.048 94.7937ZM107.754 116.655C102.125 120.45 96.554 124.332 91.09 128.299L90.62 127.652C96.0924 123.679 101.671 119.792 107.307 115.992L107.754 116.655ZM74.9136 140.577C69.538 144.856 64.3311 149.224 59.348 153.679L58.8148 153.083C63.8106 148.616 69.0292 144.238 74.4153 139.951L74.9136 140.577ZM44.6892 167.756C39.8913 172.738 35.4181 177.818 31.3375 182.994L30.7092 182.499C34.8081 177.3 39.299 172.2 44.113 167.201L44.6892 167.756ZM19.8175 199.688C16.2921 205.654 13.3392 211.734 11.0507 217.925L10.3003 217.648C12.6073 211.406 15.5819 205.283 19.1287 199.281L19.8175 199.688ZM6.18311 237.499C5.90836 239.662 5.71986 241.838 5.62115 244.027L4.82198 243.991C4.92166 241.78 5.11203 239.583 5.38947 237.398L6.18311 237.499ZM192.662 4.96875L200.894 0.777818L200.407 10.0026L192.662 4.96875ZM5.14038 247.607L0.886307 239.408L10.1145 239.823L5.14038 247.607ZM199.9 4.54949C201.041 4.61851 202.161 4.69071 203.259 4.76606L203.149 6.36231C202.056 6.28726 200.941 6.21535 199.803 6.14658L199.9 4.54949ZM223.159 6.80857C232.281 8.16287 238.864 9.92852 243.188 12.1284L242.462 13.5544C238.372 11.4736 231.995 9.73796 222.924 8.39122L223.159 6.80857ZM245.298 29.5405C241.788 33.5355 236.32 37.9457 229.397 42.753L228.485 41.4388C235.38 36.6503 240.718 32.3292 244.097 28.4844L245.298 29.5405ZM212.35 53.7552C206.933 57.073 201.074 60.5483 194.88 64.1771L194.071 62.7965C200.261 59.17 206.11 55.7007 211.514 52.3908L212.35 53.7552ZM177.287 74.4202C171.569 77.7442 165.676 81.1777 159.671 84.7192L158.858 83.3411C164.868 79.7968 170.764 76.3613 176.483 73.037L177.287 74.4202ZM142.256 95.1355C136.527 98.619 130.755 102.194 124.991 105.859L124.132 104.509C129.907 100.837 135.688 97.2564 141.424 93.7684L142.256 95.1355ZM107.978 116.987C102.352 120.78 96.7849 124.659 91.325 128.623L90.385 127.328C95.8616 123.352 101.444 119.462 107.083 115.66L107.978 116.987ZM75.1627 140.89C69.7923 145.165 64.5914 149.528 59.6146 153.977L58.5482 152.785C63.5503 148.312 68.7748 143.929 74.1662 139.638L75.1627 140.89ZM44.9773 168.034C40.1874 173.007 35.723 178.078 31.6516 183.242L30.3951 182.251C34.5031 177.041 39.0029 171.931 43.8249 166.924L44.9773 168.034ZM20.1618 199.891C16.6472 205.839 13.7051 211.897 11.4259 218.064L9.92516 217.509C12.2414 211.243 15.2268 205.098 18.7843 199.077L20.1618 199.891ZM6.57991 237.549C6.45592 238.526 6.34958 239.505 6.26123 240.486L4.66766 240.343C4.75778 239.342 4.86623 238.343 4.99266 237.348L6.57991 237.549Z" fill="#4CB9B2"/>
</svg>
