<svg width="120" height="121" viewBox="0 0 120 121" fill="none" xmlns="http://www.w3.org/2000/svg">
<g clip-path="url(#clip0)">
<path d="M120 60.8135C120 64.8886 119.593 68.8682 118.82 72.7132C116.716 83.1703 111.894 92.6404 105.123 100.36C94.1266 112.898 77.9878 120.813 60 120.813C26.8629 120.813 0 93.9506 0 60.8135C0 27.6764 26.8629 0.813477 60 0.813477C93.1371 0.813477 120 27.6764 120 60.8135Z" fill="#55CEED"/>
<path d="M108.644 49.4591C108.644 52.4594 108.372 55.398 107.852 58.2489C107.846 58.2827 107.84 58.3185 107.832 58.3523C106.573 65.1705 103.89 71.4885 100.106 76.9905C98.8931 78.7558 97.5665 80.4356 96.1352 82.0218C91.9138 86.7077 86.7932 90.5655 81.0454 93.3295C79.7528 93.951 78.4284 94.5168 77.0744 95.0252C74.8905 95.8431 72.6328 96.5102 70.3117 97.0108C68.1853 97.4676 66.0072 97.7891 63.7893 97.9598C62.5385 98.0549 61.2738 98.1049 59.999 98.1049C58.7263 98.1049 57.4656 98.057 56.2167 97.9598C55.889 97.934 55.5616 97.9061 55.2339 97.8742C54.3663 97.7887 53.5063 97.6837 52.6528 97.5527C38.917 95.4716 27.0653 87.6468 19.6256 76.6033C18.8135 75.3981 18.0531 74.155 17.3503 72.8765C13.5281 65.9291 11.354 57.9491 11.354 49.4594C11.354 22.5934 33.1333 0.814148 59.9992 0.814148C86.8652 0.814148 108.644 22.5932 108.644 49.4591Z" fill="#21ABD9"/>
<path d="M71.553 46.3994H68.1538V32.9411C68.1538 17.1006 55.2665 4.21329 39.426 4.21329C23.5856 4.21329 10.6982 17.1006 10.6982 32.9411V46.3994H7.29907V32.9411C7.29907 15.2263 21.711 0.814148 39.426 0.814148C57.141 0.814148 71.553 15.2261 71.553 32.9411V46.3994Z" fill="#474F70"/>
<path d="M72.7186 93.2628V119.465C70.0957 120.028 67.4093 120.425 64.6737 120.635H55.3334C54.9293 120.603 54.5252 120.569 54.1212 120.53C53.051 120.425 51.9905 120.295 50.9374 120.133C32.1464 117.287 16.2157 105.726 7.39453 89.6973C7.8893 89.0875 8.51133 88.5756 9.23625 88.2083L24.758 80.3324L39.4249 78.4541L41.4577 78.7138H41.46L54.0968 80.3326L69.6159 88.2086C71.5186 89.1756 72.7186 91.1275 72.7186 93.2628Z" fill="#FCC72E"/>
<path d="M41.4572 78.7136L28.823 80.3324L13.3038 88.2083C11.4009 89.1756 10.2009 91.1275 10.2009 93.2631V94.2941C9.19921 92.8075 8.26124 91.2744 7.39429 89.6973C7.88905 89.0875 8.51108 88.5756 9.23601 88.2083L24.7577 80.3324L39.4247 78.4541L41.4572 78.7136Z" fill="#F9AC28"/>
<path d="M50.0599 69.1865H29.4712V82.4233H50.0599V69.1865Z" fill="#FECD9C"/>
<path d="M17.2017 53.261C20.7156 53.261 23.5643 50.4124 23.5643 46.8985C23.5643 43.3845 20.7156 40.5359 17.2017 40.5359C13.6877 40.5359 10.8391 43.3845 10.8391 46.8985C10.8391 50.4124 13.6877 53.261 17.2017 53.261Z" fill="#EAB689"/>
<path d="M61.6507 53.261C65.1646 53.261 68.0132 50.4124 68.0132 46.8985C68.0132 43.3845 65.1646 40.5359 61.6507 40.5359C58.1367 40.5359 55.2881 43.3845 55.2881 46.8985C55.2881 50.4124 58.1367 53.261 61.6507 53.261Z" fill="#EAB689"/>
<path d="M34.8983 69.1859L29.4702 69.1857V69.1859H29.47V74.7837C29.47 74.7837 29.4702 74.7837 29.4702 74.7839V80.3225H34.8983C34.8983 78.4472 36.46 76.9395 38.3331 77.0276C38.695 77.0447 39.0594 77.0534 39.4255 77.0534C43.2629 77.0534 46.8805 76.1098 50.0586 74.4432V69.1859H34.8983Z" fill="#EAB689"/>
<path d="M62.3475 28.7358L16.5054 26.2955V51.8663C16.5054 64.5254 26.7675 74.7873 39.4263 74.7873C52.0854 74.7873 62.3472 64.5251 62.3472 51.8663V28.7358H62.3475Z" fill="#FECD9C"/>
<path d="M42.6923 15.8726L28.6499 17.0883C26.5077 17.0883 24.5329 17.8029 22.949 19.0052H21.9988V19.8305C20.2769 21.5402 19.2105 23.9093 19.2105 26.5277L15.6081 39.3537C15.6081 41.0231 14.9198 42.4097 16.5056 42.6972V51.866C16.5056 64.5251 26.7677 74.7869 39.4265 74.7869C40.281 74.7869 41.1238 74.7387 41.9538 74.6475C30.4842 73.3891 21.5601 63.6705 21.5601 51.8658V38.3407C21.5601 36.2255 23.2063 34.4353 25.3197 34.3521C25.3863 34.3493 25.4531 34.3481 25.5203 34.3481C27.677 34.3481 29.7763 35.0723 31.4568 36.4242C33.6377 38.1787 36.4317 39.5962 39.4263 39.2285C45.3906 38.4968 45.2146 34.5569 47.3957 32.8024C49.0764 31.4505 51.1755 30.7263 53.3322 30.7263H53.4252C56.1822 30.7263 58.3345 29.6967 58.3387 32.4539C58.3413 34.3099 59.8038 42.7795 61.6598 42.8212C62.6285 42.843 63.5092 42.4591 64.1411 41.8263C64.7559 41.2115 63.9738 40.3622 63.9738 39.423L63.1375 36.289" fill="#EAB689"/>
<path d="M65.1361 27.8793V39.4258C65.1361 40.3647 64.7559 41.2143 64.1414 41.8291C63.5093 42.4624 62.6285 42.8458 61.6603 42.8238C59.802 42.7818 58.339 41.2155 58.339 39.3571V37.6118C58.339 36.2287 57.7788 34.9783 56.8725 34.072C55.9662 33.1657 54.7158 32.6055 53.3327 32.6055C51.176 32.6055 49.0772 33.3295 47.3958 34.6823C45.2156 36.4361 42.4441 37.4864 39.4261 37.4864C36.4092 37.4864 33.6377 36.4357 31.4576 34.6823C31.1693 34.4498 30.8684 34.2372 30.5569 34.0432C30.5534 34.0396 30.5489 34.0373 30.5454 34.0352C29.9527 33.6656 29.3229 33.3658 28.6676 33.1368C27.6614 32.7871 26.5981 32.6057 25.5183 32.6057C22.7548 32.6057 20.5144 34.8496 20.5144 37.6143V39.4272C20.5144 40.365 20.1342 41.2157 19.5183 41.8305C18.9035 42.4453 18.0542 42.8252 17.115 42.8252C15.2384 42.8252 13.717 41.3041 13.717 39.4261V27.8796C13.717 17.7693 21.912 9.57324 32.0224 9.57324H46.8298C56.94 9.57277 65.1361 17.7691 65.1361 27.8793Z" fill="#474F70"/>
<path d="M26.4802 27.8793C26.4802 17.7691 34.6751 9.573 44.7853 9.573H32.0224C21.9122 9.573 13.717 17.7693 13.717 27.8793V39.426C13.717 41.3039 15.2384 42.8252 17.115 42.8252C18.0539 42.8252 18.9035 42.445 19.5183 41.8305C20.1342 41.2157 20.5144 40.365 20.5144 39.4272V37.6146C20.5144 34.8499 22.755 32.606 25.5183 32.606C25.841 32.606 26.1614 32.6273 26.4802 32.6594C26.4802 32.6592 26.4802 27.8793 26.4802 27.8793Z" fill="#323B5B"/>
<path d="M34.4512 45.8074C34.3237 46.864 33.3911 47.6393 32.3271 47.6393H26.7972C26.2197 47.6393 25.6966 47.4056 25.3179 47.0269C24.884 46.5919 24.6391 45.9672 24.7214 45.2876C24.8489 44.231 25.7814 43.4557 26.8455 43.4557H32.3753C32.9528 43.4557 33.476 43.6894 33.8547 44.0681C34.2881 44.5031 34.5332 45.128 34.4512 45.8074Z" fill="#EAB689"/>
<path d="M34.4512 47.2744C34.3237 48.3309 33.3911 49.1063 32.3271 49.1063H26.7972C26.2197 49.1063 25.6966 48.8726 25.3179 48.4938C24.884 48.0588 24.6391 47.4342 24.7214 46.7545C24.8489 45.698 25.7814 44.9227 26.8455 44.9227H32.3753C32.9528 44.9227 33.476 45.1563 33.8547 45.5351C34.2881 45.9701 34.5332 46.5947 34.4512 47.2744Z" fill="white"/>
<path d="M53.5252 43.4559H47.9473C46.792 43.4559 45.8557 44.3925 45.8557 45.5475C45.8557 46.7027 46.7923 47.6391 47.9473 47.6391H53.5252C54.6804 47.6391 55.6167 46.7025 55.6167 45.5475C55.6167 44.3923 54.6804 43.4559 53.5252 43.4559Z" fill="#EAB689"/>
<path d="M53.5252 44.9227H47.9473C46.792 44.9227 45.8557 45.8592 45.8557 47.0142C45.8557 48.1695 46.7923 49.1058 47.9473 49.1058H53.5252C54.6804 49.1058 55.6167 48.1692 55.6167 47.0142C55.6167 45.859 54.6804 44.9227 53.5252 44.9227Z" fill="white"/>
<path d="M55.3345 39.2772H46.1381C45.487 39.2772 44.9592 39.805 44.9592 40.4561C44.9592 41.1072 45.487 41.635 46.1381 41.635H55.3345C55.9856 41.635 56.5134 41.1072 56.5134 40.4561C56.5134 39.8047 55.9856 39.2772 55.3345 39.2772Z" fill="#EAB689"/>
<path d="M32.368 46.3242C32.368 47.8606 31.1223 49.1063 29.586 49.1063C28.0497 49.1063 26.804 47.8606 26.804 46.3242C26.804 45.8128 26.9422 45.334 27.1841 44.9227H31.9883C32.23 45.334 32.368 45.8128 32.368 46.3242Z" fill="#474F70"/>
<path d="M53.5182 46.3242C53.5182 47.8606 52.2725 49.1063 50.7361 49.1063C49.1998 49.1063 47.9541 47.8606 47.9541 46.3242C47.9541 45.8128 48.0924 45.334 48.3343 44.9227H53.1385C53.3799 45.334 53.5182 45.8128 53.5182 46.3242Z" fill="#474F70"/>
<path d="M61.1919 65.6478H53.7034V63.3819H61.1919C63.0598 63.3819 64.58 61.8617 64.58 59.9938V52.7996H66.8459V59.9938C66.8459 63.1112 64.3095 65.6478 61.1919 65.6478Z" fill="#474F70"/>
<path d="M25.0271 39.2772C24.3779 39.2772 23.8212 39.7851 23.8093 40.434C23.7973 41.0952 24.3294 41.635 24.988 41.635H31.4487C34.014 41.635 36.0938 43.7146 36.0938 46.2801V57.7881H37.2643C38.768 57.7881 39.9868 56.5693 39.9868 55.0656V42.8244C39.9868 40.8655 38.3987 39.2774 36.4397 39.2774H25.0271V39.2772Z" fill="#EAB689"/>
<path d="M43.3583 61.6405C40.805 62.4817 38.0474 62.4817 35.4941 61.6405C34.8118 61.4181 34.0323 61.6846 33.7288 62.323C33.4255 62.9594 33.8445 63.7895 34.6939 64.0687C37.7666 65.0812 41.0856 65.0812 44.158 64.0687C45.0076 63.7897 45.426 62.9591 45.1231 62.323C44.8203 61.6844 44.0403 61.4181 43.3583 61.6405Z" fill="#EAB689"/>
<path d="M40.8106 66.5333H38.0417C37.3358 66.5333 36.7634 67.1057 36.7634 67.8116C36.7634 68.5175 37.3358 69.0899 38.0417 69.0899H40.8106C41.5166 69.0899 42.0889 68.5175 42.0889 67.8116C42.0889 67.1057 41.5166 66.5333 40.8106 66.5333Z" fill="#EAB689"/>
<path d="M28.1006 76.1768L38.2607 80.5312C39.3079 80.9801 39.7375 82.2361 39.1839 83.232L35.8935 89.1548C35.2551 90.304 33.6778 90.4877 32.792 89.5165L24.4188 80.3327C23.6467 79.4862 23.782 78.1563 24.7087 77.4825L26.2122 76.3891C26.7602 75.9902 27.4774 75.9098 28.1006 76.1768Z" fill="#F9AC28"/>
<path d="M50.7525 76.1768L40.5924 80.5312C39.5452 80.9801 39.1156 82.2361 39.6692 83.232L42.9596 89.1548C43.598 90.304 45.1753 90.4877 46.061 89.5165L54.4343 80.3327C55.2063 79.4862 55.0711 78.1563 54.1444 77.4825L52.6409 76.3891C52.0927 75.9902 51.3755 75.9098 50.7525 76.1768Z" fill="#F9AC28"/>
<path d="M68.1569 37.0949H65.4866C63.7527 37.0949 62.3472 38.5005 62.3472 40.2344V52.5651C62.3472 54.299 63.7527 55.7045 65.4866 55.7045H68.1571V37.0949H68.1569Z" fill="#474F70"/>
<path d="M68.618 37.0949C67.0137 37.0949 65.7131 38.3955 65.7131 39.9998V52.7994C65.7131 54.4037 67.0137 55.7043 68.618 55.7043C71.5868 55.7043 73.9938 53.2975 73.9938 50.3284V42.4708C73.9936 39.5017 71.587 37.0949 68.618 37.0949Z" fill="#55CEED"/>
<path d="M10.6956 37.0949H13.366C15.0999 37.0949 16.5055 38.5005 16.5055 40.2344V52.5651C16.5055 54.299 15.0999 55.7045 13.366 55.7045H10.6956V37.0949Z" fill="#474F70"/>
<path d="M10.2343 37.0949C11.8386 37.0949 13.1391 38.3955 13.1391 39.9998V52.7994C13.1391 54.4037 11.8386 55.7043 10.2343 55.7043C7.26543 55.7043 4.8584 53.2975 4.8584 50.3284V42.4708C4.85863 39.5017 7.26543 37.0949 10.2343 37.0949Z" fill="#55CEED"/>
<path d="M7.47099 50.3282V42.4705C7.47099 40.0267 9.10224 37.9651 11.3347 37.3117C10.9953 37.1727 10.624 37.0944 10.2345 37.0944C7.26567 37.0944 4.85864 39.5012 4.85864 42.4703V50.3279C4.85864 53.2968 7.26544 55.7038 10.2345 55.7038C10.624 55.7038 10.995 55.626 11.3347 55.4865C9.10224 54.8336 7.47099 52.772 7.47099 50.3282Z" fill="#17A3BF"/>
<path d="M53.7038 67.0066C55.0805 67.0066 56.1966 65.8905 56.1966 64.5137C56.1966 63.137 55.0805 62.0209 53.7038 62.0209C52.327 62.0209 51.2109 63.137 51.2109 64.5137C51.2109 65.8905 52.327 67.0066 53.7038 67.0066Z" fill="#55CEED"/>
<path d="M39.4263 97.7506C40.7403 97.7506 41.8056 96.6853 41.8056 95.3712C41.8056 94.0571 40.7403 92.9918 39.4263 92.9918C38.1122 92.9918 37.0469 94.0571 37.0469 95.3712C37.0469 96.6853 38.1122 97.7506 39.4263 97.7506Z" fill="white"/>
<path d="M39.4263 106.817C40.7403 106.817 41.8056 105.751 41.8056 104.437C41.8056 103.123 40.7403 102.058 39.4263 102.058C38.1122 102.058 37.0469 103.123 37.0469 104.437C37.0469 105.751 38.1122 106.817 39.4263 106.817Z" fill="white"/>
<path d="M98.3337 44.1457C110.3 44.1457 120 34.4454 120 22.4796C120 10.5137 110.3 0.813477 98.3337 0.813477C86.3678 0.813477 76.6676 10.5137 76.6676 22.4796C76.6676 34.4454 86.3678 44.1457 98.3337 44.1457Z" fill="#FCC72E"/>
<path d="M118.82 72.7131C116.716 83.1702 111.894 92.6403 105.123 100.359C102.987 101.067 100.705 101.447 98.3339 101.447C86.3681 101.447 76.6702 91.7464 76.6702 79.7806C76.6702 67.8174 86.3681 58.1169 98.3339 58.1169C107.824 58.1171 115.891 64.22 118.82 72.7131Z" fill="#FF4F6F"/>
<path d="M91.9655 28.8473C94.8825 31.7636 98.2263 33.7268 101.329 34.5738C101.755 34.69 102.175 34.7852 102.59 34.8588C105.483 35.3744 108.073 34.8501 109.778 33.1455L110.367 32.5558C110.429 32.4935 110.486 32.4278 110.537 32.3589C111.078 31.6411 111.021 30.6152 110.367 29.9608L106.98 26.5743C106.326 25.9204 105.3 25.8635 104.582 26.4042C104.513 26.4553 104.448 26.512 104.385 26.5743L101.85 29.11C99.9326 28.1177 97.9179 26.6432 96.0441 24.7701L96.0436 24.7692L96.0443 24.7699L96.0434 24.7694C94.1705 22.8953 92.6958 20.8811 91.7035 18.9639L94.2392 16.4282C94.3015 16.3659 94.3582 16.3003 94.4093 16.2314C94.95 15.5128 94.8931 14.4876 94.2392 13.8332L90.8527 10.4468C90.1983 9.79238 89.1724 9.73543 88.4546 10.2766C88.3856 10.3277 88.32 10.3844 88.2577 10.4468L87.668 11.036C85.9631 12.7401 85.4391 15.3304 85.9547 18.2233C86.0285 18.6379 86.1235 19.0586 86.2397 19.484C87.0867 22.5871 89.0499 25.931 91.9662 28.848L91.9655 28.8473Z" fill="#55CEED"/>
<path d="M90.852 10.4466L94.2385 13.8331C94.8926 14.4872 94.9493 15.5126 94.4091 16.2312C94.3578 16.2999 94.301 16.3657 94.2389 16.4279L92.9557 17.7111C93.0178 17.649 93.0746 17.5833 93.1259 17.5144C93.6664 16.7958 93.6094 15.7704 92.9553 15.1163L89.5688 11.7298C88.9362 11.0972 87.9574 11.0225 87.2435 11.5067C87.3755 11.3429 87.5168 11.1858 87.667 11.0358L88.2572 10.4464C88.3193 10.3843 88.3849 10.3275 88.4538 10.2762C89.1722 9.73528 90.1976 9.79224 90.852 10.4466Z" fill="#474F70"/>
<path d="M110.366 29.9609L106.98 26.5744C106.326 25.9203 105.3 25.8636 104.582 26.4038C104.513 26.4551 104.447 26.5119 104.385 26.574L103.102 27.8572C103.164 27.7951 103.23 27.7383 103.298 27.687C104.017 27.1465 105.042 27.2035 105.697 27.8576L109.083 31.2441C109.716 31.8767 109.79 32.8554 109.306 33.5694C109.47 33.4374 109.627 33.2961 109.777 33.1458L110.367 32.5557C110.429 32.4936 110.485 32.4279 110.537 32.359C111.078 31.6407 111.021 30.6153 110.366 29.9609Z" fill="#474F70"/>
<path d="M112.868 72.3972H84.666V87.745H112.868V72.3972Z" fill="#EDEDED"/>
<path d="M112.868 72.3977H112.138L98.7183 81.382L85.2982 72.3979H84.6656V72.9534L95.2997 80.0721L84.6656 87.1912V87.7462H85.2994L96.0303 80.5619L98.4919 82.2098C98.5608 82.2553 98.6396 82.2778 98.7185 82.2778C98.7975 82.2778 98.8763 82.2553 98.9442 82.2098L101.406 80.5615L112.138 87.7465H112.869V87.2571L102.137 80.0721L112.869 72.8878V72.3977H112.868Z" fill="#BFBFBF"/>
</g>
<defs>
<clipPath id="clip0">
<rect y="0.813477" width="120" height="120" fill="white"/>
</clipPath>
</defs>
</svg>
