<svg width="167" height="128" viewBox="0 0 167 128" fill="none" xmlns="http://www.w3.org/2000/svg">
<path d="M166.908 120.636H0V122.807H166.908V120.636Z" fill="#A1C8E4"/>
<path d="M139.144 125.394H0V127.565H139.144V125.394Z" fill="#A1C8E4"/>
<path d="M117.478 71.8528L125.608 69.4044L129.535 63.6299H133.415L128.01 71.2523L117.247 76.2877L117.478 71.8528Z" fill="#363C50"/>
<path d="M124.268 81.8774L130.459 82.1546L132.353 85.1114L134.802 85.481C134.802 85.481 135.033 89.9162 134.109 90.332H129.951L124.268 81.8774Z" fill="#C43759"/>
<path d="M114.244 121.514C123.199 121.514 130.459 114.254 130.459 105.299C130.459 96.3435 123.199 89.0839 114.244 89.0839C105.289 89.0839 98.0291 96.3435 98.0291 105.299C98.0291 114.254 105.289 121.514 114.244 121.514Z" fill="#363C50"/>
<path d="M114.244 114.492C119.321 114.492 123.437 110.376 123.437 105.299C123.437 100.222 119.321 96.1058 114.244 96.1058C109.167 96.1058 105.051 100.222 105.051 105.299C105.051 110.376 109.167 114.492 114.244 114.492Z" fill="white"/>
<path d="M114.244 112.228C118.071 112.228 121.173 109.126 121.173 105.299C121.173 101.472 118.071 98.3695 114.244 98.3695C110.417 98.3695 107.314 101.472 107.314 105.299C107.314 109.126 110.417 112.228 114.244 112.228Z" fill="#363C50"/>
<path d="M114.891 108.117C116.115 108.117 117.108 107.124 117.108 105.9C117.108 104.675 116.115 103.682 114.891 103.682C113.666 103.682 112.673 104.675 112.673 105.9C112.673 107.124 113.666 108.117 114.891 108.117Z" fill="white"/>
<path d="M145.611 28.2897H100.2V62.8908H145.611V28.2897Z" fill="#FF7D05"/>
<path d="M109.162 28.2897H100.2V61.6897H109.162V28.2897Z" fill="#FFD580"/>
<path d="M104.681 28.2897H102.094V32.6787H104.681V28.2897Z" fill="#FFE9C5"/>
<path d="M66.5691 105.299V108.764H68.3707V107.054L87.5884 110.011V108.625H98.9066L100.2 100.356H92.9934L66.5691 105.299Z" fill="#363C50"/>
<path d="M126.624 111.304L98.537 106.269C98.537 106.269 96.9201 103.821 99.2761 100.679L127.872 105.068C127.918 105.068 128.611 107.978 126.624 111.304Z" fill="#FCBE32"/>
<path d="M21.1119 121.514C30.0672 121.514 37.3268 114.254 37.3268 105.299C37.3268 96.3435 30.0672 89.0839 21.1119 89.0839C12.1566 89.0839 4.89697 96.3435 4.89697 105.299C4.89697 114.254 12.1566 121.514 21.1119 121.514Z" fill="#363C50"/>
<path d="M15.5222 90.1005C15.5222 90.1005 25.0387 91.7173 28.18 94.9049C31.3676 98.0463 33.3078 101.326 36.9573 102.112L36.2644 99.2936L29.8893 92.4103L19.4489 89.038L17.0467 89.5923C17.0929 89.5923 15.8456 89.9619 15.5222 90.1005Z" fill="#363C50"/>
<path d="M21.112 114.492C26.1892 114.492 30.3051 110.376 30.3051 105.299C30.3051 100.222 26.1892 96.1058 21.112 96.1058C16.0348 96.1058 11.9189 100.222 11.9189 105.299C11.9189 110.376 16.0348 114.492 21.112 114.492Z" fill="white"/>
<path d="M21.1118 112.228C24.9389 112.228 28.0413 109.126 28.0413 105.299C28.0413 101.472 24.9389 98.3695 21.1118 98.3695C17.2848 98.3695 14.1824 101.472 14.1824 105.299C14.1824 109.126 17.2848 112.228 21.1118 112.228Z" fill="#363C50"/>
<path d="M21.7127 108.117C22.9375 108.117 23.9303 107.124 23.9303 105.9C23.9303 104.675 22.9375 103.682 21.7127 103.682C20.488 103.682 19.4951 104.675 19.4951 105.9C19.4951 107.124 20.488 108.117 21.7127 108.117Z" fill="white"/>
<path d="M75.4388 55.8227C75.4388 55.8227 51.3243 60.1652 51.9249 65.1082C52.5254 70.0512 64.9522 94.5815 64.9522 94.5815L71.6507 92.3179C71.6507 92.3179 61.7647 71.1137 63.0582 68.3419C64.3517 65.5702 88.9744 63.9071 90.6374 55.2222C77.4715 55.407 75.4388 55.8227 75.4388 55.8227Z" fill="#FF7D05"/>
<path d="M66.5693 93.8885C66.5693 93.8885 57.1452 69.8664 57.8382 65.8011C58.5311 61.7358 77.3331 55.9613 77.3331 55.9613L79.6891 56.0075L66.2459 78.1818L67.4932 93.5652L66.5693 93.8885Z" fill="#FFD580"/>
<path d="M65.0447 94.4427C65.0447 94.4427 63.1506 96.1519 61.0256 96.7525C58.9006 97.353 59.0854 99.3395 59.0854 99.3395C59.0854 99.3395 75.0693 98.7389 75.7161 98.6003C76.3628 98.4618 77.2867 97.7226 76.9634 96.6139C76.5938 95.5052 74.2378 91.1627 74.2378 91.1627L65.0447 94.4427Z" fill="#363C50"/>
<path d="M42.9165 102.527C42.9165 102.527 38.5279 102.712 34.4626 99.2472C30.3973 95.7825 29.1962 89.9618 6.42139 88.2525C6.42139 88.2525 9.88611 80.8149 17.4161 79.7524C24.9461 78.6898 31.8294 81.0459 35.2479 85.3883C38.7127 89.7308 42.1774 97.5842 42.9165 100.772C43.3323 102.389 42.9165 102.527 42.9165 102.527Z" fill="#2C2D84"/>
<path d="M45.7808 54.2521L46.9358 51.5725H51.8792L46.8434 64.2775L45.7808 54.2521Z" fill="#1591E0"/>
<path d="M43.1014 85.2497C43.1014 85.2497 46.1042 96.7064 52.664 97.3532C59.2239 97.9999 76.8248 97.3532 76.8248 97.3532C76.8248 97.3532 83.2923 90.7933 80.3819 83.6328C77.4715 76.4724 75.9008 75.1789 75.9008 75.1789L76.1318 71.2522H117.385V76.2414C117.385 76.2414 132.399 84.9263 134.108 102.527H95.6729L94.1484 105.853H55.4358C55.3896 105.899 42.2699 100.033 43.1014 85.2497Z" fill="#2C2D84"/>
<path d="M57.0064 105.899C57.0064 105.899 46.9818 99.9401 45.3187 90.8856L43.748 87.2361L44.903 97.2145L50.4003 103.543L55.4357 105.899H57.0064Z" fill="#1591E0"/>
<path d="M95.3495 103.913L95.0723 103.775C94.749 103.636 87.0342 99.7555 87.1727 91.5787C87.3113 83.4944 91.7 78.5513 99.5072 77.6736C100.754 77.535 102.094 77.4426 103.48 77.4426C107.592 77.4426 117.893 78.1356 124.869 84.7417C131.475 90.9782 134.57 101.65 134.709 102.111L135.217 103.867H95.3495V103.913Z" fill="#1591E0"/>
<path d="M117.385 75.0401L75.9933 73.5619C75.9933 73.5619 75.3466 64.7845 76.3629 63.5372C77.3792 62.2899 115.861 63.0753 116.415 63.5372C116.923 63.9992 117.94 67.002 117.385 75.0401Z" fill="#363C50"/>
<path d="M95.6728 102.527C95.6728 102.527 88.42 99.0162 88.5586 91.6248C88.6972 84.2334 92.4391 79.8909 99.6457 79.1056C106.852 78.3202 117.478 79.7523 123.899 85.8041C130.32 91.8558 133.369 102.573 133.369 102.573H95.6728V102.527Z" fill="#2C2D84"/>
<path d="M111.888 86.5894H97.1511V82.1546C97.1511 80.7687 98.306 79.6138 99.6919 79.6138H107.453C109.901 79.6138 111.888 81.6002 111.888 84.0486V86.5894Z" fill="#A1C8E4"/>
<path d="M42.2698 41.9638V50.9266C42.2698 50.9266 51.0478 51.3886 53.0806 50.4646C55.1134 49.5406 55.1596 44.6434 52.3876 43.2574C49.6156 41.8714 42.2698 41.9638 42.2698 41.9638Z" fill="#2C2D84"/>
<path d="M43.9331 46.9532L51.5561 48.986H54.5591V47.0456C54.5591 46.445 54.1433 45.8906 53.5427 45.7058C50.9093 44.8742 43.9331 43.1186 43.9331 46.9532Z" fill="#A1C8E4"/>
<path d="M43.2863 41.7789H42.1313V51.0189H43.2863V41.7789Z" fill="#FCBE32"/>
<path d="M75.947 74.2551L117.385 75.9643V75.0404L75.9932 73.5621L75.947 74.2551Z" fill="#1591E0"/>
<path d="M44.164 53.6974C44.164 53.6974 37.3269 70.4667 33.0768 72.5455C33.0768 72.5455 29.4735 74.301 29.1501 79.3826C29.1501 79.3826 35.8486 82.9397 36.6802 84.0946C37.5117 85.2495 41.2536 104.051 55.4359 105.899C55.4359 105.899 44.2102 99.2933 43.7944 86.2659C43.4248 73.2385 47.8597 61.5046 47.9983 60.0263C48.1369 58.548 48.414 53.0507 44.164 53.6974Z" fill="#2C2D84"/>
<path d="M79.5504 55.9613C79.5504 55.9613 59.9169 61.9206 59.1316 66.1707C58.3462 70.4207 68.9714 98.6005 68.9714 98.6005L78.1645 95.3206C78.1645 95.3206 71.2812 73.1001 71.928 72.2686C72.5747 71.4833 93.5941 68.7115 96.643 65.7549C99.692 62.7983 98.3985 55.7765 98.3985 55.7765L79.5504 55.9613Z" fill="#FF7D05"/>
<path d="M74.8384 55.9613L98.6295 57.8553L98.5371 56.7466L94.1485 54.2982H81.3059L74.8384 55.9613Z" fill="#FFD580"/>
<path d="M68.9714 98.6465C68.9714 98.6465 67.0774 100.356 64.9524 100.956C62.8273 101.557 63.0121 103.543 63.0121 103.543C63.0121 103.543 78.9961 102.943 79.6428 102.804C80.2896 102.666 81.2135 101.926 80.8901 100.818C80.5205 99.709 78.1645 95.3666 78.1645 95.3666L68.9714 98.6465Z" fill="#363C50"/>
<path d="M147.782 61.6896H99.0913V64.2766H147.782V61.6896Z" fill="#363C50"/>
<path d="M145.611 60.3037H100.2V61.6896H145.611V60.3037Z" fill="#FFD580"/>
<path d="M75.7159 5.28365C75.7159 5.28365 73.3599 8.33261 74.2377 15.6778C75.1154 23.0231 75.1616 23.2541 75.7159 23.2541C76.3165 23.2541 81.6753 21.591 82.7378 22.2839C83.8003 22.9769 84.678 24.8247 84.678 24.8247L91.1455 22.0068C91.1455 22.0068 94.0097 7.59347 89.1129 4.17494C85.4172 1.63414 78.9959 1.17217 75.7159 5.28365Z" fill="#F2DBAF"/>
<path d="M91.516 19.4208L81.9526 15.8634L93.4102 8.19421C93.4102 8.24041 94.1494 13.1838 91.516 19.4208Z" fill="#363C50"/>
<path d="M74.053 11.7975C74.053 11.7975 76.0856 13.4606 76.7324 16.0938C77.3791 18.7269 87.3575 16.6019 93.0397 14.4307L93.5941 11.4741L74.0992 10.6426L74.053 11.7975Z" fill="#F2DBAF"/>
<path d="M94.8413 13.3219C94.8413 13.3219 83.9851 17.4334 79.5041 16.2323C75.023 15.0312 78.6263 13.8763 73.0366 9.76481C73.0366 9.76481 72.8056 2.41958 79.6888 0.61792C85.6482 -0.952758 95.3494 -0.444597 94.8413 13.3219Z" fill="#2C2D84"/>
<path d="M80.2434 15.2622L78.6726 15.1236C78.5802 15.1236 78.4878 15.0312 78.4878 14.9388V14.754C78.4878 14.6616 78.5802 14.5692 78.6726 14.5692L80.2434 14.7078C80.3358 14.7078 80.4282 14.8002 80.4282 14.8926V15.0774C80.4282 15.1698 80.3358 15.2622 80.2434 15.2622Z" fill="#1591E0"/>
<path d="M80.8899 25.9797C80.8899 25.9797 77.2866 30.9689 74.2377 36.3277C67.955 38.2218 57.376 41.8251 57.376 41.8251L59.1314 47.3224C59.1314 47.3224 75.1154 43.6267 78.5801 42.1023C82.0448 40.5778 88.7895 32.2624 89.2977 28.7977C89.8058 25.333 85.5096 21.2215 80.8899 25.9797Z" fill="#2C2D84"/>
<path d="M58.4847 45.3824L58.0227 43.9965L77.4714 37.0209C77.4714 37.0209 85.0476 24.7788 87.2188 25.0098C89.3901 25.1946 87.9118 27.9664 87.9118 27.9664L77.3328 40.3932L59.2238 45.1976L58.4847 45.3824Z" fill="#1591E0"/>
<path d="M74.8383 55.9611C74.8383 55.9611 74.5149 51.5262 78.3492 49.4474C79.0883 46.6756 79.8737 39.9771 79.6427 36.8358C79.4117 33.6944 79.5503 27.8737 80.2433 25.0557C82.1373 22.0529 89.9445 18.8192 97.9365 23.6236C97.9365 23.6236 101.309 32.2623 100.431 47.9691C100.431 47.9691 104.127 54.3442 98.537 56.7926L74.8383 55.9611Z" fill="#FF7D05"/>
<path d="M82.2297 24.8248C82.2297 24.8248 88.5586 21.0828 92.7163 22.8383C96.874 24.5938 98.2137 24.6862 98.2137 24.6862L97.9365 23.5774L89.9907 19.6508L84.2162 20.3437L82.2297 24.8248Z" fill="#1591E0"/>
<path d="M95.9039 34.0179C95.9039 34.0179 84.6781 46.0752 83.0151 47.1377C81.352 48.2002 78.6726 48.2926 78.6726 48.2926L79.1808 45.3823L95.9039 34.0179Z" fill="#2C2D84"/>
<path d="M78.2107 37.7136C76.7786 38.4528 59.1316 44.6431 59.1316 44.6431L60.9333 50.1405C60.9333 50.1405 79.7814 46.029 81.4906 45.1513C83.2461 44.2735 93.7327 37.2517 95.6729 34.4337C96.5969 33.094 96.5969 30.4146 95.5344 28.151C93.5941 24.1781 87.9581 23.9471 85.5097 27.689C83.1537 31.2923 79.1808 37.2055 78.2107 37.7136Z" fill="#2C2D84"/>
<path d="M79.9661 26.7651C79.9661 26.7651 78.534 26.9037 77.8411 23.1618C80.9362 20.621 84.3548 18.9117 85.0939 18.0802C85.833 17.2948 90.6375 13.2296 98.8604 14.8002C99.7843 18.9117 100.108 23.0232 98.1675 23.8085C96.2272 24.5939 89.344 17.4796 79.9661 26.7651Z" fill="#FF7D05"/>
<path d="M59.2707 45.1514L52.2021 47.369C52.2021 47.369 51.1395 48.6626 51.8787 49.8638C52.6179 51.065 53.6343 52.2662 54.2349 52.2662C54.8355 52.2662 55.2051 51.6656 55.2051 51.6194C55.2051 51.5732 54.2349 49.217 55.6209 49.0322C56.9607 48.8474 58.2081 52.0814 60.6567 48.8936L59.2707 45.1514Z" fill="#F2DBAF"/>
<path d="M78.6727 14.9387L77.8411 22.7927L79.3657 22.4693L80.2897 15.0773L78.6727 14.9387Z" fill="#A1C8E4"/>
<path d="M128.472 65.2006H132.307L132.954 64.2766H129.119L128.472 65.2006Z" fill="#363C50"/>
<path d="M56.2673 51.619C57.1093 51.619 57.7919 50.9364 57.7919 50.0944C57.7919 49.2524 57.1093 48.5698 56.2673 48.5698C55.4253 48.5698 54.7427 49.2524 54.7427 50.0944C54.7427 50.9364 55.4253 51.619 56.2673 51.619Z" fill="#A1C8E4"/>
<path d="M74.1916 15.1238C74.1916 15.1238 72.6208 18.4502 72.7594 18.5888C72.898 18.7274 74.977 18.8198 74.977 18.8198L74.1916 15.1238Z" fill="#F2DBAF"/>
<path d="M90.5708 2.99746C90.7154 2.53472 90.1614 1.94982 89.3333 1.69103C88.5053 1.43225 87.7168 1.59759 87.5722 2.06032C87.4275 2.52306 87.9816 3.10798 88.8096 3.36676C89.6377 3.62555 90.4262 3.4602 90.5708 2.99746Z" fill="white"/>
<path d="M66.5691 100.217L67.2621 101.141" stroke="white" stroke-miterlimit="10" stroke-linecap="round"/>
<path d="M67.3545 99.7095L68.1399 100.633" stroke="white" stroke-miterlimit="10" stroke-linecap="round"/>
<path d="M68.2324 99.1549L69.0178 100.125" stroke="white" stroke-miterlimit="10" stroke-linecap="round"/>
<path d="M69.2024 98.924C69.2024 98.924 69.6644 101.373 70.4036 100.957C71.1428 100.541 69.2024 98.924 69.2024 98.924Z" stroke="white" stroke-miterlimit="10" stroke-linecap="round"/>
<path d="M62.5039 96.2908L63.1969 97.1686" stroke="white" stroke-miterlimit="10" stroke-linecap="round"/>
<path d="M63.2893 95.7366L64.0285 96.6606" stroke="white" stroke-miterlimit="10" stroke-linecap="round"/>
<path d="M64.1208 95.182L64.9062 96.1522" stroke="white" stroke-miterlimit="10" stroke-linecap="round"/>
<path d="M65.1372 94.9973C65.1372 94.9973 65.5992 97.4459 66.3384 97.0301C67.0314 96.6143 65.1372 94.9973 65.1372 94.9973Z" stroke="white" stroke-miterlimit="10" stroke-linecap="round"/>
<path d="M99.5071 92.5946H116.785" stroke="#1591E0" stroke-width="3" stroke-miterlimit="10" stroke-linecap="round"/>
<path d="M99.5068 95.3663H116.784" stroke="#1591E0" stroke-width="3" stroke-miterlimit="10" stroke-linecap="round"/>
<path d="M99.5068 98.092H116.784" stroke="#1591E0" stroke-width="3" stroke-miterlimit="10" stroke-linecap="round"/>
</svg>
