<svg width="120" height="121" viewBox="0 0 120 121" fill="none" xmlns="http://www.w3.org/2000/svg">
<g clip-path="url(#clip0)">
<path d="M69.1644 0.813477C76.8018 0.813477 84.3713 3.33667 90.477 7.91705C93.8828 10.4695 97.0065 12.8142 97.0065 12.8142C98.5593 13.9797 98.8733 16.1834 97.7088 17.7361C96.5424 19.2888 86.6519 28.5704 82.7792 24.6987C82.7792 24.6987 81.492 23.7859 79.9063 22.6598C76.6635 20.3582 73.1433 19.1414 69.1635 19.1414C64.1025 19.1414 60 15.0389 60 9.97791C60 4.91687 64.1034 0.813477 69.1644 0.813477Z" fill="#00ECCF"/>
<path d="M50.8358 0.813477C43.1984 0.813477 35.6289 3.33667 29.5232 7.91705C26.1174 10.4695 22.9937 12.8142 22.9937 12.8142C21.4409 13.9797 21.1269 16.1834 22.2914 17.7361C23.4578 19.2888 33.3483 28.5704 37.221 24.6987C37.221 24.6987 38.5082 23.7859 40.0939 22.6598C43.3367 20.3582 46.8569 19.1414 50.8367 19.1414C55.8977 19.1414 60.0002 15.0389 60.0002 9.97791C60.0002 4.91687 55.8968 0.813477 50.8358 0.813477Z" fill="#FFCC01"/>
<path d="M50.8358 120.814C43.1984 120.814 35.6289 118.29 29.5232 113.71C26.1174 111.157 22.9937 108.813 22.9937 108.813C21.4409 107.647 21.1269 105.444 22.2914 103.891C23.4578 102.338 33.3483 93.0565 37.221 96.9283C37.221 96.9283 38.5082 97.8411 40.0939 98.9672C43.3367 101.269 46.8569 102.486 50.8367 102.486C55.8977 102.486 60.0002 106.588 60.0002 111.649C60.0002 116.71 55.8968 120.814 50.8358 120.814Z" fill="#00347B"/>
<path d="M69.1644 120.814C76.8018 120.814 84.3713 118.29 90.477 113.71C93.8828 111.157 97.0065 108.813 97.0065 108.813C98.5593 107.647 98.8733 105.444 97.7088 103.891C96.5424 102.338 86.6519 93.0565 82.7792 96.9283C82.7792 96.9283 81.492 97.8411 79.9063 98.9672C76.6635 101.269 73.1433 102.486 69.1635 102.486C64.1025 102.486 60 106.588 60 111.649C60 116.71 64.1034 120.814 69.1644 120.814Z" fill="#FF5E91"/>
<path d="M120 51.6491C120 44.0117 117.477 36.4421 112.897 30.3365C110.344 26.9307 107.999 23.807 107.999 23.807C106.834 22.2542 104.63 21.9402 103.077 23.1047C101.525 24.2711 92.2431 34.1616 96.1149 38.0343C96.1149 38.0343 97.0277 39.3215 98.1538 40.9072C100.455 44.15 101.672 47.6702 101.672 51.65C101.672 56.711 105.775 60.8135 110.836 60.8135C115.897 60.8135 120 56.7101 120 51.6491Z" fill="#00CAB1"/>
<path d="M120 69.9779C120 77.6152 117.477 85.1848 112.897 91.2905C110.344 94.6962 107.999 97.82 107.999 97.82C106.834 99.3727 104.63 99.6868 103.077 98.5222C101.525 97.3558 92.2431 87.4654 96.1149 83.5927C96.1149 83.5927 97.0277 82.3055 98.1538 80.7198C100.455 77.477 101.672 73.9568 101.672 69.977C101.672 64.916 105.775 60.8135 110.836 60.8135C115.897 60.8135 120 64.9169 120 69.9779Z" fill="#CF0050"/>
<path d="M0 51.6491C0 44.0117 2.52319 36.4421 7.10358 30.3365C9.65607 26.9307 12.0007 23.807 12.0007 23.807C13.1662 22.2542 15.3699 21.9402 16.9226 23.1047C18.4753 24.2711 27.757 34.1616 23.8852 38.0343C23.8852 38.0343 22.9724 39.3215 21.8463 40.9072C19.5447 44.15 18.3279 47.6702 18.3279 51.65C18.3279 56.711 14.2255 60.8135 9.16443 60.8135C4.10339 60.8135 0 56.7101 0 51.6491Z" fill="#FFF36E"/>
<path d="M0 69.9779C0 77.6152 2.52319 85.1848 7.10358 91.2905C9.65607 94.6962 12.0007 97.82 12.0007 97.82C13.1662 99.3727 15.3699 99.6868 16.9226 98.5222C18.4753 97.3558 27.757 87.4654 23.8852 83.5927C23.8852 83.5927 22.9724 82.3055 21.8463 80.7198C19.5447 77.477 18.3279 73.9568 18.3279 69.977C18.3279 64.916 14.2255 60.8135 9.16443 60.8135C4.10339 60.8135 0 64.9169 0 69.9779Z" fill="#0051BD"/>
<path d="M25.1714 40.7982C17.004 40.7982 10.3591 34.1524 10.3591 25.985C10.3591 17.8176 17.004 11.1727 25.1714 11.1727C33.3398 11.1727 39.9847 17.8176 39.9847 25.985C39.9847 34.1533 33.3389 40.7982 25.1714 40.7982Z" fill="#FFECE3"/>
<path d="M25.1715 11.1727V40.7982C33.3389 40.7982 39.9847 34.1524 39.9847 25.985C39.9847 17.8176 33.3389 11.1727 25.1715 11.1727Z" fill="#FFDCCD"/>
<path d="M94.8285 40.7982C86.6611 40.7982 80.0153 34.1524 80.0153 25.985C80.0153 17.8176 86.6611 11.1727 94.8285 11.1727C102.996 11.1727 109.641 17.8176 109.641 25.985C109.641 34.1533 102.996 40.7982 94.8285 40.7982Z" fill="#E8AFA3"/>
<path d="M94.8285 11.1727V40.7982C102.996 40.7982 109.641 34.1524 109.641 25.985C109.641 17.8176 102.996 11.1727 94.8285 11.1727Z" fill="#D19188"/>
<path d="M25.1714 110.454C17.004 110.454 10.3591 103.809 10.3591 95.642C10.3591 87.4745 17.004 80.8287 25.1714 80.8287C33.3398 80.8287 39.9847 87.4745 39.9847 95.642C39.9847 103.809 33.3389 110.454 25.1714 110.454Z" fill="#FFECE3"/>
<path d="M25.1715 80.8287V110.454C33.3389 110.454 39.9847 103.809 39.9847 95.642C39.9847 87.4745 33.3389 80.8287 25.1715 80.8287Z" fill="#FFDCCD"/>
<path d="M94.8285 110.454C86.6611 110.454 80.0153 103.809 80.0153 95.642C80.0153 87.4745 86.6611 80.8287 94.8285 80.8287C102.996 80.8287 109.641 87.4745 109.641 95.642C109.641 103.809 102.996 110.454 94.8285 110.454Z" fill="#E8AFA3"/>
<path d="M94.8285 80.8287V110.454C102.996 110.454 109.641 103.809 109.641 95.642C109.641 87.4745 102.996 80.8287 94.8285 80.8287Z" fill="#D19188"/>
<path d="M60.0055 86.9225C59.1055 86.9225 58.2065 86.5801 57.5198 85.8934L38.7524 67.1251C32.2064 60.58 32.2064 49.9287 38.7524 43.3836C44.5221 37.614 53.4805 36.9301 60.0055 41.3329C66.5313 36.9301 75.4916 37.614 81.2613 43.3836C87.8073 49.9297 87.8073 60.58 81.2613 67.1251L62.4911 85.8934C61.8045 86.5801 60.9054 86.9225 60.0055 86.9225Z" fill="#FF5E91"/>
<path d="M62.4911 85.8934L81.2613 67.1251C87.8073 60.58 87.8073 49.9287 81.2613 43.3836C75.4916 37.614 66.5314 36.9301 60.0055 41.3329V86.9225C60.9055 86.9225 61.8045 86.5791 62.4911 85.8934Z" fill="#CF0050"/>
</g>
<defs>
<clipPath id="clip0">
<rect y="0.813477" width="120" height="120" fill="white"/>
</clipPath>
</defs>
</svg>
