<svg width="136" height="232" viewBox="0 0 136 232" fill="none" xmlns="http://www.w3.org/2000/svg">
<path d="M106.937 0H15.8765C7.10815 0 0 7.04499 0 15.7354V216.265C0 224.955 7.10815 232 15.8765 232H106.937C115.705 232 122.813 224.955 122.813 216.265V15.7354C122.813 7.04499 115.705 0 106.937 0Z" fill="#4F4F84"/>
<path d="M104.575 7.18494H18.2383C9.46997 7.18494 2.36182 14.2299 2.36182 22.9204V199.521C2.36182 208.212 9.46997 215.257 18.2383 215.257H104.575C113.343 215.257 120.452 208.212 120.452 199.521V22.9204C120.452 14.2299 113.343 7.18494 104.575 7.18494Z" fill="#2C2C86"/>
<path d="M65.9335 217.89H56.9127C53.8511 217.89 51.3691 220.343 51.3691 223.368C51.3691 226.394 53.8511 228.846 56.9127 228.846H65.9335C68.9952 228.846 71.4771 226.394 71.4771 223.368C71.4771 220.343 68.9952 217.89 65.9335 217.89Z" fill="#2C2C86"/>
<path d="M124.913 48.6042H24.766C18.6427 48.6042 13.6787 53.5241 13.6787 59.593V76.7915C13.6787 82.8604 18.6427 87.7803 24.766 87.7803H124.913C131.036 87.7803 136 82.8604 136 76.7915V59.593C136 53.5241 131.036 48.6042 124.913 48.6042Z" fill="white"/>
<path d="M124.913 98.9639H24.766C18.6427 98.9639 13.6787 103.884 13.6787 109.953V127.151C13.6787 133.22 18.6427 138.14 24.766 138.14H124.913C131.036 138.14 136 133.22 136 127.151V109.953C136 103.884 131.036 98.9639 124.913 98.9639Z" fill="white"/>
<path d="M124.913 149.324H24.766C18.6427 149.324 13.6787 154.244 13.6787 160.313V177.511C13.6787 183.58 18.6427 188.5 24.766 188.5H124.913C131.036 188.5 136 183.58 136 177.511V160.313C136 154.244 131.036 149.324 124.913 149.324Z" fill="white"/>
<path d="M123.896 59.7556H75.3806C74.2212 59.7556 73.2812 60.6872 73.2812 61.8363V61.8689C73.2812 63.018 74.2212 63.9496 75.3806 63.9496H123.896C125.055 63.9496 125.995 63.018 125.995 61.8689V61.8363C125.995 60.6872 125.055 59.7556 123.896 59.7556Z" fill="#E5E5E5"/>
<path d="M123.896 70.2893H92.2412C91.0818 70.2893 90.1418 71.2209 90.1418 72.37V72.4025C90.1418 73.5517 91.0818 74.4832 92.2412 74.4832H123.896C125.055 74.4832 125.995 73.5517 125.995 72.4025V72.37C125.995 71.2209 125.055 70.2893 123.896 70.2893Z" fill="#E5E5E5"/>
<path d="M123.896 111.188H75.3806C74.2212 111.188 73.2812 112.12 73.2812 113.269V113.301C73.2812 114.451 74.2212 115.382 75.3806 115.382H123.896C125.055 115.382 125.995 114.451 125.995 113.301V113.269C125.995 112.12 125.055 111.188 123.896 111.188Z" fill="#E5E5E5"/>
<path d="M92.728 18.4127H32.1851C30.7382 18.4127 29.5652 19.3943 29.5652 20.6051V20.6394C29.5652 21.8502 30.7382 22.8318 32.1851 22.8318H92.728C94.1749 22.8318 95.3479 21.8502 95.3479 20.6394V20.6051C95.3479 19.3943 94.1749 18.4127 92.728 18.4127Z" fill="#E5E5E5"/>
<path d="M123.896 121.722H92.2412C91.0818 121.722 90.1418 122.653 90.1418 123.803V123.835C90.1418 124.984 91.0818 125.916 92.2412 125.916H123.896C125.055 125.916 125.995 124.984 125.995 123.835V123.803C125.995 122.653 125.055 121.722 123.896 121.722Z" fill="#E5E5E5"/>
<path d="M123.896 162.654H75.3806C74.2212 162.654 73.2812 163.585 73.2812 164.735V164.767C73.2812 165.916 74.2212 166.848 75.3806 166.848H123.896C125.055 166.848 125.995 165.916 125.995 164.767V164.735C125.995 163.585 125.055 162.654 123.896 162.654Z" fill="#E5E5E5"/>
<path d="M123.896 173.187H92.2412C91.0818 173.187 90.1418 174.119 90.1418 175.268V175.3C90.1418 176.45 91.0818 177.381 92.2412 177.381H123.896C125.055 177.381 125.995 176.45 125.995 175.3V175.268C125.995 174.119 125.055 173.187 123.896 173.187Z" fill="#E5E5E5"/>
<path d="M39.5273 57.5448V78.8397H30.769C30.5163 78.8403 30.2662 78.7893 30.0343 78.6897C29.8024 78.5902 29.5938 78.4444 29.4213 78.2613C29.2489 78.0782 29.1165 77.8618 29.0323 77.6257C28.9481 77.3896 28.914 77.1388 28.932 76.889L30.1457 59.2679C30.1785 58.8048 30.3855 58.3709 30.7256 58.0518C31.0658 57.7327 31.5144 57.5518 31.9827 57.5448H39.5273Z" fill="#FF1654"/>
<path d="M48.3184 78.8397H39.5273V57.5448H47.0719C47.5459 57.5436 48.0026 57.7209 48.3497 58.0408C48.6968 58.3607 48.9084 58.7993 48.9417 59.2679L50.1554 76.889C50.1734 77.1388 50.1393 77.3896 50.0551 77.6257C49.9709 77.8618 49.8384 78.0782 49.666 78.2613C49.4936 78.4444 49.2849 78.5902 49.0531 78.6897C48.8212 78.7893 48.5711 78.8403 48.3184 78.8397Z" fill="#4CB9B2"/>
<path d="M39.5273 67.4282C38.1149 67.4196 36.7633 66.8575 35.7676 65.8647C34.772 64.8718 34.2132 63.5288 34.2132 62.1289C34.2088 62.0323 34.2242 61.9358 34.2584 61.8452C34.2927 61.7546 34.3452 61.6719 34.4126 61.602C34.4801 61.5321 34.5611 61.4765 34.6509 61.4385C34.7407 61.4006 34.8373 61.381 34.9349 61.3811C35.135 61.3811 35.3269 61.4599 35.4684 61.6002C35.6098 61.7404 35.6893 61.9306 35.6893 62.1289C35.6398 62.6602 35.7027 63.1959 35.8739 63.7017C36.0451 64.2075 36.3208 64.6724 36.6836 65.0666C37.0463 65.4609 37.488 65.7758 37.9805 65.9913C38.4729 66.2067 39.0053 66.318 39.5437 66.318C40.082 66.318 40.6144 66.2067 41.1068 65.9913C41.5993 65.7758 42.041 65.4609 42.4037 65.0666C42.7665 64.6724 43.0422 64.2075 43.2134 63.7017C43.3846 63.1959 43.4475 62.6602 43.398 62.1289C43.3747 62.02 43.3762 61.9072 43.4025 61.799C43.4288 61.6907 43.4791 61.5896 43.5498 61.5031C43.6206 61.4166 43.7099 61.3468 43.8113 61.2989C43.9127 61.2509 44.0237 61.2261 44.136 61.2261C44.2484 61.2261 44.3593 61.2509 44.4607 61.2989C44.5622 61.3468 44.6515 61.4166 44.7222 61.5031C44.793 61.5896 44.8433 61.6907 44.8696 61.799C44.8959 61.9072 44.8974 62.02 44.8741 62.1289C44.8741 63.5344 44.3108 64.8823 43.308 65.8761C42.3053 66.8699 40.9453 67.4282 39.5273 67.4282Z" fill="white"/>
<path d="M32.081 160.41C32.4595 160.721 32.7494 161.125 32.922 161.581C33.0946 162.037 33.144 162.53 33.0651 163.011L29.26 159.955C29.7279 159.772 30.2372 159.717 30.7338 159.797C31.2305 159.878 31.696 160.089 32.081 160.41Z" fill="#6EB7B0"/>
<path d="M29.26 159.955L33.0652 163.011C32.6016 163.188 32.0988 163.24 31.6086 163.16C31.1183 163.08 30.6586 162.871 30.2769 162.556C29.8976 162.244 29.605 161.842 29.427 161.387C29.249 160.931 29.1915 160.439 29.26 159.955Z" fill="#4CB9B2"/>
<path d="M34.574 160.768C34.5286 161.261 34.3532 161.734 34.0653 162.139C33.7775 162.545 33.3873 162.868 32.9339 163.076L33.3603 158.232C33.7609 158.52 34.0819 158.903 34.294 159.346C34.5061 159.79 34.6024 160.278 34.574 160.768Z" fill="#6EB7B0"/>
<path d="M33.3603 158.232L32.8027 163.076C32.3921 162.796 32.0639 162.413 31.8515 161.965C31.6391 161.518 31.55 161.024 31.5933 160.531C31.6367 160.039 31.8109 159.567 32.0982 159.163C32.3856 158.759 32.7758 158.438 33.2291 158.232H33.3603Z" fill="#4CB9B2"/>
<path d="M33.5243 163.792L44.8085 184.241C44.6117 184.241 44.3164 184.241 43.9884 184.046C41.589 182.061 39.4705 179.765 37.6903 177.219L34.41 172.537C31.9826 169.058 31.5562 164.864 33.5243 163.792Z" fill="#F38C06"/>
<path d="M40.4786 169.253L42.6435 174.52C43.8676 177.372 44.674 180.383 45.0381 183.461C45.0807 183.602 45.0784 183.752 45.0314 183.892C44.9844 184.032 44.8951 184.154 44.7757 184.241L33.4916 163.791C35.4925 162.719 38.8712 165.352 40.4786 169.253Z" fill="#F2B061"/>
<path d="M44.3164 131.931C41.3017 133.299 37.9392 133.73 34.6724 133.166V104.036C36.0754 103.787 37.5178 103.865 38.8846 104.266C40.2514 104.667 41.5048 105.378 42.5451 106.344C46.9734 111.676 49.7617 127.477 44.3164 131.931Z" fill="#F2B061"/>
<path d="M34.6724 104.036V133.296C32.5402 133.296 30.4409 132.906 28.7351 132.678C27.6504 132.522 26.6438 132.028 25.8599 131.269C25.076 130.509 24.5552 129.523 24.3724 128.452C23.1915 121.754 23.6179 110.701 27.3574 106.962C29.4081 105.221 31.9772 104.194 34.6724 104.036Z" fill="#EFC18F"/>
</svg>
