<svg width="122" height="233" viewBox="0 0 122 233" fill="none" xmlns="http://www.w3.org/2000/svg">
<path d="M106.229 0H15.7714C7.06108 0 0 7.06108 0 15.7714V216.759C0 225.469 7.06108 232.53 15.7714 232.53H106.229C114.939 232.53 122 225.469 122 216.759V15.7714C122 7.06108 114.939 0 106.229 0Z" fill="#6A6A84"/>
<path d="M103.882 7.20129H18.1175C9.40723 7.20129 2.34615 14.2624 2.34615 22.9727V199.977C2.34615 208.687 9.40723 215.748 18.1175 215.748H103.882C112.593 215.748 119.654 208.687 119.654 199.977V22.9727C119.654 14.2624 112.593 7.20129 103.882 7.20129Z" fill="#2C2C86"/>
<rect x="25.8365" y="69.7588" width="74.9259" height="74.9259" fill="#C4C4C4"/>
<mask id="mask0" mask-type="alpha" maskUnits="userSpaceOnUse" x="25" y="69" width="76" height="75">
<path d="M100.428 69.7009H25.8365V143.8H100.428V69.7009Z" fill="#6A6A84"/>
</mask>
<g mask="url(#mask0)">
<path d="M77.7106 120.975C66.0003 130.751 37.4953 131.989 9.61351 130.36L7.8094 -76.949C29.8852 -79.23 52.1578 -74.668 63.5729 -61.0473C95.1285 -22.7594 115.958 89.2043 77.7106 120.975Z" fill="#F2B061"/>
</g>
<path d="M65.4642 218.388H56.5032C53.4618 218.388 50.9963 220.846 50.9963 223.879C50.9963 226.911 53.4618 229.369 56.5032 229.369H65.4642C68.5056 229.369 70.9712 226.911 70.9712 223.879C70.9712 220.846 68.5056 218.388 65.4642 218.388Z" fill="#2C2C86"/>
<path d="M34.7687 94.7915H69.4722C70.4401 94.7915 71.3684 95.176 72.0529 95.8604C72.7373 96.5449 73.1218 97.4732 73.1218 98.4411V115.451C73.1218 116.419 72.7373 117.347 72.0529 118.031C71.3684 118.716 70.4401 119.1 69.4722 119.1H34.7687C34.2852 119.1 33.8063 119.005 33.3596 118.82C32.9129 118.635 32.5069 118.364 32.165 118.022C31.8231 117.68 31.5519 117.274 31.3668 116.827C31.1818 116.38 31.0865 115.902 31.0865 115.418V98.4737C31.0865 97.5057 31.471 96.5775 32.1555 95.893C32.8399 95.2086 33.7682 94.8241 34.7361 94.8241L34.7687 94.7915Z" fill="white"/>
<path d="M35.5834 97.9523H33.5631V115.516H35.5834V97.9523Z" fill="black"/>
<path d="M48.5198 97.9523H46.4995V115.516H48.5198V97.9523Z" fill="black"/>
<path d="M52.1368 97.9523H50.1165V115.516H52.1368V97.9523Z" fill="black"/>
<path d="M69.5374 97.9523H67.5171V115.516H69.5374V97.9523Z" fill="black"/>
<path d="M56.3077 97.9523H54.2874V115.516H56.3077V97.9523Z" fill="black"/>
<path d="M45.196 97.9523H37.1474V115.516H45.196V97.9523Z" fill="black"/>
<path d="M65.9204 97.9523H57.8718V115.516H65.9204V97.9523Z" fill="black"/>
<path d="M33.2372 60.4788H17.2377V76.4782" stroke="white" stroke-width="2" stroke-linecap="round" stroke-linejoin="round"/>
<path d="M108.412 76.4782V60.4788H92.4124" stroke="white" stroke-width="2" stroke-linecap="round" stroke-linejoin="round"/>
<path d="M33.2372 152.532H17.2377V136.566" stroke="white" stroke-width="2" stroke-linecap="round" stroke-linejoin="round"/>
<path d="M108.412 136.566V152.532H92.4124" stroke="white" stroke-width="2" stroke-linecap="round" stroke-linejoin="round"/>
<path d="M97.4306 170.194H29.3269C27.6713 170.194 26.3291 171.536 26.3291 173.192V183.619C26.3291 185.275 27.6713 186.617 29.3269 186.617H97.4306C99.0862 186.617 100.428 185.275 100.428 183.619V173.192C100.428 171.536 99.0862 170.194 97.4306 170.194Z" fill="#F38C06"/>
<path d="M85.0806 27.0461H36.8867C35.735 27.0461 34.8013 27.9798 34.8013 29.1316V29.1642C34.8013 30.316 35.735 31.2497 36.8867 31.2497H85.0806C86.2324 31.2497 87.1661 30.316 87.1661 29.1642V29.1316C87.1661 27.9798 86.2324 27.0461 85.0806 27.0461Z" fill="#6A6A84"/>
</svg>
