<svg width="75" height="41" viewBox="0 0 75 41" fill="none" xmlns="http://www.w3.org/2000/svg">
<path d="M60.6045 0.0184584C52.5218 0.0779712 46.032 6.86243 46.386 15.1347C46.74 22.6929 52.9348 28.7632 60.4275 28.8822C63.3774 28.9417 66.0913 28.1085 68.3922 26.6207C68.3922 27.4539 69.0412 28.168 69.9261 28.168H73.466C74.292 28.168 74.9999 27.4539 74.9999 26.6207V14.7181C74.9999 6.6839 68.5102 -0.0410544 60.6045 0.0184584ZM60.6635 22.2167C56.4156 22.2167 52.9348 18.7055 52.9348 14.4206C52.9348 10.0166 56.5926 6.44585 61.0175 6.6839C64.9113 6.86244 68.0972 10.0761 68.3332 14.004C68.6282 18.4674 65.0883 22.2167 60.6635 22.2167Z" fill="white"/>
<path d="M41.1944 2.27988V25.7279C41.1944 31.3221 38.0675 36.1427 33.4656 38.5232L33.4066 38.5827C31.8727 39.3564 30.1618 39.773 28.4508 39.773C28.0378 39.773 27.6248 39.5944 27.3889 39.2969C27.0939 38.9993 26.9169 38.6422 26.9169 38.2256V34.8929C26.9169 34.1788 27.3889 33.5836 28.0968 33.4051C28.1558 33.4051 28.2738 33.4051 28.3328 33.3456C29.9258 33.048 31.2827 32.2743 32.4037 31.2031C33.8196 29.7748 34.6456 27.8704 34.6456 25.7279V2.27988C34.6456 1.4467 35.3536 0.732544 36.1795 0.732544H39.7194C40.4864 0.732544 41.1944 1.4467 41.1944 2.27988Z" fill="white"/>
<path d="M18.0671 35.1905V38.5232C18.0671 39.3564 17.3591 40.0706 16.5332 40.0706H12.9933C12.1673 40.0706 11.4594 39.3564 11.4594 38.5232V35.1905C11.4594 34.3573 12.1673 33.6432 12.9933 33.6432H16.5332C17.3591 33.6432 18.0671 34.2978 18.0671 35.1905Z" fill="white"/>
<path d="M14.7633 18.4079C16.6531 18.4079 18.1852 16.8625 18.1852 14.9561C18.1852 13.0498 16.6531 11.5044 14.7633 11.5044C12.8735 11.5044 11.3414 13.0498 11.3414 14.9561C11.3414 16.8625 12.8735 18.4079 14.7633 18.4079Z" fill="white"/>
<path d="M21.6075 28.0499C21.3715 28.1689 21.1355 28.2879 20.8995 28.407C20.4865 28.5855 19.9556 28.7045 19.4836 28.645C18.8346 28.5855 18.1856 28.3474 17.6546 27.9904C17.1237 27.6333 16.7107 27.0382 16.4747 26.443C16.2387 25.7289 16.4157 24.8957 16.8877 24.3006L17.5367 23.5864L19.0706 21.8605L19.4246 21.5035C19.6016 21.3249 19.8376 21.0869 20.0146 20.9083C21.7845 19.361 22.8465 17.04 22.7285 14.481C22.4925 10.077 18.7756 6.68477 14.4098 6.86331C10.0439 7.10136 6.68106 10.8507 6.85806 15.2546C6.97605 17.9922 8.50999 20.2537 10.5749 21.682C10.6339 21.7415 10.6929 21.801 10.8109 21.8605L13.1708 24.003C13.6428 24.4196 13.8788 25.0742 13.8198 25.6694C13.7608 26.086 13.7018 26.5025 13.5248 26.9191C13.3478 27.2762 13.1118 27.6333 12.8168 27.9309C12.1679 28.526 11.5189 28.764 10.8699 28.8831C10.2209 28.9426 9.63095 28.8235 9.04097 28.5855C8.86398 28.526 8.74598 28.4665 8.56899 28.407C3.73117 26.086 0.309304 21.2654 0.0143147 15.6117C-0.339672 7.39892 5.91409 0.435922 14.0558 0.0193322C22.1975 -0.397258 29.1002 5.97062 29.4542 14.1239C29.7492 20.1347 26.5043 25.4313 21.6075 28.0499Z" fill="white"/>
</svg>
