<svg width="221" height="116" viewBox="0 0 221 116" fill="none" xmlns="http://www.w3.org/2000/svg">
<path d="M92.8 0H23.2C10.387 0 0 10.387 0 23.2V92.8C0 105.613 10.387 116 23.2 116H92.8C105.613 116 116 105.613 116 92.8V23.2C116 10.387 105.613 0 92.8 0Z" fill="#2C2C86"/>
<path d="M64.1055 86.6945V92.7652C64.1055 93.5162 63.8074 94.2365 63.2767 94.7679C62.746 95.2994 62.0261 95.5984 61.2751 95.5994H54.7249C53.9739 95.5984 53.254 95.2994 52.7233 94.7679C52.1926 94.2365 51.8945 93.5162 51.8945 92.7652V86.6945C51.894 86.3225 51.9669 85.9541 52.1089 85.6102C52.2509 85.2664 52.4593 84.9539 52.7222 84.6907C52.985 84.4274 53.2972 84.2186 53.6409 84.0761C53.9845 83.9336 54.3529 83.8603 54.7249 83.8603H61.2751C61.6471 83.8603 62.0155 83.9336 62.3591 84.0761C62.7028 84.2186 63.0149 84.4274 63.2778 84.6907C63.5407 84.9539 63.7491 85.2664 63.8911 85.6102C64.0331 85.9541 64.106 86.3225 64.1055 86.6945Z" fill="#F38C06"/>
<path d="M58 55.8733C61.4937 55.8733 64.3258 53.0411 64.3258 49.5475C64.3258 46.0538 61.4937 43.2216 58 43.2216C54.5063 43.2216 51.6741 46.0538 51.6741 49.5475C51.6741 53.0411 54.5063 55.8733 58 55.8733Z" fill="#F38C06"/>
<path d="M70.6556 73.6059C70.2148 73.8404 69.7624 74.0608 69.2984 74.2671C68.4821 74.6326 67.5885 74.7919 66.6961 74.7311C65.4577 74.6395 64.2684 74.2087 63.2587 73.486C62.2622 72.7676 61.506 71.7649 61.0895 70.6092V70.5783C60.8564 69.9207 60.8055 69.2123 60.9424 68.5281C61.0792 67.844 61.3986 67.2096 61.8667 66.6923L63.0267 65.4201L65.8841 62.2688L66.5105 61.5805C66.8604 61.2082 67.2309 60.8558 67.6203 60.5249C69.9057 58.5197 71.5127 55.8548 72.2199 52.8978C72.927 49.9407 72.6994 46.8371 71.5685 44.0149C70.4376 41.1926 68.459 38.7907 65.9055 37.1403C63.352 35.4898 60.3495 34.6722 57.3117 34.8C53.4236 34.9893 49.7696 36.7138 47.1518 39.5947C44.534 42.4757 43.1663 46.2777 43.3492 50.1661C43.5889 55.1735 46.4425 59.3456 50.2628 61.9401C50.4011 62.0295 50.5305 62.1318 50.6495 62.2456L54.984 66.1741C55.4118 66.5614 55.7451 67.0416 55.9583 67.5779C56.1714 68.1142 56.2588 68.6922 56.2136 69.2675C56.1534 70.0424 55.9598 70.8011 55.6413 71.5101C55.3205 72.2166 54.8647 72.8537 54.2996 73.3855C53.3955 74.2737 52.2396 74.8617 50.9893 75.0693C49.739 75.2769 48.4551 75.094 47.3125 74.5455L46.4812 74.1781C40.9479 71.6078 36.4366 67.256 33.6687 61.8188C30.9008 56.3817 30.0364 50.1734 31.2136 44.1869C32.3909 38.2004 35.5418 32.7817 40.1624 28.7975C44.783 24.8133 50.6063 22.4939 56.7008 22.2101C62.9025 21.9183 69.0182 23.7514 74.037 27.4063C79.0558 31.0612 82.6772 36.3192 84.3028 42.3112C85.9284 48.3032 85.4608 54.6705 82.9772 60.3607C80.4937 66.0509 76.1429 70.7234 70.644 73.6059H70.6556Z" fill="#F38C06"/>
<path d="M190.176 15.0007C185.427 15.0357 180.751 16.2327 176.518 18.4973C172.284 20.7619 168.608 24.032 165.78 28.0494C162.952 32.0668 161.05 36.7216 160.223 41.6461C159.396 46.5706 159.668 51.6301 161.017 56.425C162.366 61.2199 164.755 65.6189 167.995 69.2748C171.235 72.9306 175.238 75.7431 179.687 77.4902C184.137 79.2373 188.911 79.8712 193.633 79.3418C198.355 78.8124 202.895 77.1342 206.896 74.4398V74.4398C206.896 75.3434 207.237 76.21 207.844 76.849C208.45 77.488 209.273 77.8469 210.131 77.8469H217.714C218.145 77.8487 218.572 77.7608 218.971 77.5884C219.369 77.4159 219.731 77.1623 220.037 76.842C220.342 76.5217 220.584 76.1412 220.75 75.7221C220.915 75.303 221 74.8536 221 74.3998V47.7814C221.025 29.947 207.136 14.8809 190.176 15.0007ZM190.391 64.6442C187.168 64.6514 184.014 63.6643 181.319 61.8048C178.623 59.9453 176.503 57.2948 175.222 54.1809C173.941 51.0669 173.554 47.626 174.109 44.2831C174.665 40.9401 176.138 37.8418 178.347 35.3707C180.555 32.8997 183.403 31.1642 186.538 30.3787C189.673 29.5932 192.958 29.7922 195.987 30.951C199.016 32.1097 201.656 34.1776 203.581 36.899C205.506 39.6204 206.632 42.8762 206.82 46.2641C206.951 48.623 206.623 50.9852 205.857 53.2062C205.091 55.4271 203.902 57.46 202.364 59.1806C200.826 60.9011 198.971 62.2731 196.912 63.2125C194.854 64.152 192.634 64.6391 190.391 64.6442V64.6442Z" fill="#2C2D84"/>
<path d="M148.635 20.0986V72.5503C148.636 78.473 147.089 84.2818 144.165 89.3407C141.24 94.3995 137.05 98.5134 132.054 101.232L131.877 101.338C128.589 103.087 124.957 103.998 121.273 104C120.842 104 120.416 103.91 120.018 103.736C119.62 103.562 119.258 103.307 118.954 102.986C118.65 102.664 118.409 102.283 118.246 101.863C118.082 101.443 117.998 100.993 118 100.54V93.0864C118.001 92.3108 118.252 91.5585 118.711 90.9519C119.17 90.3453 119.81 89.9202 120.528 89.7458L121.033 89.6527C124.828 88.9159 128.257 86.8035 130.727 83.682C133.197 80.5605 134.552 76.6269 134.556 72.5636V20.0986C134.556 19.1935 134.894 18.3247 135.497 17.6798C136.1 17.0348 136.919 16.6655 137.779 16.6515H145.361C145.791 16.6515 146.217 16.7407 146.614 16.9139C147.011 17.0871 147.372 17.341 147.676 17.6611C147.98 17.9812 148.221 18.3612 148.385 18.7794C148.55 19.1977 148.635 19.6459 148.635 20.0986Z" fill="#2C2D84"/>
</svg>
