<svg xmlns="http://www.w3.org/2000/svg" viewBox="0 0 300 300"><defs><style>.cls-1{fill:#2c2c86;}.cls-2{fill:#f38c06;}</style></defs><title>Oja Icon</title><g id="Layer_2" data-name="Layer 2"><g id="Layer_1-2" data-name="Layer 1"><rect class="cls-1" width="300" height="300" rx="60"/><path class="cls-2" d="M210,98.44a37.18,37.18,0,1,0,20.3,68.49h0a3.93,3.93,0,0,0,3.94,3.94h9.23a4,4,0,0,0,4-4V136.26C247.46,115.66,230.61,98.29,210,98.44Zm.27,57.21a20,20,0,1,1,20-21.18A20,20,0,0,1,210.28,155.65Z"/><path class="cls-2" d="M159.6,104.31v60.46a37.14,37.14,0,0,1-20.13,33l-.22.12a28.24,28.24,0,0,1-12.86,3,4,4,0,0,1-4-4v-8.53a4,4,0,0,1,3-3.86l.62-.1a20,20,0,0,0,16.41-19.69V104.31a4,4,0,0,1,4-4h9.2A4,4,0,0,1,159.6,104.31Z"/><rect class="cls-2" x="82.26" y="185.08" width="17.16" height="16.49" rx="3.98"/><circle class="cls-2" cx="90.84" cy="136.88" r="8.89"/><path class="cls-2" d="M108.62,170.67c-.62.34-1.26.65-1.91.93a7.65,7.65,0,0,1-3.65.66,9.55,9.55,0,0,1-4.83-1.75,8.53,8.53,0,0,1-3-4l0,0A5.46,5.46,0,0,1,96.29,161l1.62-1.79,4-4.42.87-1a19.79,19.79,0,0,1,1.56-1.48,20.62,20.62,0,0,0-14.49-36.17h0a20.63,20.63,0,0,0-19.61,21.59A21.41,21.41,0,0,0,80,154.26a3.64,3.64,0,0,1,.54.43l6.09,5.52a5.3,5.3,0,0,1,1.72,4.32,9.68,9.68,0,0,1-.8,3.15,8.06,8.06,0,0,1-1.89,2.63A8.65,8.65,0,0,1,75.81,172l-1.17-.52A38.3,38.3,0,0,1,89,98.48h0a38.31,38.31,0,0,1,19.59,72.19Z"/></g></g></svg>