<svg width="46" height="46" viewBox="0 0 46 46" fill="none" xmlns="http://www.w3.org/2000/svg">
<ellipse cx="23.1221" cy="23" rx="22.2962" ry="23" fill="#4CB9B2"/>
<path d="M23.6369 24.2422C23.6369 26.6016 23.1635 28.4062 22.2169 29.6562C21.2702 30.9062 19.8842 31.5312 18.059 31.5312C16.2566 31.5312 14.8782 30.918 13.924 29.6914C12.9697 28.4648 12.4812 26.707 12.4585 24.418V21.2773C12.4585 18.8945 12.9356 17.0859 13.8899 15.8516C14.8517 14.6172 16.2339 14 18.0363 14C19.8388 14 21.2172 14.6133 22.1714 15.8398C23.1257 17.0586 23.6142 18.8125 23.6369 21.1016V24.2422ZM20.3538 20.7969C20.3538 19.3828 20.1645 18.3555 19.7858 17.7148C19.4147 17.0664 18.8315 16.7422 18.0363 16.7422C17.2638 16.7422 16.692 17.0508 16.3209 17.668C15.9574 18.2773 15.7643 19.2344 15.7416 20.5391V24.6875C15.7416 26.0781 15.9233 27.1133 16.2869 27.793C16.658 28.4648 17.2487 28.8008 18.059 28.8008C18.8618 28.8008 19.4412 28.4766 19.7971 27.8281C20.1531 27.1797 20.3386 26.1875 20.3538 24.8516V20.7969Z" fill="white"/>
<path d="M33.8383 31.2969H30.5552V18.2422L26.636 19.4961V16.7422L33.4861 14.2109H33.8383V31.2969Z" fill="white"/>
</svg>
