<svg width="440" height="330" viewBox="0 0 467 330" fill="none" xmlns="http://www.w3.org/2000/svg">
<path d="M202.613 291.64C199.26 293.568 199.26 296.67 202.613 298.681C205.967 300.61 211.499 300.61 214.852 298.681C218.206 296.753 218.206 293.568 214.852 291.64C211.499 289.712 206.05 289.712 202.613 291.64Z" fill="#C9DBFF"/>
<path d="M257.186 295.747C239.247 305.89 239.163 322.74 257.102 333.051C274.958 343.362 304.382 343.362 322.405 333.051C340.428 322.74 340.428 305.89 322.489 295.747C304.465 285.604 275.125 285.604 257.186 295.747Z" fill="#C9DBFF"/>
<path d="M96.4867 295.747C78.5474 305.89 78.4636 322.74 96.4029 333.051C114.258 343.362 143.682 343.362 161.705 333.051C179.729 322.74 179.729 305.89 161.789 295.747C143.766 285.604 114.426 285.604 96.4867 295.747Z" fill="#C9DBFF"/>
<path d="M281.664 264.563C281.664 264.563 277.221 291.975 278.059 295.999C278.73 299.268 277.724 300.274 274.79 299.771C271.856 299.184 266.659 297.34 266.659 295.664C266.659 293.987 271.856 296.669 273.029 292.646C274.203 288.622 268.922 256.599 268.922 256.599L281.664 264.563Z" fill="#D95757"/>
<path d="M278.143 295.999C278.143 295.831 278.059 295.664 278.059 295.496C276.466 295.915 274.622 296.586 272.778 296.251C271.521 295.999 271.353 295.245 271.521 294.574C269.592 295.58 266.659 294.406 266.659 295.664C266.659 297.34 271.856 299.185 274.79 299.771C277.808 300.274 278.814 299.268 278.143 295.999Z" fill="#163173"/>
<path d="M261.294 259.366C261.294 259.366 258.527 297.005 259.785 299.269C261.042 301.532 262.719 304.718 258.695 308.322C254.671 311.927 250.647 313.184 250.144 312.262C249.641 311.256 253.078 308.49 254.42 304.634C255.761 300.694 253.246 292.311 250.815 279.569C248.384 266.827 244.696 249.726 250.144 245.618C255.593 241.511 269.425 245.618 269.425 245.618L261.294 259.366Z" fill="#D97E7E"/>
<path d="M250.145 245.534C247.127 247.797 246.959 254.085 247.798 261.462L260.204 276.215C260.707 267.413 261.294 259.366 261.294 259.366L269.425 245.534C269.425 245.534 255.594 241.426 250.145 245.534Z" fill="#D95757"/>
<path d="M320.56 316.202C320.56 317.795 321.901 319.136 323.494 319.136C325.087 319.136 326.428 317.795 326.428 316.202C326.428 314.609 325.087 313.268 323.494 313.268C321.901 313.268 320.56 314.609 320.56 316.202Z" fill="#6B6B6B"/>
<path d="M322.488 316.202C322.488 316.789 322.907 317.208 323.494 317.208C324.081 317.208 324.5 316.789 324.5 316.202C324.5 315.615 324.081 315.196 323.494 315.196C322.907 315.196 322.488 315.615 322.488 316.202Z" stroke="#0F0F0F" stroke-width="0.5837" stroke-miterlimit="10"/>
<path d="M265.401 316.202C265.401 317.795 266.743 319.136 268.335 319.136C269.928 319.136 271.269 317.795 271.269 316.202C271.269 314.609 269.928 313.268 268.335 313.268C266.743 313.268 265.401 314.609 265.401 316.202Z" fill="#6B6B6B"/>
<path d="M267.329 316.202C267.329 316.789 267.749 317.208 268.335 317.208C268.922 317.208 269.341 316.789 269.341 316.202C269.341 315.615 268.922 315.196 268.335 315.196C267.749 315.196 267.329 315.615 267.329 316.202Z" stroke="#0F0F0F" stroke-width="0.5837" stroke-miterlimit="10"/>
<path d="M295.915 334.644C296.586 334.644 297.089 334.141 297.089 333.471V330.034C297.089 329.363 296.586 328.86 295.915 328.86C295.244 328.86 294.741 329.363 294.741 330.034V333.471C294.741 334.058 295.244 334.644 295.915 334.644Z" fill="#6B6B6B"/>
<path d="M268.922 307.4H290.717C291.723 307.4 292.478 306.645 292.478 305.64V295.245C292.478 293.652 293.567 292.143 295.16 291.808C297.34 291.389 299.268 293.065 299.268 295.161V305.64C299.268 306.645 300.022 307.4 301.028 307.4H322.824C324.416 307.4 325.925 308.49 326.261 310.082C326.68 312.262 325.003 314.19 322.907 314.19H301.028C300.022 314.19 299.268 314.945 299.268 315.95V326.513C299.268 328.106 298.178 329.615 296.585 329.95C294.406 330.369 292.478 328.692 292.478 326.597V316.034C292.478 315.028 291.723 314.274 290.717 314.274H268.838C266.742 314.274 265.066 312.346 265.485 310.166C265.82 308.49 267.245 307.4 268.922 307.4Z" fill="#0C1B40"/>
<path d="M268.922 305.723H290.717C291.723 305.723 292.478 304.969 292.478 303.963V293.568C292.478 291.976 293.567 290.467 295.16 290.131C297.34 289.712 299.268 291.389 299.268 293.484V303.963C299.268 304.969 300.022 305.723 301.028 305.723H322.824C324.416 305.723 325.925 306.813 326.261 308.406C326.68 310.585 325.003 312.514 322.907 312.514H301.028C300.022 312.514 299.268 313.268 299.268 314.274V324.836C299.268 326.429 298.178 327.938 296.585 328.273C294.406 328.692 292.478 327.016 292.478 324.92V314.358C292.478 313.352 291.723 312.597 290.717 312.597H268.838C266.742 312.597 265.066 310.669 265.485 308.49C265.82 306.897 267.245 305.723 268.922 305.723Z" fill="#163173"/>
<path d="M295.915 309.58C296.753 309.58 297.508 308.909 297.508 307.987V289.88C297.508 289.042 296.837 288.287 295.915 288.287C295.077 288.287 294.322 288.958 294.322 289.88V307.987C294.322 308.909 295.077 309.58 295.915 309.58Z" fill="#CFA028"/>
<path opacity="0.5" d="M292.478 293.652C292.478 292.059 293.568 290.55 295.16 290.215C297.34 289.796 299.268 291.472 299.268 293.568V302.873L292.478 301.783V293.652Z" fill="url(#paint0_linear)"/>
<path d="M265.15 264.312L292.059 248.887L324.417 267.162L331.374 266.072C331.374 266.072 333.554 267.162 333.554 270.096C333.554 271.437 332.799 272.611 331.71 273.281L299.436 291.64C297.843 292.562 295.915 292.562 294.322 291.64L258.695 270.934C257.186 270.096 256.264 268.419 256.264 266.743C256.264 263.641 259.785 262.384 259.785 262.384L265.15 264.312Z" fill="#163173"/>
<path d="M330.704 265.485L294.49 245.115C292.981 244.277 291.053 244.277 289.544 245.115L259.952 262.048C258.276 263.054 258.276 265.485 259.952 266.491L296.753 287.868L330.704 268.587C331.877 267.916 331.877 266.156 330.704 265.485Z" fill="#214AAD"/>
<path d="M321.734 235.726C321.734 235.726 326.429 245.199 323.579 258.276C320.812 271.27 303.711 280.575 294.406 280.072C285.101 279.569 265.318 265.318 259.785 262.551C254.168 259.785 253.917 248.971 265.401 244.361C276.802 239.75 280.071 234.469 290.299 233.714C300.526 233.044 321.734 235.726 321.734 235.726Z" fill="#471312"/>
<path d="M260.12 299.688C257.941 300.861 257.27 303.963 256.012 305.22C255.258 305.975 254.671 305.639 254.252 305.053C252.827 308.657 249.725 311.256 250.228 312.178C250.731 313.184 254.755 311.843 258.779 308.238C262.467 304.969 261.377 301.867 260.12 299.688Z" fill="#163173"/>
<path d="M17.0173 273.198L215.356 157.011L465.584 301.783C465.584 301.783 465.584 217.368 413.778 172.017C361.972 126.665 390.558 101.349 338.752 81.817C286.862 62.3687 281.497 3.35338 227.93 1.59298C174.28 -0.167423 170.759 60.5245 136.808 64.1291C102.858 67.7338 83.1581 96.3193 61.7818 137.395C40.2379 178.471 2.76645 190.962 17.0173 273.198Z" fill="url(#paint1_linear)"/>
<path d="M294.825 123.565L296.753 162.629L250.731 141.336L257.186 115.433C257.186 115.349 286.275 114.679 294.825 123.565Z" fill="#471312"/>
<path opacity="0.5" d="M294.825 123.564C286.275 114.762 257.27 115.348 257.27 115.348L255.845 120.965C258.276 122.222 262.635 123.899 267.245 123.564C273.03 134.126 287.951 138.485 295.496 137.395L294.825 123.564Z" fill="url(#paint2_linear)"/>
<path opacity="0.5" d="M290.298 233.714C280.071 234.385 276.802 239.75 265.401 244.361C261.294 246.037 258.695 248.468 257.27 251.151C265.821 250.983 288.79 250.229 295.915 247.63C299.52 246.373 303.543 240.672 307.232 234.301C301.28 233.798 294.741 233.379 290.298 233.714Z" fill="url(#paint3_linear)"/>
<path d="M94.4746 314.944C94.4746 316.537 93.1333 317.878 91.5406 317.878C89.9478 317.878 88.6066 316.537 88.6066 314.944C88.6066 313.351 89.9478 312.01 91.5406 312.01C93.1333 312.01 94.4746 313.268 94.4746 314.944Z" fill="#6B6B6B"/>
<path d="M92.5464 314.944C92.5464 315.531 92.1272 315.95 91.5404 315.95C90.9536 315.95 90.5345 315.531 90.5345 314.944C90.5345 314.357 90.9536 313.938 91.5404 313.938C92.0434 313.938 92.5464 314.357 92.5464 314.944Z" stroke="#0F0F0F" stroke-width="0.5837" stroke-miterlimit="10"/>
<path d="M119.12 333.302C118.45 333.302 117.947 332.799 117.947 332.129V328.692C117.947 328.021 118.45 327.518 119.12 327.518C119.791 327.518 120.294 328.021 120.294 328.692V332.129C120.294 332.799 119.791 333.302 119.12 333.302Z" fill="#6B6B6B"/>
<path d="M154.077 235.726L148.209 271.186C148.209 271.186 137.898 276.886 131.108 276.383C127.335 276.048 129.934 272.359 131.108 269.593C132.281 266.826 130.102 266.491 131.443 262.887C132.784 259.282 135.97 244.863 135.97 244.863L154.077 235.726Z" fill="#223763"/>
<path d="M141.67 269.76C141.67 269.76 136.892 285.185 137.227 287.7C137.395 288.873 138.401 289.796 139.658 289.963C141.838 290.131 145.694 290.634 146.197 291.221C146.784 291.975 138.736 294.574 136.556 295.58C134.377 296.586 130.94 297.172 130.437 295.58C130.018 294.322 132.114 291.556 132.449 287.951C132.784 284.431 132.952 271.856 132.952 271.856L141.67 269.76Z" fill="#D97E7E"/>
<path d="M139.658 289.879C139.239 289.795 138.82 289.711 138.401 289.46C138.569 290.13 138.736 290.801 138.568 291.304C138.149 292.31 135.886 293.903 134.377 292.31C133.539 291.472 132.533 290.885 131.695 290.55C131.024 292.813 130.018 294.489 130.269 295.412C130.772 297.004 134.209 296.417 136.389 295.412C138.568 294.406 146.7 291.891 146.029 291.052C145.694 290.55 141.838 290.13 139.658 289.879Z" fill="#16367C"/>
<path d="M141.67 269.76L132.784 271.856C132.784 271.856 132.784 274.958 132.701 278.479C135.551 277.808 138.736 275.126 140.58 273.449C141.251 271.269 141.67 269.76 141.67 269.76Z" fill="#D95757"/>
<path d="M168.244 282.251C168.244 282.251 163.466 297.675 163.801 300.19C163.969 301.364 164.975 302.286 166.232 302.453C168.412 302.621 172.268 303.124 172.771 303.711C173.358 304.465 165.31 307.064 163.131 308.07C160.951 309.076 157.514 309.663 157.011 308.07C156.592 306.813 158.688 304.046 159.023 300.442C159.358 296.921 159.526 284.346 159.526 284.346L168.244 282.251Z" fill="#D97E7E"/>
<path d="M166.148 302.37C165.729 302.286 165.31 302.202 164.891 301.951C165.058 302.621 165.226 303.292 165.058 303.795C164.639 304.801 162.376 306.393 160.867 304.801C160.029 303.962 159.023 303.376 158.184 303.04C157.514 305.304 156.508 306.98 156.759 307.902C157.262 309.495 160.699 308.908 162.879 307.902C165.058 306.896 173.19 304.382 172.519 303.543C172.268 303.04 168.328 302.621 166.148 302.37Z" fill="#16367C"/>
<path d="M168.244 282.251L159.358 284.346C159.358 284.346 159.358 287.448 159.274 290.969C162.124 290.298 165.31 287.616 167.154 285.939C167.741 283.76 168.244 282.251 168.244 282.251Z" fill="#D95757"/>
<path d="M175.202 247.546L169.334 283.005C169.334 283.005 159.023 288.706 152.233 288.203C148.46 287.867 151.059 284.179 152.233 281.412C153.406 278.646 151.227 278.311 152.568 274.706C153.909 271.102 157.095 256.683 157.095 256.683L175.202 247.546Z" fill="#223763"/>
<path opacity="0.5" d="M153.071 272.862L174.112 253.749L175.118 247.546L157.011 256.683C157.011 256.683 154.58 267.665 153.071 272.862Z" fill="url(#paint4_linear)"/>
<path d="M149.634 314.944C149.634 316.537 148.293 317.878 146.7 317.878C145.107 317.878 143.766 316.537 143.766 314.944C143.766 313.351 145.107 312.01 146.7 312.01C148.293 312.01 149.634 313.268 149.634 314.944Z" fill="#6B6B6B"/>
<path d="M147.706 314.944C147.706 315.531 147.287 315.95 146.7 315.95C146.113 315.95 145.694 315.531 145.694 314.944C145.694 314.357 146.113 313.938 146.7 313.938C147.287 313.938 147.706 314.357 147.706 314.944Z" stroke="#0F0F0F" stroke-width="0.5837" stroke-miterlimit="10"/>
<path d="M146.113 306.058H124.318C123.312 306.058 122.557 305.304 122.557 304.298V293.903C122.557 292.311 121.468 290.802 119.875 290.466C117.695 290.047 115.767 291.724 115.767 293.819V304.298C115.767 305.304 115.013 306.058 114.007 306.058H92.2114C90.6187 306.058 89.1097 307.148 88.7744 308.741C88.3553 310.92 90.0319 312.849 92.1276 312.849H113.923C114.929 312.849 115.683 313.603 115.683 314.609V325.255C115.683 326.848 116.773 328.357 118.366 328.692C120.545 329.111 122.474 327.435 122.474 325.339V314.693C122.474 313.687 123.228 312.932 124.234 312.932H146.113C148.209 312.932 149.886 311.004 149.466 308.825C149.215 307.232 147.706 306.058 146.113 306.058Z" fill="#0C1B40"/>
<path d="M146.113 304.466H124.318C123.312 304.466 122.557 303.711 122.557 302.705V292.31C122.557 290.718 121.468 289.209 119.875 288.873C117.695 288.454 115.767 290.131 115.767 292.227V302.705C115.767 303.711 115.013 304.466 114.007 304.466H92.2114C90.6187 304.466 89.1097 305.555 88.7744 307.148C88.3553 309.328 90.0319 311.256 92.1276 311.256H113.923C114.929 311.256 115.683 312.01 115.683 313.016V323.579C115.683 325.171 116.773 326.68 118.366 327.016C120.545 327.435 122.474 325.758 122.474 323.662V313.016C122.474 312.01 123.228 311.256 124.234 311.256H146.113C148.209 311.256 149.886 309.328 149.466 307.148C149.215 305.555 147.706 304.466 146.113 304.466Z" fill="#163173"/>
<path d="M119.12 308.322C118.282 308.322 117.528 307.651 117.528 306.729V288.622C117.528 287.784 118.198 287.029 119.12 287.029C119.959 287.029 120.713 287.7 120.713 288.622V306.729C120.713 307.567 119.959 308.322 119.12 308.322Z" fill="#CFA028"/>
<path opacity="0.5" d="M122.557 292.31C122.557 290.718 121.467 289.209 119.874 288.873C117.695 288.454 115.767 290.131 115.767 292.227V301.532L122.641 300.526V292.31H122.557Z" fill="url(#paint5_linear)"/>
<path d="M149.885 262.97L122.976 247.546L90.6185 265.82L83.6607 264.731C83.6607 264.731 81.4811 265.82 81.4811 268.754C81.4811 270.096 82.2356 271.269 83.3254 271.94L115.599 290.298C117.192 291.22 119.12 291.22 120.713 290.298L156.34 269.593C157.849 268.754 158.771 267.078 158.771 265.401C158.771 262.3 155.25 261.042 155.25 261.042L149.885 262.97Z" fill="#163173"/>
<path d="M84.3317 264.228L120.546 243.857C122.055 243.019 123.983 243.019 125.492 243.857L155.083 260.791C156.76 261.797 156.76 264.228 155.083 265.234L118.282 286.61L84.3317 267.329C83.1581 266.659 83.1581 264.898 84.3317 264.228Z" fill="#214AAD"/>
<path opacity="0.5" d="M155.334 260.958L149.885 262.97L122.976 247.546L90.6185 265.82L83.6607 264.731C83.6607 264.731 81.4811 265.82 81.4811 268.754C81.4811 270.096 82.2356 271.269 83.3254 271.94L102.774 283.005C109.815 280.993 125.826 277.305 138.568 279.904L156.424 269.509C157.933 268.67 158.855 266.994 158.855 265.317C158.855 262.3 155.334 260.958 155.334 260.958Z" fill="url(#paint6_linear)"/>
<path d="M96.5704 225.75C96.5704 225.75 87.8522 234.888 87.3493 250.061C86.9301 265.234 100.343 269.76 109.564 273.868C118.785 277.975 128.006 276.802 139.155 271.269C150.221 265.737 169.25 254.587 172.687 252.492C175.034 250.983 177.214 245.199 172.1 240.756C167.07 236.313 151.059 230.109 148.041 228.768C145.023 227.427 138.149 228.433 129.347 234.133C120.629 240.001 96.5704 225.75 96.5704 225.75Z" fill="#223763"/>
<path opacity="0.5" d="M131.275 236.648C131.275 236.648 129.096 247.378 131.275 252.324C133.455 257.186 141.502 255.593 145.945 252.324C150.388 249.054 153.993 246.037 153.993 246.037L131.275 236.648Z" fill="url(#paint7_linear)"/>
<path d="M318.8 215.943L464.914 300.107C464.914 300.107 469.608 283.676 464.914 277.724C460.219 271.773 459.549 268.252 460.052 259.618C460.638 251.067 460.219 244.025 452.591 236.481C444.962 228.936 446.052 216.194 446.639 207.811C447.226 199.429 443.621 180.819 432.137 179.142C421.742 177.633 417.299 194.064 408.245 197.584C399.192 201.105 388.21 186.184 378.319 187.441C368.427 188.615 369.014 198.339 360.463 198.171C351.913 198.003 340.177 190.543 335.65 200.183C331.123 209.907 318.633 199.932 318.8 215.943Z" fill="url(#paint8_linear)"/>
<path d="M339.841 239.918L335.985 237.738V130.605L339.841 132.785V239.918Z" fill="#A6C3FF"/>
<path d="M339.841 239.918L343.781 237.738V130.605L339.841 132.785V239.918Z" fill="#4A70C9"/>
<path d="M396.761 272.946L392.905 270.767V163.634L396.761 165.813V272.946Z" fill="#A6C3FF"/>
<path d="M396.76 272.946L400.7 270.683V163.634L396.76 165.813V272.946Z" fill="#4A70C9"/>
<g opacity="0.5">
<path opacity="0.5" d="M335.985 130.605V160.699L343.781 166.987V130.605L339.841 132.785L335.985 130.605Z" fill="url(#paint9_linear)"/>
<path opacity="0.5" d="M392.905 163.634V206.554L400.701 212.841V163.634L396.761 165.813L392.905 163.634Z" fill="url(#paint10_linear)"/>
</g>
<path d="M452.423 211.248L450.16 212.757L302.202 125.408L299.939 1.50891L302.202 0L452.423 85.8405V211.248Z" fill="#BAD0FF"/>
<path d="M450.16 212.757L299.939 126.916V1.50879L450.16 87.3493V212.757Z" fill="#D1E0FF"/>
<path d="M408.748 139.575C408.748 139.575 408.664 139.575 408.748 139.575C408.664 139.575 408.748 139.575 408.748 139.575ZM407.994 139.156C407.994 139.156 408.078 139.156 407.994 139.156C408.078 139.156 407.994 139.156 407.994 139.156ZM407.658 138.904C407.658 138.988 407.742 138.988 407.658 138.904C407.742 138.988 407.658 138.988 407.658 138.904ZM409.419 139.91C409.419 139.91 409.335 139.91 409.419 139.91C409.335 139.91 409.419 139.91 409.419 139.91ZM407.323 138.737C407.323 138.737 407.407 138.737 407.407 138.82C407.407 138.82 407.407 138.737 407.323 138.737ZM409.754 140.162C409.754 140.162 409.67 140.162 409.67 140.078C409.754 140.078 409.754 140.162 409.754 140.162ZM406.988 138.485L407.072 138.569C407.072 138.569 406.988 138.569 406.988 138.485ZM410.089 140.329C410.089 140.329 410.006 140.329 410.006 140.245C410.006 140.245 410.089 140.245 410.089 140.329ZM406.652 138.317C406.736 138.317 406.736 138.401 406.82 138.401C406.736 138.401 406.736 138.317 406.652 138.317ZM410.509 140.497C410.425 140.497 410.425 140.413 410.341 140.413C410.341 140.413 410.425 140.497 410.509 140.497ZM406.233 138.066C406.317 138.15 406.401 138.15 406.401 138.234C406.401 138.15 406.317 138.066 406.233 138.066ZM410.928 140.665C410.844 140.581 410.676 140.581 410.592 140.497C410.676 140.581 410.76 140.665 410.928 140.665ZM385.779 111.157C385.779 111.241 385.779 111.241 385.863 111.325C385.779 111.241 385.779 111.157 385.779 111.157ZM433.813 130.94C432.053 138.234 427.358 142.509 420.987 142.844C417.969 143.012 414.532 142.341 410.928 140.665C422.161 145.946 431.298 141.838 433.813 130.94ZM433.981 130.354C433.897 130.521 433.897 130.773 433.813 130.94C433.897 130.773 433.981 130.521 433.981 130.354ZM434.064 130.102C434.064 130.186 434.064 130.186 434.064 130.27C433.981 130.186 434.064 130.186 434.064 130.102ZM434.148 129.683C434.148 129.767 434.148 129.935 434.064 130.018C434.064 129.935 434.064 129.851 434.148 129.683ZM434.148 129.432C434.148 129.515 434.148 129.515 434.148 129.599C434.148 129.515 434.148 129.515 434.148 129.432ZM434.232 129.096C434.232 129.18 434.232 129.264 434.232 129.348C434.232 129.264 434.232 129.18 434.232 129.096ZM434.232 128.761C434.232 128.845 434.232 128.845 434.232 128.929C434.232 128.845 434.232 128.845 434.232 128.761ZM434.316 128.509V128.593C434.316 128.509 434.316 128.509 434.316 128.509ZM434.4 128.09V128.174C434.316 128.174 434.316 128.09 434.4 128.09ZM434.4 127.755V127.839V127.755ZM434.4 127.336V127.42C434.4 127.42 434.4 127.42 434.4 127.336ZM434.484 127.001V127.084C434.484 127.084 434.484 127.084 434.484 127.001ZM434.484 126.665V126.749V126.665ZM434.484 126.33V126.414C434.484 126.33 434.484 126.33 434.484 126.33ZM434.567 125.911C434.567 125.911 434.567 125.995 434.567 125.911C434.567 125.995 434.567 125.911 434.567 125.911ZM434.567 125.575V125.659C434.567 125.575 434.567 125.575 434.567 125.575ZM434.567 125.156C434.567 125.156 434.567 125.24 434.567 125.156C434.567 125.24 434.567 125.156 434.567 125.156ZM434.567 124.821V124.905C434.567 124.821 434.567 124.821 434.567 124.821ZM408.497 109.397L395.671 128.258C391.563 123.312 388.21 117.444 385.863 111.492C390.054 122.138 397.515 132.198 406.233 138.066C402.461 135.467 398.856 132.114 395.671 128.258L408.497 109.397ZM434.567 123.899C434.567 123.983 434.567 123.983 434.567 124.067C434.567 124.067 434.567 123.983 434.567 123.899ZM434.567 123.48C434.567 123.564 434.567 123.564 434.567 123.647C434.567 123.647 434.567 123.564 434.567 123.48ZM434.567 123.144C434.567 123.228 434.567 123.228 434.567 123.312C434.567 123.228 434.567 123.144 434.567 123.144ZM434.567 122.725C434.567 122.809 434.567 122.893 434.567 122.893C434.567 122.893 434.567 122.809 434.567 122.725ZM434.484 122.306C434.484 122.39 434.484 122.474 434.484 122.558C434.484 122.474 434.484 122.39 434.484 122.306ZM434.484 121.971C434.484 122.055 434.484 122.138 434.484 122.222C434.484 122.055 434.484 122.055 434.484 121.971ZM434.484 121.552C434.484 121.635 434.484 121.719 434.484 121.803C434.484 121.719 434.484 121.635 434.484 121.552ZM434.4 121.133C434.4 121.216 434.4 121.3 434.4 121.384C434.484 121.3 434.4 121.216 434.4 121.133ZM434.4 120.797C434.4 120.881 434.4 120.965 434.4 121.049C434.4 120.965 434.4 120.881 434.4 120.797ZM434.316 120.378C434.316 120.462 434.316 120.63 434.316 120.713C434.4 120.546 434.4 120.462 434.316 120.378ZM434.316 119.959C434.316 120.043 434.316 120.21 434.316 120.294C434.316 120.21 434.316 120.127 434.316 119.959ZM414.113 83.242C419.478 87.6849 424.173 93.6367 427.777 100.092C431.214 106.463 433.645 113.336 434.4 119.875C432.807 106.63 424.592 91.9602 414.113 83.242ZM413.778 82.9905C413.862 83.0743 413.946 83.1582 414.113 83.242C413.946 83.1582 413.862 83.0743 413.778 82.9905ZM413.443 82.739C413.526 82.8228 413.61 82.9067 413.694 82.9067C413.61 82.9067 413.526 82.8228 413.443 82.739ZM413.107 82.4875C413.191 82.5714 413.275 82.5714 413.359 82.6552C413.275 82.5714 413.191 82.5714 413.107 82.4875ZM412.772 82.236C412.856 82.3199 412.94 82.3199 413.023 82.4037C412.94 82.3199 412.856 82.236 412.772 82.236ZM412.437 81.9846C412.52 82.0684 412.604 82.0684 412.688 82.1522C412.604 82.0684 412.52 81.9846 412.437 81.9846ZM412.101 81.7331C412.185 81.8169 412.269 81.8169 412.269 81.9007C412.269 81.8169 412.185 81.7331 412.101 81.7331ZM411.766 81.4816C411.85 81.5654 411.934 81.5654 411.934 81.6492C411.934 81.5654 411.85 81.5654 411.766 81.4816ZM411.431 81.2301C411.515 81.3139 411.598 81.3139 411.598 81.3978C411.598 81.3139 411.515 81.3139 411.431 81.2301ZM411.095 80.9786C411.179 81.0624 411.179 81.0624 411.263 81.1463C411.263 81.0624 411.179 81.0624 411.095 80.9786ZM410.76 80.8109C410.844 80.8109 410.844 80.8948 410.928 80.8948C410.928 80.8948 410.844 80.8109 410.76 80.8109ZM410.425 80.5595C410.509 80.5595 410.509 80.6433 410.592 80.6433C410.592 80.6433 410.509 80.5595 410.425 80.5595ZM410.089 80.308C410.173 80.308 410.257 80.3918 410.257 80.3918C410.173 80.3918 410.173 80.3918 410.089 80.308ZM409.754 80.1403C409.838 80.1403 409.922 80.2242 409.922 80.2242C409.838 80.2242 409.838 80.1403 409.754 80.1403ZM409.419 79.8888C409.503 79.8888 409.586 79.9727 409.586 79.9727C409.503 79.9727 409.419 79.8888 409.419 79.8888ZM409 79.6374C409.083 79.7212 409.167 79.7212 409.251 79.805C409.167 79.7212 409.083 79.7212 409 79.6374ZM408.581 79.3859C408.664 79.4697 408.832 79.5535 408.916 79.5535C408.748 79.5535 408.664 79.4697 408.581 79.3859ZM408.581 79.3859C394.162 71.0868 382.426 77.7093 382.426 94.3074C382.426 98.9179 383.348 103.864 384.941 108.726L408.497 109.397L408.581 79.3859Z" fill="#4A70C9"/>
<path d="M408.581 79.386L408.497 109.397L427.777 100.175C424.173 93.6369 419.478 87.685 414.113 83.3259C414.03 83.2421 413.946 83.1583 413.778 83.0745C413.778 83.0745 413.694 83.0744 413.694 82.9906C413.61 82.9068 413.527 82.823 413.443 82.823L413.359 82.7391C413.275 82.6553 413.191 82.6553 413.107 82.5715L413.024 82.4876C412.94 82.4038 412.856 82.4038 412.772 82.32L412.688 82.2362C412.604 82.1523 412.521 82.1523 412.437 82.0685C412.353 82.0685 412.353 81.9847 412.269 81.9847C412.185 81.9009 412.102 81.9009 412.102 81.817C412.018 81.817 412.018 81.7332 411.934 81.7332C411.85 81.6494 411.766 81.6494 411.766 81.5655C411.682 81.5655 411.682 81.4817 411.599 81.4817C411.515 81.3979 411.431 81.3979 411.431 81.314C411.347 81.314 411.347 81.2302 411.263 81.2302C411.179 81.1464 411.179 81.1464 411.096 81.0626C411.012 81.0626 411.012 80.9787 410.928 80.9787C410.844 80.8949 410.844 80.8949 410.76 80.8949C410.676 80.8949 410.676 80.8111 410.593 80.8111C410.509 80.8111 410.509 80.7272 410.425 80.7272C410.341 80.7272 410.341 80.6434 410.257 80.6434C410.173 80.5596 410.09 80.5596 410.09 80.5596C410.006 80.5596 410.006 80.4758 409.922 80.4758C409.838 80.4758 409.754 80.3919 409.754 80.3919C409.67 80.3919 409.67 80.3081 409.587 80.3081C409.503 80.2243 409.419 80.2243 409.419 80.2243C409.335 80.2243 409.335 80.1405 409.251 80.1405C409.167 80.0566 409.084 80.0566 409 79.9728L408.916 79.889C408.748 79.5536 408.665 79.4698 408.581 79.386Z" fill="#FF5787"/>
<path d="M427.693 100.176L408.413 109.397L420.987 142.928C427.358 142.509 432.052 138.318 433.813 131.024C433.896 130.857 433.896 130.605 433.98 130.438V130.354C433.98 130.27 433.98 130.27 433.98 130.186V130.102C433.98 130.019 433.98 129.851 434.064 129.767V129.683C434.064 129.599 434.064 129.599 434.064 129.516C434.064 129.432 434.064 129.432 434.064 129.348C434.064 129.264 434.064 129.18 434.064 129.096C434.064 129.013 434.064 129.013 434.064 128.929C434.064 128.845 434.064 128.845 434.064 128.761C434.064 128.677 434.064 128.677 434.064 128.593V128.51C434.064 128.426 434.064 128.342 434.064 128.258V128.174C434.064 128.09 434.064 128.007 434.064 128.007V127.923C434.064 127.839 434.064 127.755 434.064 127.671V127.587C434.064 127.504 434.064 127.42 434.064 127.336V127.252C434.064 127.168 434.064 127.085 434.064 126.917V126.833C434.064 126.749 434.064 126.665 434.064 126.582V126.498C434.064 126.414 434.064 126.246 434.064 126.162V126.079C434.064 125.995 434.064 125.911 434.064 125.827V125.743C434.064 125.659 434.064 125.492 434.064 125.408C434.064 125.408 434.064 125.408 434.064 125.324C434.064 125.24 434.064 125.156 434.064 124.989V124.905C434.064 124.821 434.064 124.654 434.064 124.57C434.064 124.402 434.064 124.318 434.064 124.151C434.064 124.067 434.064 124.067 434.064 123.983C434.064 123.899 434.064 123.815 434.064 123.731C434.064 123.648 434.064 123.648 434.064 123.564C434.064 123.48 434.064 123.396 434.064 123.312C434.064 123.228 434.064 123.228 434.064 123.145C434.064 123.061 434.064 122.977 434.064 122.977C434.064 122.893 434.064 122.809 434.064 122.809C434.064 122.725 434.064 122.725 434.064 122.642C434.064 122.558 434.064 122.474 434.064 122.39C434.064 122.306 434.064 122.306 434.064 122.222C434.064 122.139 434.064 122.055 434.064 121.971C434.064 121.887 434.064 121.887 434.064 121.803C434.064 121.719 434.064 121.636 434.064 121.552C434.064 121.468 434.064 121.468 434.064 121.384C434.064 121.3 434.064 121.217 434.064 121.133V121.049C434.064 120.965 434.064 120.881 434.064 120.797V120.714C434.064 120.63 434.064 120.462 434.064 120.378C434.064 120.294 434.064 120.127 434.064 120.043C433.561 113.42 431.214 106.463 427.693 100.176Z" fill="#FCBC19"/>
<path d="M408.496 109.397L395.671 128.258C398.856 132.114 402.377 135.467 406.233 138.066C406.233 138.066 406.233 138.066 406.317 138.066C406.401 138.15 406.485 138.15 406.485 138.234C406.568 138.318 406.652 138.318 406.736 138.401C406.82 138.401 406.82 138.485 406.904 138.485C406.988 138.485 406.988 138.569 407.071 138.569L407.155 138.653C407.239 138.737 407.323 138.737 407.407 138.821C407.407 138.821 407.491 138.821 407.491 138.904C407.574 138.988 407.658 138.988 407.742 139.072C407.742 139.072 407.742 139.072 407.826 139.072C407.91 139.156 407.994 139.156 408.077 139.24C408.077 139.24 408.161 139.24 408.161 139.324C408.245 139.407 408.329 139.407 408.496 139.491C408.58 139.575 408.664 139.575 408.832 139.659H408.916C408.999 139.743 409.083 139.743 409.167 139.827C409.167 139.827 409.167 139.827 409.251 139.827C409.335 139.91 409.419 139.91 409.502 139.994H409.586C409.67 140.078 409.754 140.078 409.838 140.162C409.838 140.162 409.922 140.162 409.922 140.246C410.005 140.246 410.089 140.329 410.089 140.329C410.089 140.329 410.173 140.329 410.173 140.413C410.257 140.413 410.341 140.497 410.425 140.497C410.508 140.497 410.508 140.581 410.592 140.581C410.592 140.581 410.676 140.581 410.676 140.665C410.76 140.749 410.928 140.749 411.011 140.832C411.011 140.832 411.011 140.832 411.095 140.832C414.7 142.509 418.137 143.264 421.155 143.012L408.496 109.397Z" fill="#5C9DAD"/>
<path d="M408.497 109.396L384.941 108.726C385.192 109.396 385.444 110.151 385.695 110.821V110.905C385.695 110.989 385.779 111.073 385.779 111.157C385.779 111.24 385.779 111.24 385.863 111.324C385.863 111.408 385.947 111.408 385.947 111.492C388.294 117.444 391.647 123.312 395.755 128.258L408.497 109.396Z" fill="white"/>
<path d="M309.328 24.8132L363.817 56.1651V93.385L308.909 62.0331L309.328 24.8132Z" fill="url(#paint11_linear)"/>
<path d="M308.909 90.1995L363.816 121.803V125.407L308.909 93.9718V90.1995Z" fill="#A6C3FF"/>
<path d="M308.909 96.9895L363.816 128.593V132.198L308.909 100.762V96.9895Z" fill="#A6C3FF"/>
<path d="M308.909 103.78L363.816 135.383V138.988L308.909 107.552V103.78Z" fill="#A6C3FF"/>
<path d="M308.909 110.57L363.816 142.173V145.694L308.909 114.342V110.57Z" fill="#A6C3FF"/>
<path d="M308.992 76.0322C308.992 73.5174 310.753 72.5114 312.932 73.7689C315.112 75.0263 316.872 78.128 316.872 80.6428C316.872 83.1577 315.112 84.1636 312.932 82.9062C310.837 81.6488 308.992 78.5471 308.992 76.0322Z" fill="#FF5787"/>
<path d="M320.728 82.8223C320.728 80.3074 322.488 79.3015 324.668 80.5589C326.848 81.8163 328.608 84.918 328.608 87.4329C328.608 89.9477 326.848 90.9537 324.668 89.6962C322.488 88.4388 320.728 85.3371 320.728 82.8223Z" fill="#CFA028"/>
<path d="M332.464 89.6128C332.464 87.098 334.224 86.092 336.404 87.3494C338.583 88.6069 340.344 91.7085 340.344 94.2234C340.344 96.7382 338.583 97.7442 336.404 96.4868C334.224 95.2293 332.464 92.1277 332.464 89.6128Z" fill="#5C9DAD"/>
<path d="M344.116 96.4026C344.116 93.8878 345.877 92.8818 348.056 94.1392C350.236 95.3967 351.996 98.4983 351.996 101.013C351.996 103.528 350.236 104.534 348.056 103.277C345.877 101.935 344.116 98.9175 344.116 96.4026Z" fill="#4A70C9"/>
<path d="M355.852 103.109C355.852 100.594 357.613 99.5881 359.792 100.846C361.972 102.103 363.732 105.205 363.732 107.719C363.732 110.234 361.972 111.24 359.792 109.983C357.613 108.725 355.852 105.624 355.852 103.109Z" fill="white"/>
<path d="M381.001 131.359L435.909 162.963V166.483L381.001 135.131V131.359Z" fill="#A6C3FF"/>
<path d="M381.001 138.149L435.908 169.668V173.273L381.001 141.921V138.149Z" fill="#A6C3FF"/>
<path d="M381.001 144.855L435.908 176.459V180.063L381.001 148.628V144.855Z" fill="#A6C3FF"/>
<path d="M381.001 151.646L435.908 183.249V186.854L381.001 155.418V151.646Z" fill="#A6C3FF"/>
<path d="M0 288.203L135.886 209.487C135.886 209.487 129.431 184.339 124.066 186.854C118.701 189.369 119.875 196.075 114.258 194.231C108.642 192.386 104.702 180.147 95.8161 180.818C86.9303 181.573 76.3679 201.105 72.2603 199.931C68.0688 198.674 68.3203 172.519 55.8299 178.136C43.3394 183.752 49.1236 230.445 31.1843 232.792C20.2027 234.217 1.25743 244.695 0 288.203Z" fill="url(#paint12_linear)"/>
<path d="M176.962 220.469C178.583 220.469 179.896 219.156 179.896 217.535C179.896 215.915 178.583 214.601 176.962 214.601C175.342 214.601 174.028 215.915 174.028 217.535C174.028 219.156 175.342 220.469 176.962 220.469Z" fill="#6B6B6B"/>
<path d="M176.963 218.541C177.518 218.541 177.969 218.091 177.969 217.535C177.969 216.98 177.518 216.53 176.963 216.53C176.407 216.53 175.957 216.98 175.957 217.535C175.957 218.091 176.407 218.541 176.963 218.541Z" fill="#6B6B6B"/>
<path d="M121.803 220.469C123.423 220.469 124.737 219.156 124.737 217.535C124.737 215.915 123.423 214.601 121.803 214.601C120.182 214.601 118.869 215.915 118.869 217.535C118.869 219.156 120.182 220.469 121.803 220.469Z" fill="#6B6B6B"/>
<path d="M121.803 218.541C122.358 218.541 122.809 218.091 122.809 217.535C122.809 216.98 122.358 216.53 121.803 216.53C121.247 216.53 120.797 216.98 120.797 217.535C120.797 218.091 121.247 218.541 121.803 218.541Z" fill="#6B6B6B"/>
<path d="M149.382 235.978C150.053 235.978 150.556 235.475 150.556 234.804V231.367C150.556 230.697 150.053 230.194 149.382 230.194C148.712 230.194 148.209 230.697 148.209 231.367V234.804C148.125 235.475 148.712 235.978 149.382 235.978Z" fill="#6B6B6B"/>
<path d="M122.39 208.733H144.185C145.191 208.733 145.946 207.979 145.946 206.973V196.578C145.946 194.985 147.035 193.476 148.628 193.141C150.808 192.722 152.736 194.399 152.736 196.494V206.973C152.736 207.979 153.49 208.733 154.496 208.733H176.292C177.884 208.733 179.393 209.823 179.729 211.416C180.148 213.595 178.471 215.523 176.376 215.523H154.496C153.49 215.523 152.736 216.278 152.736 217.284V227.846C152.736 229.439 151.646 230.948 150.053 231.283C147.874 231.702 145.946 230.026 145.946 227.93V217.284C145.946 216.278 145.191 215.523 144.185 215.523H122.306C120.21 215.523 118.534 213.595 118.953 211.416C119.204 209.823 120.713 208.733 122.39 208.733Z" fill="#163173"/>
<path d="M122.39 207.057H144.185C145.191 207.057 145.946 206.302 145.946 205.297V194.902C145.946 193.309 147.035 191.8 148.628 191.465C150.808 191.046 152.736 192.722 152.736 194.818V205.297C152.736 206.302 153.49 207.057 154.496 207.057H176.292C177.884 207.057 179.393 208.147 179.729 209.739C180.148 211.919 178.471 213.847 176.376 213.847H154.496C153.49 213.847 152.736 214.602 152.736 215.607V226.17C152.736 227.763 151.646 229.272 150.053 229.607C147.874 230.026 145.946 228.349 145.946 226.254V215.607C145.946 214.602 145.191 213.847 144.185 213.847H122.306C120.21 213.847 118.534 211.919 118.953 209.739C119.204 208.231 120.713 207.057 122.39 207.057Z" fill="#214AAD"/>
<path d="M149.382 210.913C150.221 210.913 150.975 210.242 150.975 209.32V191.213C150.975 190.375 150.305 189.621 149.382 189.621C148.544 189.621 147.79 190.291 147.79 191.213V209.32C147.79 210.242 148.46 210.913 149.382 210.913Z" fill="#CFA028"/>
<path d="M124.401 172.017L151.31 156.592L183.668 174.867L190.626 173.777C190.626 173.777 192.806 174.867 192.806 177.801C192.806 179.142 192.051 180.316 190.961 180.986L158.687 199.345C157.095 200.267 155.166 200.267 153.574 199.345L117.863 178.555C116.354 177.717 115.432 176.04 115.432 174.364C115.432 171.262 118.953 170.005 118.953 170.005L124.401 172.017Z" fill="#163173"/>
<path d="M117.192 96.3192L146.951 79.0505C148.293 78.296 149.718 78.3799 150.891 78.9667C150.975 78.9667 150.975 79.0505 151.059 79.0505L153.742 80.5594L152.987 92.966V138.485L119.037 157.849L116.857 162.208L116.019 162.628C114.929 163.298 113.504 163.298 112.414 162.628C111.827 162.292 111.492 161.706 111.492 161.035V110.738V105.959C111.576 102.02 113.755 98.3311 117.192 96.3192Z" fill="#163173"/>
<path d="M128.006 170.088V124.569C128.006 120.294 130.27 116.27 134.042 114.091L136.054 112.917C138.485 111.492 141.586 113.253 141.586 116.103V162.376" stroke="#CFA028" stroke-width="3.5019" stroke-miterlimit="10" stroke-linecap="round" stroke-linejoin="round"/>
<path d="M149.634 80.5595L119.875 97.8282C116.438 99.84 114.258 103.529 114.258 107.552V160.867C114.258 162.125 115.6 162.879 116.689 162.292L153.825 141.084C154.999 140.413 155.67 139.24 155.67 137.898V84.0803C155.837 80.9786 152.4 79.0506 149.634 80.5595Z" fill="#214AAD"/>
<path d="M189.955 173.19L153.741 152.82C152.232 151.982 150.304 151.982 148.796 152.82L119.204 169.753C117.527 170.759 117.527 173.19 119.204 174.196L156.005 195.572L189.955 176.292C191.213 175.621 191.213 173.861 189.955 173.19Z" fill="#214AAD"/>
<path d="M180.818 97.9955L181.321 104.031L206.973 87.6007C206.973 87.6007 207.224 86.1756 208.482 84.7505C209.739 83.3255 210.41 81.7327 211.081 81.7327C211.835 81.6489 209.739 85.002 210.41 85.1697C211.081 85.3373 213.679 83.7446 214.434 83.3255C215.188 82.8225 215.691 80.9782 216.362 81.2297C217.032 81.4812 216.697 83.4931 216.362 84.8344C216.026 86.1756 213.26 88.7743 213.26 88.7743C213.26 88.7743 211.332 90.0317 209.236 90.2832C209.236 90.2832 190.123 123.731 179.896 123.731C167.406 123.731 167.071 107.384 166.735 101.181L180.818 97.9955Z" fill="#D97E7E"/>
<path d="M181.321 104.031C181.321 104.031 176.208 106.965 174.447 110.067" stroke="#D95757" stroke-width="0.4987" stroke-miterlimit="10"/>
<path d="M181.07 100.929L180.818 97.9954L166.735 101.181C166.819 102.69 166.903 104.869 167.154 107.3C174.783 107.803 179.226 103.36 181.07 100.929Z" fill="#D95757"/>
<path d="M215.523 84.7502C215.523 84.7502 215.021 85.337 214.182 85.5885C213.428 85.84 213.009 86.5945 212.506 87.0974C212.003 87.6004 208.901 86.7621 207.895 88.6902" stroke="#D95757" stroke-width="0.4987" stroke-miterlimit="10"/>
<path d="M168.077 64.4639C168.077 64.4639 174.112 64.9668 177.465 69.9966C180.819 74.9424 180.735 86.0917 181.154 88.9418C181.573 91.792 181.908 98.4983 181.908 98.4983C181.908 98.4983 175.957 104.031 169.25 101.684L168.077 64.4639Z" fill="url(#paint13_linear)"/>
<path d="M157.43 50.6322C157.43 50.6322 159.442 48.7042 159.945 45.7702C160.448 42.8362 156.592 42.92 156.592 42.92C156.592 42.92 156.005 41.9141 153.993 41.9141C151.981 41.9141 147.538 43.5906 145.023 44.0936C142.508 44.5966 140.413 47.1114 142.425 51.5544C144.437 55.9973 148.628 61.1946 148.628 61.1946L157.43 50.6322Z" fill="#214AAD"/>
<path d="M156.173 46.8601C156.173 46.8601 158.855 52.1413 159.778 52.6443C160.7 53.1473 158.352 53.6502 158.352 53.6502C158.352 53.6502 159.61 58.9314 158.688 59.2667C157.682 59.6021 156.173 59.6021 156.173 59.6021V67.5658H146.784L147.539 58.2608C147.539 58.2608 146.197 56.3327 146.784 55.0753C147.371 53.8179 148.628 54.0694 149.131 55.6621C149.718 57.171 150.305 51.8898 150.305 51.8898C150.305 51.8898 153.826 50.7162 156.173 46.8601Z" fill="#D97E7E"/>
<path d="M156.173 59.6017C156.173 59.6017 151.562 59.6855 151.059 57.8413C151.059 57.8413 150.808 60.0209 152.987 61.2783C155.167 62.5357 156.173 62.871 156.173 62.871V59.6017Z" fill="#D95757"/>
<path d="M146.616 63.2905C146.616 63.2905 148.293 64.7994 150.556 64.7994C152.903 64.7994 153.742 66.8951 154.664 66.8951C155.586 66.8951 155.502 64.2964 156.173 63.3743C156.843 62.3684 158.604 63.7934 158.604 63.7934C158.604 63.7934 163.634 63.9611 168.076 64.4641C169.25 64.6317 170.34 65.3024 170.927 66.3921C172.184 68.6555 174.028 72.9308 173.861 77.6252C173.609 84.4991 171.681 91.2892 172.016 95.816C172.352 100.427 171.43 113.504 171.513 117.025C171.597 120.629 173.441 124.988 171.346 127.084C169.25 129.096 140.664 145.275 136.389 142.76C132.114 140.245 133.455 106.965 132.617 98.9176C132.03 92.9658 128.593 85.4212 126.833 81.9004C126.246 80.7268 126.581 79.3856 127.587 78.5473C131.611 75.5294 141.084 68.404 142.09 67.0628C143.515 65.47 144.269 62.536 146.616 63.2905Z" fill="#5C9DAD"/>
<path d="M152.149 65.8052C152.149 65.8052 150.892 71.0864 149.97 71.0025C148.964 70.9187 143.18 66.895 143.18 66.895" stroke="#296C7C" stroke-width="0.4987" stroke-miterlimit="10" stroke-linecap="round" stroke-linejoin="round"/>
<path d="M156.592 64.0452C156.592 64.0452 157.598 68.3204 157.933 68.3204C158.352 68.3204 158.352 64.4643 158.352 64.4643" stroke="#296C7C" stroke-width="0.4987" stroke-miterlimit="10" stroke-linecap="round" stroke-linejoin="round"/>
<path d="M154.999 67.5655C154.999 67.5655 155.754 67.3978 156.089 70.9186C156.424 74.4394 155.586 77.3734 156.592 81.2295C157.598 85.0857 156.76 91.289 157.514 94.8098C158.269 98.3306 159.694 106.21 159.358 111.576C159.023 116.941 160.532 127.671 159.442 132.114" stroke="#296C7C" stroke-width="0.4987" stroke-miterlimit="10" stroke-linecap="round" stroke-linejoin="round"/>
<path d="M162.544 89.5288L169.083 85.5889C169.083 85.5889 169.25 91.7922 165.897 93.9717C162.544 96.1513 162.544 89.5288 162.544 89.5288Z" fill="#296C7C"/>
<path opacity="0.5" d="M146.616 118.869C145.61 114.09 140.413 114.677 139.994 108.474C139.659 102.271 137.395 97.3247 137.395 97.3247L132.701 99.9234C133.371 109.396 132.282 140.413 136.389 142.76C138.988 144.269 150.556 138.904 159.694 134.042C152.149 131.946 147.455 123.312 146.616 118.869Z" fill="url(#paint14_linear)"/>
<path d="M173.777 77.625C173.777 77.625 172.519 88.2712 172.184 92.0435C171.932 95.8158 172.016 99.5881 171.932 101.684" stroke="#296C7C" stroke-width="0.4987" stroke-miterlimit="10" stroke-linecap="round" stroke-linejoin="round"/>
<path d="M175.621 74.356C175.621 74.356 176.124 78.8827 173.19 82.9065" stroke="#296C7C" stroke-width="0.4987" stroke-miterlimit="10" stroke-linecap="round" stroke-linejoin="round"/>
<path d="M108.139 188.614H101.601V244.276H108.139V188.614Z" fill="#285EE0"/>
<path d="M315.95 188.614H309.412V244.276H315.95V188.614Z" fill="#285EE0"/>
<path d="M212.003 240.84H205.464V296.502H212.003V240.84Z" fill="#285EE0"/>
<path opacity="0.5" d="M205.464 269.09C207.979 266.743 210.159 265.066 212.003 263.809V240.84H205.464V269.09Z" fill="url(#paint15_linear)"/>
<path d="M321.734 186.267H321.315C319.22 171.513 308.406 157.179 288.79 146.113C244.78 121.132 172.771 121.132 128.845 146.113C109.229 157.262 98.3311 171.597 96.1515 186.267H95.7324V191.297C95.4809 207.979 106.462 224.828 128.593 237.57C172.436 262.886 244.444 262.886 288.538 237.57C310.753 224.828 321.818 207.979 321.734 191.297V186.267Z" fill="#3C72E8"/>
<path d="M128.845 140.413C84.8349 165.394 84.7511 206.554 128.593 231.87C172.436 257.186 244.445 257.186 288.538 231.87C332.632 206.554 332.8 165.394 288.79 140.413C244.864 115.432 172.855 115.432 128.845 140.413Z" fill="#BAD0FF"/>
<path d="M264.395 45.3508C257.354 43.6742 249.977 50.632 245.785 60.9429C241.51 71.2538 235.977 94.2229 235.977 94.2229L217.87 122.641L222.649 125.575C222.649 125.575 242.851 110.905 247.797 101.097C252.659 91.2051 261.545 71.0023 261.545 71.0023L264.395 45.3508Z" fill="url(#paint16_linear)"/>
<path opacity="0.5" d="M255.342 54.907C255.342 54.907 244.612 72.1757 249.558 96.9889C253.33 88.7737 259.366 75.3612 260.875 72.0919L255.342 54.907Z" fill="url(#paint17_linear)"/>
<path d="M282.754 51.7216C282.754 51.7216 291.64 57.0866 299.352 62.3678C306.98 67.649 305.304 71.1699 302.705 81.5646C300.107 91.9594 293.819 110.402 293.819 110.402L298.514 124.15C298.514 124.15 280.071 136.305 269.341 117.695C269.341 117.695 260.791 120.293 254.755 116.605L258.528 102.438C258.528 102.438 253.665 80.1395 253.246 69.6609C252.995 61.6134 255.091 53.2305 258.192 48.0331C259.617 45.6021 262.551 44.5962 265.15 45.4345C268.922 46.6919 274.958 48.7876 282.754 51.7216Z" fill="url(#paint18_linear)"/>
<path d="M286.359 53.7337C286.359 53.7337 290.215 62.7034 288.287 66.5595C286.359 70.3318 278.395 75.5292 278.395 75.5292C278.395 75.5292 281.832 79.7206 280.491 83.8282C279.149 87.9358 270.431 95.2289 269.006 101.013C269.006 101.013 263.054 88.9418 261.294 83.8282C259.617 78.7147 258.108 71.2539 264.228 69.0744C264.228 69.0744 260.372 60.1886 262.719 54.0691C264.563 49.0393 271.605 47.6143 271.605 47.6143L282.922 51.5542L286.359 53.7337Z" fill="#4A70C9"/>
<path d="M279.82 47.6982C279.82 47.6982 282.67 47.1952 283.089 49.2071C283.341 50.5484 283.508 51.9735 283.76 53.0633C284.011 54.0692 283.844 55.159 283.341 55.9973C280.407 61.027 271.94 76.4514 269.09 94.2231C269.09 94.2231 265.569 77.0382 267.329 66.0567C268.587 58.1768 271.102 54.153 270.515 52.8118C270.012 51.4705 269.677 50.1292 272.862 49.4586C276.131 48.788 279.82 47.6982 279.82 47.6982Z" fill="#163173"/>
<path d="M269.006 100.929L269.341 117.779" stroke="#002259" stroke-width="0.4987" stroke-miterlimit="10" stroke-linecap="round" stroke-linejoin="round"/>
<path d="M344.284 112.414C344.284 112.414 347.051 112.833 348.727 111.408C350.488 109.983 350.991 109.312 353.002 108.306C355.014 107.3 355.853 107.3 355.769 107.719C355.685 108.139 352.919 109.228 353.338 109.983C353.673 110.653 357.11 110.653 357.11 110.653C357.11 110.653 360.128 109.899 360.379 110.57C360.631 111.24 356.272 113.839 356.272 113.839C356.272 113.839 353.757 115.683 348.476 114.845L344.62 115.851L344.284 112.414Z" fill="#D97E7E"/>
<path opacity="0.5" d="M293.819 110.486C293.819 110.486 297.927 98.4144 300.861 88.2711L293.903 77.9602C293.903 77.9602 288.957 102.941 289.376 108.893C289.628 112.078 293.149 115.515 296.25 118.114L293.819 110.486Z" fill="url(#paint19_linear)"/>
<path d="M277.976 43.6743C277.976 43.6743 279.736 42.1654 280.323 38.4769C280.91 34.7047 279.82 29.8426 277.305 29.172C275.126 25.9865 269.677 25.232 268 27.6631C263.306 26.9086 260.12 36.7165 268 38.1416C275.88 39.6505 277.976 43.6743 277.976 43.6743Z" fill="#471312"/>
<path d="M276.551 37.1355C276.635 39.0635 277.557 40.6563 277.557 40.6563C277.557 40.6563 277.724 37.8899 278.898 38.3929C280.072 38.8959 278.311 42.0814 278.311 42.0814L281.329 49.2906C281.664 50.0451 281.329 50.8834 280.658 51.3025C279.233 52.1408 276.802 53.4821 274.79 53.4821C273.617 53.4821 272.527 52.6438 272.275 51.4702L271.437 47.6979C271.437 47.6979 268.252 48.8715 267.246 43.7579L266.827 36.7163C266.827 36.7163 270.431 37.6384 272.778 36.381C272.778 36.2972 274.371 37.7223 276.551 37.1355Z" fill="#D97E7E"/>
<path d="M271.437 47.6145C274.036 47.0277 275.545 45.0997 275.964 44.3452C275.964 47.1954 271.856 49.9617 271.856 49.9617L271.437 47.6145Z" fill="#D95757"/>
<path d="M237.067 94.1393C237.067 94.1393 238.408 93.6363 241.091 94.1393" stroke="#002259" stroke-width="0.4987" stroke-miterlimit="10" stroke-linecap="round" stroke-linejoin="round"/>
<path d="M237.067 95.3127C237.067 95.3127 238.995 94.9774 242.097 96.9893" stroke="#002259" stroke-width="0.4987" stroke-miterlimit="10" stroke-linecap="round" stroke-linejoin="round"/>
<path d="M302.202 64.715C310.417 71.5889 318.8 108.222 318.8 108.222L346.128 110.653L347.302 116.353C347.302 116.353 323.914 128.676 311.004 122.557C306.561 120.461 297.591 105.288 294.238 92.9652C290.969 80.6424 296.837 63.3737 302.202 64.715Z" fill="url(#paint20_linear)"/>
<path opacity="0.5" d="M312.932 108.306C315.782 108.641 318.8 108.306 318.8 108.306C318.8 108.306 316.453 97.9952 313.016 87.2651C312.765 95.0612 307.148 107.552 312.932 108.306Z" fill="url(#paint21_linear)"/>
<path opacity="0.5" d="M269.174 177.549L234.888 197.416L260.456 212.17L294.658 192.303L269.174 177.549Z" fill="url(#paint22_linear)"/>
<path d="M246.206 193.225L246.709 192.973L254.253 197.333L253.75 197.584L246.206 193.225ZM258.445 200.35L258.948 200.099L266.492 204.458L265.989 204.709L258.445 200.35ZM248.05 192.135L248.553 191.884L256.098 196.243L255.595 196.494L248.05 192.135ZM253.247 189.201L253.75 188.95L273.534 200.35L273.031 200.602L253.247 189.201ZM255.008 188.111L255.511 187.86L275.294 199.261L274.791 199.512L255.008 188.111ZM256.852 187.105L257.355 186.854L277.139 198.255L276.636 198.506L256.852 187.105ZM258.612 186.016L259.115 185.764L278.899 197.165L278.396 197.416L258.612 186.016ZM260.457 185.01L260.96 184.758L280.743 196.159L280.24 196.41L260.457 185.01ZM262.217 183.92L262.72 183.668L282.504 195.069L282.001 195.321L262.217 183.92ZM264.061 182.914L264.564 182.663L284.348 194.063L283.845 194.315L264.061 182.914ZM267.163 181.07L268.085 180.567L281.414 188.279L280.492 188.782L267.163 181.07ZM294.659 191.213L269.175 176.459L234.973 196.327L260.457 211.08L294.659 191.213Z" fill="#285EE0"/>
<path d="M281.496 188.195L268.084 180.567L267.162 181.07L280.49 188.782L281.496 188.195Z" fill="#163173"/>
<path d="M284.347 194.063L264.563 182.579L264.06 182.914L283.844 194.315L284.347 194.063Z" fill="#163173"/>
<path d="M282.503 195.069L262.719 183.668L262.216 183.92L282.084 195.321L282.503 195.069Z" fill="#163173"/>
<path d="M280.742 196.159L260.958 184.675L260.456 185.01L280.239 196.411L280.742 196.159Z" fill="#163173"/>
<path d="M278.898 197.165L259.115 185.764L258.612 186.016L278.479 197.416L278.898 197.165Z" fill="#163173"/>
<path d="M277.137 198.255L257.27 186.77L256.851 187.105L276.635 198.506L277.137 198.255Z" fill="#163173"/>
<path d="M275.294 199.261L255.51 187.86L255.007 188.111L274.791 199.596L275.294 199.261Z" fill="#163173"/>
<path d="M273.449 200.35L253.665 188.866L253.246 189.201L273.03 200.602L273.449 200.35Z" fill="#163173"/>
<path d="M256.097 196.243L248.552 191.884L248.049 192.135L255.594 196.494L256.097 196.243Z" fill="#163173"/>
<path d="M254.252 197.332L246.708 192.973L246.205 193.225L253.749 197.584L254.252 197.332Z" fill="#163173"/>
<path d="M266.491 204.374L258.947 200.015L258.444 200.35L265.988 204.709L266.491 204.374Z" fill="#163173"/>
<path opacity="0.5" d="M135.635 156.927L169.837 176.795L195.321 162.041L161.119 142.173L135.635 156.927Z" fill="url(#paint23_linear)"/>
<path d="M136.054 155.418L170.256 175.286L195.74 160.532L161.538 140.665L136.054 155.418Z" fill="#EFCF8A"/>
<path d="M149.215 152.484L162.544 144.772L163.466 145.359L150.137 152.987L149.215 152.484Z" fill="#163173"/>
<path d="M146.365 158.268L166.148 146.868L166.651 147.119L146.868 158.52L146.365 158.268Z" fill="#163173"/>
<path d="M148.209 159.358L167.993 147.957L168.412 148.209L148.628 159.609L148.209 159.358Z" fill="#163173"/>
<path d="M149.969 160.364L169.753 148.963L170.256 149.215L150.472 160.616L149.969 160.364Z" fill="#163173"/>
<path d="M151.814 161.454L171.597 150.053L172.017 150.305L152.233 161.706L151.814 161.454Z" fill="#163173"/>
<path d="M153.574 162.46L173.358 151.059L173.861 151.311L154.077 162.795L153.574 162.46Z" fill="#163173"/>
<path d="M155.419 163.55L175.202 152.149L175.621 152.401L155.838 163.801L155.419 163.55Z" fill="#163173"/>
<path d="M157.179 164.556L176.962 153.155L177.465 153.407L157.682 164.891L157.179 164.556Z" fill="#163173"/>
<path d="M174.615 160.532L182.16 156.173L182.579 156.425L175.035 160.784L174.615 160.532Z" fill="#163173"/>
<path d="M176.459 161.538L184.004 157.263L184.423 157.514L176.878 161.873L176.459 161.538Z" fill="#163173"/>
<path d="M164.22 168.664L171.765 164.304L172.184 164.556L164.639 168.915L164.22 168.664Z" fill="#163173"/>
<path d="M156.089 195.489L132.617 208.901H129.683V210.997C129.683 211.248 129.767 211.5 130.018 211.667L165.645 232.205C166.232 232.541 166.987 232.541 167.657 232.205L193.393 217.535C193.644 217.368 193.728 217.2 193.728 216.949V215.272L156.089 195.489Z" fill="#163173"/>
<path d="M193.728 215.188L155.921 193.393L160.867 164.556L198.674 186.351L193.728 215.188Z" fill="#163173"/>
<path d="M192.303 212.338L158.017 192.555L162.292 167.406L196.578 187.19L192.303 212.338Z" fill="url(#paint24_linear)"/>
<path d="M156.089 193.393L130.018 208.314C129.515 208.566 129.515 209.32 130.018 209.572L165.645 230.11C166.232 230.445 166.986 230.445 167.657 230.11L193.728 215.188L156.089 193.393Z" fill="#214AAD"/>
<path d="M157.933 197.417L145.945 204.123L174.447 220.553L186.351 213.847L157.933 197.417Z" fill="#163173"/>
<path d="M152.4 211.081L145.275 215.021C144.94 215.188 144.94 215.607 145.275 215.775L153.993 220.805C154.58 221.14 155.167 221.14 155.754 220.805L162.795 216.865C163.13 216.697 163.13 216.278 162.795 216.11L154.077 211.081C153.658 210.745 152.987 210.745 152.4 211.081Z" fill="#163173"/>
<path d="M118.45 173.693C113.839 173.19 105.205 179.142 99.253 189.872C93.3012 200.602 92.6306 207.14 101.6 207.308C110.57 207.476 118.45 173.693 118.45 173.693Z" fill="#B03C5D"/>
<path d="M147.538 168.244C146.616 171.932 147.035 173.944 147.035 173.944H146.197C146.197 173.944 145.191 177.884 144.269 178.555C142.928 179.393 139.742 178.555 139.742 178.555L143.933 166.483C143.85 166.4 147.035 167.322 147.538 168.244Z" fill="#D97E7E"/>
<path d="M118.45 173.693C118.45 173.693 122.893 174.028 131.527 177.297C137.982 179.728 144.017 184.758 146.7 187.273C147.622 188.111 148.125 189.369 148.041 190.626C147.622 195.907 146.281 210.41 143.598 215.942C140.329 222.816 135.215 228.684 133.287 233.379C131.359 237.989 130.605 240.001 124.988 240.839C119.372 241.678 103.696 238.408 97.4926 232.792C91.2893 227.175 96.9058 216.026 99.0015 208.984C101.013 201.943 109.061 175.118 118.45 173.693Z" fill="#FF5787"/>
<path d="M136.054 207.308C136.054 207.308 131.862 213.176 130.772 221.056C129.934 227.175 125.826 235.474 125.491 240.756C130.689 239.833 131.443 237.905 133.287 233.379C134.377 230.696 136.473 227.678 138.736 224.241C138.317 221.978 136.221 211.08 136.054 207.308Z" fill="#B03C5D"/>
<path d="M169.25 219.966C169.25 219.966 173.022 217.954 173.86 216.781C174.698 215.523 174.699 215.439 176.04 214.769C177.381 214.098 177.968 214.182 177.632 214.517C177.381 214.853 175.956 215.607 175.956 216.026C175.956 216.026 178.555 214.182 180.986 214.266C181.992 214.266 177.465 215.775 177.13 216.697C181.153 214.936 181.908 214.936 182.411 215.272C182.83 215.607 178.722 216.948 177.968 217.535C181.153 216.781 182.578 216.194 182.83 216.613C183.081 217.032 178.555 218.373 178.555 218.373C178.555 218.373 181.237 217.787 181.405 218.206C181.489 218.541 179.058 218.96 178.471 219.295C177.884 219.631 176.124 220.301 175.369 220.385L170.675 223.655L169.25 219.966Z" fill="#D97E7E"/>
<path d="M139.491 158.855C135.718 158.771 132.365 159.358 130.94 163.298C129.431 167.238 128.341 168.831 125.827 171.01C123.228 173.19 122.893 176.375 121.635 178.387C120.378 180.315 115.013 179.98 113.839 185.093C112.582 190.207 108.306 191.548 110.067 196.075C111.743 200.602 121.97 205.967 126.246 203.871C130.521 201.775 128.844 195.991 132.617 193.392C136.389 190.794 137.646 188.95 137.982 185.261C138.317 181.573 141.503 181.824 142.508 178.303C143.514 174.782 143.766 170.759 146.029 169.753C148.376 168.747 151.227 167.992 151.897 163.969C152.4 160.867 148.628 153.825 139.491 158.855Z" fill="#471312"/>
<path d="M147.538 188.279C151.31 193.392 153.574 212.17 155.418 224.661L171.094 218.206C171.094 218.206 175.285 219.547 174.279 225.834C174.279 225.834 161.034 239.414 149.466 239.666C144.939 239.75 141.586 237.822 138.988 225.499C136.389 213.176 136.473 209.32 135.886 203.2C134.964 193.392 144.436 184.087 147.538 188.279Z" fill="#FF5787"/>
<path d="M139.659 193.896C139.659 193.896 135.886 197.835 135.886 200.518" stroke="#963350" stroke-width="0.8048" stroke-miterlimit="10"/>
<path d="M138.652 223.571C138.652 223.571 135.718 209.907 135.97 203.116" stroke="#963350" stroke-width="0.8048" stroke-miterlimit="10"/>
<path d="M193.477 135.635C196.83 137.563 196.83 140.665 193.477 142.677C190.123 144.605 184.591 144.605 181.238 142.677C177.884 140.749 177.884 137.563 181.238 135.635C184.507 133.707 190.04 133.707 193.477 135.635Z" fill="#A9BDE8"/>
<path d="M180.567 130.018H183.166V131.443H180.399C179.142 131.443 178.052 132.449 178.052 133.791C178.052 135.048 179.058 136.138 180.399 136.138H183.166V137.563H180.567C178.471 137.563 176.795 135.886 176.795 133.791C176.795 131.695 178.471 130.018 180.567 130.018Z" fill="url(#paint25_linear)"/>
<path d="M193.225 128.593V138.233C193.225 139.072 192.638 139.994 191.548 140.581C189.285 141.922 185.513 141.922 183.249 140.581C182.076 139.91 181.573 139.072 181.489 138.233V128.593H193.225Z" fill="url(#paint26_linear)"/>
<path d="M191.465 126.162C193.728 127.504 193.728 129.599 191.465 130.941C189.201 132.282 185.429 132.282 183.166 130.941C180.902 129.599 180.818 127.504 183.166 126.162C185.429 124.905 189.201 124.905 191.465 126.162Z" fill="white"/>
<path d="M191.045 126.498C193.141 127.587 193.141 129.432 191.045 130.605C188.95 131.695 185.597 131.695 183.585 130.605C181.489 129.515 181.489 127.671 183.585 126.498C185.597 125.408 189.034 125.408 191.045 126.498Z" fill="#A9BDE8"/>
<path d="M183.585 127.42C185.681 126.33 189.034 126.33 191.046 127.42C191.884 127.839 192.387 128.426 192.555 129.012C192.387 129.599 191.884 130.186 191.046 130.605C188.95 131.695 185.597 131.695 183.585 130.605C182.747 130.186 182.244 129.599 182.076 129.012C182.244 128.426 182.747 127.839 183.585 127.42Z" fill="url(#paint27_linear)"/>
<path d="M246.373 141.838L232.122 148.544V149.885L265.988 169.418L280.239 161.454V160.113L246.373 141.838Z" fill="#163173"/>
<path d="M246.373 140.497L232.122 148.544L265.989 168.076L280.24 160.112L246.373 140.497Z" fill="#4A70C9"/>
<path opacity="0.5" d="M276.048 162.46L280.24 160.112L246.373 140.497L232.122 148.544L247.966 157.681L276.048 162.46Z" fill="url(#paint28_linear)"/>
<path d="M216.697 158.939C209.907 162.795 209.823 169.166 216.697 173.106C223.487 177.046 234.636 177.046 241.51 173.106C248.384 169.166 248.384 162.795 241.51 158.939C234.636 155.083 223.487 155.083 216.697 158.939Z" fill="#214AAD"/>
<path d="M216.697 157.43C209.907 161.286 209.823 167.657 216.697 171.597C223.487 175.537 234.636 175.537 241.51 171.597C248.384 167.657 248.384 161.286 241.51 157.43C234.636 153.574 223.487 153.574 216.697 157.43Z" fill="#163173"/>
<path opacity="0.5" d="M226.505 163.801L232.038 168.076L245.87 161.789C245.115 160.197 243.606 158.688 241.427 157.43C238.325 155.67 234.301 154.748 230.194 154.58L226.505 163.801Z" fill="url(#paint29_linear)"/>
<path d="M215.104 98.6663L258.527 123.731V157.179L257.018 158.101L215.104 132.114L213.511 99.5884L215.104 98.6663Z" fill="#214AAD"/>
<path d="M213.511 99.5884L257.018 124.653V158.101L213.511 132.952V99.5884Z" fill="#163173"/>
<path d="M229.271 125.491L240.253 131.779L233.798 167.406L232.121 168.076L222.565 162.879L229.271 125.491Z" fill="#214AAD"/>
<path d="M238.828 130.94L240.253 131.778L233.798 167.405L232.122 168.076L238.828 130.94Z" fill="#4A70C9"/>
<path d="M102.523 149.718L2.096 209.655L0.25177 208.565V149.047L102.523 90.1995L104.283 91.2054L102.523 149.718Z" fill="#BAD0FF"/>
<path d="M104.283 150.724L2.09601 209.655V150.053L104.283 91.2056V150.724Z" fill="#D1E0FF"/>
<path d="M97.0739 109.061V146.868L9.1377 197.5V190.962C9.1377 190.962 14.2512 183.585 19.8678 182.579C25.5681 181.573 31.2685 170.927 39.3998 165.31C47.5312 159.694 50.2137 161.202 57.7583 154.915C65.219 148.628 65.722 141.922 73.7696 136.138C86.4277 126.917 85.8409 116.522 97.0739 109.061Z" fill="#FF5787"/>
<path d="M97.0739 123.983C97.0739 123.983 89.2779 120.797 79.9729 126.581C70.5841 132.366 68.0692 150.64 62.0336 154.496C56.417 158.101 50.2137 152.82 45.3517 159.107C40.4896 165.478 39.5675 174.699 34.2024 178.974C28.8374 183.25 24.5622 181.489 16.6823 180.316C13.2453 179.813 9.1377 180.651 9.1377 180.651V197.417L97.0739 146.784V123.983Z" fill="#FCBC19"/>
<path d="M9.05405 197.5V156.76" stroke="#163173" stroke-width="0.6267" stroke-miterlimit="10"/>
<path d="M10.3115 154.831C10.3115 155.586 9.8085 156.424 9.13787 156.843C8.46724 157.262 7.96426 156.927 7.96426 156.257C7.96426 155.502 8.46724 154.664 9.13787 154.245C9.72467 153.825 10.3115 154.077 10.3115 154.831Z" stroke="#163173" stroke-width="0.6267" stroke-miterlimit="10"/>
<path d="M31.1009 144.101V184.842" stroke="#163173" stroke-width="0.6267" stroke-miterlimit="10"/>
<path d="M32.2745 142.173C32.2745 142.928 31.7715 143.766 31.1008 144.185C30.4302 144.604 29.9272 144.269 29.9272 143.598C29.9272 142.844 30.4302 142.006 31.1008 141.586C31.7715 141.167 32.2745 141.419 32.2745 142.173Z" stroke="#163173" stroke-width="0.6267" stroke-miterlimit="10"/>
<path d="M53.0635 131.443V172.184" stroke="#163173" stroke-width="0.6267" stroke-miterlimit="10"/>
<path d="M54.2375 129.515C54.2375 130.269 53.7345 131.108 53.0639 131.527C52.3932 131.946 51.8903 131.611 51.8903 130.94C51.8903 130.269 52.3932 129.347 53.0639 128.928C53.7345 128.509 54.2375 128.761 54.2375 129.515Z" stroke="#163173" stroke-width="0.6267" stroke-miterlimit="10"/>
<path d="M75.0268 118.786V159.526" stroke="#163173" stroke-width="0.6267" stroke-miterlimit="10"/>
<path d="M76.2842 116.858C76.2842 117.612 75.7812 118.45 75.1106 118.869C74.4399 119.289 73.937 118.953 73.937 118.283C73.937 117.612 74.4399 116.69 75.1106 116.271C75.7812 115.852 76.2842 116.103 76.2842 116.858Z" stroke="#163173" stroke-width="0.6267" stroke-miterlimit="10"/>
<path d="M97.0732 106.127V146.868" stroke="#163173" stroke-width="0.6267" stroke-miterlimit="10"/>
<path d="M98.2472 104.116C98.2472 104.87 97.7442 105.708 97.0736 106.127C96.4029 106.547 95.9 106.211 95.9 105.541C95.9 104.87 96.4029 103.948 97.0736 103.529C97.7442 103.193 98.2472 103.445 98.2472 104.116Z" stroke="#163173" stroke-width="0.6267" stroke-miterlimit="10"/>
<path d="M135.048 118.282L134.712 124.066C134.712 124.066 157.179 108.725 159.861 106.63C159.861 106.63 160.951 104.199 162.795 101.6C164.555 99.0012 165.394 97.9115 165.897 98.3306C166.4 98.6659 164.053 101.768 164.807 102.271C165.645 102.857 169.669 99.9233 169.669 99.9233C169.669 99.9233 171.513 96.4025 172.016 96.7378C172.519 97.0732 172.016 99.1689 172.016 99.1689C172.016 99.1689 172.435 99.3365 172.016 100.929C171.597 102.606 172.1 103.025 171.597 104.115C171.01 105.205 167.07 107.971 163.633 108.39C163.633 108.39 144.185 147.622 128.174 147.035C112.163 146.448 116.438 119.791 116.438 119.791L135.048 118.282Z" fill="#D97E7E"/>
<path d="M134.713 123.982C134.713 123.982 130.521 126.413 129.012 129.431" stroke="#D95757" stroke-width="0.4987" stroke-miterlimit="10"/>
<path d="M135.048 118.282L116.354 119.791C116.354 119.791 115.767 123.479 115.851 128.09C121.552 129.85 132.449 123.06 134.88 121.383L135.048 118.282Z" fill="#D95757"/>
<path d="M127.336 78.9663C122.725 82.4871 119.288 84.1637 117.444 92.2951C115.6 100.343 115.6 106.881 114.091 112.749C112.582 118.617 113.336 120.294 113.336 120.294C113.336 120.294 123.144 126.497 136.305 119.456C136.305 119.456 137.898 107.133 138.401 100.343C138.988 91.6244 135.803 82.9063 127.336 78.9663Z" fill="#5C9DAD"/>
<path d="M136.641 88.6904C136.641 88.6904 140.581 92.9657 136.221 119.372" stroke="#296C7C" stroke-width="0.4987" stroke-miterlimit="10" stroke-linecap="round" stroke-linejoin="round"/>
<path d="M135.299 82.9062C135.299 82.9062 139.826 87.8521 138.233 96.5703" stroke="#296C7C" stroke-width="0.4987" stroke-miterlimit="10" stroke-linecap="round" stroke-linejoin="round"/>
<path d="M59.686 282.838C63.7602 282.838 67.063 278.409 67.063 272.946C67.063 267.483 63.7602 263.054 59.686 263.054C55.6119 263.054 52.3091 267.483 52.3091 272.946C52.3091 278.409 55.6119 282.838 59.686 282.838Z" fill="#FCBC19"/>
<path d="M363.816 190.207C367.474 190.207 370.439 186.229 370.439 181.321C370.439 176.414 367.474 172.435 363.816 172.435C360.159 172.435 357.194 176.414 357.194 181.321C357.194 186.229 360.159 190.207 363.816 190.207Z" fill="#FCBC19"/>
<path d="M363.313 265.317C359.373 267.916 357.78 270.012 355.852 275.293C353.924 270.012 352.332 267.916 348.392 265.317C352.332 262.719 353.924 260.623 355.852 255.342C357.78 260.623 359.373 262.719 363.313 265.317Z" fill="#FCBC19"/>
<path d="M83.3258 77.1226C80.4756 78.9668 79.302 80.5596 77.9607 84.3319C76.5357 80.4757 75.4459 78.9668 72.5957 77.1226C75.4459 75.2784 76.6195 73.6856 77.9607 69.9133C79.302 73.7694 80.4756 75.2784 83.3258 77.1226Z" fill="#FCBC19"/>
<path d="M117.78 211.668L88.0203 194.399C86.6791 193.644 85.254 193.728 84.0804 194.315C83.9966 194.315 83.9966 194.399 83.9127 194.399L81.2302 195.908L81.9847 208.314V253.833L115.935 273.198L118.115 277.557L118.953 277.976C120.043 278.647 121.468 278.647 122.642 277.976C123.228 277.641 123.564 277.054 123.564 276.383V226.086V221.308C123.312 217.368 121.216 213.679 117.78 211.668Z" fill="#214AAD"/>
<path d="M85.254 195.992L115.013 213.261C118.45 215.272 120.63 218.961 120.63 222.985V276.3C120.63 277.557 119.288 278.312 118.199 277.725L80.9788 256.516C79.8052 255.845 79.1346 254.672 79.1346 253.331V199.513C79.1346 196.327 82.5715 194.399 85.254 195.992Z" fill="#163173"/>
<path d="M106.966 285.521V240.002C106.966 235.726 104.702 231.703 100.93 229.523L98.9181 228.349C96.487 226.924 93.3854 228.685 93.3854 231.535V277.808" stroke="#CFA028" stroke-width="3.5019" stroke-miterlimit="10" stroke-linecap="round" stroke-linejoin="round"/>
<path d="M252.409 221.895C252.409 221.895 249.475 220.721 248.972 218.542C248.469 216.362 247.547 213.26 246.708 213.093C245.87 212.925 247.463 214.937 246.876 215.775C246.205 216.614 244.948 215.859 244.026 213.26C243.104 210.662 243.271 209.907 242.852 209.823C242.433 209.74 242.265 211.919 243.439 214.182C243.439 214.182 241.511 212.59 240.673 211.081C239.834 209.572 239.499 210.829 240.17 212.003C240.84 213.177 242.768 215.272 242.768 215.272C242.768 215.272 241.427 214.937 239.918 213.512C238.409 212.087 238.661 213.26 239.164 214.015C239.667 214.769 241.93 216.194 241.93 216.194C241.93 216.194 240.002 215.943 238.828 214.937C237.655 213.931 237.739 215.356 238.828 215.943C239.918 216.53 242.014 217.2 242.852 218.374C243.69 219.548 243.942 220.134 245.702 221.308C247.379 222.482 250.397 225.751 250.397 225.751L252.409 221.895Z" fill="#D97E7E"/>
<path d="M309.412 181.489C315.448 180.651 320.142 183.25 322.824 188.196C325.507 193.142 327.854 199.764 327.938 204.375C328.022 208.901 320.226 208.398 320.226 208.398L309.412 181.489Z" fill="#E86F38"/>
<path d="M290.886 167.406C290.886 167.406 290.886 167.49 290.802 167.574C290.634 168.328 289.88 170.759 288.874 172.1L289.545 172.603C289.545 172.603 289.125 175.705 289.377 177.382C289.545 179.058 291.892 178.387 292.227 179.896C292.562 181.489 292.395 185.261 292.395 185.261L300.191 182.83L300.359 171.849L294.155 166.568L290.886 167.406Z" fill="#D97E7E"/>
<path d="M297.676 185.262C297.676 185.262 282.754 191.884 279.569 198.59C276.383 205.297 282.503 219.631 285.437 226.757C288.371 233.882 284.934 238.158 286.443 244.361C287.952 250.48 299.017 251.403 312.765 245.618C326.513 239.834 323.16 229.356 323.663 220.721C324.166 212.087 320.812 190.794 318.13 186.352C315.447 181.909 311.759 181.406 309.496 181.573C307.065 181.657 299.855 184.256 297.676 185.262Z" fill="url(#paint30_linear)"/>
<path opacity="0.5" d="M279.569 209.991C280.994 216.11 283.761 222.565 285.437 226.673C288.371 233.714 284.934 238.073 286.443 244.193C288.958 244.696 291.054 243.606 291.808 239.498C294.491 225.415 288.958 205.296 288.958 205.296L279.569 209.991Z" fill="url(#paint31_linear)"/>
<path d="M281.832 195.405C286.778 193.225 293.317 202.027 286.862 216.446C280.407 230.864 274.204 241.51 266.659 241.678C261.043 241.762 251.067 229.355 248.301 226.002C248.72 221.224 252.66 220.637 252.66 220.637L264.061 225.08C264.061 225.08 269.845 213.679 272.024 208.733C274.623 202.949 279.82 196.327 281.832 195.405Z" fill="url(#paint32_linear)"/>
<path d="M292.06 162.46C290.97 163.718 289.545 165.897 290.718 168.999C291.892 172.017 293.485 174.196 293.485 174.196C293.485 174.196 293.317 172.352 294.239 172.687C295.161 173.022 294.071 175.873 293.485 177.801C292.898 179.729 292.227 181.908 292.479 187.19C292.479 187.19 293.652 188.782 297.089 188.028C300.526 187.273 299.353 186.016 302.035 185.848C304.718 185.681 305.053 185.513 306.562 184.423C308.071 183.333 310.25 182.663 310.25 182.663C310.25 182.663 309.496 174.448 308.406 169.753C307.4 165.143 305.053 161.37 300.778 160.364C296.419 159.358 293.401 160.784 292.06 162.46Z" fill="#163173"/>
<path d="M288.79 211.081C288.79 211.081 286.527 217.704 283.844 222.985" stroke="#9E4724" stroke-width="0.8048" stroke-miterlimit="10" stroke-linecap="round" stroke-linejoin="round"/>
<path d="M264.06 225.08C264.06 225.08 263.306 227.26 263.222 229.439" stroke="#9E4724" stroke-width="0.8048" stroke-miterlimit="10" stroke-linecap="round" stroke-linejoin="round"/>
<path d="M297.257 212.925L327.016 195.656C328.357 194.902 329.782 194.985 330.956 195.572C331.04 195.572 331.04 195.656 331.123 195.656L333.806 197.165L333.051 209.572V255.09L299.185 274.539L297.005 278.898L296.167 279.317C295.077 279.988 293.652 279.988 292.478 279.317C291.892 278.982 291.556 278.395 291.556 277.724V227.427V222.649C291.64 218.625 293.82 214.937 297.257 212.925Z" fill="#214AAD"/>
<path d="M329.782 197.249L300.023 214.518C296.586 216.529 294.407 220.218 294.407 224.242V277.557C294.407 278.814 295.748 279.569 296.838 278.982L333.974 257.773C335.147 257.103 335.818 255.929 335.818 254.588V200.77C335.902 197.668 332.465 195.656 329.782 197.249Z" fill="#163173"/>
<path d="M308.07 286.778V241.259C308.07 236.983 310.334 232.96 314.106 230.78L316.118 229.606C318.549 228.181 321.651 229.942 321.651 232.792V279.149" stroke="#CFA028" stroke-width="3.5019" stroke-miterlimit="10" stroke-linecap="round" stroke-linejoin="round"/>
<path d="M209.152 218.709C205.799 220.637 205.799 223.739 209.152 225.751C212.506 227.679 218.038 227.679 221.391 225.751C224.745 223.823 224.745 220.637 221.391 218.709C218.038 216.865 212.506 216.865 209.152 218.709Z" fill="#A9BDE8"/>
<path d="M222.062 213.177H219.463V214.602H222.23C223.487 214.602 224.577 215.608 224.577 216.949C224.577 218.207 223.571 219.297 222.23 219.297H219.463V220.722H222.062C224.158 220.722 225.834 219.045 225.834 216.949C225.834 214.854 224.158 213.177 222.062 213.177Z" fill="url(#paint33_linear)"/>
<path d="M209.404 211.668V221.308C209.404 222.147 209.99 223.069 211.08 223.655C213.344 224.997 217.116 224.997 219.379 223.655C220.553 222.985 221.056 222.147 221.14 221.308V211.668H209.404Z" fill="url(#paint34_linear)"/>
<path d="M211.08 209.321C208.817 210.662 208.817 212.758 211.08 214.099C213.344 215.44 217.116 215.44 219.379 214.099C221.643 212.758 221.726 210.662 219.379 209.321C217.116 207.979 213.427 207.979 211.08 209.321Z" fill="white"/>
<path d="M211.5 209.656C209.404 210.746 209.404 212.59 211.5 213.764C213.595 214.853 216.948 214.853 218.96 213.764C221.056 212.674 221.056 210.83 218.96 209.656C216.948 208.566 213.595 208.566 211.5 209.656Z" fill="#A9BDE8"/>
<path d="M219.044 210.494C216.949 209.404 213.595 209.404 211.584 210.494C210.745 210.913 210.242 211.5 210.075 212.087C210.242 212.674 210.745 213.26 211.584 213.68C213.679 214.769 217.032 214.769 219.044 213.68C219.883 213.26 220.386 212.674 220.553 212.087C220.386 211.5 219.883 210.913 219.044 210.494Z" fill="url(#paint35_linear)"/>
<path d="M215.188 211.668C215.188 211.668 213.763 207.979 216.613 206.806C217.283 202.614 219.882 199.848 222.481 200.351C225.75 196.327 229.942 193.98 233.798 194.651C237.821 191.717 244.947 193.058 245.869 196.746C246.791 200.435 240.756 204.123 236.899 203.033C234.133 204.961 227.427 206.47 224.409 204.794C222.565 207.56 218.122 207.812 218.122 207.812C218.122 207.812 217.283 210.913 215.188 211.668Z" fill="url(#paint36_linear)"/>
<path d="M256.6 39.0641L242.433 34.0344C241.762 23.472 233.044 15.0891 222.314 15.0891C211.165 15.0891 202.195 24.1426 202.195 35.208C202.195 46.3572 211.248 55.3269 222.314 55.3269C231.786 55.3269 239.666 48.7882 241.846 40.07L256.6 39.0641Z" fill="white"/>
<path opacity="0.5" d="M256.013 39.5672L241.678 35.2081C240.589 24.7295 231.451 16.682 220.805 17.1849C209.656 17.6879 201.105 27.0767 201.608 38.2259C202.111 49.3751 211.5 57.9257 222.649 57.4227C232.038 57.0035 239.666 50.1296 241.511 41.3276L256.013 39.5672Z" fill="url(#paint37_linear)"/>
<path d="M235.643 24.0591L224.996 28.1667L226.757 29.5079L221.643 36.9687L214.518 33.3641L209.823 41.8308L210.326 42.2499L215.105 36.6334L223.068 41.8308L231.451 33.1126L233.044 34.37L235.643 24.0591Z" fill="url(#paint38_linear)"/>
<path d="M111.576 70.7512H106.546H101.516L102.355 76.8707C102.355 77.4575 102.774 78.0443 103.528 78.4635C105.121 79.3017 107.72 79.3017 109.396 78.4635C110.234 78.0443 110.57 77.4575 110.57 76.8707L111.576 70.7512Z" fill="#163173"/>
<path d="M115.18 62.7036H106.63H98.0791L99.588 73.1822C99.588 74.1881 100.259 75.1102 101.6 75.8647C104.366 77.3736 108.893 77.3736 111.576 75.8647C112.917 75.1102 113.671 74.1043 113.671 73.1822L115.18 62.7036Z" fill="#214AAD"/>
<path d="M98.0791 62.7036L98.4982 65.8891C98.8336 66.2244 99.2527 66.4759 99.6718 66.8112C103.444 69.0746 109.647 69.0746 113.42 66.8112C113.923 66.5597 114.342 66.2244 114.677 65.8891L115.096 62.7036H106.546H98.0791Z" fill="#163173"/>
<path d="M122.222 45.4348C122.305 44.5965 122.389 43.8421 122.389 43.0038C122.389 33.9503 115.348 26.6572 106.63 26.6572C97.9114 26.6572 90.8698 33.9503 90.8698 43.0038C90.8698 43.8421 90.9536 44.6804 91.0374 45.5187C91.0374 45.7702 91.1212 45.9378 91.1212 46.1893C91.1212 46.2731 91.1212 46.357 91.2051 46.4408C92.7978 55.6619 98.079 59.518 98.079 62.8712C98.079 64.0448 98.9173 65.2184 100.594 66.1405C103.947 67.9847 109.396 67.9847 112.749 66.1405C114.426 65.2184 115.264 64.0448 115.264 62.8712C115.264 59.518 120.545 55.6619 122.138 46.4408C122.138 46.357 122.138 46.2731 122.222 46.1893C122.138 45.854 122.222 45.6025 122.222 45.4348Z" fill="url(#paint39_linear)"/>
<path d="M100.594 59.4343C97.2408 61.1947 97.2408 64.2125 100.594 66.0568C103.947 67.901 109.396 67.901 112.749 66.0568C116.102 64.2125 116.102 61.2785 112.749 59.4343C109.312 57.6739 103.863 57.6739 100.594 59.4343Z" fill="#FFB637"/>
<path d="M99.0013 64.883C99.4205 65.3021 99.9235 65.7213 100.594 66.0566C103.947 67.9008 109.396 67.9008 112.749 66.0566C113.42 65.7213 113.923 65.3021 114.342 64.883C114.174 63.9609 113.42 63.0388 112.162 62.3681C109.145 60.7754 104.283 60.7754 101.265 62.3681C99.9235 63.0388 99.169 63.9609 99.0013 64.883Z" fill="url(#paint40_linear)"/>
<path d="M108.977 64.799C109.061 59.8531 111.995 48.4524 110.486 46.5243C109.312 45.0154 108.306 48.2009 108.306 48.2009C108.474 45.7699 107.636 43.5903 106.63 43.5903C105.54 43.5903 104.785 45.7699 104.953 48.2009C104.953 48.2009 103.947 45.0154 102.774 46.5243C101.265 48.4524 104.199 59.8531 104.282 64.799" stroke="white" stroke-width="0.7758" stroke-miterlimit="10" stroke-linecap="round" stroke-linejoin="round"/>
<path d="M106.462 11.4004V21.7113" stroke="#FCBC19" stroke-width="2.1462" stroke-miterlimit="10" stroke-linecap="round" stroke-linejoin="round"/>
<path d="M91.2053 15.5078L96.4026 24.4775" stroke="#FCBC19" stroke-width="2.1462" stroke-miterlimit="10" stroke-linecap="round" stroke-linejoin="round"/>
<path d="M80.056 26.6572L89.0257 31.8546" stroke="#FCBC19" stroke-width="2.1462" stroke-miterlimit="10" stroke-linecap="round" stroke-linejoin="round"/>
<path d="M124.15 31.7709L133.12 26.5735" stroke="#FCBC19" stroke-width="2.1462" stroke-miterlimit="10" stroke-linecap="round" stroke-linejoin="round"/>
<path d="M116.773 24.31L121.97 15.3403" stroke="#FCBC19" stroke-width="2.1462" stroke-miterlimit="10" stroke-linecap="round" stroke-linejoin="round"/>
<path d="M209.152 218.709C205.799 220.637 205.799 223.739 209.152 225.75C212.505 227.679 218.038 227.679 221.391 225.75C224.744 223.822 224.744 220.637 221.391 218.709C218.038 216.865 212.505 216.865 209.152 218.709Z" fill="#A9BDE8"/>
<defs>
<linearGradient id="paint0_linear" x1="295.92" y1="308.8" x2="295.92" y2="291.848" gradientUnits="userSpaceOnUse">
<stop stop-opacity="0"/>
<stop offset="1"/>
</linearGradient>
<linearGradient id="paint1_linear" x1="239.719" y1="187.735" x2="239.719" y2="-95.5702" gradientUnits="userSpaceOnUse">
<stop stop-color="white" stop-opacity="0"/>
<stop offset="0.2325" stop-color="#DEE8FF" stop-opacity="0.2325"/>
<stop offset="0.5742" stop-color="#B3CBFF" stop-opacity="0.5742"/>
<stop offset="0.8417" stop-color="#99B9FF" stop-opacity="0.8417"/>
<stop offset="1" stop-color="#8FB2FF"/>
</linearGradient>
<linearGradient id="paint2_linear" x1="277.684" y1="114.851" x2="273.486" y2="144.386" gradientUnits="userSpaceOnUse">
<stop stop-opacity="0"/>
<stop offset="1"/>
</linearGradient>
<linearGradient id="paint3_linear" x1="257.256" y1="242.342" x2="307.213" y2="242.342" gradientUnits="userSpaceOnUse">
<stop stop-opacity="0"/>
<stop offset="1"/>
</linearGradient>
<linearGradient id="paint4_linear" x1="153.108" y1="260.224" x2="175.195" y2="260.224" gradientUnits="userSpaceOnUse">
<stop stop-opacity="0"/>
<stop offset="1"/>
</linearGradient>
<linearGradient id="paint5_linear" x1="119.11" y1="307.514" x2="119.11" y2="290.562" gradientUnits="userSpaceOnUse">
<stop stop-opacity="0"/>
<stop offset="1"/>
</linearGradient>
<linearGradient id="paint6_linear" x1="120.236" y1="301.067" x2="120.236" y2="249.547" gradientUnits="userSpaceOnUse">
<stop stop-opacity="0"/>
<stop offset="1"/>
</linearGradient>
<linearGradient id="paint7_linear" x1="130.319" y1="246.027" x2="154.037" y2="246.027" gradientUnits="userSpaceOnUse">
<stop stop-opacity="0"/>
<stop offset="1"/>
</linearGradient>
<linearGradient id="paint8_linear" x1="445.929" y1="141.402" x2="390.479" y2="258.826" gradientUnits="userSpaceOnUse">
<stop stop-color="#B7EBCF"/>
<stop offset="0.126" stop-color="#B1E7CE"/>
<stop offset="0.2983" stop-color="#9FDBCB"/>
<stop offset="0.4976" stop-color="#82C7C7"/>
<stop offset="0.7153" stop-color="#5AABC1"/>
<stop offset="0.8412" stop-color="#4099BD"/>
</linearGradient>
<linearGradient id="paint9_linear" x1="318.554" y1="174.284" x2="344.641" y2="143.1" gradientUnits="userSpaceOnUse">
<stop stop-opacity="0"/>
<stop offset="1"/>
</linearGradient>
<linearGradient id="paint10_linear" x1="371.45" y1="218.534" x2="397.536" y2="187.349" gradientUnits="userSpaceOnUse">
<stop stop-opacity="0"/>
<stop offset="1"/>
</linearGradient>
<linearGradient id="paint11_linear" x1="344.578" y1="32.2387" x2="326.812" y2="92.0585" gradientUnits="userSpaceOnUse">
<stop stop-color="#4A70C9"/>
<stop offset="1" stop-color="#163173"/>
</linearGradient>
<linearGradient id="paint12_linear" x1="39.0015" y1="183.673" x2="68.3575" y2="247.604" gradientUnits="userSpaceOnUse">
<stop stop-color="#9BEBC0"/>
<stop offset="0.1233" stop-color="#95E6C0"/>
<stop offset="0.2921" stop-color="#83DAC0"/>
<stop offset="0.4872" stop-color="#66C4C0"/>
<stop offset="0.7003" stop-color="#3EA7BF"/>
<stop offset="0.8412" stop-color="#2091BF"/>
</linearGradient>
<linearGradient id="paint13_linear" x1="174.933" y1="70.3335" x2="174.933" y2="101.439" gradientUnits="userSpaceOnUse">
<stop offset="0.1143" stop-color="#5C9DAD"/>
<stop offset="0.9844" stop-color="#296473"/>
</linearGradient>
<linearGradient id="paint14_linear" x1="159.061" y1="103.811" x2="125.328" y2="138.443" gradientUnits="userSpaceOnUse">
<stop stop-opacity="0"/>
<stop offset="1"/>
</linearGradient>
<linearGradient id="paint15_linear" x1="208.767" y1="271.532" x2="208.767" y2="254.525" gradientUnits="userSpaceOnUse">
<stop stop-opacity="0"/>
<stop offset="1"/>
</linearGradient>
<linearGradient id="paint16_linear" x1="217.793" y1="85.2639" x2="264.37" y2="85.2639" gradientUnits="userSpaceOnUse">
<stop stop-color="#4A70C9"/>
<stop offset="1" stop-color="#163173"/>
</linearGradient>
<linearGradient id="paint17_linear" x1="240.551" y1="98.6453" x2="258.242" y2="64.9124" gradientUnits="userSpaceOnUse">
<stop stop-opacity="0"/>
<stop offset="1"/>
</linearGradient>
<linearGradient id="paint18_linear" x1="279.097" y1="40.5732" x2="279.097" y2="100.501" gradientUnits="userSpaceOnUse">
<stop stop-color="#4A70C9"/>
<stop offset="1" stop-color="#163173"/>
</linearGradient>
<linearGradient id="paint19_linear" x1="289.479" y1="98.0179" x2="300.918" y2="98.0179" gradientUnits="userSpaceOnUse">
<stop stop-opacity="0"/>
<stop offset="1"/>
</linearGradient>
<linearGradient id="paint20_linear" x1="336.33" y1="125.584" x2="288.804" y2="72.6614" gradientUnits="userSpaceOnUse">
<stop stop-color="#4A70C9"/>
<stop offset="1" stop-color="#163173"/>
</linearGradient>
<linearGradient id="paint21_linear" x1="314.79" y1="93.0523" x2="314.453" y2="111.943" gradientUnits="userSpaceOnUse">
<stop stop-opacity="0"/>
<stop offset="1"/>
</linearGradient>
<linearGradient id="paint22_linear" x1="264.788" y1="236.225" x2="264.788" y2="193.154" gradientUnits="userSpaceOnUse">
<stop stop-opacity="0"/>
<stop offset="1"/>
</linearGradient>
<linearGradient id="paint23_linear" x1="165.51" y1="144.778" x2="165.51" y2="194.105" gradientUnits="userSpaceOnUse">
<stop stop-opacity="0"/>
<stop offset="1"/>
</linearGradient>
<linearGradient id="paint24_linear" x1="171.948" y1="201.134" x2="189.939" y2="163.203" gradientUnits="userSpaceOnUse">
<stop stop-color="white"/>
<stop offset="1" stop-color="#8FB2FF"/>
</linearGradient>
<linearGradient id="paint25_linear" x1="179.846" y1="133.814" x2="184.552" y2="133.814" gradientUnits="userSpaceOnUse">
<stop stop-color="white"/>
<stop offset="1" stop-color="#8FB2FF"/>
</linearGradient>
<linearGradient id="paint26_linear" x1="190.34" y1="135.072" x2="202.71" y2="135.072" gradientUnits="userSpaceOnUse">
<stop stop-color="white"/>
<stop offset="1" stop-color="#8FB2FF"/>
</linearGradient>
<linearGradient id="paint27_linear" x1="187.312" y1="126.437" x2="187.312" y2="133.806" gradientUnits="userSpaceOnUse">
<stop stop-color="#D99A9A"/>
<stop offset="0.9487" stop-color="#CF6728"/>
</linearGradient>
<linearGradient id="paint28_linear" x1="232.094" y1="151.515" x2="280.241" y2="151.515" gradientUnits="userSpaceOnUse">
<stop stop-opacity="0"/>
<stop offset="1"/>
</linearGradient>
<linearGradient id="paint29_linear" x1="238.089" y1="158.172" x2="226.507" y2="168.741" gradientUnits="userSpaceOnUse">
<stop stop-opacity="0"/>
<stop offset="1"/>
</linearGradient>
<linearGradient id="paint30_linear" x1="301.129" y1="198.67" x2="301.129" y2="258.859" gradientUnits="userSpaceOnUse">
<stop offset="0.3006" stop-color="#CFA028"/>
<stop offset="0.9487" stop-color="#CF6728"/>
</linearGradient>
<linearGradient id="paint31_linear" x1="286.295" y1="239.139" x2="285.695" y2="197.46" gradientUnits="userSpaceOnUse">
<stop stop-opacity="0"/>
<stop offset="1"/>
</linearGradient>
<linearGradient id="paint32_linear" x1="248.282" y1="218.404" x2="289.586" y2="218.404" gradientUnits="userSpaceOnUse">
<stop offset="0.3006" stop-color="#CFA028"/>
<stop offset="0.9487" stop-color="#CF6728"/>
</linearGradient>
<linearGradient id="paint33_linear" x1="222.738" y1="216.916" x2="218.031" y2="216.916" gradientUnits="userSpaceOnUse">
<stop stop-color="white"/>
<stop offset="1" stop-color="#8FB2FF"/>
</linearGradient>
<linearGradient id="paint34_linear" x1="212.243" y1="218.175" x2="199.873" y2="218.175" gradientUnits="userSpaceOnUse">
<stop stop-color="white"/>
<stop offset="1" stop-color="#8FB2FF"/>
</linearGradient>
<linearGradient id="paint35_linear" x1="215.273" y1="209.539" x2="215.273" y2="216.909" gradientUnits="userSpaceOnUse">
<stop stop-color="#D99A9A"/>
<stop offset="0.9487" stop-color="#CF6728"/>
</linearGradient>
<linearGradient id="paint36_linear" x1="213.063" y1="214.99" x2="244.997" y2="191.302" gradientUnits="userSpaceOnUse">
<stop stop-color="white" stop-opacity="0"/>
<stop offset="0.4885" stop-color="white"/>
<stop offset="1" stop-color="white" stop-opacity="0"/>
</linearGradient>
<linearGradient id="paint37_linear" x1="228.789" y1="70.0785" x2="228.789" y2="39.6774" gradientUnits="userSpaceOnUse">
<stop stop-opacity="0"/>
<stop offset="1"/>
</linearGradient>
<linearGradient id="paint38_linear" x1="234.29" y1="18.7552" x2="219.372" y2="40.1918" gradientUnits="userSpaceOnUse">
<stop offset="0.3006" stop-color="#CFA028"/>
<stop offset="0.9487" stop-color="#CF6728"/>
</linearGradient>
<linearGradient id="paint39_linear" x1="106.617" y1="29.1043" x2="106.617" y2="80.3659" gradientUnits="userSpaceOnUse">
<stop stop-color="#FFB637"/>
<stop offset="0.9487" stop-color="white"/>
</linearGradient>
<linearGradient id="paint40_linear" x1="106.616" y1="60.0136" x2="106.616" y2="70.4699" gradientUnits="userSpaceOnUse">
<stop stop-color="#FFB637"/>
<stop offset="1" stop-color="#214AAD"/>
</linearGradient>
</defs>
</svg>
