<svg width="518" height="352" viewBox="0 0 518 352" fill="none" xmlns="http://www.w3.org/2000/svg">
<path d="M412.106 267.356C458.073 255.619 488.303 207.429 479.323 157.194C479.145 156.127 478.879 154.971 478.701 153.904C474.878 134.521 466.342 114.338 449.716 105.981C435.401 98.7787 418.33 102.068 403.926 109.004C389.522 116.028 376.808 126.341 362.671 133.899C337.42 147.325 307.99 151.237 280.516 144.924C245.663 136.833 215.877 113.271 184.047 95.7557C152.216 78.24 113.717 66.6815 81.5311 83.3969C59.6588 94.7777 44.6326 117.717 35.9193 142.257C17.959 193.114 25.8722 253.663 56.1023 297.141C78.3303 329.239 124.209 328.172 161.196 330.839C225.657 335.462 291.008 322.926 350.045 294.652C368.539 285.761 386.499 275.358 405.971 269.134C408.105 268.423 410.061 267.889 412.106 267.356Z" fill="#E0F2FF"/>
<path d="M405.971 95.0444C409.35 92.377 412.728 89.5318 415.129 85.7975C417.53 82.0632 418.863 77.3509 417.885 72.9053C416.729 67.8373 412.728 64.0141 408.194 62.3248C403.659 60.6355 398.68 60.9911 394.057 62.058C375.83 66.4147 359.115 84.5528 357.247 105.18C355.914 119.94 361.782 119.94 372.007 115.227C384.01 109.804 395.391 103.313 405.971 95.0444Z" fill="#E0F2FF"/>
<path d="M354.047 255.175C345.155 255.175 336.264 252.33 331.463 245.839C318.393 243.528 308.168 230.191 308.168 215.342C308.168 213.386 308.346 211.519 308.613 209.385L308.79 208.052L309.679 209.03C310.124 209.474 310.569 209.83 311.013 210.097C312.702 211.164 314.659 211.608 316.615 211.964C316.97 212.053 317.415 212.142 317.77 212.231C320.616 212.942 323.461 213.831 326.217 215.076L326.395 215.165C327.284 215.609 328.262 215.965 329.151 215.965C329.596 215.965 330.129 215.698 330.485 215.342C330.663 215.165 330.752 214.898 330.752 214.631C330.663 214.009 330.04 213.475 329.24 213.031L316.437 204.762C314.925 203.784 313.236 202.717 311.369 202.45L310.302 202.361L310.569 201.561C312.791 195.426 316.704 189.291 321.594 183.868L322.394 182.978L322.661 184.223C323.016 185.646 324.439 186.802 325.861 187.958C326.217 188.224 326.573 188.491 326.839 188.758C329.062 190.625 330.663 193.114 332.174 195.515C332.619 196.137 332.974 196.76 333.419 197.382C335.108 199.961 337.509 202.984 340.976 204.14C341.243 204.228 341.51 204.317 341.777 204.228C342.221 204.14 342.577 203.606 342.577 203.073C342.577 202.45 342.221 201.739 341.866 201.117C341.065 199.783 339.998 198.538 339.02 197.382C338.22 196.493 337.509 195.515 336.798 194.448C334.664 191.425 333.063 187.869 331.996 183.69L331.819 182.978C331.463 181.467 331.018 179.867 330.218 178.622C329.951 178.266 329.685 177.911 329.329 177.644L328.796 177.11L329.418 176.666C333.419 173.465 337.953 170.442 343.377 167.419L344 167.063L344.355 167.686C344.889 168.753 345.689 169.731 346.4 170.62L346.845 171.242C349.779 175.065 352.002 179.244 353.424 183.868C353.513 184.045 353.691 184.757 353.958 184.846C354.047 184.846 354.047 184.846 354.135 184.846C354.402 184.668 354.58 184.223 354.669 183.69C355.647 178.8 353.513 173.821 351.557 169.997L351.379 169.731C350.579 168.13 349.779 166.53 349.601 164.752C349.601 164.663 349.601 164.485 349.601 164.396V164.04L349.957 163.862C353.602 161.995 357.336 160.217 361.16 158.35L364.627 156.661L364.805 157.55C364.894 158.083 364.983 158.617 365.161 159.15L367.561 170.175C367.739 170.798 367.917 171.42 368.272 171.598C368.628 171.776 369.073 171.509 369.339 171.153C369.695 170.709 369.784 170.086 369.962 169.464C370.495 166.708 371.118 163.951 371.029 161.106C371.029 160.484 371.029 159.95 370.94 159.328C370.851 158.439 370.851 157.461 370.851 156.572C370.851 155.683 371.029 154.704 371.295 153.726L371.384 153.46L371.651 153.282C378.142 149.992 383.299 147.058 387.655 144.124C389.7 142.701 392.279 142.524 394.502 143.679C396.724 144.746 398.147 146.88 398.236 149.37C398.503 153.904 398.68 158.706 398.68 164.129V164.218L398.591 164.307C398.325 165.018 398.058 165.641 397.702 166.085C396.546 167.775 395.035 169.108 393.346 170.175C392.545 170.62 391.656 171.064 390.856 171.42C390.323 171.687 389.789 171.864 389.256 172.22C386.766 173.465 384.543 175.332 382.409 177.11C381.965 177.466 381.431 177.91 381.165 178.444C380.987 178.8 380.987 179.333 381.254 179.6C381.609 179.867 382.232 179.778 382.765 179.6L393.612 176.577C394.946 176.221 396.28 175.866 397.436 175.154L398.503 174.443V175.688C398.414 180.667 398.236 185.557 398.058 190.536V190.892L397.88 191.069C397.169 192.048 396.546 192.67 395.924 192.937C394.235 193.737 392.457 193.737 390.678 193.737H390.412C386.144 193.826 380.72 194.27 376.897 197.382C376.541 197.738 376.186 198.094 376.186 198.449C376.186 198.538 376.186 198.627 376.275 198.627C376.452 198.805 377.164 198.716 377.341 198.716C382.054 197.827 386.855 197.827 391.567 198.627L392.279 198.716C393.79 198.983 395.391 199.249 396.813 199.072L397.613 198.983L397.525 199.783C397.08 206.096 396.28 211.608 395.124 216.587L394.946 217.387L394.235 217.121C393.79 216.943 393.257 216.854 392.723 216.765C391.212 216.587 389.611 216.943 388.1 217.387L387.389 217.565C383.21 218.543 379.298 218.899 375.652 218.454C374.407 218.277 373.252 218.099 372.007 217.832C370.495 217.565 368.895 217.21 367.383 217.121C366.672 217.032 365.961 217.032 365.338 217.387C364.894 217.654 364.538 218.188 364.627 218.632C364.716 218.81 364.894 219.077 365.072 219.255C367.65 221.744 371.473 222.455 374.496 222.722C375.208 222.811 376.008 222.9 376.719 222.9C379.564 223.167 382.498 223.345 385.255 224.411C385.61 224.589 386.055 224.767 386.499 224.945C388.1 225.656 389.789 226.368 391.212 226.012L392.457 225.745L392.012 226.901C389.434 233.48 385.61 239.438 380.987 244.15L380.453 244.683L380.009 244.15C378.942 242.905 377.341 242.105 376.008 241.305L362.671 233.925C361.871 233.48 361.071 233.125 360.537 233.392C360.27 233.48 360.093 233.747 360.004 234.014C359.826 234.459 359.826 234.992 360.093 235.437C360.448 236.237 361.248 236.859 362.049 237.482L362.226 237.57C364.538 239.349 366.761 241.483 368.628 243.705C368.895 243.972 369.162 244.328 369.428 244.594C370.762 246.106 372.096 247.706 373.785 248.684L373.874 248.773L374.852 249.307L373.963 249.929C371.74 251.352 369.517 252.508 367.294 253.397C363.649 254.375 358.848 255.175 354.047 255.175ZM309.768 210.897C309.591 212.408 309.502 213.92 309.502 215.431C309.591 229.746 319.46 242.549 331.996 244.683L332.263 244.772L332.441 245.039C339.465 254.73 356.003 256.064 367.294 251.707C369.162 250.996 371.029 250.107 372.896 248.951C371.384 247.884 370.14 246.462 368.984 245.039C368.717 244.772 368.45 244.417 368.184 244.15C366.316 242.016 364.183 239.971 361.96 238.193L361.782 238.104C360.893 237.393 359.915 236.681 359.381 235.525C359.026 234.725 359.026 233.836 359.292 233.036C359.559 232.414 360.004 231.969 360.537 231.702C361.782 231.169 363.116 231.88 363.827 232.325L377.164 239.704C378.408 240.416 379.831 241.216 380.987 242.283C384.988 238.015 388.367 232.769 390.856 226.99C389.434 226.901 387.922 226.279 386.499 225.745C386.144 225.567 385.699 225.39 385.344 225.301C382.765 224.323 379.92 224.056 377.164 223.878C376.452 223.789 375.652 223.789 374.941 223.7C371.651 223.345 367.561 222.633 364.716 219.788C364.449 219.521 364.094 219.166 363.916 218.632C363.56 217.476 364.271 216.32 365.249 215.787C366.139 215.342 367.117 215.342 368.006 215.342C369.606 215.431 371.295 215.787 372.807 216.054C373.963 216.32 375.119 216.498 376.363 216.676C379.831 217.121 383.654 216.854 387.655 215.876L388.367 215.698C390.056 215.254 391.745 214.898 393.435 215.076C393.79 215.165 394.235 215.165 394.59 215.254C395.568 210.719 396.28 205.74 396.724 200.138C395.302 200.227 393.968 199.961 392.545 199.694L391.834 199.605C387.3 198.805 382.676 198.805 378.053 199.694C377.519 199.783 376.363 199.961 375.652 199.16C375.385 198.805 375.297 198.449 375.297 198.005C375.385 197.027 376.275 196.315 376.541 196.049C380.72 192.67 386.411 192.136 390.856 192.136H391.212C392.812 192.136 394.501 192.136 395.924 191.425C396.28 191.247 396.902 190.536 397.258 190.091C397.436 185.557 397.525 181.022 397.613 176.488C396.546 176.932 395.48 177.288 394.502 177.555L383.654 180.578C383.032 180.756 381.787 181.111 380.898 180.4C380.009 179.689 380.009 178.533 380.365 177.644C380.72 176.844 381.431 176.31 381.965 175.866C384.188 174.087 386.411 172.22 389.078 170.886C389.611 170.62 390.145 170.353 390.678 170.086C391.479 169.731 392.279 169.375 392.99 168.93C394.501 168.041 395.835 166.797 396.902 165.285C397.169 164.929 397.347 164.396 397.613 163.862C397.613 158.528 397.436 153.815 397.169 149.37C397.08 147.414 395.924 145.724 394.146 144.835C392.368 143.946 390.323 144.124 388.633 145.191C384.188 148.125 379.209 151.059 372.718 154.349C372.54 155.149 372.451 155.86 372.362 156.661C372.362 157.55 372.362 158.35 372.451 159.328C372.451 159.95 372.54 160.573 372.54 161.106C372.54 164.04 372.007 166.885 371.473 169.731C371.295 170.442 371.118 171.242 370.673 171.953C370.14 172.665 368.984 173.198 368.006 172.843C366.939 172.398 366.672 171.153 366.583 170.531L364.183 159.506C364.094 159.239 364.094 158.972 364.005 158.706L362.049 159.595C358.403 161.373 354.847 163.062 351.29 164.84C351.379 166.352 352.179 167.775 352.891 169.108L353.069 169.375C355.113 173.376 357.336 178.622 356.269 183.868C356.18 184.223 355.914 185.29 355.114 185.824C354.758 186.09 354.313 186.179 353.958 186.09C352.891 185.913 352.535 184.757 352.357 184.223C350.935 179.778 348.801 175.688 345.956 172.042L345.511 171.509C344.889 170.709 344.177 169.82 343.644 168.93C338.843 171.687 334.664 174.443 331.018 177.288C331.196 177.466 331.374 177.733 331.552 177.911C332.619 179.333 332.974 181.022 333.419 182.712L333.597 183.423C334.575 187.424 336.175 190.892 338.131 193.737C338.843 194.715 339.554 195.693 340.354 196.582C341.332 197.827 342.399 199.072 343.288 200.494C343.733 201.205 344.266 202.095 344.266 203.162C344.266 204.228 343.555 205.473 342.399 205.651C341.866 205.74 341.421 205.651 340.976 205.473C337.153 204.228 334.575 200.939 332.708 198.182C332.263 197.56 331.907 196.938 331.463 196.315C329.951 194.004 328.44 191.603 326.395 189.825C326.039 189.558 325.773 189.291 325.417 189.024C324.172 188.046 322.927 186.98 322.216 185.646C317.948 190.536 314.57 195.96 312.436 201.383C314.303 201.828 315.992 202.895 317.504 203.784L330.307 212.053C331.018 212.497 332.263 213.297 332.352 214.72C332.441 215.342 332.174 215.965 331.73 216.409C331.196 217.032 330.307 217.476 329.507 217.476C328.262 217.565 327.106 217.032 326.128 216.587L325.95 216.498C323.372 215.342 320.616 214.364 317.77 213.742C317.415 213.653 316.97 213.564 316.615 213.475C314.57 213.031 312.436 212.586 310.569 211.43C310.213 211.164 309.946 210.986 309.768 210.897Z" fill="#4895E0"/>
<path d="M233.749 250.285C233.127 248.151 232.326 246.106 231.259 244.239C231.259 244.328 231.171 244.328 231.171 244.417C229.926 246.195 227.97 247.351 226.191 248.684C224.147 250.196 222.19 251.885 220.412 253.841C219.701 254.553 219.079 255.353 218.1 255.708C217.122 256.064 215.878 255.708 215.611 254.73C215.344 253.93 215.878 253.041 216.322 252.33C218.812 248.595 221.39 244.861 223.88 241.127C224.769 239.882 225.658 238.548 226.814 237.659C222.902 233.125 218.012 229.479 212.677 226.723C212.855 228.501 211.61 230.368 210.721 232.147C209.298 234.992 209.031 238.193 208.409 241.305C207.787 244.417 206.809 247.617 204.408 249.751C204.141 249.929 203.875 250.196 203.608 250.285C202.897 250.463 202.185 249.929 201.919 249.218C201.652 248.507 201.741 247.795 201.83 247.084C202.185 244.594 203.163 242.283 203.697 239.882C204.408 236.503 204.408 233.036 203.875 229.657C203.608 228.057 203.252 226.367 203.608 224.678C203.697 224.056 203.875 223.611 204.141 223.256C199.429 221.744 194.539 220.677 189.56 219.877C189.649 221.477 189.115 223.078 188.671 224.678C187.604 228.679 187.248 232.858 187.604 237.037C187.693 237.57 187.693 238.193 187.248 238.548C186.626 238.993 185.825 238.371 185.381 237.748C182.98 234.192 182.802 229.479 183.158 225.212C183.247 223.611 183.425 222.011 182.891 220.499C182.714 220.055 182.18 219.432 181.558 218.899H181.469C177.112 218.365 172.755 217.832 168.399 217.387C169.021 218.543 169.199 219.788 169.466 221.033C170.088 224.322 170.621 227.523 171.244 230.813C171.333 231.435 171.422 232.236 170.977 232.68C170.533 233.125 169.821 233.125 169.199 232.769C168.665 232.413 168.31 231.88 167.954 231.435C166.532 229.39 165.109 227.257 164.131 224.945C163.597 223.7 163.242 222.455 162.708 221.211C161.997 219.699 160.93 218.365 159.596 217.298C159.241 217.032 158.707 216.765 158.174 216.498C153.817 216.143 149.549 215.876 145.193 215.787C141.014 215.698 138.258 220.144 140.303 223.878C142.97 228.679 145.104 233.658 147.149 238.815C147.949 239.082 148.66 239.26 149.46 239.349C150.794 239.526 152.128 239.438 153.373 239.615C155.862 239.793 158.352 240.504 160.752 241.216C161.375 241.394 161.997 241.571 162.442 242.016C162.886 242.461 163.153 243.172 162.886 243.705C162.531 244.239 161.819 244.417 161.197 244.506C157.907 244.95 154.617 245.395 151.328 245.839C150.883 245.928 150.35 245.928 149.905 246.017C150.261 246.817 150.527 247.706 150.794 248.507C152.039 251.885 153.373 255.353 154.706 258.731C154.795 258.731 154.884 258.731 154.973 258.731C156.573 258.82 158.085 258.109 159.508 257.487C163.509 255.886 168.043 254.553 172.133 255.797C172.844 255.975 173.733 256.598 173.467 257.309C173.289 257.842 172.666 258.02 172.133 258.109C168.043 258.998 164.22 260.599 160.663 262.91C159.596 263.622 158.441 264.422 157.285 264.866C159.33 269.312 161.641 273.669 164.309 277.759C164.575 277.492 164.931 277.225 165.376 277.047C166.798 276.247 168.488 276.069 170.177 275.802C173.556 275.269 176.845 274.202 179.868 272.513C182.002 271.268 183.958 269.668 186.181 268.512C186.803 268.156 187.515 267.889 188.226 267.978C188.937 268.067 189.649 268.601 189.738 269.312C189.738 269.668 189.649 269.934 189.56 270.29C188.315 273.224 185.559 275.18 182.802 276.692C180.046 278.203 177.023 279.537 174.8 281.76C173.378 283.182 171.955 284.96 170.177 285.316C174.356 289.851 179.246 293.763 184.759 296.341C184.759 296.252 184.759 296.163 184.759 296.074C185.114 294.385 186.27 292.963 187.337 291.54C190.093 287.983 192.849 284.427 195.606 280.87C196.139 280.159 196.762 279.448 197.651 279.448C198.629 279.448 199.34 280.515 199.34 281.582C199.34 282.56 198.807 283.449 198.273 284.338C197.028 286.561 195.961 288.961 195.161 291.451C194.45 293.496 193.916 295.719 192.672 297.497C192.316 297.942 191.96 298.297 191.516 298.653C193.205 299.097 194.894 299.364 196.584 299.542C208.676 300.52 221.657 293.318 224.68 281.582C234.105 275.625 236.683 260.687 233.749 250.285ZM175.245 248.773C174.889 249.573 173.822 249.751 172.933 249.751C171.155 249.751 169.466 249.662 167.687 249.662C166.798 249.662 165.554 249.218 165.731 248.329C165.82 247.884 166.265 247.528 166.709 247.351C167.687 246.906 168.843 246.817 169.91 247.084V246.639C170.977 246.995 172.133 246.639 173.2 246.728C174.445 246.728 175.689 247.706 175.245 248.773ZM196.228 248.684C196.05 249.218 195.872 249.84 195.339 249.929C194.717 250.107 194.183 249.573 193.828 249.04C192.316 246.728 191.605 243.883 191.96 241.127C191.605 240.593 192.049 239.793 192.672 239.615C193.383 239.438 194.094 239.793 194.628 240.238C196.851 242.194 197.028 245.75 196.228 248.684Z" fill="#79B9F7"/>
<path d="M200.229 278.914C196.317 281.226 196.406 286.116 196.228 290.384C196.139 291.985 195.962 293.585 195.784 295.185C194.984 300.342 187.426 300.342 186.626 295.185C186.359 293.585 186.27 291.985 186.181 290.473C186.003 284.516 186.626 278.47 185.737 272.602C184.759 266.2 181.647 259.621 175.601 256.953C174 256.242 172.222 255.886 170.533 256.153C165.198 257.042 164.309 262.377 163.331 266.378C163.064 267.712 162.709 269.045 162.531 270.379C161.642 276.069 154.351 277.936 150.883 273.402C146.26 267.445 141.014 261.932 135.146 257.398C133.279 255.975 130.967 253.841 128.655 253.93C126.877 253.93 117.986 256.242 116.563 264.333C115.852 268.423 117.541 272.513 120.742 275.18C126.432 279.981 132.923 283.982 139.769 287.183C144.926 289.584 144.659 296.964 139.414 299.098C137.546 299.898 135.679 300.698 133.901 301.587C130.522 303.187 126.877 305.321 127.144 310.034C127.233 311.812 127.944 313.501 129.011 314.924C133.012 320.17 140.036 321.77 146.438 321.326C152.395 320.881 158.085 319.014 163.953 317.947C165.376 317.68 166.887 317.502 168.488 317.324C173.911 316.88 175.512 324.349 170.444 326.305C169.021 326.838 167.51 327.283 165.998 327.727C161.908 328.794 157.107 329.772 155.684 334.129C154.973 336.352 155.418 338.841 156.751 340.797C159.508 344.709 164.22 345.954 168.666 346.488C177.201 347.466 186.003 346.132 193.828 342.664C194.895 342.22 196.05 341.686 197.117 341.153C201.207 339.375 204.675 336.529 207.076 332.795C207.876 331.639 208.765 330.572 209.743 329.505C212.855 326.305 214.9 322.304 215.789 317.947C216.056 316.791 216.322 315.546 216.5 314.39C218.19 305.944 217.567 297.141 214.811 288.962C213.388 284.694 211.166 280.337 206.72 278.47C204.764 277.67 202.274 277.759 200.229 278.914Z" fill="#4895E0"/>
<path d="M207.61 329.95L196.763 320.97L185.827 312.078L173.912 302.476C173.823 300.787 173.734 299.186 173.646 297.497L173.29 292.251C173.023 288.784 172.756 285.227 172.49 281.759C172.134 278.292 171.867 274.735 171.423 271.268C171.067 267.8 170.623 264.244 170.178 260.776C170.267 264.333 170.534 267.8 170.8 271.268C171.067 274.735 171.334 278.292 171.601 281.759C171.956 285.227 172.223 288.784 172.668 292.251L173.29 297.497C173.468 299.097 173.734 300.787 173.912 302.387L163.865 294.296L150.706 283.804C150.795 282.204 150.617 280.693 150.44 279.181C150.173 277.403 149.906 275.713 149.373 274.024C149.284 275.802 149.373 277.581 149.639 279.27C149.817 280.693 150.084 282.115 150.528 283.538L141.904 276.692C134.524 270.912 127.145 265.044 119.676 259.354C126.433 264.955 133.191 270.557 140.037 276.069C138.17 276.247 136.303 276.603 134.435 277.047C132.39 277.581 130.345 278.114 128.389 278.914C130.523 278.736 132.568 278.381 134.702 277.936C136.569 277.492 138.436 276.958 140.304 276.247C140.748 276.603 141.193 276.958 141.548 277.314L163.51 295.007L169.467 299.72C168.044 300.075 166.71 300.52 165.377 300.876L160.842 302.298C157.819 303.276 154.796 304.254 151.862 305.232C148.839 306.299 145.905 307.277 142.882 308.344C139.948 309.411 136.925 310.567 133.991 311.723C137.014 310.834 140.037 309.945 143.06 308.967C146.083 307.989 149.106 307.01 152.04 306.032C155.063 304.966 157.997 303.987 161.02 302.921L165.466 301.231C166.799 300.698 168.133 300.164 169.467 299.631L185.56 312.434L196.674 321.147L199.964 323.726C198.63 323.904 197.207 324.259 195.874 324.437L191.784 325.237C189.027 325.771 186.36 326.393 183.604 327.016C180.936 327.638 178.18 328.349 175.513 329.061C172.845 329.772 170.178 330.483 167.511 331.283C170.267 330.839 173.023 330.305 175.691 329.683C178.447 329.15 181.114 328.527 183.87 327.905C186.538 327.282 189.294 326.571 191.961 325.86L195.962 324.793C197.296 324.437 198.63 324.082 199.964 323.637L207.61 329.95Z" fill="#316699"/>
<path d="M203.342 316.702L203.608 321.77C203.697 323.459 203.786 325.148 203.964 326.838C204.053 325.148 204.053 323.459 204.053 321.77V316.702C204.053 313.323 203.964 309.944 203.875 306.655C203.786 303.276 203.697 299.897 203.519 296.608C203.342 293.229 203.164 289.85 202.897 286.561C202.808 289.939 202.808 293.318 202.808 296.608C202.808 299.986 202.897 303.365 202.986 306.655C203.075 310.033 203.164 313.323 203.342 316.702Z" fill="#316699"/>
<path d="M392.991 304.343C389.968 300.431 384.633 301.143 380.099 301.498C378.32 301.587 376.631 301.676 374.853 301.676C369.163 301.498 368.184 293.318 373.697 291.807C375.386 291.362 377.076 291.007 378.676 290.74C385.078 289.762 391.657 289.584 397.881 287.895C404.727 286.028 411.396 281.76 413.441 274.914C413.974 273.135 414.152 271.179 413.619 269.401C411.929 263.711 406.15 263.444 401.615 262.999C400.104 262.822 398.681 262.733 397.17 262.644C390.946 262.377 387.923 254.819 392.369 250.552C398.237 244.772 403.394 238.371 407.484 231.436C408.728 229.302 410.684 226.457 410.418 223.967C410.151 222.1 406.506 212.764 397.614 212.32C393.08 212.142 388.901 214.453 386.411 218.277C381.966 225.034 378.498 232.591 375.92 240.327C374.053 246.195 366.051 246.906 363.028 241.572C361.961 239.615 360.805 237.748 359.649 235.881C357.426 232.414 354.67 228.857 349.691 229.746C347.824 230.102 346.045 231.08 344.712 232.414C339.555 237.393 338.755 245.217 340.088 252.063C341.333 258.465 344.089 264.333 346.045 270.557C346.49 272.068 346.935 273.669 347.29 275.358C348.446 281.137 340.622 283.894 337.865 278.648C337.065 277.136 336.354 275.625 335.732 274.024C334.042 269.757 332.353 264.689 327.463 263.711C324.973 263.177 322.395 264.066 320.439 265.756C316.527 269.223 315.815 274.469 315.904 279.448C315.993 288.784 318.572 298.12 323.373 306.122C323.995 307.277 324.707 308.344 325.418 309.5C327.907 313.59 331.464 317.058 335.732 319.192C337.065 319.903 338.399 320.703 339.644 321.592C343.467 324.526 348.09 326.127 352.892 326.571C354.225 326.66 355.559 326.838 356.804 326.927C366.14 327.638 375.564 325.771 384.011 321.77C388.456 319.636 392.813 316.702 394.236 311.634C394.947 309.056 394.591 306.388 392.991 304.343Z" fill="#79B9F7"/>
<path d="M397.703 268.512C394.502 268.245 391.39 268.067 388.189 267.889C384.988 267.712 381.876 267.534 378.676 267.445L373.963 267.267C372.63 267.267 371.385 267.267 370.051 267.267L370.496 266.645L387.211 240.86L389.523 237.215C392.368 236.237 395.035 234.992 397.792 233.658C400.548 232.325 403.304 230.813 405.972 229.213C403.037 230.28 400.192 231.524 397.436 232.858C394.769 234.192 392.19 235.525 389.701 237.126L395.569 227.968L403.838 214.987L395.213 227.701L386.678 240.504L385.522 242.283C386.144 238.904 386.5 235.436 386.855 231.969C387.122 228.324 387.389 224.678 387.389 221.033C386.678 224.589 386.322 228.235 385.966 231.88C385.7 235.348 385.433 238.904 385.433 242.372L369.784 266.111L364.716 273.935C364.45 272.424 364.183 270.912 363.827 269.401L362.76 264.333C362.049 260.954 361.249 257.576 360.538 254.197C359.737 250.818 358.937 247.44 358.137 244.15C357.248 240.771 356.448 237.481 355.47 234.103C356.092 237.481 356.803 240.949 357.515 244.328C358.226 247.706 359.026 251.085 359.737 254.464C360.538 257.842 361.338 261.221 362.138 264.511L363.383 269.579C363.827 271.09 364.183 272.602 364.627 274.024L352.98 291.896C349.601 297.141 346.312 302.298 342.933 307.544C342.4 305.944 341.866 304.432 341.333 302.832L339.465 297.675C338.221 294.207 336.887 290.829 335.553 287.45C334.22 284.071 332.886 280.604 331.463 277.225C330.041 273.846 328.707 270.468 327.196 267.089C328.351 270.557 329.596 274.024 330.841 277.403C332.086 280.871 333.419 284.249 334.664 287.628C335.998 291.006 337.332 294.474 338.754 297.853L340.888 302.921C341.599 304.432 342.222 306.033 342.844 307.544C340.71 310.923 338.487 314.301 336.354 317.769C338.576 314.479 340.799 311.189 343.022 307.9V307.989V307.9C343.822 306.655 344.622 305.499 345.423 304.254C347.023 304.432 348.712 304.521 350.313 304.61L355.292 304.877C358.581 305.055 361.871 305.232 365.161 305.321C368.451 305.41 371.74 305.588 375.03 305.588C378.32 305.677 381.61 305.677 384.899 305.588C381.61 305.321 378.32 305.055 375.03 304.877C371.74 304.699 368.451 304.521 365.161 304.432C361.871 304.343 358.581 304.165 355.292 304.165L350.313 304.077C348.712 304.077 347.023 304.077 345.423 304.077C348.09 300.075 350.757 296.074 353.425 292.073L369.873 267.178C371.207 267.356 372.541 267.445 373.785 267.534L378.498 267.889C381.699 268.156 384.811 268.334 388.011 268.512C391.212 268.69 394.324 268.867 397.525 268.956C400.726 269.045 403.838 269.134 407.038 269.134C404.015 269.045 400.904 268.778 397.703 268.512Z" fill="#316699"/>
<path d="M337.065 351.911H202.986C197.207 351.911 192.494 347.199 192.494 341.42V83.2192C192.494 77.4399 197.207 72.7276 202.986 72.7276H336.976C342.756 72.7276 347.468 77.4399 347.468 83.2192V341.42C347.557 347.199 342.845 351.911 337.065 351.911Z" fill="#BCDFFD"/>
<path d="M343.912 88.7318H196.051V326.571H343.912V88.7318Z" fill="#121B46"/>
<path d="M288.075 78.5958H244.241V82.1523H288.075V78.5958Z" fill="#121B46"/>
<path d="M295.81 80.3742C295.81 81.4411 295.009 82.2413 293.942 82.2413C292.875 82.2413 292.075 81.4411 292.075 80.3742C292.075 79.3072 292.875 78.507 293.942 78.507C295.009 78.507 295.81 79.3962 295.81 80.3742Z" fill="#121B46"/>
<path d="M289.142 332.795H250.91V340.353H289.142V332.795Z" fill="#121B46"/>
<path d="M343.913 88.7318H196.052V97.1784H343.913V88.7318Z" fill="white"/>
<path d="M343.912 308.166H196.051V326.66H343.912V308.166Z" fill="white"/>
<path d="M331.374 322.215H300.7C298.922 322.215 297.499 320.792 297.499 319.014V288.339C297.499 286.561 298.922 285.138 300.7 285.138H331.374C333.153 285.138 334.575 286.561 334.575 288.339V319.014C334.575 320.792 333.153 322.215 331.374 322.215Z" fill="#1B2869"/>
<path d="M331.374 322.215H300.7C298.922 322.215 297.499 320.792 297.499 319.014V288.339C297.499 286.561 298.922 285.138 300.7 285.138H331.374C333.153 285.138 334.575 286.561 334.575 288.339V319.014C334.575 320.792 333.153 322.215 331.374 322.215Z" stroke="#364EC9" stroke-width="2.11411" stroke-miterlimit="10" stroke-linecap="round" stroke-linejoin="round" stroke-dasharray="7.4 7.4"/>
<path d="M239.262 322.215H208.588C206.809 322.215 205.387 320.792 205.387 319.014V288.339C205.387 286.561 206.809 285.138 208.588 285.138H239.262C241.04 285.138 242.463 286.561 242.463 288.339V319.014C242.463 320.792 241.04 322.215 239.262 322.215Z" fill="#A8D0F7"/>
<path d="M285.318 322.215H254.644C252.865 322.215 251.443 320.792 251.443 319.014V288.339C251.443 286.561 252.865 285.138 254.644 285.138H285.318C287.097 285.138 288.519 286.561 288.519 288.339V319.014C288.519 320.792 287.097 322.215 285.318 322.215Z" fill="#35C4A6"/>
<path d="M285.319 244.506H254.644C252.866 244.506 251.444 243.083 251.444 241.305V210.63C251.444 208.852 252.866 207.429 254.644 207.429H285.319C287.097 207.429 288.52 208.852 288.52 210.63V241.305C288.52 243.083 287.097 244.506 285.319 244.506Z" fill="#1B2869"/>
<path d="M285.319 244.506H254.644C252.866 244.506 251.444 243.083 251.444 241.305V210.63C251.444 208.852 252.866 207.429 254.644 207.429H285.319C287.097 207.429 288.52 208.852 288.52 210.63V241.305C288.52 243.083 287.097 244.506 285.319 244.506Z" stroke="#364EC9" stroke-width="2.11411" stroke-miterlimit="10" stroke-linecap="round" stroke-linejoin="round" stroke-dasharray="7.4 7.4"/>
<path d="M238.995 244.506H208.321C206.542 244.506 205.12 243.083 205.12 241.305V210.63C205.12 208.852 206.542 207.429 208.321 207.429H238.995C240.774 207.429 242.196 208.852 242.196 210.63V241.305C242.196 243.083 240.774 244.506 238.995 244.506Z" fill="#A8D0F7"/>
<path d="M285.319 151.237H254.644C252.866 151.237 251.444 149.814 251.444 148.036V117.361C251.444 115.583 252.866 114.161 254.644 114.161H285.319C287.097 114.161 288.52 115.583 288.52 117.361V148.036C288.52 149.814 287.097 151.237 285.319 151.237Z" fill="#1B2869"/>
<path d="M285.319 151.237H254.644C252.866 151.237 251.444 149.814 251.444 148.036V117.361C251.444 115.583 252.866 114.161 254.644 114.161H285.319C287.097 114.161 288.52 115.583 288.52 117.361V148.036C288.52 149.814 287.097 151.237 285.319 151.237Z" stroke="#364EC9" stroke-width="2.11411" stroke-miterlimit="10" stroke-linecap="round" stroke-linejoin="round" stroke-dasharray="7.4 7.4"/>
<path d="M331.731 151.237H301.056C299.278 151.237 297.855 149.814 297.855 148.036V117.361C297.855 115.583 299.278 114.161 301.056 114.161H331.731C333.509 114.161 334.932 115.583 334.932 117.361V148.036C334.932 149.814 333.509 151.237 331.731 151.237Z" fill="#F46A2B"/>
<path d="M285.319 197.916H254.644C252.866 197.916 251.444 196.493 251.444 194.715V164.04C251.444 162.262 252.866 160.839 254.644 160.839H285.319C287.097 160.839 288.52 162.262 288.52 164.04V194.715C288.52 196.493 287.097 197.916 285.319 197.916Z" fill="#FDB32C"/>
<path d="M238.995 197.916H208.321C206.542 197.916 205.12 196.493 205.12 194.715V164.04C205.12 162.262 206.542 160.839 208.321 160.839H238.995C240.774 160.839 242.196 162.262 242.196 164.04V194.715C242.196 196.493 240.774 197.916 238.995 197.916Z" fill="#1B2869"/>
<path d="M238.995 197.916H208.321C206.542 197.916 205.12 196.493 205.12 194.715V164.04C205.12 162.262 206.542 160.839 208.321 160.839H238.995C240.774 160.839 242.196 162.262 242.196 164.04V194.715C242.196 196.493 240.774 197.916 238.995 197.916Z" stroke="#364EC9" stroke-width="2.11411" stroke-miterlimit="10" stroke-linecap="round" stroke-linejoin="round" stroke-dasharray="7.4 7.4"/>
<path d="M331.731 197.916H301.056C299.278 197.916 297.855 196.493 297.855 194.715V164.04C297.855 162.262 299.278 160.839 301.056 160.839H331.731C333.509 160.839 334.932 162.262 334.932 164.04V194.715C334.932 196.493 333.509 197.916 331.731 197.916Z" fill="#A8D0F7"/>
<path d="M363.98 333.062C364.691 331.284 373.316 310.567 382.207 289.762C382.118 288.517 382.029 287.272 382.029 286.116C387.808 286.205 393.588 286.205 399.367 285.583L399.278 287.539C399.1 291.095 398.122 294.652 396.344 297.764L384.074 319.814L373.582 338.485L365.492 339.108L363.98 333.24C363.891 333.151 363.891 333.151 363.98 333.062C363.891 333.062 363.98 333.062 363.98 333.062Z" fill="#CC6F49"/>
<path d="M398.922 289.673C398.922 289.673 398.745 290.829 398.656 291.362C398.478 291.984 383.896 291.54 382.118 289.673V289.05C382.118 289.139 394.832 289.673 398.922 289.673Z" fill="#121B46"/>
<path d="M363.892 332.706C363.803 332.528 363.625 332.528 363.536 332.617C363.003 333.24 361.847 334.573 360.602 335.818C359.357 337.152 359.891 339.019 360.157 339.73C360.246 339.908 360.424 340.086 360.602 340.175L382.83 351.911C382.83 351.911 384.608 350.933 378.384 345.421C372.161 339.908 375.984 339.286 373.583 338.397C371.183 337.507 366.826 339.108 365.492 336.352C364.514 334.484 364.07 333.24 363.892 332.706Z" fill="#F46A2B"/>
<path d="M414.215 282.827C417.95 281.938 421.684 280.959 425.329 279.804C428.352 307.722 430.931 343.287 430.931 343.287L426.219 347.732L420.173 343.998L407.636 284.872C409.859 284.249 411.993 283.627 414.215 282.827Z" fill="#CC6F49"/>
<path d="M426.041 285.938C426.041 285.938 422.306 289.05 408.525 289.495L409.147 292.162C409.147 292.162 420.084 292.963 426.219 287.895L426.041 285.938Z" fill="#121B46"/>
<path d="M420.083 343.553C419.906 343.465 419.728 343.553 419.728 343.731C419.728 344.531 419.728 346.31 419.55 348.088C419.461 349.955 421.062 350.933 421.773 351.289C421.951 351.378 422.217 351.378 422.395 351.378L446.935 345.954C446.935 345.954 447.646 343.998 439.288 343.82C430.931 343.642 433.42 340.708 431.109 341.597C428.708 342.486 426.396 346.488 423.64 345.332C421.773 344.531 420.617 343.82 420.083 343.553Z" fill="#F46A2B"/>
<path d="M402.656 200.583C402.656 200.228 402.656 199.872 402.656 199.605C402.745 196.138 403.545 193.648 404.612 191.959C407.279 187.691 413.147 188.669 414.303 193.47C414.659 194.893 414.837 196.76 414.926 199.072C414.926 203.784 415.37 212.497 415.993 222.011C424.617 235.615 433.686 249.396 434.131 250.107L430.93 253.575C425.951 250.463 421.505 246.729 417.415 242.727C412.703 238.104 408.613 233.036 405.056 228.146C404.078 226.812 403.545 225.212 403.367 223.611C402.389 214.098 402.478 205.74 402.656 200.583Z" fill="#CC6F49"/>
<path d="M437.065 253.575L439.91 257.309L440.977 257.22C440.977 257.22 439.91 258.732 438.221 257.665C438.221 257.665 436.976 258.643 436.176 258.198C436.176 258.198 435.376 258.91 434.487 258.732C434.487 258.732 433.42 258.998 432.531 258.376C431.642 257.754 430.841 253.575 430.841 253.575L434.042 250.018C434.042 250.018 439.199 251.352 439.999 252.686C440.799 254.108 439.91 254.019 439.91 254.019L437.065 253.575Z" fill="#CC6F49"/>
<path d="M413.682 197.471C410.303 197.116 406.836 197.027 403.457 196.76C397.5 196.227 391.632 195.604 385.764 194.537C385.141 194.448 384.43 194.271 383.807 194.182C384.163 191.959 385.052 190.536 386.119 189.558C387.275 188.491 388.875 187.869 390.476 187.78C391.987 187.691 393.232 187.424 394.21 186.98C395.811 181.912 394.21 172.398 394.032 171.153V171.064L407.102 178.444C406.925 178.8 406.747 179.333 406.747 179.867C406.658 181.023 406.836 182.534 407.013 183.868C407.28 185.379 407.636 186.713 407.814 187.246C409.058 188.758 410.659 189.38 413.06 190.714C413.326 192.848 413.593 195.16 413.682 197.471Z" fill="#CC6F49"/>
<path d="M406.925 183.868C399.812 184.757 396.167 176.221 396.078 175.955C397.412 178 399.279 179.067 401.146 179.6C403.458 180.222 405.681 180.045 406.57 179.867C406.57 181.023 406.659 182.534 406.925 183.868Z" fill="#C4533A"/>
<path d="M387.454 227.257C389.232 223.434 383.453 199.605 383.186 194.715C382.919 189.825 387.187 187.513 389.677 187.513C392.166 187.513 394.033 186.802 394.033 186.802C394.033 186.802 409.059 196.849 410.749 196.138C412.438 195.426 408.437 187.78 408.437 187.78C408.437 187.78 415.461 191.87 417.239 195.249C419.018 198.627 415.906 208.496 415.639 209.563C415.372 210.63 413.594 228.235 413.594 228.235C423.641 244.328 426.486 274.291 427.198 284.783C421.329 292.074 381.408 288.962 381.408 288.962C381.408 288.962 380.074 266.022 379.63 253.486C379.185 240.949 385.676 231.08 387.454 227.257Z" fill="#F46A2B"/>
<path d="M409.683 189.025C410.305 190.003 410.839 191.07 411.372 192.137C411.906 193.203 412.35 194.27 412.528 195.337C412.617 195.604 412.617 195.871 412.528 196.138C412.528 196.226 412.528 196.404 412.439 196.493C412.439 196.582 412.35 196.582 412.35 196.671C412.083 196.849 411.461 196.849 410.928 196.76C409.861 196.582 408.705 196.226 407.638 195.782C405.504 194.893 403.37 193.826 401.325 192.759C400.347 192.225 399.28 191.603 398.302 190.892C397.324 190.269 396.346 189.558 395.457 188.847C397.057 190.536 399.013 191.959 400.969 193.292C402.925 194.626 405.059 195.693 407.282 196.582C408.438 197.027 409.505 197.382 410.75 197.56C411.016 197.56 411.372 197.649 411.728 197.649C412.083 197.649 412.439 197.56 412.795 197.293C412.973 197.116 413.061 196.938 413.15 196.76C413.15 196.582 413.15 196.404 413.239 196.226C413.239 195.871 413.239 195.604 413.15 195.248C412.528 192.848 411.105 190.892 409.683 189.025Z" fill="#121B46"/>
<path d="M413.328 263.622C412.439 263.977 411.46 263.977 410.571 263.889C409.682 263.8 408.793 263.444 408.082 262.999C406.481 262.11 405.148 260.777 403.636 259.532C404.081 260.421 404.703 261.132 405.326 261.932C405.948 262.644 406.748 263.266 407.637 263.8C408.526 264.244 409.504 264.6 410.571 264.6C411.549 264.6 412.616 264.333 413.328 263.622Z" fill="#121B46"/>
<path d="M408.793 266.111C408.17 265.578 407.637 265.222 407.103 264.867C406.57 264.511 405.948 264.155 405.236 263.8C405.414 264.6 405.948 265.133 406.57 265.578C407.192 266.022 407.993 266.289 408.793 266.111Z" fill="#121B46"/>
<path d="M397.855 242.194C397.855 242.194 395.188 252.33 392.343 254.108C389.497 255.798 372.96 248.418 372.782 245.039C372.604 241.661 378.384 233.036 378.384 233.036L397.855 242.194Z" fill="#35C4A6"/>
<path d="M398.478 242.105C398.478 242.105 388.876 236.326 378.74 232.858C378.384 232.769 378.029 233.036 378.206 233.392C379.007 235.703 381.585 242.016 386.119 244.239C389.854 246.017 398.478 242.105 398.478 242.105Z" fill="#35C4A6"/>
<path d="M397.678 242.194C406.747 223.256 399.011 199.339 395.277 189.825C394.388 187.602 392.254 186.091 389.765 186.091L389.142 187.424C390.92 187.424 392.965 188.847 393.677 190.447C397.322 199.694 404.88 223.078 396.077 241.394L397.678 242.194Z" fill="#35C4A6"/>
<path d="M396.344 242.905C395.366 243.172 394.388 243.439 393.41 243.617C392.432 243.883 391.454 244.061 390.476 244.15C389.498 244.239 388.52 244.328 387.631 244.15C386.742 243.972 385.942 243.528 385.141 242.994C383.63 241.838 382.296 240.416 381.051 238.815C379.896 237.215 378.829 235.526 378.117 233.659C378.295 234.637 378.651 235.615 379.006 236.504C379.451 237.393 379.896 238.282 380.429 239.171C381.496 240.86 382.919 242.372 384.519 243.617C385.319 244.239 386.297 244.773 387.364 244.95C388.431 245.128 389.498 245.039 390.476 244.861C392.61 244.506 394.566 243.795 396.344 242.905Z" fill="#121B46"/>
<path d="M380.251 233.836C381.407 220.588 384.074 194.359 386.119 190.269L386.208 190.092C386.919 188.758 388.253 187.958 389.765 187.958V186.179C387.542 186.179 385.675 187.335 384.697 189.291L384.608 189.469C381.851 194.893 378.651 232.147 378.473 233.658L380.251 233.836Z" fill="#35C4A6"/>
<path d="M409.592 257.131L440.266 257.754C442.045 257.754 443.467 256.42 443.556 254.642L444.178 223.967C444.178 222.189 442.845 220.766 441.067 220.677L410.392 220.055C408.614 220.055 407.191 221.389 407.102 223.167L406.48 253.841C406.391 255.709 407.813 257.131 409.592 257.131Z" fill="#FDB32C"/>
<path d="M381.763 200.583C381.763 200.228 381.763 199.872 381.763 199.605C381.852 196.138 382.652 193.648 383.719 191.959C386.387 187.691 392.255 188.669 393.411 193.47C393.766 194.893 393.944 196.76 394.033 199.072C394.033 203.784 394.478 212.497 395.1 222.011C403.724 235.615 412.793 249.396 413.238 250.107L410.037 253.575C405.058 250.463 400.613 246.729 396.523 242.728C391.81 238.104 387.72 233.036 384.164 228.146C383.186 226.812 382.652 225.212 382.475 223.611C381.496 214.098 381.585 205.74 381.763 200.583Z" fill="#CC6F49"/>
<path d="M416.173 253.575L419.018 257.309L420.085 257.22C420.085 257.22 419.018 258.732 417.328 257.665C417.328 257.665 416.084 258.643 415.283 258.198C415.283 258.198 414.483 258.909 413.594 258.732C413.594 258.732 412.527 258.998 411.638 258.376C410.749 257.754 409.949 253.575 409.949 253.575L413.15 250.018C413.15 250.018 418.306 251.352 419.107 252.686C419.907 254.108 419.018 254.019 419.018 254.019L416.173 253.575Z" fill="#CC6F49"/>
<path d="M399.635 229.213L395.011 222.189L393.944 201.472L396.345 222.278L399.635 229.213Z" fill="#121B46"/>
<path d="M390.297 167.063C390.653 165.996 391.808 165.107 392.964 165.374C393.053 165.374 393.142 165.463 393.32 165.552C393.142 161.818 393.676 157.639 396.343 155.416C401.944 150.526 410.035 152.215 411.725 156.661C413.058 160.039 413.503 164.04 413.681 167.952C413.77 169.642 413.77 171.242 413.77 172.843V173.287C413.77 173.998 413.77 174.71 413.503 175.332C412.614 177.822 408.968 179.422 406.568 179.956C403.456 180.578 400.255 179.778 397.855 177.733C395.898 176.132 394.654 173.821 394.12 171.331C393.587 171.42 392.787 171.242 392.609 171.153C391.897 170.887 391.275 170.264 390.83 169.642C390.208 168.93 390.03 167.952 390.297 167.063Z" fill="#CC6F49"/>
<path d="M410.569 170.353C410.569 171.775 411.724 172.842 413.058 172.842C413.325 172.842 413.503 172.842 413.68 172.753C413.68 171.153 413.68 169.553 413.592 167.863C413.414 167.774 413.236 167.774 412.969 167.774C411.635 167.863 410.569 168.93 410.569 170.353Z" fill="#C4533A"/>
<path d="M398.12 170.353C398.12 171.775 399.276 172.842 400.609 172.842C402.032 172.842 403.099 171.686 403.099 170.353C403.099 168.93 401.943 167.863 400.609 167.863C399.187 167.863 398.12 168.93 398.12 170.353Z" fill="#C4533A"/>
<path d="M409.235 165.463C409.235 166.263 409.591 166.974 409.946 166.974C410.302 166.974 410.658 166.352 410.658 165.463C410.658 164.574 410.302 163.951 409.946 163.951C409.591 164.04 409.235 164.663 409.235 165.463Z" fill="#121B46"/>
<path d="M411.457 163.507C411.368 163.773 411.191 163.951 411.013 164.129C410.835 164.307 410.568 164.485 410.213 164.485C410.035 164.485 409.946 164.396 409.857 164.307C409.857 164.129 409.946 164.04 410.035 163.951H410.124C410.568 163.951 411.013 163.684 411.279 163.329H411.368C411.457 163.507 411.457 163.507 411.457 163.507Z" fill="#121B46"/>
<path d="M404.434 165.463C404.434 166.263 404.078 166.974 403.723 166.974C403.367 166.974 403.011 166.352 403.011 165.463C403.011 164.574 403.367 163.951 403.723 163.951C404.078 163.951 404.434 164.663 404.434 165.463Z" fill="#121B46"/>
<path d="M402.389 163.418C402.655 163.773 403.1 164.04 403.545 164.04C403.722 164.04 403.811 164.129 403.811 164.307C403.811 164.485 403.722 164.574 403.545 164.574H403.456C403.189 164.485 402.922 164.396 402.655 164.218C402.478 164.04 402.3 163.862 402.211 163.596V163.507C402.3 163.418 402.3 163.418 402.389 163.418Z" fill="#121B46"/>
<path d="M409.501 169.997C409.234 170.442 408.878 170.886 408.434 171.242C407.989 171.598 407.367 171.775 406.833 171.775C406.211 171.775 405.677 171.598 405.233 171.242C404.966 171.064 404.788 170.886 404.611 170.708C404.433 170.531 404.255 170.264 404.166 170.086C404.433 170.264 404.611 170.442 404.788 170.619C405.055 170.797 405.233 170.886 405.411 171.064C405.855 171.331 406.389 171.42 406.833 171.509C407.367 171.509 407.811 171.331 408.256 171.153C408.701 170.708 409.145 170.353 409.501 169.997Z" fill="#121B46"/>
<path d="M407.544 172.575C407.366 172.753 407.099 172.842 406.744 172.842C406.477 172.842 406.21 172.753 405.944 172.575C406.21 172.575 406.477 172.664 406.744 172.664C407.099 172.664 407.277 172.664 407.544 172.575Z" fill="#121B46"/>
<path d="M405.055 160.395C404.699 160.128 404.343 160.039 403.899 159.95C403.543 159.95 403.099 159.95 402.743 160.128C402.387 160.217 402.032 160.484 401.676 160.75C401.32 161.017 401.143 161.373 400.965 161.64C400.876 161.817 400.965 161.995 401.143 162.084C401.32 162.173 401.409 162.173 401.587 161.995C401.854 161.817 402.032 161.551 402.298 161.462C402.565 161.284 402.832 161.195 403.099 161.106C403.365 161.017 403.632 161.017 403.988 161.017C404.254 161.017 404.61 161.017 404.877 160.928H404.966C405.144 160.839 405.321 160.662 405.232 160.484C405.144 160.484 405.055 160.395 405.055 160.395Z" fill="#121B46"/>
<path d="M408.612 160.395C408.968 160.128 409.323 160.039 409.768 159.95C410.124 159.95 410.568 159.95 410.924 160.128C411.279 160.217 411.635 160.484 411.991 160.75C412.346 161.017 412.524 161.373 412.702 161.639C412.791 161.817 412.702 161.995 412.524 162.084C412.346 162.173 412.257 162.173 412.08 161.995C411.813 161.817 411.635 161.551 411.368 161.462C411.102 161.284 410.835 161.195 410.568 161.106C410.301 161.017 410.035 161.017 409.679 161.017C409.412 161.017 409.057 161.017 408.79 160.928H408.701C408.523 160.839 408.345 160.661 408.434 160.484C408.523 160.484 408.612 160.395 408.612 160.395Z" fill="#121B46"/>
<path d="M407.012 163.24C407.101 163.773 407.19 164.307 407.367 164.929C407.456 165.463 407.545 165.996 407.723 166.53C407.723 166.619 407.812 166.796 407.812 166.885C407.812 166.974 407.901 167.152 407.901 167.33C407.901 167.686 407.723 168.041 407.367 168.219C407.101 168.397 406.745 168.397 406.389 168.308C406.123 168.219 405.856 168.041 405.678 167.863C406.212 168.041 406.834 168.219 407.19 167.952C407.367 167.774 407.456 167.597 407.456 167.419C407.456 167.33 407.456 167.241 407.367 167.063C407.279 166.885 407.279 166.796 407.19 166.619C407.012 166.085 406.923 165.463 406.923 164.929C406.923 164.396 406.923 163.773 407.012 163.24Z" fill="#121B46"/>
<path d="M391.185 167.863C391.185 167.508 391.274 167.152 391.541 166.885C391.896 166.619 392.341 166.619 392.696 166.796C393.052 166.885 393.319 167.152 393.585 167.419C393.852 167.686 394.03 168.041 394.119 168.397C394.208 168.486 394.119 168.664 393.941 168.752C393.852 168.752 393.763 168.752 393.674 168.664C393.408 168.397 393.141 168.13 392.874 168.041C392.696 168.041 392.607 168.041 392.519 168.041C392.43 168.13 392.341 168.308 392.252 168.397C392.163 168.752 392.074 169.108 392.341 169.286C392.607 169.464 393.052 169.375 393.408 169.375C393.052 169.553 392.696 169.642 392.163 169.553C391.896 169.464 391.718 169.197 391.718 169.019C391.718 168.752 391.718 168.575 391.807 168.397C391.896 168.219 391.985 167.952 392.163 167.774C392.341 167.597 392.696 167.508 392.963 167.597C393.408 167.774 393.763 168.041 394.03 168.308L393.585 168.575C393.319 168.041 392.963 167.419 392.43 167.152C392.163 167.063 391.807 166.974 391.629 167.063C391.452 167.241 391.274 167.597 391.185 167.863Z" fill="#121B46"/>
<path d="M386.741 168.93C386.563 168.041 386.918 167.152 387.363 166.441C387.808 165.73 388.43 165.018 388.697 164.218C389.23 162.884 388.963 161.373 389.675 160.217C390.475 158.883 391.897 157.994 393.409 157.55C392.698 156.216 392.787 154.438 393.587 153.193C394.476 151.948 396.076 151.237 397.588 151.415C398.655 151.593 399.722 152.126 400.7 151.77C402.033 151.415 402.656 149.814 403.901 149.37C405.056 149.014 406.301 149.636 407.19 150.437C408.079 151.237 408.969 152.215 410.124 152.571C411.191 152.926 412.436 152.748 413.414 153.282C414.748 154.082 414.926 155.86 414.748 157.372C414.57 158.883 414.214 160.484 414.926 161.906C415.459 162.973 416.615 163.685 416.971 164.84C417.86 167.241 414.926 169.731 415.548 172.22C415.904 173.732 417.504 174.887 417.06 176.399C416.793 177.288 415.993 177.733 415.104 178.088C414.303 178.355 413.414 178.622 412.703 179.155C411.814 179.867 411.458 181.111 410.747 182C409.769 183.156 408.079 183.69 406.568 183.334C406.39 182.445 406.301 181.556 406.301 180.756C406.301 180.489 406.301 180.222 406.301 179.955C408.702 179.422 412.169 177.91 413.059 175.421C413.325 174.799 413.325 174.087 413.325 173.376V172.931C413.325 171.331 413.325 169.731 413.236 168.041C413.236 167.419 413.147 166.708 413.147 166.085C412.97 165.996 412.881 165.818 412.792 165.641C412.525 165.285 412.436 164.752 412.169 164.396C411.191 163.24 409.146 163.862 407.902 162.884C407.101 162.173 406.924 160.928 406.123 160.217C405.234 159.506 403.99 159.772 402.923 160.039C401.856 160.306 400.255 160.395 399.544 159.595C399.9 160.484 399.722 161.551 399.188 162.262C398.566 163.151 397.499 163.685 397.232 164.663C397.054 165.374 397.321 165.996 397.321 166.708C397.41 167.419 397.232 168.219 396.61 168.575C396.165 168.753 395.721 168.664 395.365 168.397C395.009 168.13 394.654 167.775 394.387 167.419C393.854 166.796 393.32 166.085 392.787 165.463C392.787 165.463 392.787 165.463 392.698 165.463C391.542 165.196 390.386 165.996 390.03 167.152C389.764 168.041 389.941 169.019 390.475 169.731C390.919 170.353 391.542 170.975 392.253 171.242C392.431 171.331 393.231 171.42 393.765 171.42C393.942 172.576 394.654 177.11 394.654 181.378C394.12 180.578 393.942 179.511 393.142 179.066C392.164 178.533 390.919 179.066 389.853 178.622C388.874 178.177 388.608 176.844 388.697 175.688C388.786 174.621 389.141 173.465 388.697 172.398C388.519 170.975 387.007 170.264 386.741 168.93Z" fill="#121B46"/>
<path d="M134.432 330.039L134.521 338.663L137.988 343.642L144.834 343.464C144.834 343.464 145.368 339.019 146.257 332.084C142.345 331.283 138.433 330.572 134.432 330.039Z" fill="#ED8D5D"/>
<path d="M149.724 347.821C148.835 347.288 148.124 346.754 147.857 346.398C146.435 344.798 145.368 341.864 145.368 341.864C145.368 341.864 142.611 341.775 139.233 341.419C135.854 341.064 134.343 337.418 134.343 337.418C131.853 339.285 131.32 343.998 131.32 343.998L134.965 345.776L135.854 343.998L136.654 346.221L136.743 346.398L148.035 351.822C148.213 351.911 148.48 352 148.746 352L154.792 351.911H155.859C156.037 349.066 152.747 348.266 149.724 347.821Z" fill="#FDB32C"/>
<path d="M101.002 325.771C100.202 333.418 99.6682 338.308 99.6682 338.308L109.004 347.288L113.361 327.638C109.182 327.105 105.092 326.571 101.002 325.771Z" fill="#ED8D5D"/>
<path d="M114.783 347.377C113.894 346.843 113.183 346.31 112.916 345.954C111.494 344.354 110.427 341.42 110.427 341.42C110.427 341.42 107.67 341.331 104.292 340.975C100.913 340.619 99.4017 336.974 99.4017 336.974C96.9121 338.841 96.3787 343.553 96.3787 343.553L100.024 345.332L100.913 343.553L101.713 345.776L101.802 345.954L113.094 351.378C113.272 351.467 113.539 351.556 113.805 351.556L119.851 351.467H120.918C121.096 348.621 117.806 347.821 114.783 347.377Z" fill="#FDB32C"/>
<path d="M120.919 218.276L151.238 218.365C151.238 218.365 156.039 240.86 155.328 250.463C154.617 260.065 146.259 337.863 146.259 337.863L134.078 334.751L133.367 244.95H131.855L111.583 337.507L99.7581 332.706L108.738 251.352C109.272 246.373 110.427 241.482 112.295 236.77C114.695 231.08 117.985 223.256 120.919 218.276Z" fill="#121B46"/>
<path d="M138.168 228.413C138.168 230.013 138.168 231.613 138.168 233.214L138.079 238.015C138.079 238.104 138.079 238.104 137.99 238.193C136.479 240.505 134.967 242.727 133.367 245.039C133.278 245.128 133.1 245.217 133.011 245.217H131.767C131.5 245.217 131.322 245.039 131.322 244.772C131.589 241.927 131.855 239.082 132.211 236.237C132.567 233.392 132.922 230.546 133.278 227.79C133.189 230.635 133.011 233.481 132.834 236.326C132.656 239.171 132.389 242.016 132.211 244.861L131.767 244.417H133.011L132.656 244.595C134.256 242.372 135.768 240.06 137.368 237.837L137.279 238.015L137.635 233.214C137.813 231.613 137.99 230.013 138.168 228.413Z" fill="white"/>
<path d="M122.698 227.523C122.698 228.857 122.432 230.28 121.987 231.613C121.543 232.947 121.009 234.192 120.12 235.348C119.231 236.503 118.075 237.481 116.741 237.926C115.319 238.371 113.896 238.193 112.562 237.659C113.896 237.837 115.319 237.748 116.475 237.304C117.63 236.77 118.609 235.881 119.409 234.903C120.209 233.836 120.831 232.68 121.365 231.435C121.809 230.102 122.343 228.768 122.698 227.523Z" fill="white"/>
<path d="M148.838 227.701C148.838 228.946 148.927 230.102 149.016 231.347C149.105 232.502 149.283 233.747 149.639 234.814C149.994 235.97 150.439 237.037 151.239 237.837C152.039 238.637 153.106 239.171 154.351 239.349C153.728 239.438 153.106 239.349 152.484 239.26C151.861 239.082 151.239 238.815 150.794 238.371C149.727 237.57 149.194 236.326 148.838 235.081C148.483 233.836 148.394 232.591 148.394 231.347C148.305 230.102 148.483 228.857 148.838 227.701Z" fill="white"/>
<path d="M114.429 237.837C113.718 241.749 113.006 245.661 112.384 249.573C111.762 253.486 111.139 257.398 110.695 261.399L107.761 285.049L104.649 308.7L103.048 320.525L101.27 332.351L102.604 320.525L104.026 308.7L106.96 285.049L109.983 261.221C111.05 253.397 112.74 245.572 114.429 237.837Z" fill="white"/>
<path d="M136.124 241.305C136.302 249.04 136.391 256.775 136.48 264.6L136.569 287.895L136.48 311.19L136.391 322.837L136.213 334.484L135.946 322.837L135.769 311.19L135.68 287.895L135.769 264.6C135.858 256.775 135.946 249.04 136.124 241.305Z" fill="white"/>
<path d="M185.825 152.926L181.291 151.326C181.291 151.326 180.846 151.948 180.135 153.104C177.823 156.661 172.311 165.018 166.176 174.176C165.998 174.265 165.82 174.265 165.554 174.354C164.664 174.621 163.864 174.888 162.975 175.154C163.064 176.399 163.153 177.555 163.153 178.8C163.153 180.4 163.153 182 163.153 183.601C163.509 185.201 163.864 186.802 164.131 188.402C166.62 187.691 169.288 186.891 172.044 186.002C173.111 185.646 174.089 184.846 174.711 183.868C176.401 180.756 178.001 177.555 179.513 174.176C180.224 172.576 180.935 170.887 181.558 169.197C183.514 163.951 185.025 158.528 185.825 152.926Z" fill="#ED8D5D"/>
<path d="M183.78 154.349C183.78 154.349 189.737 149.192 190.804 146.436C190.893 146.258 190.715 146.08 190.537 146.169C190.182 146.258 189.382 146.702 188.137 148.125C188.137 148.125 190.093 144.391 189.826 143.679C189.559 142.968 186.447 147.325 186.447 147.325C186.447 147.325 188.137 142.879 187.692 142.346C187.248 141.812 184.669 146.524 184.669 146.524C184.669 146.524 186.181 141.901 185.736 141.812C184.758 141.634 182.446 148.125 181.824 147.769C181.202 147.502 181.113 145.813 181.202 144.924C181.202 144.746 181.113 144.568 180.935 144.568C180.579 144.568 180.046 144.746 179.868 145.635C179.601 147.058 179.068 150.081 180.313 153.637L183.78 154.349Z" fill="#ED8D5D"/>
<path d="M142.258 180.044L164.13 173.909L166.708 187.957C166.708 187.957 150.704 192.937 144.747 192.314C138.79 191.692 142.258 180.044 142.258 180.044Z" fill="#FDB32C"/>
<path d="M163.152 174.799C163.863 176.844 164.397 178.977 164.841 181.111C165.197 183.245 165.552 185.379 165.641 187.602C164.93 185.557 164.397 183.423 163.952 181.289C163.507 179.155 163.152 176.932 163.152 174.799Z" fill="#121B46"/>
<path d="M209.831 152.748H179.156C177.378 152.748 175.955 151.326 175.955 149.547V118.873C175.955 117.095 177.378 115.672 179.156 115.672H209.831C211.609 115.672 213.032 117.095 213.032 118.873V149.547C213.032 151.326 211.52 152.748 209.831 152.748Z" fill="#A8D0F7"/>
<path d="M127.587 181.556C128.743 176.31 125.365 166.352 124.92 165.107C124.92 165.107 124.92 165.018 124.831 165.018L139.146 170.264C138.968 170.709 138.968 171.153 138.968 171.776C139.057 172.931 139.413 174.443 139.946 175.777C140.657 177.733 141.369 179.333 141.369 179.333L127.587 181.556Z" fill="#ED8D5D"/>
<path d="M140.035 175.777C133.011 177.822 128.032 169.908 127.854 169.642C129.544 171.509 131.589 172.309 133.545 172.487C135.945 172.754 138.168 172.131 139.057 171.865C139.146 173.02 139.591 174.443 140.035 175.777Z" fill="#E6794E"/>
<path d="M127.144 179.244C127.144 179.244 121.987 180.311 119.675 187.513C117.274 194.804 119.408 207.785 118.519 210.186C117.63 212.586 115.229 224.145 117.363 225.123C119.408 226.19 151.328 229.391 153.373 225.123C155.418 220.855 151.328 215.076 151.328 209.563C151.328 204.051 152.484 189.558 152.217 186.268C151.95 182.978 141.458 179.244 141.458 179.244C141.458 179.244 133.367 187.78 127.144 179.244Z" fill="#FDB32C"/>
<path d="M133.545 210.274C135.323 208.852 137.101 207.518 138.879 206.184C140.658 204.762 142.347 203.339 144.125 201.917C142.88 203.784 141.28 205.473 139.502 206.896C137.546 208.318 135.679 209.474 133.545 210.274Z" fill="#121B46"/>
<path d="M139.324 210.986C140.213 210.008 141.191 209.207 142.08 208.407C143.059 207.607 143.948 206.718 145.015 206.007C144.481 207.251 143.681 208.229 142.703 209.118C141.725 209.919 140.569 210.63 139.324 210.986Z" fill="#121B46"/>
<path d="M156.752 169.375C157.641 170.887 158.53 172.398 159.33 173.999C168.132 166.797 177.112 157.639 183.158 146.614L179.424 143.502C179.424 143.502 166.176 153.282 152.75 162.973C154.173 165.018 155.507 167.152 156.752 169.375Z" fill="#ED8D5D"/>
<path d="M182.18 146.88C182.18 146.88 189.56 144.124 191.516 141.901C191.605 141.723 191.605 141.546 191.338 141.546C190.982 141.546 190.093 141.635 188.404 142.524C188.404 142.524 191.516 139.678 191.516 138.967C191.516 138.167 187.159 141.19 187.159 141.19C187.159 141.19 190.271 137.633 190.093 137.011C189.826 136.389 185.825 139.856 185.825 139.856C185.825 139.856 188.848 136.033 188.493 135.766C187.604 135.233 183.247 140.568 182.713 140.034C182.269 139.59 182.802 137.9 183.158 137.189C183.247 137.011 183.158 136.833 182.98 136.744C182.625 136.655 182.091 136.567 181.558 137.367C180.846 138.611 179.335 141.279 179.157 145.013L182.18 146.88Z" fill="#ED8D5D"/>
<path d="M153.729 161.906L160.842 173.198C160.842 173.198 151.239 182.534 143.059 186.98C134.88 191.425 127.055 194.27 123.499 189.647C119.942 185.024 129.1 177.644 132.568 176.043C135.946 174.354 153.729 161.906 153.729 161.906Z" fill="#FDB32C"/>
<path d="M125.278 191.87C125.278 191.87 131.146 195.426 138.259 190.714C138.259 190.714 130.257 201.205 125.278 191.87Z" fill="#121B46"/>
<path d="M140.571 188.136C142.083 187.157 143.594 186.179 145.106 185.113C146.617 184.046 148.129 183.068 149.551 182.001C152.485 179.867 155.33 177.644 158.265 175.421C157.02 176.755 155.775 178.088 154.352 179.244C153.019 180.489 151.507 181.556 150.085 182.623C148.573 183.69 147.062 184.668 145.461 185.557C143.95 186.713 142.26 187.513 140.571 188.136Z" fill="#121B46"/>
<path d="M152.485 163.151C153.907 164.752 155.063 166.441 156.219 168.13C157.375 169.908 158.353 171.687 159.242 173.643C157.82 172.042 156.664 170.353 155.508 168.664C154.352 166.885 153.285 165.107 152.485 163.151Z" fill="#121B46"/>
<path d="M145.104 166.085C144.659 168.752 141.281 170.886 138.88 171.864C135.857 173.02 132.567 172.753 129.722 171.064C127.41 169.73 125.721 167.508 124.832 165.018C123.32 160.928 121.186 153.193 124.654 149.014C129.455 143.146 137.902 143.59 140.302 147.68C140.925 148.747 141.547 149.903 141.992 151.148C142.17 151.503 142.259 151.948 142.436 152.304C143.77 156.127 144.481 160.217 145.015 163.951C145.193 164.751 145.282 165.463 145.104 166.085Z" fill="#ED8D5D"/>
<path d="M141.638 156.927C141.816 157.727 142.172 158.35 142.616 158.261C142.972 158.172 143.239 157.46 143.061 156.66C142.883 155.86 142.527 155.238 142.083 155.327C141.727 155.327 141.46 156.127 141.638 156.927Z" fill="#121B46"/>
<path d="M136.748 157.727C136.925 158.527 136.659 159.239 136.303 159.328C135.947 159.417 135.503 158.794 135.325 157.994C135.147 157.194 135.414 156.482 135.769 156.394C136.214 156.305 136.659 156.838 136.748 157.727Z" fill="#121B46"/>
<path d="M142.615 161.372C142.437 161.906 142.171 162.351 141.726 162.795C141.282 163.24 140.748 163.506 140.215 163.595C139.592 163.684 139.059 163.595 138.525 163.329C138.259 163.24 138.081 163.062 137.814 162.884C137.636 162.706 137.369 162.528 137.192 162.262C137.458 162.351 137.636 162.528 137.903 162.706C138.17 162.795 138.347 162.973 138.614 163.062C139.148 163.24 139.592 163.329 140.126 163.24C140.659 163.151 141.104 162.973 141.459 162.617C141.993 162.173 142.349 161.817 142.615 161.372Z" fill="#121B46"/>
<path d="M141.104 164.307C140.926 164.484 140.659 164.662 140.392 164.662C140.126 164.662 139.859 164.662 139.592 164.484C139.859 164.484 140.126 164.484 140.392 164.484C140.659 164.484 140.837 164.396 141.104 164.307Z" fill="#121B46"/>
<path d="M136.569 152.481C136.213 152.214 135.769 152.214 135.413 152.214C135.057 152.303 134.613 152.392 134.257 152.57C133.901 152.748 133.546 153.015 133.279 153.37C133.012 153.637 132.834 154.082 132.746 154.437C132.657 154.615 132.746 154.793 132.923 154.882C133.101 154.971 133.19 154.882 133.279 154.793C133.457 154.526 133.635 154.259 133.901 154.082C134.079 153.904 134.346 153.726 134.613 153.637C134.879 153.548 135.146 153.459 135.413 153.37C135.68 153.37 136.035 153.281 136.302 153.192H136.391C136.569 153.104 136.658 152.926 136.569 152.748C136.658 152.57 136.569 152.481 136.569 152.481Z" fill="#121B46"/>
<path d="M142.437 152.303H142.348C142.081 152.303 141.726 152.303 141.459 152.392C141.192 152.481 140.837 152.481 140.57 152.481H140.481C140.303 152.481 140.125 152.303 140.125 152.126C140.125 152.037 140.125 151.948 140.214 151.948C140.481 151.592 140.837 151.414 141.281 151.325C141.548 151.236 141.815 151.236 142.081 151.236C142.17 151.592 142.259 151.948 142.437 152.303Z" fill="#121B46"/>
<path d="M140.304 154.615C140.482 155.149 140.748 155.682 140.926 156.216C141.104 156.749 141.282 157.283 141.549 157.727C141.637 157.816 141.637 157.994 141.726 158.083C141.815 158.172 141.904 158.35 141.904 158.527C141.993 158.883 141.815 159.328 141.549 159.505C141.282 159.772 140.926 159.772 140.57 159.683C140.304 159.594 140.037 159.505 139.77 159.328C140.304 159.416 140.926 159.505 141.282 159.15C141.46 158.972 141.548 158.794 141.46 158.616C141.46 158.527 141.371 158.438 141.282 158.261C141.193 158.172 141.104 157.994 141.104 157.905C140.837 157.372 140.659 156.838 140.57 156.216C140.393 155.771 140.304 155.238 140.304 154.615Z" fill="#121B46"/>
<path d="M127.856 162.173C127.767 161.817 127.856 161.461 128.123 161.106C128.389 160.75 128.834 160.75 129.19 160.839C129.545 160.928 129.901 161.106 130.168 161.373C130.434 161.639 130.701 161.906 130.879 162.262C130.968 162.351 130.879 162.528 130.79 162.617C130.701 162.706 130.612 162.706 130.523 162.617C130.256 162.44 129.901 162.173 129.634 162.173C129.456 162.173 129.367 162.173 129.278 162.262C129.19 162.351 129.101 162.528 129.101 162.706C129.012 163.062 129.012 163.418 129.278 163.506C129.634 163.595 129.99 163.506 130.345 163.418C129.99 163.595 129.634 163.862 129.19 163.773C128.923 163.773 128.745 163.506 128.656 163.24C128.567 162.973 128.567 162.795 128.656 162.528C128.656 162.351 128.745 162.084 128.923 161.906C129.101 161.728 129.456 161.55 129.634 161.639C130.168 161.728 130.523 161.906 130.79 162.173L130.434 162.528C130.079 161.995 129.634 161.461 129.101 161.284C128.834 161.195 128.478 161.195 128.211 161.373C127.945 161.55 127.856 161.906 127.856 162.173Z" fill="#121B46"/>
<path d="M144.481 158.439C144.303 155.593 143.236 152.837 141.814 150.437C142.792 149.37 142.792 147.68 141.903 146.524C139.947 144.124 136.39 142.701 133.278 142.612C129.188 142.434 125.009 144.835 123.409 148.658C123.053 148.214 122.698 147.858 122.253 147.414C121.72 148.125 121.542 149.103 121.631 149.992C120.742 150.17 120.208 151.503 120.297 152.393C120.742 152.304 121.008 151.859 121.542 151.77C120.208 155.86 120.564 160.75 122.698 164.396C123.942 166.618 125.632 167.863 125.543 170.442C125.81 170.442 126.165 170.442 126.343 170.175C127.054 169.908 129.899 168.663 130.522 165.285C130.522 165.285 128.121 165.552 127.054 163.418C126.521 162.351 126.61 161.017 127.499 160.217C128.121 159.594 129.099 159.239 130.522 160.306C132.3 161.639 132.478 156.038 131.411 153.993C133.634 153.904 135.768 153.104 137.546 151.859C137.101 151.592 136.479 151.326 136.034 151.059C137.902 151.326 139.769 150.97 141.458 150.17C141.636 150.525 141.814 150.881 141.903 151.237C142.08 151.592 142.169 152.037 142.347 152.393C143.325 155.06 143.948 157.994 144.392 160.75C144.57 159.95 144.57 159.239 144.481 158.439Z" fill="#121B46"/>
<path d="M137.812 150.437C137.812 150.437 128.832 155.86 127.942 165.196C127.942 165.196 126.698 167.952 125.008 168.575C125.008 168.575 118.073 162.351 119.407 152.126C120.741 141.901 130.343 142.257 130.343 142.257C130.343 142.257 136.122 138.167 140.924 143.235C144.391 146.88 144.48 160.661 144.48 160.661L142.435 152.304C142.435 152.304 139.679 150.259 137.812 150.437Z" fill="#F46A2B"/>
<path d="M130.789 142.612C131.678 142.879 132.479 143.234 133.19 143.679C133.99 144.124 134.701 144.657 135.324 145.279C135.946 145.902 136.569 146.613 137.013 147.413C137.458 148.214 137.724 149.103 137.813 149.992C137.369 149.192 136.924 148.48 136.391 147.858C135.857 147.236 135.324 146.613 134.701 145.991C133.546 144.746 132.212 143.679 130.789 142.612Z" fill="#121B46"/>
<path d="M128.388 143.768C128.744 143.501 129.188 143.412 129.633 143.323C130.078 143.235 130.433 143.235 130.967 143.323C130.611 143.59 130.166 143.679 129.722 143.768C129.188 143.857 128.833 143.857 128.388 143.768Z" fill="#121B46"/>
<path d="M129.722 146.169C130.077 145.813 130.433 145.546 130.789 145.368C131.144 145.191 131.589 144.924 132.033 144.835C131.767 145.279 131.411 145.546 130.966 145.724C130.611 145.991 130.166 146.169 129.722 146.169Z" fill="#121B46"/>
<path d="M132.033 148.214C132.211 147.858 132.478 147.591 132.656 147.324C132.922 147.058 133.189 146.88 133.545 146.702C133.456 147.058 133.189 147.413 132.922 147.68C132.744 147.858 132.478 148.036 132.033 148.214Z" fill="#121B46"/>
<path d="M134.523 150.259C134.523 149.903 134.612 149.636 134.789 149.458C134.967 149.192 135.145 149.014 135.412 148.836C135.412 149.192 135.323 149.458 135.145 149.636C134.967 149.903 134.789 150.081 134.523 150.259Z" fill="#121B46"/>
<path d="M133.101 142.701C133.278 142.346 133.634 142.168 133.901 141.99C134.168 141.812 134.523 141.723 134.879 141.723C134.701 142.079 134.345 142.257 134.079 142.434C133.812 142.523 133.545 142.701 133.101 142.701Z" fill="#121B46"/>
<path d="M134.878 143.857C134.967 143.501 135.144 143.323 135.411 143.146C135.589 142.968 135.856 142.879 136.211 142.79C136.122 143.057 135.945 143.323 135.678 143.501C135.5 143.679 135.233 143.768 134.878 143.857Z" fill="#121B46"/>
<path d="M136.39 145.724C136.657 145.368 136.924 145.191 137.28 145.013C137.635 144.835 137.902 144.657 138.346 144.657C138.08 145.013 137.813 145.191 137.457 145.368C137.102 145.546 136.746 145.724 136.39 145.724Z" fill="#121B46"/>
<path d="M137.991 147.947C138.169 147.68 138.525 147.502 138.792 147.413C139.147 147.325 139.414 147.325 139.77 147.413C139.503 147.591 139.147 147.769 138.881 147.858C138.614 147.858 138.347 147.947 137.991 147.947Z" fill="#121B46"/>
<path d="M272.694 53.7893C272.694 53.7893 275.806 53.078 275.895 52.6335C275.984 52.1889 272.428 52.5446 272.428 52.5446C272.428 52.5446 275.54 51.6554 275.451 51.3887C275.184 50.7663 270.738 51.9222 270.65 51.4776C270.561 51.0331 271.45 50.3218 271.983 50.055C272.072 49.9661 272.161 49.8772 272.072 49.7883C271.894 49.6105 271.628 49.3437 271.094 49.6105C270.65 49.7883 269.938 50.1439 269.049 50.6774L265.582 50.9441C265.582 52.0111 265.493 53.078 265.582 54.145C265.582 55.2119 265.67 56.19 265.759 57.168C267.893 56.19 269.138 55.4787 269.494 55.3008C271.183 55.6565 273.672 56.101 274.917 55.8343C275.006 55.8343 275.095 55.6565 275.006 55.5676C274.828 55.3897 274.295 55.123 272.961 54.9452C272.961 54.9452 275.717 54.5895 276.073 54.2339C276.251 53.8782 272.694 53.7893 272.694 53.7893Z" fill="#F7BB8B"/>
<path d="M241.931 31.6503C241.931 31.6503 246.021 30.939 247.532 35.029C249.044 39.1189 253.578 51.5666 253.578 51.5666L267.182 50.4997C267.182 50.4997 268.516 55.7455 268.604 56.5457C268.693 57.3459 251.178 63.0363 247.443 62.0582C243.709 61.0802 238.374 40.5415 238.374 40.5415C238.374 40.5415 237.574 32.984 241.931 31.6503Z" fill="#35C4A6"/>
<path d="M279.363 70.4153C279.452 70.5042 279.63 70.6821 279.719 70.771C281.053 68.5482 282.386 66.4143 283.809 64.2804C283.987 64.0137 284.165 63.7469 284.342 63.4802C284.253 63.5691 284.076 63.5691 283.987 63.658L279.185 60.3683C277.941 62.1465 276.607 63.8358 275.362 65.6141C274.829 66.3254 274.384 67.1256 273.94 67.8369C277.318 69.4373 279.363 70.4153 279.363 70.4153Z" fill="#E68B6E"/>
<path d="M278.919 70.5936C278.919 70.5936 281.408 73.0832 283.009 73.261C284.609 73.4388 290.477 62.3248 290.477 60.7244C290.477 59.124 283.631 62.8583 283.631 62.8583L278.919 70.5936Z" fill="#35C4A6"/>
<path d="M241.219 51.6555C241.219 51.6555 255.09 46.7654 257.579 46.7654C260.069 46.7654 263.181 48.6325 264.248 49.7884C265.314 50.9442 283.541 62.9473 283.541 62.9473L278.385 70.1492L258.557 60.3689C258.557 60.3689 245.398 67.8375 239.174 67.2151C232.951 66.5927 238.374 52.7225 238.552 52.7225C238.73 52.7225 241.219 51.6555 241.219 51.6555Z" fill="#121B46"/>
<path d="M286.121 63.6586C285.854 64.1031 285.587 64.4588 285.409 64.6366L278.118 63.9253C278.03 67.0372 278.03 70.0602 278.207 73.1722C282.12 72.9943 284.698 72.8165 284.698 72.8165C285.142 72.9943 285.587 73.0832 286.032 73.1722C286.121 70.0602 286.121 66.8594 286.121 63.6586Z" fill="#F7BB8B"/>
<path d="M284.609 73.261C284.609 73.261 287.988 74.4169 289.5 73.7945C291.011 73.261 291.189 60.6355 290.478 59.2129C289.766 57.7904 285.321 64.2809 285.321 64.2809L284.609 73.261Z" fill="#35C4A6"/>
<path d="M219.703 57.9684C219.703 57.9684 214.279 68.9935 217.836 73.8836C221.392 78.6849 283.72 74.1504 283.72 74.1504L284.075 64.4589L241.753 59.9244L240.33 57.7905L219.703 57.9684Z" fill="#121B46"/>
<path d="M230.995 30.4056C232.506 31.9171 234.374 32.9841 237.041 33.073C239.175 33.1619 241.398 32.2728 243.354 31.5615C243.443 31.5615 243.532 31.4726 243.62 31.4726C242.909 30.9391 242.376 30.4056 242.02 29.6943C242.02 29.3387 242.02 28.8941 242.02 28.4495C242.02 27.2937 242.109 26.0489 242.465 25.0709C242.642 24.6263 242.82 24.1818 242.998 23.915L233.396 15.8241V15.913C233.396 16.8021 233.218 23.3816 231.617 27.5604C230.995 27.6493 230.195 27.6493 229.395 27.5604C229.839 28.5385 230.373 29.5165 230.995 30.4056Z" fill="#F7BB8B"/>
<path d="M242.02 28.4496C236.063 28.0051 234.463 20.4476 234.374 20.1808C235.085 22.1369 236.508 23.2927 237.93 24.004C239.708 24.8932 241.576 25.071 242.376 25.071C242.109 26.049 242.02 27.2938 242.02 28.4496Z" fill="#EBA771"/>
<path d="M247.711 35.9181C246.999 32.5394 242.109 29.6942 242.109 29.6942C242.109 29.6942 241.398 31.2058 238.997 31.7392C236.863 32.1838 232.596 27.7382 231.795 26.938C232.062 26.4934 232.418 25.6043 232.595 23.8261C232.595 23.8261 223.349 22.6702 219.97 25.7821C216.591 28.894 215.524 36.985 218.103 38.5854C219.259 39.2967 220.681 39.4746 221.837 39.2967C221.659 44.3647 221.57 49.9662 220.948 51.0331C219.792 53.0781 216.502 59.1241 218.37 59.7465C220.237 60.4578 243.354 60.9024 242.998 59.5687C242.643 58.3239 245.043 51.122 245.043 51.122C245.043 51.122 248.422 39.2967 247.711 35.9181Z" fill="#35C4A6"/>
<path d="M222.017 39.119C222.017 37.6075 222.194 36.0071 222.372 34.4956C222.55 32.9841 222.817 31.4726 223.35 29.961C223.528 29.6054 223.617 29.2497 223.884 28.8052C223.973 28.6274 224.15 28.4495 224.328 28.2717C224.506 28.0939 224.684 28.005 224.862 27.9161C225.662 27.5604 226.373 27.2937 227.173 27.1159C228.685 26.7602 230.285 26.6713 231.797 26.6713L231.708 27.2048C230.285 26.7602 228.952 26.3157 227.529 25.7822C228.952 26.0489 230.374 26.3157 231.797 26.5824C231.975 26.5824 232.064 26.7602 231.975 26.938C231.975 27.027 231.886 27.1159 231.708 27.1159C230.196 27.2937 228.685 27.4715 227.262 27.8272C226.551 28.005 225.84 28.1828 225.217 28.5385C225.04 28.6274 224.951 28.7163 224.773 28.8052C224.684 28.8941 224.595 28.983 224.506 29.1608C224.328 29.4276 224.15 29.7832 224.062 30.1389C223.528 31.5615 223.172 33.073 222.906 34.4956L222.017 39.119Z" fill="#121B46"/>
<path d="M263.43 23.4501L261.871 22.5954L257.042 31.4057L258.601 32.2603L263.43 23.4501Z" fill="#121B46"/>
<path d="M261.581 28.6276C261.847 27.9163 261.314 27.205 261.314 27.205L260.869 27.9163C260.869 27.9163 259.091 30.317 258.646 29.7835C258.202 29.25 259.091 27.7385 259.091 27.7385C259.091 27.7385 259.002 27.4718 258.291 27.6496C257.668 27.7385 256.779 29.9613 256.424 30.7615L253.845 32.8065C255.179 34.2291 256.601 35.6517 258.024 37.0743C259.18 35.2071 259.802 34.0513 259.98 33.6956C260.069 33.6956 261.225 32.8954 261.492 32.6287C261.669 32.3619 261.847 31.6506 261.847 31.6506C262.203 31.2061 261.936 30.4059 261.936 30.4059C262.292 29.3389 261.581 28.6276 261.581 28.6276Z" fill="#F7BB8B"/>
<path d="M231.884 27.4718C231.884 27.4718 224.949 28.6276 225.393 34.5847C225.749 40.6307 238.552 52.7228 242.109 52.6338C245.754 52.456 259.269 40.0973 259.891 36.9853C260.514 33.8734 255.179 30.7615 255.179 30.7615L244.243 39.5638L231.884 27.4718Z" fill="#35C4A6"/>
<path d="M245.131 51.3003C245.131 51.3003 240.24 52.3672 238.107 51.1224C231.083 46.8547 225.748 36.9854 225.748 36.9854C225.748 36.9854 230.016 50.4111 237.04 52.4561C244.064 54.5011 245.131 51.3003 245.131 51.3003Z" fill="#121B46"/>
<path d="M236.417 32.0953C237.928 33.0734 239.262 34.3181 240.596 35.474C241.93 36.7187 243.174 37.9635 244.33 39.2972C244.419 39.3861 244.419 39.5639 244.33 39.5639C243.886 39.9196 243.352 40.2752 242.819 40.6309C243.174 40.0974 243.619 39.6528 243.975 39.2083V39.5639C242.552 38.4081 241.218 37.2522 239.973 36.0074C238.729 34.7627 237.484 33.5179 236.417 32.0953Z" fill="#121B46"/>
<path d="M244.597 40.6309C244.153 40.542 244.064 40.3642 243.975 40.1863C243.886 40.0085 243.886 39.7418 244.153 39.475C244.597 39.5639 244.686 39.7418 244.775 39.9196C244.864 40.0974 244.864 40.3642 244.597 40.6309Z" fill="#121B46"/>
<path d="M254.555 31.9175C255.711 32.3621 256.689 33.1623 257.49 33.9625C257.934 34.407 258.29 34.8516 258.645 35.3851C258.912 35.9185 259.268 36.5409 259.179 37.1633C258.912 36.6298 258.468 36.2742 258.112 35.8296L256.867 34.5849C256.067 33.7846 255.267 32.8955 254.555 31.9175Z" fill="#121B46"/>
<path d="M250.555 10.4894V10.7561C250.555 12.4454 250.377 14.1348 250.11 15.7352C249.844 17.4245 249.577 19.1138 249.221 20.7143C249.221 20.8032 249.221 20.8921 249.132 20.8921C249.043 21.4255 248.865 21.8701 248.599 22.3147C247.443 24.2707 244.242 24.982 242.197 24.982C239.53 24.982 237.04 23.8262 235.351 21.7812C233.928 20.0919 233.306 17.8691 233.306 15.7352C233.306 12.1787 233.839 5.51031 237.752 3.28751C243.175 0.175589 249.488 2.84295 250.199 6.75507C250.377 7.64419 250.466 8.53331 250.466 9.42243V9.68917C250.555 10.0448 250.555 10.3116 250.555 10.4894Z" fill="#F7BB8B"/>
<path d="M244.953 14.0457C244.864 13.9568 244.686 13.779 244.597 13.6901C244.419 13.6012 244.242 13.5123 244.064 13.5123C243.708 13.4234 243.352 13.5123 242.997 13.6012C242.819 13.6901 242.641 13.5123 242.552 13.3344C242.463 13.1566 242.641 12.9788 242.819 12.8899C243.263 12.801 243.797 12.8899 244.242 12.9788C244.508 13.0677 244.686 13.1566 244.864 13.3344C245.042 13.5123 245.22 13.6901 245.308 13.8679C245.397 13.9568 245.308 14.1347 245.22 14.1347C245.131 14.2236 245.042 14.1347 244.953 14.0457Z" fill="#121B46"/>
<path d="M247.532 14.2236C247.799 14.1346 247.976 14.0457 248.154 14.0457C248.421 14.0457 248.599 14.0457 248.865 14.0457C249.31 14.1346 249.666 14.4014 250.021 14.6681C250.199 14.757 250.199 15.0238 250.11 15.2016C250.021 15.3794 249.755 15.3794 249.577 15.2905C249.31 15.0238 249.043 14.8459 248.688 14.6681C248.51 14.5792 248.332 14.5792 248.154 14.5792C247.976 14.5792 247.799 14.5792 247.71 14.6681C247.621 14.6681 247.443 14.6681 247.443 14.5792C247.443 14.3125 247.443 14.2236 247.532 14.2236Z" fill="#121B46"/>
<path d="M247.975 17.6909C247.709 18.0466 247.353 18.3133 246.908 18.4911C246.464 18.6689 246.019 18.7578 245.486 18.6689C245.041 18.58 244.597 18.3133 244.241 17.9576C244.063 17.7798 243.974 17.602 243.797 17.4242C243.708 17.2464 243.619 16.9796 243.53 16.8018C243.708 16.9796 243.797 17.1574 243.974 17.3353C244.152 17.5131 244.241 17.6909 244.419 17.7798C244.775 18.0466 245.13 18.2244 245.486 18.3133C245.93 18.4022 246.286 18.3133 246.731 18.2244C247.264 18.1355 247.62 17.9576 247.975 17.6909Z" fill="#121B46"/>
<path d="M246.019 19.5581C245.841 19.6471 245.574 19.6471 245.397 19.6471C245.13 19.5581 244.952 19.4692 244.774 19.2914C244.952 19.3803 245.219 19.4692 245.397 19.4692C245.574 19.5581 245.752 19.5581 246.019 19.5581Z" fill="#121B46"/>
<path d="M245.842 9.06651C245.575 8.79977 245.309 8.62194 244.953 8.53303C244.597 8.44412 244.331 8.44412 243.975 8.44412C243.619 8.44412 243.264 8.62194 242.997 8.79977C242.73 8.97759 242.464 9.15542 242.286 9.42215C242.197 9.51106 242.197 9.68889 242.286 9.86671C242.375 9.95562 242.552 9.95562 242.641 9.86671C242.908 9.68889 243.086 9.59998 243.353 9.51107C243.619 9.42215 243.797 9.42215 244.064 9.33324C244.331 9.33324 244.508 9.33324 244.775 9.42215C245.042 9.51106 245.22 9.51107 245.575 9.51107H245.664C245.842 9.51107 245.931 9.33324 245.931 9.15542C245.931 9.24433 245.842 9.15542 245.842 9.06651Z" fill="#121B46"/>
<path d="M250.555 10.489V10.7557C250.466 10.6668 250.288 10.5779 250.11 10.489C249.843 10.4001 249.665 10.3112 249.399 10.3112C249.132 10.3112 248.865 10.3112 248.687 10.1333H248.598C248.421 10.0444 248.332 9.8666 248.421 9.77769C248.421 9.68878 248.51 9.68878 248.51 9.59987C248.776 9.42204 249.132 9.33313 249.488 9.42204C249.843 9.51095 250.11 9.51095 250.466 9.68878H250.555C250.555 10.0444 250.555 10.3112 250.555 10.489Z" fill="#121B46"/>
<path d="M246.997 11.7339C246.997 12.1785 246.997 12.712 246.997 13.1565C246.997 13.6011 246.997 14.0457 246.997 14.5791C246.997 14.668 246.997 14.8459 246.997 14.9348C246.997 15.0237 247.085 15.2015 246.997 15.3793C246.997 15.6461 246.73 15.9128 246.463 16.0017C246.196 16.0906 245.93 16.0017 245.663 15.9128C245.485 15.8239 245.307 15.6461 245.129 15.4682C245.485 15.735 246.019 15.9128 246.374 15.735C246.552 15.6461 246.641 15.5572 246.641 15.3793C246.641 15.2904 246.641 15.2015 246.641 15.1126C246.641 15.0237 246.641 14.8459 246.552 14.757C246.552 14.3124 246.552 13.7789 246.641 13.3344C246.73 12.712 246.819 12.2674 246.997 11.7339Z" fill="#121B46"/>
<path d="M237.306 12.8008C237.395 12.534 237.484 12.2673 237.751 12.0895C238.017 11.9117 238.462 12.0006 238.64 12.1784C238.907 12.3562 239.084 12.623 239.262 12.8897C239.44 13.1564 239.529 13.4232 239.529 13.7788C239.529 13.8677 239.44 13.9566 239.351 14.0455C239.262 14.0455 239.173 14.0455 239.173 13.9566C238.995 13.6899 238.818 13.4232 238.551 13.3343C238.462 13.2453 238.373 13.2453 238.284 13.3343C238.195 13.3343 238.106 13.5121 238.017 13.601C237.84 13.8677 237.751 14.1345 237.929 14.3123C238.106 14.4901 238.462 14.4901 238.818 14.579C238.462 14.6679 238.195 14.6679 237.84 14.4901C237.662 14.4012 237.573 14.1345 237.573 13.9566C237.573 13.7788 237.662 13.601 237.751 13.4232C237.84 13.2453 237.929 13.0675 238.106 12.9786C238.284 12.8897 238.551 12.8897 238.729 12.9786C239.084 13.1564 239.262 13.4232 239.529 13.7788L239.173 13.9566C239.084 13.4232 238.907 12.8897 238.462 12.623C238.284 12.4451 238.017 12.3562 237.751 12.4451C237.573 12.2673 237.395 12.534 237.306 12.8008Z" fill="#121B46"/>
<path d="M251.8 7.91081C251.178 4.08759 247.977 0.797855 244.065 0.175471C240.242 -0.446913 236.774 0.531118 234.996 3.99868C234.285 3.73195 233.573 4.17651 233.129 4.79889C232.773 5.42127 232.595 6.13257 232.506 6.84387C232.062 9.77796 231.706 12.7121 231.262 15.6462C231.084 16.7131 230.995 17.8689 231.439 18.9359C231.706 19.5583 232.329 20.0028 232.951 20.1807H233.04C237.841 20.892 239.353 15.9129 239.353 15.9129C236.774 15.7351 236.33 14.2236 236.33 13.1566C236.33 12.3564 236.774 11.5562 237.574 11.2895C238.908 10.8449 239.886 12.1786 239.886 12.1786C241.664 11.2895 242.909 9.24449 242.82 7.19951C244.421 9.77796 247.355 11.2006 250.378 11.1116C250.378 12.3564 250.289 13.6901 250.111 14.9349C251.8 12.7121 252.245 10.756 251.8 7.91081Z" fill="#121B46"/>
<path d="M402.948 129.453H354.491C353.158 129.453 352.091 128.386 352.091 127.053V95.578C352.091 94.2443 353.158 93.1773 354.491 93.1773H402.948C404.282 93.1773 405.349 94.2443 405.349 95.578V126.964C405.349 128.386 404.282 129.453 402.948 129.453Z" fill="#BCDFFD"/>
<path d="M405.349 97.8008V95.578C405.349 94.2443 404.282 93.1773 402.948 93.1773H354.491C353.158 93.1773 352.091 94.2443 352.091 95.578V97.8008H405.349Z" fill="#121B46"/>
<path d="M392.546 96.2894C393.086 96.2894 393.524 95.8515 393.524 95.3114C393.524 94.7712 393.086 94.3333 392.546 94.3333C392.005 94.3333 391.568 94.7712 391.568 95.3114C391.568 95.8515 392.005 96.2894 392.546 96.2894Z" fill="#C8D5E8"/>
<path d="M397.436 95.3113C397.436 95.8448 396.992 96.2893 396.458 96.2893C395.925 96.2893 395.48 95.8448 395.48 95.3113C395.48 94.7778 395.925 94.3333 396.458 94.3333C396.992 94.3333 397.436 94.7778 397.436 95.3113Z" fill="#C8D5E8"/>
<path d="M401.349 95.3113C401.349 95.8448 400.904 96.2893 400.371 96.2893C399.837 96.2893 399.393 95.8448 399.393 95.3113C399.393 94.7778 399.837 94.3333 400.371 94.3333C400.904 94.3333 401.349 94.7778 401.349 95.3113Z" fill="#C8D5E8"/>
<path d="M165.197 69.4378H116.74C115.407 69.4378 114.34 68.3708 114.34 67.0371V35.5623C114.34 34.2286 115.407 33.1617 116.74 33.1617H165.197C166.531 33.1617 167.598 34.2286 167.598 35.5623V67.0371C167.598 68.2819 166.531 69.4378 165.197 69.4378Z" fill="#BCDFFD"/>
<path d="M167.598 37.7851V35.5623C167.598 34.2286 166.531 33.1617 165.197 33.1617H116.74C115.407 33.1617 114.34 34.2286 114.34 35.5623V37.7851H167.598Z" fill="#121B46"/>
<path d="M154.794 36.2737C155.335 36.2737 155.772 35.8358 155.772 35.2956C155.772 34.7555 155.335 34.3176 154.794 34.3176C154.254 34.3176 153.816 34.7555 153.816 35.2956C153.816 35.8358 154.254 36.2737 154.794 36.2737Z" fill="#C8D5E8"/>
<path d="M159.685 35.2957C159.685 35.8292 159.24 36.2738 158.707 36.2738C158.173 36.2738 157.729 35.8292 157.729 35.2957C157.729 34.7623 158.173 34.3177 158.707 34.3177C159.24 34.3177 159.685 34.7623 159.685 35.2957Z" fill="#C8D5E8"/>
<path d="M162.53 36.2738C163.07 36.2738 163.508 35.8359 163.508 35.2957C163.508 34.7556 163.07 34.3177 162.53 34.3177C161.99 34.3177 161.552 34.7556 161.552 35.2957C161.552 35.8359 161.99 36.2738 162.53 36.2738Z" fill="#C8D5E8"/>
<path d="M163.242 43.12H118.609C117.986 43.12 117.542 42.5865 117.542 42.053C117.542 41.4306 118.075 40.9861 118.609 40.9861H163.242C163.865 40.9861 164.309 41.5196 164.309 42.053C164.398 42.6754 163.865 43.12 163.242 43.12Z" fill="#DAEDFD"/>
<path d="M163.242 48.7215H118.609C117.986 48.7215 117.542 48.188 117.542 47.6545C117.542 47.0322 118.075 46.5876 118.609 46.5876H163.242C163.865 46.5876 164.309 47.1211 164.309 47.6545C164.398 48.2769 163.865 48.7215 163.242 48.7215Z" fill="#DAEDFD"/>
<path d="M163.242 54.4117H118.609C117.986 54.4117 117.542 53.8783 117.542 53.3448C117.542 52.7224 118.075 52.2778 118.609 52.2778H163.242C163.865 52.2778 164.309 52.8113 164.309 53.3448C164.398 53.8783 163.865 54.4117 163.242 54.4117Z" fill="#DAEDFD"/>
<path d="M163.242 60.0132H118.609C117.986 60.0132 117.542 59.4798 117.542 58.9463C117.542 58.3239 118.075 57.8793 118.609 57.8793H163.242C163.865 57.8793 164.309 58.4128 164.309 58.9463C164.398 59.4798 163.865 60.0132 163.242 60.0132Z" fill="#DAEDFD"/>
<path d="M163.242 65.6146H118.609C117.986 65.6146 117.542 65.0812 117.542 64.5477C117.542 63.9253 118.075 63.4807 118.609 63.4807H163.242C163.865 63.4807 164.309 64.0142 164.309 64.5477C164.398 65.1701 163.865 65.6146 163.242 65.6146Z" fill="#DAEDFD"/>
<path d="M145.726 43.1199H136.835C136.213 43.1199 135.768 42.5865 135.768 42.053C135.768 41.4306 136.302 40.986 136.835 40.986H145.726C146.349 40.986 146.793 41.5195 146.793 42.053C146.882 42.6754 146.349 43.1199 145.726 43.1199Z" fill="#FDB32C"/>
<path d="M133.012 48.7215H118.609C117.986 48.7215 117.542 48.188 117.542 47.6545C117.542 47.0322 118.075 46.5876 118.609 46.5876H133.012C133.635 46.5876 134.079 47.1211 134.079 47.6545C134.168 48.2769 133.635 48.7215 133.012 48.7215Z" fill="#F46A2B"/>
<path d="M157.552 54.4117H147.861C147.239 54.4117 146.794 53.8783 146.794 53.3448C146.794 52.7224 147.327 52.2778 147.861 52.2778H157.552C158.175 52.2778 158.619 52.8113 158.619 53.3448C158.619 53.8783 158.175 54.4117 157.552 54.4117Z" fill="#F46A2B"/>
<path d="M143.415 60.0132H139.681C139.058 60.0132 138.614 59.4798 138.614 58.9463C138.614 58.3239 139.147 57.8793 139.681 57.8793H143.415C144.037 57.8793 144.482 58.4128 144.482 58.9463C144.571 59.4798 144.037 60.0132 143.415 60.0132Z" fill="#FDB32C"/>
<path d="M136.481 65.1701H128.479C127.856 65.1701 127.412 64.6366 127.412 64.1032C127.412 63.4808 127.945 63.0362 128.479 63.0362H136.481C137.103 63.0362 137.548 63.5697 137.548 64.1032C137.637 64.7256 137.103 65.1701 136.481 65.1701Z" fill="#F46A2B"/>
<path d="M517.823 134.522H477.368V196.76H517.823V134.522Z" fill="#4895E0"/>
<path d="M511.955 154.793C511.955 158.172 510.799 161.373 508.754 163.862C506.087 167.152 502.086 169.197 497.551 169.197C492.928 169.197 488.838 167.063 486.171 163.596C484.304 161.195 483.148 158.083 483.148 154.793C483.148 146.88 489.549 140.39 497.551 140.39C505.554 140.39 511.955 146.88 511.955 154.793Z" fill="white"/>
<path d="M497.462 154.793C499.672 154.793 501.463 153.002 501.463 150.792C501.463 148.583 499.672 146.791 497.462 146.791C495.253 146.791 493.461 148.583 493.461 150.792C493.461 153.002 495.253 154.793 497.462 154.793Z" fill="#121B46"/>
<path d="M508.754 163.862C506.086 167.152 502.085 169.197 497.551 169.197C492.927 169.197 488.837 167.063 486.17 163.596C488.393 159.683 492.572 157.016 497.373 157.016C502.352 157.016 506.62 159.772 508.754 163.862Z" fill="#121B46"/>
<path d="M512.222 173.198H482.881V177.466H512.222V173.198Z" fill="white"/>
<path d="M512.222 183.245H482.881V187.513H512.222V183.245Z" fill="white"/>
<path d="M493.017 170.975H483.059V171.865H493.017V170.975Z" fill="#121B46"/>
<path d="M493.017 181.289H483.059V182.178H493.017V181.289Z" fill="#121B46"/>
<path d="M119.765 61.258H79.3096V123.496H119.765V61.258Z" fill="#FDB32C"/>
<path d="M502.619 105.092C499.951 105.092 497.817 102.958 497.817 100.29C497.817 97.623 499.951 95.4892 502.619 95.4892C505.286 95.4892 507.42 97.623 507.42 100.29C507.42 102.958 505.286 105.092 502.619 105.092ZM502.619 96.8228C500.663 96.8228 499.151 98.4232 499.151 100.29C499.151 102.158 500.751 103.758 502.619 103.758C504.575 103.758 506.086 102.158 506.086 100.29C506.086 98.4232 504.575 96.8228 502.619 96.8228Z" fill="#79B9F7"/>
<path d="M433.268 278.114C433.268 279.448 432.201 280.515 430.867 280.515C429.534 280.515 428.467 279.448 428.467 278.114C428.467 276.781 429.534 275.714 430.867 275.714C432.201 275.714 433.268 276.781 433.268 278.114Z" fill="#79B9F7"/>
<path d="M12.4478 116.917C12.4478 118.517 11.1141 119.851 9.51369 119.851C7.91327 119.851 6.57959 118.517 6.57959 116.917C6.57959 115.317 7.91327 113.983 9.51369 113.983C11.1141 113.894 12.4478 115.228 12.4478 116.917Z" fill="#79B9F7"/>
<path d="M2.93409 211.697C4.55455 211.697 5.86819 210.383 5.86819 208.763C5.86819 207.143 4.55455 205.829 2.93409 205.829C1.31364 205.829 0 207.143 0 208.763C0 210.383 1.31364 211.697 2.93409 211.697Z" fill="#79B9F7"/>
<path d="M58.682 176.043C56.1925 176.043 54.0586 173.998 54.0586 171.42C54.0586 168.842 56.1036 166.797 58.682 166.797C61.1715 166.797 63.3054 168.842 63.3054 171.42C63.3054 173.998 61.1715 176.043 58.682 176.043ZM58.682 167.686C56.637 167.686 54.9477 169.375 54.9477 171.42C54.9477 173.465 56.637 175.154 58.682 175.154C60.727 175.154 62.4163 173.465 62.4163 171.42C62.4163 169.375 60.727 167.686 58.682 167.686Z" fill="#79B9F7"/>
<path d="M389.435 74.9505C387.212 74.9505 385.434 73.1723 385.434 70.9495C385.434 68.7267 387.212 66.9484 389.435 66.9484C391.657 66.9484 393.436 68.7267 393.436 70.9495C393.436 73.1723 391.569 74.9505 389.435 74.9505ZM389.435 67.8376C387.745 67.8376 386.323 69.2602 386.323 70.9495C386.323 72.6388 387.745 74.0614 389.435 74.0614C391.124 74.0614 392.547 72.6388 392.547 70.9495C392.547 69.2602 391.124 67.8376 389.435 67.8376Z" fill="#79B9F7"/>
<path d="M77.0875 41.8752C75.3982 41.8752 73.9756 40.4526 73.9756 38.7633C73.9756 37.074 75.3982 35.6514 77.0875 35.6514C78.7768 35.6514 80.1994 37.074 80.1994 38.7633C80.1994 40.5416 78.7768 41.8752 77.0875 41.8752ZM77.0875 36.5405C75.8427 36.5405 74.8647 37.5185 74.8647 38.7633C74.8647 40.0081 75.8427 40.9861 77.0875 40.9861C78.3323 40.9861 79.3103 40.0081 79.3103 38.7633C79.3103 37.6075 78.3323 36.5405 77.0875 36.5405Z" fill="#79B9F7"/>
<path d="M28.2748 250.64C28.097 250.64 27.9192 250.463 27.8302 250.285C27.7413 250.018 27.9192 249.84 28.1859 249.751C30.142 249.307 32.0091 248.418 33.6095 247.173C33.7873 246.995 34.0541 247.084 34.2319 247.262C34.4097 247.44 34.3208 247.706 34.143 247.884C32.4537 249.218 30.4976 250.196 28.3637 250.64H28.2748ZM22.051 250.64H21.9621C19.9171 250.107 17.8721 249.129 16.2717 247.795C16.0939 247.617 16.0939 247.351 16.1828 247.173C16.3606 246.995 16.6273 246.995 16.8052 247.084C18.3167 248.329 20.1838 249.307 22.1399 249.751C22.4066 249.84 22.4955 250.018 22.4955 250.285C22.4955 250.463 22.3177 250.64 22.051 250.64ZM37.6995 243.261C37.6106 243.261 37.6106 243.261 37.5216 243.261C37.3438 243.172 37.166 242.905 37.3438 242.638C38.2329 240.86 38.6775 238.815 38.6775 236.859C38.6775 236.592 38.8553 236.415 39.1221 236.415C39.3888 236.415 39.5666 236.592 39.5666 236.859C39.5666 238.993 39.1221 241.127 38.144 243.083C38.0551 243.172 37.8773 243.261 37.6995 243.261ZM12.8041 242.994C12.6263 242.994 12.4485 242.905 12.3596 242.727C11.4704 240.86 11.0259 238.815 11.0259 236.77V236.503C11.0259 236.237 11.2037 236.059 11.4704 236.059C11.7372 236.059 11.915 236.237 11.915 236.503V236.77C11.915 238.726 12.3596 240.593 13.1598 242.372C13.2487 242.638 13.1598 242.816 12.9819 242.994C12.893 242.994 12.893 242.994 12.8041 242.994ZM37.8773 231.702C37.6995 231.702 37.5216 231.613 37.4327 231.435C36.6325 229.568 35.3878 227.968 33.8763 226.634C33.6984 226.456 33.6984 226.19 33.7873 226.012C33.9652 225.834 34.2319 225.834 34.4097 225.923C36.0101 227.346 37.3438 229.035 38.2329 230.991C38.3219 231.258 38.2329 231.435 37.9662 231.613C38.0551 231.613 37.9662 231.702 37.8773 231.702ZM12.9819 230.991C12.893 230.991 12.8041 230.991 12.8041 230.902C12.6263 230.813 12.5374 230.546 12.6263 230.28C13.6043 228.412 15.0269 226.723 16.7162 225.389C16.8941 225.212 17.1608 225.301 17.3386 225.478C17.5165 225.656 17.4275 225.923 17.2497 226.101C15.6493 227.346 14.3156 228.857 13.4265 230.724C13.3376 230.902 13.1598 230.991 12.9819 230.991ZM28.7194 223.878H28.6304C26.6744 223.344 24.6294 223.344 22.6734 223.7C22.4066 223.789 22.2288 223.611 22.1399 223.344C22.051 223.078 22.2288 222.9 22.4955 222.811C24.6294 222.366 26.7633 222.455 28.8972 222.989C29.1639 223.078 29.2528 223.256 29.2528 223.522C29.1639 223.7 28.9861 223.878 28.7194 223.878Z" fill="#79B9F7"/>
<path d="M467.944 262.555C465.81 262.466 463.677 262.199 461.72 261.577C461.454 261.488 461.365 261.221 461.454 261.043C461.543 260.776 461.809 260.688 461.987 260.776C463.943 261.31 465.988 261.666 468.033 261.754C468.3 261.754 468.478 261.932 468.478 262.199C468.389 262.377 468.211 262.555 467.944 262.555ZM474.168 261.843C473.99 261.843 473.812 261.666 473.724 261.488C473.635 261.221 473.812 261.043 474.079 260.954C476.035 260.51 477.991 259.71 479.77 258.731C479.947 258.643 480.214 258.731 480.392 258.909C480.481 259.087 480.392 259.354 480.214 259.532C478.347 260.599 476.391 261.31 474.346 261.843C474.257 261.843 474.168 261.843 474.168 261.843ZM456.208 259.087C456.119 259.087 456.03 259.087 455.941 258.998C454.163 257.842 452.474 256.509 451.051 254.997C450.873 254.819 450.873 254.553 451.051 254.375C451.229 254.197 451.496 254.197 451.673 254.375C453.096 255.886 454.607 257.131 456.386 258.198C456.564 258.287 456.652 258.643 456.564 258.82C456.475 258.998 456.297 259.087 456.208 259.087ZM484.926 255.886C484.838 255.886 484.66 255.886 484.571 255.708C484.393 255.531 484.393 255.264 484.571 255.086C485.993 253.663 487.327 252.063 488.305 250.285C488.394 250.107 488.661 250.018 488.928 250.107C489.105 250.196 489.194 250.463 489.105 250.729C488.038 252.508 486.705 254.197 485.193 255.708C485.104 255.886 485.015 255.886 484.926 255.886ZM447.761 250.018C447.583 250.018 447.406 249.929 447.406 249.751C446.428 247.884 445.716 245.839 445.272 243.794C445.183 243.528 445.361 243.35 445.627 243.261C445.894 243.172 446.072 243.35 446.161 243.616C446.605 245.573 447.317 247.529 448.295 249.307C448.384 249.485 448.295 249.751 448.117 249.929C447.939 250.018 447.85 250.018 447.761 250.018ZM491.15 245.306H491.061C490.795 245.217 490.706 245.039 490.706 244.772C491.239 242.816 491.506 240.771 491.506 238.726C491.506 238.46 491.684 238.282 491.951 238.282C492.217 238.282 492.395 238.46 492.395 238.726C492.395 240.86 492.128 242.994 491.595 244.95C491.506 245.128 491.328 245.306 491.15 245.306ZM445.183 238.015C445.094 238.015 445.094 238.015 445.183 238.015C444.916 238.015 444.738 237.837 444.738 237.57C444.827 235.437 445.183 233.392 445.894 231.347C445.983 231.08 446.25 230.991 446.428 231.08C446.694 231.169 446.783 231.436 446.694 231.613C446.072 233.569 445.716 235.525 445.627 237.57C445.538 237.837 445.361 238.015 445.183 238.015ZM491.595 235.17C491.417 235.17 491.15 234.992 491.15 234.814C490.795 232.769 490.172 230.813 489.283 229.035C489.194 228.768 489.283 228.59 489.461 228.413C489.639 228.324 489.906 228.412 490.083 228.59C490.972 230.546 491.595 232.502 491.951 234.636C492.039 234.903 491.951 235.081 491.595 235.17C491.684 235.17 491.595 235.17 491.595 235.17ZM448.917 226.368C448.828 226.368 448.739 226.368 448.65 226.279C448.473 226.101 448.384 225.834 448.561 225.656C449.717 223.878 451.14 222.278 452.651 220.855C452.829 220.677 453.096 220.677 453.274 220.855C453.452 221.033 453.452 221.3 453.274 221.477C451.762 222.811 450.429 224.411 449.273 226.101C449.184 226.279 449.095 226.368 448.917 226.368ZM486.349 223.967C486.26 223.967 486.082 223.878 485.993 223.789C484.66 222.278 483.148 220.855 481.459 219.699C481.281 219.521 481.192 219.255 481.37 219.077C481.548 218.899 481.815 218.81 481.992 218.988C483.771 220.233 485.282 221.655 486.705 223.256C486.883 223.433 486.883 223.7 486.616 223.878C486.616 223.967 486.527 223.967 486.349 223.967ZM458.075 218.188C457.897 218.188 457.719 218.099 457.719 217.921C457.63 217.743 457.719 217.476 457.897 217.299C459.764 216.32 461.809 215.698 463.854 215.254C464.121 215.165 464.299 215.342 464.388 215.609C464.477 215.876 464.299 216.054 464.032 216.143C462.076 216.498 460.12 217.21 458.253 218.099C458.253 218.188 458.164 218.188 458.075 218.188ZM476.213 217.032C476.124 217.032 476.124 217.032 476.035 217.032C474.079 216.32 472.123 215.965 470.078 215.787C469.811 215.787 469.634 215.52 469.634 215.342C469.634 215.076 469.9 214.898 470.078 214.898C472.212 215.076 474.257 215.431 476.302 216.143C476.569 216.232 476.658 216.498 476.569 216.676C476.569 216.943 476.48 217.032 476.213 217.032Z" fill="#79B9F7"/>
<path d="M433.89 107.403C432.023 107.403 430.245 106.87 428.822 105.803C428.645 105.625 428.556 105.358 428.733 105.181C428.911 105.003 429.178 104.914 429.356 105.092C430.956 106.248 433.001 106.692 434.957 106.425C435.224 106.425 435.402 106.603 435.491 106.781C435.491 107.048 435.313 107.226 435.135 107.314C434.602 107.403 434.246 107.403 433.89 107.403ZM440.292 104.469C440.203 104.469 440.114 104.469 440.025 104.38C439.847 104.203 439.847 103.936 440.025 103.758C441.359 102.247 442.07 100.379 442.07 98.3344C442.07 97.0007 441.715 95.667 441.092 94.5112C441.003 94.3333 441.092 94.0666 441.27 93.8888C441.448 93.7999 441.715 93.8888 441.892 94.0666C442.604 95.4003 442.959 96.8229 442.959 98.3344C442.959 100.557 442.159 102.691 440.648 104.291C440.559 104.469 440.381 104.469 440.292 104.469ZM425.533 100.913C425.355 100.913 425.177 100.735 425.088 100.557C424.91 99.8459 424.821 99.1346 424.821 98.3344C424.821 96.9118 425.177 95.4892 425.799 94.1555C425.888 93.9777 426.155 93.8888 426.422 93.9777C426.6 94.0666 426.688 94.3334 426.6 94.6001C425.977 95.7559 425.71 97.0007 425.71 98.3344C425.71 99.0457 425.799 99.6681 425.977 100.29C426.066 100.557 425.888 100.735 425.622 100.824C425.622 100.913 425.533 100.913 425.533 100.913ZM430.778 90.7769C430.601 90.7769 430.423 90.688 430.334 90.5101C430.245 90.2434 430.334 90.0656 430.601 89.9767C432.646 89.1764 434.957 89.1765 437.002 89.8878C437.269 89.9767 437.358 90.2434 437.269 90.4212C437.18 90.688 436.913 90.7769 436.736 90.688C434.868 89.9767 432.823 89.9767 430.956 90.688C430.867 90.7769 430.778 90.7769 430.778 90.7769Z" fill="#79B9F7"/>
</svg>
