<svg width="774" height="598" viewBox="0 0 774 598" fill="none" xmlns="http://www.w3.org/2000/svg">
<g clip-path="url(#clip0)">
<path opacity="0.1" d="M485.545 96.409C453.322 116.817 411.526 115.489 374.905 104.881C338.284 94.272 304.636 75.352 268.967 61.9118C239.006 50.6381 207.724 43.2612 175.887 39.9618C130.41 35.2528 79.6286 40.9845 47.9388 73.9782C12.6516 110.727 15.3572 177.012 53.5253 210.731C72.937 227.888 98.362 236.306 120.533 249.7C142.703 263.095 163.213 285.342 161.33 311.2C159.585 335.134 139.266 353.505 118.239 365.029C101.982 373.936 81.9608 383.659 80.002 402.106C78.1119 419.958 94.94 433.947 111.014 441.9C163.449 467.849 228.048 467.597 280.277 441.244C298.912 431.841 316.045 419.339 335.586 412.013C386.901 392.772 443.437 412.142 497.77 419.225C543.905 425.207 590.763 422.119 635.717 410.135C662.621 402.946 689.631 391.955 708.532 371.478C722.159 356.71 730.634 338.027 738.629 319.58C747.13 299.899 755.3 280.081 763.14 260.126C767.85 248.143 772.483 235.932 773.695 223.11C775.898 199.885 766.623 176.928 753.979 157.321C723.95 110.773 673.413 78.0461 618.691 69.7347C563.969 61.4233 506.054 77.6721 463.603 113.184" fill="#6C63FF"/>
<path opacity="0.1" d="M103.453 598C160.589 598 206.906 588.931 206.906 577.744C206.906 566.557 160.589 557.489 103.453 557.489C46.3175 557.489 0 566.557 0 577.744C0 588.931 46.3175 598 103.453 598Z" fill="#6C63FF"/>
<path opacity="0.1" d="M410.786 555.695C530.555 555.695 627.646 546.626 627.646 535.44C627.646 524.253 530.555 515.184 410.786 515.184C291.018 515.184 193.927 524.253 193.927 535.44C193.927 546.626 291.018 555.695 410.786 555.695Z" fill="#6C63FF"/>
<path d="M557.986 391.223C557.986 391.223 588.388 337.294 634.2 321.77C653.414 315.245 670.189 302.98 681.659 286.22C687.087 278.252 691.776 269.804 695.667 260.98" stroke="#535461" stroke-width="2" stroke-miterlimit="10"/>
<path d="M724.423 251.013C719.202 256.081 694.905 261.324 694.905 261.324C694.905 261.324 700.873 237.168 706.086 232.093C708.591 229.658 711.96 228.319 715.451 228.372C718.942 228.424 722.269 229.863 724.701 232.372C727.133 234.881 728.469 238.254 728.417 241.75C728.365 245.246 726.928 248.578 724.423 251.013Z" fill="#6C63FF"/>
<path d="M710.681 294.737C703.548 296.149 680.31 287.327 680.31 287.327C680.31 287.327 698.426 270.292 705.552 268.872C707.264 268.492 709.035 268.459 710.76 268.774C712.486 269.089 714.131 269.746 715.599 270.706C717.067 271.666 718.329 272.91 719.311 274.365C720.293 275.821 720.975 277.457 721.316 279.18C721.658 280.902 721.652 282.676 721.3 284.396C720.948 286.117 720.257 287.749 719.266 289.198C718.276 290.647 717.006 291.884 715.532 292.835C714.058 293.786 712.409 294.433 710.681 294.737Z" fill="#6C63FF"/>
<path d="M660.609 342.049C653.749 339.668 638.125 320.305 638.125 320.305C638.125 320.305 662.354 314.749 669.221 317.13C670.893 317.665 672.442 318.53 673.776 319.674C675.11 320.817 676.202 322.216 676.988 323.789C677.775 325.361 678.239 327.075 678.354 328.83C678.468 330.584 678.232 332.344 677.658 334.006C677.083 335.668 676.183 337.198 675.009 338.506C673.836 339.814 672.413 340.874 670.825 341.623C669.236 342.373 667.514 342.796 665.76 342.87C664.005 342.943 662.254 342.664 660.609 342.049Z" fill="#6C63FF"/>
<path d="M614.72 369.303C607.548 368.12 588.891 351.666 588.891 351.666C588.891 351.666 611.832 342.095 619.003 343.27C620.709 343.552 622.342 344.167 623.81 345.081C625.278 345.995 626.552 347.189 627.559 348.596C628.566 350.003 629.287 351.594 629.68 353.28C630.072 354.965 630.13 356.712 629.849 358.42C629.567 360.128 628.953 361.763 628.04 363.234C627.128 364.704 625.935 365.979 624.53 366.988C623.126 367.996 621.536 368.718 619.853 369.111C618.17 369.505 616.426 369.562 614.72 369.28V369.303Z" fill="#6C63FF"/>
<path d="M660.045 268.475C660.045 275.756 673.199 296.874 673.199 296.874C673.199 296.874 686.369 275.764 686.377 268.483C686.294 265.041 684.871 261.768 682.41 259.363C679.95 256.958 676.649 255.612 673.211 255.612C669.773 255.612 666.471 256.958 664.011 259.363C661.551 261.768 660.127 265.041 660.045 268.483V268.475Z" fill="#6C63FF"/>
<path d="M606.756 301.011C608.928 307.956 627.783 324.167 627.783 324.167C627.783 324.167 634.048 300.08 631.876 293.135C630.833 289.795 628.508 287.007 625.412 285.383C622.316 283.76 618.703 283.435 615.368 284.48C612.033 285.524 609.249 287.853 607.628 290.953C606.007 294.053 605.682 297.671 606.725 301.011H606.756Z" fill="#6C63FF"/>
<path d="M559.29 339.775C560.258 346.995 576.118 366.159 576.118 366.159C576.118 366.159 586.353 343.484 585.385 336.264C584.92 332.798 583.1 329.66 580.324 327.539C577.549 325.418 574.045 324.487 570.585 324.953C567.124 325.419 563.99 327.242 561.872 330.021C559.754 332.801 558.825 336.309 559.29 339.775Z" fill="#6C63FF"/>
<path opacity="0.25" d="M724.423 251.013C719.202 256.081 694.905 261.324 694.905 261.324C694.905 261.324 700.873 237.168 706.086 232.093C708.591 229.658 711.96 228.319 715.451 228.372C718.942 228.424 722.269 229.863 724.701 232.372C727.133 234.881 728.469 238.254 728.417 241.75C728.365 245.246 726.928 248.578 724.423 251.013Z" fill="#F38C06"/>
<path opacity="0.25" d="M710.681 294.737C703.548 296.149 680.31 287.327 680.31 287.327C680.31 287.327 698.426 270.292 705.552 268.872C707.264 268.492 709.035 268.459 710.76 268.774C712.486 269.089 714.131 269.746 715.599 270.706C717.067 271.666 718.329 272.91 719.311 274.365C720.293 275.821 720.975 277.457 721.316 279.18C721.658 280.902 721.652 282.676 721.3 284.396C720.948 286.117 720.257 287.749 719.266 289.198C718.276 290.647 717.006 291.884 715.532 292.835C714.058 293.786 712.409 294.433 710.681 294.737Z" fill="black"/>
<path opacity="0.25" d="M660.609 342.049C653.749 339.668 638.125 320.305 638.125 320.305C638.125 320.305 662.354 314.749 669.221 317.13C670.893 317.665 672.442 318.53 673.776 319.674C675.11 320.817 676.202 322.216 676.988 323.789C677.775 325.361 678.239 327.075 678.354 328.83C678.468 330.584 678.232 332.344 677.658 334.006C677.083 335.668 676.183 337.198 675.009 338.506C673.836 339.814 672.413 340.874 670.825 341.623C669.236 342.373 667.514 342.796 665.76 342.87C664.005 342.943 662.254 342.664 660.609 342.049Z" fill="black"/>
<path opacity="0.25" d="M614.72 369.303C607.548 368.12 588.891 351.666 588.891 351.666C588.891 351.666 611.832 342.095 619.003 343.27C620.709 343.552 622.342 344.167 623.81 345.081C625.278 345.995 626.552 347.189 627.559 348.596C628.566 350.003 629.287 351.594 629.68 353.28C630.072 354.965 630.13 356.712 629.849 358.42C629.567 360.128 628.953 361.763 628.04 363.234C627.128 364.704 625.935 365.979 624.53 366.988C623.126 367.996 621.536 368.718 619.853 369.111C618.17 369.505 616.426 369.562 614.72 369.28V369.303Z" fill="black"/>
<path opacity="0.25" d="M660.045 268.475C660.045 275.756 673.199 296.874 673.199 296.874C673.199 296.874 686.369 275.764 686.377 268.483C686.294 265.041 684.871 261.768 682.41 259.363C679.95 256.958 676.649 255.612 673.211 255.612C669.773 255.612 666.471 256.958 664.011 259.363C661.551 261.768 660.127 265.041 660.045 268.483V268.475Z" fill="black"/>
<path opacity="0.25" d="M606.756 301.011C608.928 307.956 627.783 324.167 627.783 324.167C627.783 324.167 634.048 300.08 631.876 293.135C630.833 289.795 628.508 287.007 625.412 285.383C622.316 283.76 618.703 283.435 615.368 284.48C612.033 285.524 609.249 287.853 607.628 290.953C606.007 294.053 605.682 297.671 606.725 301.011H606.756Z" fill="black"/>
<path opacity="0.25" d="M559.29 339.775C560.258 346.995 576.118 366.159 576.118 366.159C576.118 366.159 586.353 343.484 585.385 336.264C584.92 332.798 583.1 329.66 580.324 327.539C577.549 325.418 574.045 324.487 570.585 324.953C567.124 325.419 563.99 327.242 561.872 330.021C559.754 332.801 558.825 336.309 559.29 339.775Z" fill="black"/>
<path d="M559.739 390.147C559.739 390.147 565.707 328.51 601.268 295.73C616.273 282.072 626.451 263.91 630.275 243.969C632.013 234.487 632.88 224.866 632.867 215.226" stroke="#535461" stroke-width="2" stroke-miterlimit="10"/>
<path d="M655.159 194.444C652.439 201.198 632.349 215.814 632.349 215.814C632.349 215.814 628.02 191.307 630.74 184.522C632.147 181.433 634.689 179.007 637.837 177.749C640.985 176.49 644.497 176.497 647.641 177.767C650.785 179.037 653.318 181.472 654.713 184.566C656.107 187.66 656.257 191.174 655.129 194.375L655.159 194.444Z" fill="#F38C06"/>
<path d="M660.281 239.977C654.336 244.167 629.521 245.533 629.521 245.533C629.521 245.533 639.193 222.637 645.137 218.416C647.994 216.449 651.51 215.69 654.922 216.303C658.334 216.917 661.367 218.854 663.362 221.693C665.356 224.533 666.151 228.046 665.574 231.469C664.998 234.893 663.095 237.95 660.281 239.977Z" fill="#F38C06"/>
<path d="M633.675 303.537C626.434 304.148 604.325 292.784 604.325 292.784C604.325 292.784 624.224 277.878 631.472 277.267C633.195 277.123 634.929 277.319 636.575 277.845C638.222 278.372 639.749 279.217 641.069 280.335C642.39 281.452 643.477 282.819 644.27 284.357C645.063 285.895 645.545 287.575 645.69 289.3C645.834 291.024 645.638 292.761 645.113 294.41C644.587 296.059 643.743 297.588 642.627 298.91C641.511 300.232 640.146 301.322 638.61 302.115C637.074 302.909 635.397 303.392 633.675 303.537Z" fill="#6C63FF"/>
<path d="M602.732 347.086C595.697 348.91 571.987 341.454 571.987 341.454C571.987 341.454 589.089 323.388 596.124 321.564C599.503 320.687 603.093 321.19 606.102 322.962C609.112 324.735 611.294 327.632 612.171 331.017C613.047 334.401 612.545 337.995 610.775 341.009C609.004 344.023 606.111 346.209 602.732 347.086Z" fill="#6C63FF"/>
<path d="M603.357 236.497C606.306 243.152 626.876 257.103 626.876 257.103C626.876 257.103 630.375 232.467 627.433 225.812C626.018 222.614 623.393 220.111 620.134 218.852C616.876 217.593 613.252 217.682 610.06 219.099C606.867 220.516 604.367 223.145 603.11 226.408C601.853 229.67 601.942 233.299 603.357 236.497Z" fill="#F38C06"/>
<path d="M567.81 287.891C572.612 293.356 596.413 300.523 596.413 300.523C596.413 300.523 592.389 275.962 587.595 270.49C585.291 267.859 582.037 266.252 578.55 266.023C575.062 265.794 571.627 266.961 568.999 269.269C566.371 271.577 564.767 274.835 564.538 278.327C564.309 281.82 565.475 285.26 567.78 287.891H567.81Z" fill="#6C63FF"/>
<path d="M540.106 342.591C543.917 348.796 566.164 359.885 566.164 359.885C566.164 359.885 566.347 334.997 562.544 328.792C560.717 325.812 557.782 323.682 554.386 322.869C550.99 322.056 547.411 322.627 544.435 324.457C541.46 326.287 539.332 329.225 538.521 332.626C537.709 336.027 538.279 339.611 540.106 342.591Z" fill="#6C63FF"/>
<path d="M214.802 0V20.8968V538.416H601.512V20.8968V0H214.802Z" fill="url(#paint0_linear)"/>
<path d="M598.121 4.72418H218.193V25.247H598.121V4.72418Z" fill="#F6F7F9"/>
<g opacity="0.2">
<path opacity="0.2" d="M598.121 4.72418H218.193V25.247H598.121V4.72418Z" fill="#6C63FF"/>
</g>
<path d="M598.121 25.2471H218.193V533.692H598.121V25.2471Z" fill="#F6F7F9"/>
<path d="M228.185 18.462C230.104 18.462 231.66 16.9039 231.66 14.9818C231.66 13.0597 230.104 11.5015 228.185 11.5015C226.266 11.5015 224.71 13.0597 224.71 14.9818C224.71 16.9039 226.266 18.462 228.185 18.462Z" fill="#F6F7F9"/>
<path d="M237.605 18.462C239.525 18.462 241.081 16.9039 241.081 14.9818C241.081 13.0597 239.525 11.5015 237.605 11.5015C235.686 11.5015 234.13 13.0597 234.13 14.9818C234.13 16.9039 235.686 18.462 237.605 18.462Z" fill="#F6F7F9"/>
<path d="M247.025 18.462C248.945 18.462 250.501 16.9039 250.501 14.9818C250.501 13.0597 248.945 11.5015 247.025 11.5015C245.106 11.5015 243.55 13.0597 243.55 14.9818C243.55 16.9039 245.106 18.462 247.025 18.462Z" fill="#F6F7F9"/>
<g opacity="0.2">
<path opacity="0.2" d="M530.305 56.5921H286.001V66.1704H530.305V56.5921Z" fill="#6C63FF"/>
</g>
<path d="M530.305 56.5921H497.846V66.1704H530.305V56.5921Z" fill="#6C63FF"/>
<g opacity="0.2">
<path opacity="0.2" d="M404.727 252.333H250.988V362.61H404.727V252.333Z" fill="#6C63FF"/>
</g>
<g opacity="0.2">
<path opacity="0.2" d="M404.727 109.284H250.988V219.561H404.727V109.284Z" fill="#6C63FF"/>
</g>
<g opacity="0.2">
<path opacity="0.2" d="M404.727 393.52H250.988V503.797H404.727V393.52Z" fill="#6C63FF"/>
</g>
<g opacity="0.2">
<path opacity="0.2" d="M565.326 252.333H411.587V362.61H565.326V252.333Z" fill="#6C63FF"/>
</g>
<g opacity="0.2">
<path opacity="0.2" d="M565.326 109.284H411.587V219.561H565.326V109.284Z" fill="#6C63FF"/>
</g>
<g opacity="0.2">
<path opacity="0.2" d="M565.326 393.52H411.587V503.797H565.326V393.52Z" fill="#6C63FF"/>
</g>
<path d="M709.988 484.258C709.988 484.258 715.43 491.379 707.48 502.125C699.531 512.871 693 521.969 695.629 528.655C695.629 528.655 707.618 508.689 717.381 508.414C727.144 508.139 720.726 496.264 709.988 484.258Z" fill="#3ACC6C"/>
<path opacity="0.1" d="M709.988 484.258C710.463 484.944 710.837 485.695 711.1 486.487C720.627 497.691 725.695 508.147 716.542 508.414C708.021 508.658 697.786 523.923 695.339 527.777C695.42 528.074 695.516 528.367 695.629 528.655C695.629 528.655 707.617 508.689 717.38 508.414C727.143 508.139 720.726 496.264 709.988 484.258Z" fill="black"/>
<path d="M720.101 493.333C720.101 495.836 719.819 497.867 719.476 497.867C719.133 497.867 718.844 495.836 718.844 493.333C718.844 490.83 719.194 492.005 719.545 492.005C719.895 492.005 720.101 490.822 720.101 493.333Z" fill="#FFD037"/>
<path d="M723.569 496.325C721.374 497.523 719.454 498.248 719.294 497.943C719.133 497.637 720.772 496.416 722.967 495.218C725.162 494.02 724.301 494.898 724.491 495.218C724.682 495.539 725.764 495.149 723.569 496.325Z" fill="#FFD037"/>
<path d="M681.27 484.258C681.27 484.258 675.829 491.379 683.778 502.125C691.727 512.871 698.258 521.969 695.629 528.655C695.629 528.655 683.641 508.689 673.878 508.414C664.115 508.139 670.516 496.264 681.27 484.258Z" fill="#3ACC6C"/>
<path opacity="0.1" d="M681.27 484.258C680.795 484.944 680.421 485.695 680.158 486.487C670.631 497.691 665.563 508.147 674.716 508.414C683.244 508.658 693.472 523.923 695.919 527.777C695.842 528.076 695.745 528.369 695.629 528.655C695.629 528.655 683.641 508.689 673.878 508.414C664.114 508.139 670.516 496.264 681.27 484.258Z" fill="black"/>
<path d="M671.157 493.333C671.157 495.836 671.439 497.867 671.789 497.867C672.14 497.867 672.414 495.836 672.414 493.333C672.414 490.83 672.064 492.005 671.721 492.005C671.378 492.005 671.157 490.822 671.157 493.333Z" fill="#FFD037"/>
<path d="M667.689 496.325C669.892 497.523 671.805 498.248 671.972 497.943C672.14 497.637 670.486 496.416 668.291 495.218C666.096 494.02 666.957 494.898 666.767 495.218C666.576 495.539 665.494 495.149 667.689 496.325Z" fill="#FFD037"/>
<path opacity="0.1" d="M695.629 583.133C727.03 583.133 752.485 579.22 752.485 574.394C752.485 569.567 727.03 565.655 695.629 565.655C664.229 565.655 638.773 569.567 638.773 574.394C638.773 579.22 664.229 583.133 695.629 583.133Z" fill="#6C63FF"/>
<path d="M724.895 519.061L724.621 521.282L724.24 524.426L724.08 525.732L723.699 528.876L723.531 530.189L723.15 533.326L718.798 569.044C718.409 572.234 713.212 574.714 706.932 574.714H684.327C678.046 574.714 672.894 572.234 672.468 569.044L668.108 533.31L667.727 530.173L667.567 528.861L667.178 525.716L667.018 524.411L666.637 521.267L666.363 519.046C666.149 517.283 668.992 515.756 672.513 515.756H718.752C722.296 515.756 725.116 517.283 724.895 519.061Z" fill="#65617D"/>
<path d="M724.621 521.282L724.24 524.419H667.018L666.637 521.282H724.621Z" fill="#9D9CB5"/>
<path d="M724.08 525.731L723.699 528.876H667.567L667.178 525.731H724.08Z" fill="#9D9CB5"/>
<path d="M723.531 530.181L723.15 533.325H668.108L667.727 530.181H723.531Z" fill="#9D9CB5"/>
<path d="M450.89 130.593C450.89 130.593 449.495 127.105 458.9 127.976C468.305 128.846 495.308 131.853 506.984 129.22C518.66 126.586 525.618 125.747 524.925 129.22C524.231 132.692 504.72 140.538 504.72 140.538L479.455 143.156L460.821 140.187L450.814 134.257L450.89 130.593Z" fill="#6C63FF"/>
<path opacity="0.1" d="M524.948 129.219C524.246 132.692 504.743 140.538 504.743 140.538L479.478 143.156L460.844 140.194L450.845 134.264L450.913 130.601C450.816 130.299 450.815 129.975 450.911 129.672C451.007 129.37 451.194 129.105 451.447 128.914C452.308 128.151 454.32 127.556 458.923 127.983C468.336 128.853 495.331 131.853 507.007 129.219C516.518 127.075 522.905 126.121 524.536 127.693C524.737 127.886 524.882 128.13 524.955 128.399C525.027 128.668 525.025 128.952 524.948 129.219Z" fill="black"/>
<path d="M539.962 182.057C523.705 185.191 508.375 191.99 495.133 201.938C494.462 200.153 493.201 198.653 491.558 197.687C490.436 196.991 489.212 196.476 487.93 196.161C486.764 195.863 485.644 196.573 484.615 197.596C483.431 198.907 482.438 200.38 481.666 201.969C463.9 189.758 436.951 181.965 436.951 181.965V179.523C436.951 179.042 437.035 178.462 437.126 177.806C437.217 177.149 437.332 176.569 437.477 175.86C439.763 164.213 448.802 137.6 448.802 137.6H451.599H459.022L478.838 141.721L501.131 140.355L523.583 135.676L526.495 135.066C531.349 138.882 536.86 165.594 539.024 176.966C539.299 178.409 539.512 179.599 539.672 180.477C539.863 181.469 539.962 182.057 539.962 182.057Z" fill="#2C2D84"/>
<path d="M440.64 177.012C441.226 165.831 450.098 141.599 451.599 137.577H448.802C448.802 137.577 439.23 165.816 437.286 176.836C437.282 176.864 437.282 176.893 437.286 176.92C437.233 177.218 437.179 177.508 437.141 177.783C437.05 178.439 436.989 179.019 436.966 179.5V181.942C436.966 181.942 463.915 189.742 481.681 201.946C482.454 200.357 483.447 198.885 484.63 197.573C477.84 191.391 452.087 181.316 440.64 177.012Z" fill="#6C63FF"/>
<path d="M539.672 180.446C539.604 180.057 539.52 179.607 539.428 179.111C539.314 178.47 539.177 177.745 539.024 176.936C536.86 165.549 531.35 138.828 526.495 135.035L523.583 135.646C525.352 140.401 536.746 171.448 535.778 177.508C516.724 181.324 497.411 193.726 491.573 197.687C493.216 198.653 494.478 200.153 495.148 201.939C508.39 191.99 523.721 185.191 539.977 182.057C539.977 182.057 539.863 181.469 539.672 180.446Z" fill="#6C63FF"/>
<path opacity="0.1" d="M441.341 176.31C441.92 165.129 450.799 140.897 452.3 136.882H449.496C449.496 136.882 439.923 165.121 437.98 176.134C437.98 176.134 437.98 176.195 437.98 176.218C437.924 176.524 437.878 176.814 437.843 177.088C437.751 177.745 437.69 178.325 437.667 178.806V181.248C437.667 181.248 464.609 189.04 482.382 201.252C483.149 199.661 484.14 198.188 485.324 196.878C478.533 190.712 452.788 180.614 441.341 176.31Z" fill="black"/>
<path d="M440.64 177.012C441.226 165.831 450.098 141.599 451.599 137.577H448.802C448.802 137.577 439.23 165.816 437.286 176.836C437.282 176.864 437.282 176.893 437.286 176.92C437.233 177.218 437.179 177.508 437.141 177.783C437.05 178.439 436.989 179.019 436.966 179.5V181.942C436.966 181.942 463.915 189.742 481.681 201.946C482.454 200.357 483.447 198.885 484.63 197.573C477.84 191.391 452.087 181.316 440.64 177.012Z" fill="#6C63FF"/>
<path opacity="0.1" d="M538.978 179.744L538.735 178.409C538.613 177.768 538.483 177.05 538.331 176.233C536.174 164.854 530.656 138.134 525.801 134.333L522.897 134.951C524.666 139.706 536.06 170.754 535.092 176.814C516.038 180.63 496.718 193.032 490.887 196.985C492.53 197.953 493.792 199.457 494.462 201.244C507.699 191.29 523.028 184.488 539.283 181.355C539.283 181.355 539.169 180.782 538.978 179.744Z" fill="black"/>
<path d="M539.672 180.446C539.604 180.057 539.52 179.607 539.428 179.111C539.314 178.47 539.177 177.745 539.024 176.936C536.86 165.549 531.35 138.828 526.495 135.035L523.583 135.646C525.352 140.401 536.746 171.448 535.778 177.508C516.724 181.324 497.411 193.726 491.573 197.687C493.216 198.653 494.478 200.153 495.148 201.939C508.39 191.99 523.721 185.191 539.977 182.057C539.977 182.057 539.863 181.469 539.672 180.446Z" fill="#6C63FF"/>
<path opacity="0.1" d="M447.263 151.376C447.263 151.376 464.944 162.519 469.075 146.201L473.008 147.254C473.008 147.254 474.303 165.335 446.089 155.016L447.263 151.376Z" fill="black"/>
<path d="M447.263 149.979C447.263 149.979 464.944 161.122 469.075 144.804L473.008 145.857C473.008 145.857 474.303 163.938 446.089 153.619L447.263 149.979Z" fill="#6C63FF"/>
<path opacity="0.1" d="M502.899 146.728C502.899 146.728 505.185 160.061 529.414 153.596L528.56 151.078C528.56 151.078 512.014 157.947 506.016 146.018L502.899 146.728Z" fill="black"/>
<path d="M502.899 145.331C502.899 145.331 505.185 158.664 529.414 152.2L528.56 149.681C528.56 149.681 512.014 156.55 506.016 144.621L502.899 145.331Z" fill="#6C63FF"/>
<path opacity="0.1" d="M486.772 146.552V174.379H491.07C491.07 174.379 497.015 172.234 496.878 159.725C496.741 147.216 495.834 143.85 495.834 143.85L486.772 146.552Z" fill="black"/>
<path d="M486.078 145.857V173.684H490.377C490.377 173.684 496.322 171.54 496.184 159.031C496.047 146.522 495.133 143.156 495.133 143.156L486.078 145.857Z" fill="#6C63FF"/>
<path opacity="0.1" d="M526.472 136.439C524.719 139.706 508.805 145.071 505.993 145.995L505.566 146.132C505.566 146.132 504.56 146.392 502.876 146.743C497.754 147.811 486.337 149.796 477.725 148.056C476.475 147.811 475.18 147.544 473.861 147.292L470.813 146.628C460.905 144.423 450.654 141.538 448.833 138.996C448.833 138.996 449.328 130.7 450.997 130.921C452.666 131.143 471.3 138.996 471.3 138.996L471.567 139.034C472.047 139.095 473.137 139.233 474.669 139.408C480.721 140.072 493.471 141.126 500.33 139.286C500.658 139.195 500.963 139.103 501.26 138.996C501.778 138.821 502.32 138.637 502.876 138.431C511.702 135.302 524.917 129.7 524.917 129.7C524.917 129.7 528.408 132.845 526.472 136.439Z" fill="black"/>
<path opacity="0.1" d="M524.948 129.22C524.246 132.692 504.743 140.538 504.743 140.538L479.478 143.156L460.844 140.195L450.845 134.264L450.913 130.601C450.816 130.299 450.815 129.975 450.911 129.672C451.007 129.37 451.194 129.105 451.447 128.914C454.762 129.922 471.262 136.875 471.262 136.875L471.529 136.913C472.009 136.974 473.099 137.111 474.631 137.287C480.682 137.951 493.433 139.004 500.292 137.165C500.62 137.073 500.925 136.982 501.222 136.875C501.74 136.707 502.281 136.516 502.838 136.31C510.817 133.478 522.394 128.624 524.536 127.724C524.732 127.913 524.873 128.152 524.946 128.415C525.018 128.678 525.019 128.956 524.948 129.22Z" fill="black"/>
<path d="M526.472 135.035C524.719 138.302 508.805 143.66 505.993 144.583L505.566 144.728C505.566 144.728 504.56 144.98 502.876 145.331C497.754 146.399 486.337 148.384 477.725 146.644C476.475 146.399 475.18 146.132 473.861 145.881L470.813 145.217C460.905 143.011 450.654 140.126 448.833 137.584C448.833 137.584 449.328 129.288 450.997 129.517C452.666 129.746 471.3 137.584 471.3 137.584L471.567 137.623C472.047 137.684 473.137 137.829 474.669 137.997C480.721 138.661 493.471 139.714 500.33 137.874C500.658 137.783 500.963 137.691 501.26 137.584C501.778 137.416 502.32 137.226 502.876 137.02C511.702 133.89 524.917 128.288 524.917 128.288C524.917 128.288 528.408 131.456 526.472 135.035Z" fill="#6C63FF"/>
<path opacity="0.1" d="M489.79 146.644C491.331 146.644 492.579 145.393 492.579 143.85C492.579 142.308 491.331 141.057 489.79 141.057C488.249 141.057 487 142.308 487 143.85C487 145.393 488.249 146.644 489.79 146.644Z" fill="black"/>
<path d="M489.79 145.941C491.331 145.941 492.579 144.691 492.579 143.148C492.579 141.605 491.331 140.355 489.79 140.355C488.249 140.355 487 141.605 487 143.148C487 144.691 488.249 145.941 489.79 145.941Z" fill="#6C63FF"/>
<path opacity="0.1" d="M475.332 137.966L474.57 145.842L471.521 145.178L472.284 137.592C472.71 137.668 473.808 137.813 475.332 137.966Z" fill="black"/>
<path d="M474.646 137.966L473.884 145.842L470.835 145.178L471.598 137.592C472.017 137.668 473.122 137.813 474.646 137.966Z" fill="#6C63FF"/>
<path opacity="0.1" d="M505.315 144.583L504.888 144.728C504.888 144.728 503.89 144.98 502.198 145.331L499.599 137.859C499.926 137.768 500.239 137.676 500.536 137.569C501.054 137.401 501.595 137.21 502.152 137.004L505.315 144.583Z" fill="black"/>
<path d="M506.016 144.583L505.589 144.728C505.589 144.728 504.583 144.98 502.899 145.331L500.3 137.859C500.628 137.768 500.932 137.676 501.23 137.569C501.748 137.401 502.289 137.21 502.845 137.004L506.016 144.583Z" fill="#6C63FF"/>
<g opacity="0.5">
<path opacity="0.5" d="M309.445 124.228C313.01 124.251 316.506 125.223 319.573 127.044C319.573 127.044 328.856 128.174 333.917 127.044C338.977 125.915 341.538 121.977 342.499 123.099C343.459 124.22 343.482 134.791 343.482 134.791L339.122 146.483L329.275 153.803L313.667 149.3L308.5 136.073L309.445 124.228Z" fill="#6C63FF"/>
<path opacity="0.1" d="M343.482 134.806L339.122 146.499L329.275 153.818L313.667 149.315L308.5 136.073L309.483 124.243H309.711C313.199 124.332 316.607 125.304 319.619 127.067C319.619 127.067 328.902 128.197 333.963 127.067C338.772 125.999 341.302 122.381 342.346 122.992C342.408 123.02 342.462 123.062 342.506 123.114C343.482 124.228 343.482 134.806 343.482 134.806Z" fill="black"/>
<path opacity="0.1" d="M343.482 134.806L339.122 146.499L329.275 153.818L313.667 149.315L308.5 136.073L309.483 124.243H309.711C310.58 127.975 314.284 139.759 326.082 140.591C338.215 141.439 341.66 126.983 342.377 122.999C342.438 123.028 342.493 123.07 342.537 123.121C343.482 124.228 343.482 134.806 343.482 134.806Z" fill="black"/>
<path opacity="0.5" d="M309.444 124.228C309.444 124.228 311.975 140.706 326.044 141.69C340.113 142.675 342.498 123.099 342.498 123.099C342.498 123.099 362.893 129.792 367.649 141.729C372.405 153.665 375.949 163.244 375.949 163.244C375.949 163.244 374.425 165.915 372.71 166.197C370.995 166.48 359.349 174.509 359.349 174.509C359.349 174.509 359.212 197.329 360.477 198.733C361.743 200.137 361.323 206.197 357.52 205.915C353.717 205.632 327.423 199.717 304.933 204.648C304.933 204.648 295.513 208.029 295.787 202.534C296.061 197.039 296.488 175.493 296.488 175.493C296.488 175.493 282.282 169.296 281.443 169.296C280.605 169.296 278.486 168.182 280.735 164.51C282.983 160.839 285.803 148.315 285.803 148.315C285.803 148.315 291.443 130.334 309.444 124.228Z" fill="#6C63FF"/>
<path opacity="0.1" d="M353.184 153.818C353.184 153.818 357.406 156.917 356.423 159.313C355.44 161.709 353.184 153.818 353.184 153.818Z" fill="black"/>
<path opacity="0.1" d="M359.372 156.794C358.979 158.168 358.979 159.625 359.372 161V156.794Z" fill="black"/>
<path opacity="0.1" d="M362.185 164.526C362.185 164.526 362.749 168.342 361.064 168.746L362.185 164.526Z" fill="black"/>
<path opacity="0.1" d="M304.803 152.833C304.803 152.833 296.93 159.702 299.598 162.412L304.803 152.833Z" fill="black"/>
<path opacity="0.1" d="M299.88 169.456C299.88 169.456 299.75 176.638 301.922 177.203L299.88 169.456Z" fill="black"/>
<path opacity="0.1" d="M322.523 193.536C322.523 193.536 327.858 189.88 329.275 190.017L322.523 193.536Z" fill="black"/>
<path opacity="0.1" d="M327.858 197.344C327.858 197.344 333.635 193.253 335.182 193.528L327.858 197.344Z" fill="black"/>
</g>
<g opacity="0.5">
<path opacity="0.5" d="M453.306 262.866C453.306 262.866 499.324 265.048 522.204 263.705L521.701 269.75L481.216 275.092L469.235 271.398L453.306 262.866Z" fill="#6C63FF"/>
<path opacity="0.1" d="M522.234 263.705L521.731 269.75L481.254 275.092L469.266 271.398L453.306 262.866C453.306 262.866 454.251 262.919 455.936 262.988C465.92 263.423 501.87 264.827 521.609 263.751L522.234 263.705Z" fill="black"/>
<path opacity="0.5" d="M538.163 349.658C529.277 355.001 498.433 349.826 498.433 349.826L489.882 319.298L480.324 350.353C466.751 355.222 438.75 348.17 438.75 348.17L449.648 281.007L451.531 271.749L453.306 262.866L470.576 268.071C470.576 268.071 475.767 271.597 497.396 270.589C519.026 269.582 522.204 263.72 522.204 263.72C523.157 263.995 524.064 267.361 524.978 271.543C526.304 277.649 527.653 285.48 529.246 288.067C531.959 292.417 538.163 349.658 538.163 349.658Z" fill="#6C63FF"/>
<path opacity="0.1" d="M525.009 272.2C505.726 282.801 489.127 282.511 489.127 282.511C485.019 283.015 451.531 272.414 451.531 272.414L453.306 263.537L470.576 268.742C470.576 268.742 475.767 272.269 497.396 271.261C519.026 270.254 522.204 264.392 522.204 264.392C523.187 264.659 524.094 268.017 525.009 272.2Z" fill="black"/>
<path opacity="0.1" d="M522.234 263.705L521.731 269.75L481.254 275.092L469.266 271.398L453.306 262.866C453.306 262.866 454.251 262.919 455.936 262.988L470.569 267.399C470.569 267.399 475.759 270.925 497.389 269.918C514.377 269.155 519.986 265.338 521.609 263.743L522.234 263.705Z" fill="black"/>
<path opacity="0.5" d="M525.009 271.528C505.726 282.129 489.127 281.839 489.127 281.839C485.019 282.343 451.531 271.742 451.531 271.742L453.306 262.866L470.576 268.071C470.576 268.071 475.767 271.597 497.396 270.589C519.026 269.582 522.204 263.72 522.204 263.72C523.187 263.98 524.094 267.346 525.009 271.528Z" fill="#6C63FF"/>
<path opacity="0.1" d="M492.397 280.237C493.369 280.237 494.157 279.447 494.157 278.473C494.157 277.5 493.369 276.71 492.397 276.71C491.424 276.71 490.636 277.5 490.636 278.473C490.636 279.447 491.424 280.237 492.397 280.237Z" fill="black"/>
<path opacity="0.5" d="M492.397 279.565C493.369 279.565 494.157 278.776 494.157 277.802C494.157 276.828 493.369 276.039 492.397 276.039C491.424 276.039 490.636 276.828 490.636 277.802C490.636 278.776 491.424 279.565 492.397 279.565Z" stroke="#6C63FF" stroke-miterlimit="10"/>
<path opacity="0.1" d="M447.385 309.368C447.385 309.368 450.486 318.603 452.666 318.435C454.846 318.267 447.385 309.368 447.385 309.368Z" fill="black"/>
<path opacity="0.1" d="M445.373 318.435C445.373 318.435 447.301 323.976 449.313 324.9L445.373 318.435Z" fill="black"/>
<path opacity="0.1" d="M445.373 324.228C445.373 324.228 448.421 328.09 450.227 329.013L445.373 324.228Z" fill="black"/>
<path opacity="0.1" d="M527.234 289.311C527.234 289.311 530.085 293.593 527.234 294.516V289.311Z" fill="black"/>
<path opacity="0.1" d="M528.53 296.271C525.222 292.341 527.265 301.614 527.265 301.614C527.265 301.614 529.376 297.279 528.53 296.271Z" fill="black"/>
<path opacity="0.1" d="M530.199 301.057C530.199 301.057 525.169 308.529 526.175 309.368L530.199 301.057Z" fill="black"/>
<path opacity="0.1" d="M463.656 289.471C457.491 289.471 451.058 286.678 450.7 286.51L450.974 285.892C451.096 285.953 463.405 291.303 470.066 287.288C472.581 285.762 473.991 283.076 474.265 279.275L474.936 279.328C474.646 283.358 473.122 286.197 470.409 287.861C468.346 289.003 466.012 289.56 463.656 289.471Z" fill="black"/>
<path opacity="0.5" d="M463.656 288.8C457.491 288.8 451.058 286.006 450.7 285.838L450.974 285.228C451.096 285.281 463.405 290.631 470.066 286.617C472.581 285.09 473.991 282.404 474.265 278.603L474.936 278.657C474.646 282.686 473.122 285.525 470.409 287.189C468.346 288.331 466.012 288.888 463.656 288.8Z" fill="#6C63FF"/>
<path opacity="0.1" d="M514.278 289.975C512.699 289.998 511.135 289.661 509.705 288.991C504.705 286.579 503.897 280.672 503.859 280.42L504.53 280.336C504.53 280.397 505.33 286.144 510.002 288.388C514.163 290.395 520.07 289.151 527.531 284.572L527.874 285.144C522.562 288.365 518.012 289.975 514.278 289.975Z" fill="black"/>
<path opacity="0.5" d="M514.278 289.303C512.699 289.326 511.135 288.989 509.705 288.319C504.705 285.907 503.897 280 503.859 279.748L504.53 279.664C504.53 279.725 505.33 285.472 510.002 287.716C514.163 289.723 520.07 288.479 527.531 283.9L527.874 284.472C522.562 287.693 518.012 289.303 514.278 289.303Z" fill="#6C63FF"/>
</g>
<path d="M313.332 263.896C313.332 263.896 321.982 275.993 327.858 274.818C333.734 273.642 334.313 272.353 339.534 263.896L343.817 273.764L338.772 285.976L332.797 293.722L320.13 291.73L316.03 277.871L313.332 263.896Z" fill="#6C63FF"/>
<path opacity="0.1" d="M343.817 273.757L338.772 285.968L332.797 293.715L320.13 291.723L316.03 277.863L313.332 263.896C313.332 263.896 314.094 264.949 315.283 266.399C318.186 269.872 323.712 275.642 327.858 274.795C333.65 273.635 334.298 272.36 339.328 264.217L339.534 263.873L343.817 273.757Z" fill="black"/>
<path opacity="0.1" d="M343.817 273.757L338.772 285.968L332.797 293.715L320.13 291.723L316.03 277.863L313.332 263.896C313.332 263.896 314.094 264.949 315.283 266.399C317.173 272.505 321.235 282.297 327.858 282.213C335.335 282.129 338.353 269.727 339.328 264.24L339.534 263.896L343.817 273.757Z" fill="black"/>
<path d="M308.758 263.537C308.758 263.537 305.824 263.186 307.349 266.827C308.873 270.467 311.685 282.442 310.283 284.907C308.88 287.372 309.582 294.066 303.484 295.363L305.237 302.286C305.237 302.286 305.588 317.55 304.887 319.786C304.186 322.022 304.064 334.341 304.3 335.63C304.536 336.92 304.422 345.377 303.484 345.735C302.547 346.094 301.96 350.192 305.009 350.895C308.057 351.597 321.067 351.956 323.414 352.658C325.762 353.36 342.407 352.658 342.407 352.658C342.407 352.658 349.442 351.719 351.202 351.131C352.963 350.544 353.313 349.139 352.726 346.438C352.14 343.736 349.442 324.129 350.028 321.664C350.615 319.198 350.737 295.127 350.737 295.127C350.737 295.127 346.164 293.6 346.164 289.135C346.164 284.671 344.404 272.696 348.039 265.186C348.039 265.186 345.105 263.171 344.64 263.53C344.175 263.888 339.747 262.599 339.747 262.599C339.747 262.599 337.461 283.03 327.896 283.144C318.331 283.259 314.071 262.599 314.071 262.599C314.071 262.599 314.154 260.721 308.758 263.537Z" fill="#2C2D84"/>
<path opacity="0.1" d="M322.591 329.059C322.591 329.059 324.565 333.875 327.858 334.577C331.15 335.279 322.591 329.059 322.591 329.059Z" fill="black"/>
<path opacity="0.1" d="M319.543 332.814C319.543 332.814 325.914 337.981 325.64 339.042L319.543 332.814Z" fill="black"/>
<path opacity="0.1" d="M306.762 302.286C306.762 302.286 311.807 305.689 311.807 308.155L306.762 302.286Z" fill="black"/>
<path opacity="0.1" d="M310.161 312.97C310.161 312.97 308.758 308.04 307.821 306.987L310.161 312.97Z" fill="black"/>
<path opacity="0.1" d="M307.821 314.848C307.821 314.848 309.932 319.076 310.161 320.252L307.821 314.848Z" fill="black"/>
<path opacity="0.1" d="M348.741 306.277C348.741 306.277 342.179 308.277 342.758 310.742L348.741 306.277Z" fill="black"/>
<path opacity="0.1" d="M342.727 329.059C342.727 329.059 351.324 319.076 348.741 319.313C346.157 319.549 342.727 329.059 342.727 329.059Z" fill="black"/>
<g opacity="0.1">
<path opacity="0.1" d="M346.157 289.135C346.157 287.075 345.784 283.411 345.738 279.328C345.692 284.014 346.157 288.349 346.157 290.662C346.157 295.027 350.524 296.577 350.73 296.645C350.73 295.691 350.73 295.119 350.73 295.119C350.73 295.119 346.157 293.6 346.157 289.135Z" fill="black"/>
<path opacity="0.1" d="M352.704 347.964C352.793 348.365 352.862 348.77 352.909 349.177C353.007 348.259 352.937 347.331 352.704 346.438C352.201 344.148 350.158 329.448 349.945 323.709C349.716 327.632 352.17 345.4 352.704 347.964Z" fill="black"/>
<path opacity="0.1" d="M304.193 332.738C304.193 328.548 304.43 322.77 304.887 321.29C305.26 320.099 305.337 315.23 305.329 310.925C305.329 314.787 305.215 318.71 304.887 319.763C304.369 321.427 304.171 328.586 304.193 332.738Z" fill="black"/>
<path opacity="0.1" d="M308.759 265.064C314.147 262.247 314.033 264.125 314.033 264.125C314.033 264.125 318.255 284.793 327.858 284.671C337.461 284.549 339.747 264.125 339.747 264.125C339.747 264.125 344.206 265.415 344.671 265.056C345.136 264.697 346.698 265.819 347.559 266.369C347.719 265.964 347.887 265.567 348.078 265.186C348.078 265.186 345.143 263.171 344.671 263.53C344.198 263.888 339.747 262.599 339.747 262.599C339.747 262.599 337.461 283.03 327.896 283.144C318.331 283.259 314.071 262.599 314.071 262.599C314.071 262.599 314.185 260.721 308.797 263.537C308.797 263.537 306.411 263.263 307.074 265.896C307.456 264.911 308.759 265.064 308.759 265.064Z" fill="black"/>
<path opacity="0.1" d="M303.477 347.262C304.239 346.979 304.445 341.751 304.399 338.866C304.361 341.767 304.094 345.499 303.477 345.735C302.86 345.972 302.562 347.262 302.799 348.506C302.921 347.849 303.165 347.369 303.477 347.262Z" fill="black"/>
<path opacity="0.1" d="M310.283 286.434C310.655 285.433 310.778 284.356 310.641 283.297C310.634 283.853 310.512 284.401 310.283 284.907C308.873 287.373 309.574 294.066 303.477 295.363L303.843 296.798C309.544 295.318 308.903 288.853 310.283 286.434Z" fill="black"/>
</g>
<path d="M344.152 407.105C341.271 412.356 312.028 407.105 312.028 407.105L312.104 406.579L312.684 402.511H343.497L344.084 406.571L344.152 407.105Z" fill="#6C63FF"/>
<path opacity="0.1" d="M344.152 407.105C341.271 412.356 312.028 407.105 312.028 407.105L312.104 406.579C313.507 406.579 334.664 406.075 344.114 406.579L344.152 407.105Z" fill="black"/>
<path d="M312.028 407.105C312.028 407.105 306.785 408.418 298.653 430.475C290.52 452.532 287.64 481.03 287.64 481.03C287.64 481.03 283.067 488.784 302.585 489.303C302.585 489.303 301.015 494.425 312.028 493.638C323.041 492.852 321.456 492.86 321.456 492.86C321.456 492.86 328.536 488.395 331.684 489.181C334.831 489.967 336.798 490.235 340.204 493.119C343.611 496.004 354.502 494.829 354.632 492.6C354.719 491.506 354.719 490.406 354.632 489.311C354.632 489.311 371.285 490.364 368.137 478.283C364.989 466.201 362.368 446.373 362.368 446.373C362.368 446.373 353.847 407.64 344.137 407.113C334.427 406.586 312.028 407.105 312.028 407.105Z" fill="#2C2D84"/>
<path opacity="0.1" d="M308.519 422.35L302.351 489.32L302.874 489.368L309.043 422.399L308.519 422.35Z" fill="black"/>
<path opacity="0.1" d="M321.446 422.3L321.176 492.812L321.701 492.814L321.972 422.302L321.446 422.3Z" fill="black"/>
<path opacity="0.1" d="M337.902 422.285L337.376 422.305L340.005 493.082L340.53 493.062L337.902 422.285Z" fill="black"/>
<path opacity="0.1" d="M354.38 489.311C353.466 448.975 346.607 421.362 346.523 421.118L347.033 420.988C347.102 421.263 353.999 448.929 354.906 489.334L354.38 489.311Z" fill="black"/>
<path opacity="0.1" d="M312.943 411.043C312.943 411.043 312.028 411.57 312.943 414.096V411.043Z" fill="black"/>
<path opacity="0.1" d="M315.572 411.043C315.572 411.043 313.08 412.616 315.572 415.249V411.043Z" fill="black"/>
<path opacity="0.1" d="M338.909 411.043C338.909 411.043 342.316 414.325 341.531 415.249L338.909 411.043Z" fill="black"/>
<path opacity="0.1" d="M341.653 410.257C341.653 410.257 342.186 414.196 344.152 415.249L341.653 410.257Z" fill="black"/>
<g opacity="0.5">
<path opacity="0.5" d="M480.835 403.961C480.835 403.961 493.7 398.832 499.263 405.09C504.827 411.349 495.453 418.966 495.453 418.966L491.52 426.827L482.268 425.812L480.088 414.943L480.835 403.961Z" fill="#6C63FF"/>
<path opacity="0.1" d="M495.453 418.927L491.52 426.788L482.268 425.804L480.088 414.943L480.85 403.961L481.056 403.884C482.687 403.281 493.7 399.435 498.966 404.732C499.076 404.833 499.18 404.94 499.279 405.052C504.827 411.28 495.453 418.927 495.453 418.927Z" fill="black"/>
<path opacity="0.1" d="M495.453 418.927L491.52 426.788L482.268 425.804L480.088 414.943L480.85 403.961L481.056 403.884C482.649 412.623 486.901 416.309 487.618 416.859L487.725 416.935L490.339 416.722C495.422 413.913 498.105 407.235 498.966 404.709C499.076 404.81 499.18 404.917 499.279 405.029C504.827 411.28 495.453 418.927 495.453 418.927Z" fill="black"/>
<path opacity="0.5" d="M517.921 448.86C517.921 448.86 515.085 485.022 515.855 489.387C516.625 493.753 514.217 494.081 514.217 494.081C514.217 494.081 503.958 496.37 502.022 494.844C500.086 493.318 496.786 493.02 496.786 493.02C496.786 493.02 489.165 494.768 485.766 493.463C482.367 492.158 476.712 492.699 476.712 492.699C476.712 492.699 472.352 495.325 471.148 494.775C469.944 494.226 468.419 494.447 464.929 493.47C461.438 492.493 459.472 491.608 461.324 485.602C463.176 479.595 461.553 460.583 461.438 458.286C461.324 455.989 460.242 450.425 458.71 443.785C457.178 437.145 461.324 438.542 461.324 438.542C471.041 433.52 467.002 423.682 465.478 419.317C463.953 414.951 466.346 414.737 467.543 414.737C468.74 414.737 473.328 410.807 473.328 410.807L475.187 409.135L480.858 404.037C482.268 413.585 486.84 417.592 487.603 418.187L487.709 418.271L490.323 418.05C496.649 414.562 499.263 405.075 499.263 405.075C500.025 406.372 501.725 407.853 503.623 409.227C506.106 410.986 508.695 412.592 511.374 414.035C515.947 416.767 512.578 419.5 512.578 419.5C507.014 438.504 514.864 439.343 514.864 439.343C520.649 440.198 517.921 448.86 517.921 448.86Z" fill="#6C63FF"/>
<path opacity="0.1" d="M475.05 414.776C475.05 414.776 473.412 415.653 473.412 416.63L475.05 414.776Z" fill="black"/>
<path opacity="0.1" d="M476.033 416.63C476.033 416.63 473.854 418.92 474.235 419.584L476.033 416.63Z" fill="black"/>
<path opacity="0.1" d="M476.033 419.591C476.033 419.591 474.395 421.339 475.05 422.324L476.033 419.591Z" fill="black"/>
<path opacity="0.1" d="M486.947 419.5L480.088 426.132C479.836 418.76 476.277 412.86 474.524 410.372L480.195 405.274C481.582 414.898 486.193 418.905 486.947 419.5Z" fill="black"/>
<path opacity="0.5" d="M487.603 418.187L480.743 424.827C480.499 417.447 476.933 411.555 475.187 409.059L480.858 403.961C482.268 413.585 486.84 417.592 487.603 418.187Z" fill="#6C63FF"/>
<path opacity="0.1" d="M504.278 410.517C501.534 414.806 496.436 426.132 496.436 426.132L490.979 419.362C497.305 415.867 499.919 406.388 499.919 406.388C500.681 407.655 502.38 409.135 504.278 410.517Z" fill="black"/>
<path opacity="0.5" d="M503.608 409.204C500.871 413.501 495.765 424.827 495.765 424.827L490.323 418.065C496.649 414.577 499.263 405.09 499.263 405.09C500.026 406.35 501.725 407.83 503.608 409.204Z" fill="#6C63FF"/>
<path opacity="0.1" d="M499.599 479.229C499.599 479.229 498.433 489.151 497.762 489.715L499.599 479.229Z" fill="black"/>
<path opacity="0.1" d="M509.194 480.977C509.194 480.977 510.505 488.074 509.956 489.715L509.194 480.977Z" fill="black"/>
<path opacity="0.1" d="M481.269 481.411C481.269 481.411 480.073 488.074 481.269 488.838V481.411Z" fill="black"/>
<path opacity="0.1" d="M474.189 480.427C474.189 480.427 473.198 488.296 473.427 489.715L474.189 480.427Z" fill="black"/>
<path opacity="0.1" d="M510.833 442.083C510.833 442.083 507.784 444.487 507.998 445.136L510.833 442.083Z" fill="black"/>
<path opacity="0.1" d="M513.012 443.617C513.012 443.617 507.174 448.532 510.093 447.983C513.012 447.433 513.012 443.617 513.012 443.617Z" fill="black"/>
</g>
<path d="M189.606 302.82L189.644 302.766L189.575 302.713L189.164 302.438L189.247 302.499C188.952 302.328 188.604 302.274 188.271 302.348C187.938 302.421 187.645 302.617 187.449 302.896L187.281 303.133L178.021 316.474L176.405 318.847C171.52 317.374 163.586 323.572 159.57 327.128C159.318 327.35 159.082 327.556 158.868 327.754C158.548 327.037 158.358 326.579 158.358 326.579C158.16 328.761 150.462 332.036 148.663 333.226C147.846 333.721 146.93 334.028 145.981 334.127C146.24 325.831 139.83 317.1 139.83 317.1L124.168 297.142C123.592 293.532 124.151 289.833 125.769 286.556C125.898 286.296 126.028 286.037 126.173 285.793H126.249C125.656 287.469 125.325 289.228 125.266 291.005C125.304 292.356 126.554 298.905 128.314 298.637C128.489 298.655 128.665 298.625 128.823 298.55C128.982 298.474 129.117 298.357 129.214 298.21C130.616 296.577 130.738 293.799 130.669 291.227C130.645 291.983 130.561 292.735 130.418 293.478C130.532 291.341 130.288 289.082 130.288 287.472C130.288 286.831 130.288 286.197 130.334 285.556H130.524C130.524 285.8 130.524 286.06 130.524 286.319C130.524 286.052 130.524 285.793 130.524 285.556H130.723C134.236 284.912 137.527 283.384 140.287 281.114C140.969 281.087 141.638 280.923 142.256 280.634C142.873 280.344 143.427 279.934 143.885 279.427C144.052 279.985 144.077 280.576 143.959 281.147C143.84 281.717 143.582 282.249 143.206 282.694C145.302 282.595 147.078 280.961 147.886 279.046C148.578 277.089 148.782 274.993 148.48 272.94C148.179 270.886 148.029 268.812 148.031 266.735C148.175 265.614 148.236 264.484 148.214 263.354C148.18 263.009 148.119 262.667 148.031 262.331H148.092C148.293 262.336 148.492 262.3 148.679 262.227C148.866 262.153 149.037 262.044 149.182 261.904C150.05 261.232 150.332 259.92 150.553 258.912C151.155 256.594 151.427 254.201 151.361 251.807C151.316 252.532 151.224 253.264 151.117 253.989C151.308 251.242 150.927 248.571 149.113 246.579C147.863 245.213 146.118 244.411 144.441 243.61C143.841 243.395 143.314 243.017 142.917 242.518C142.62 241.931 142.459 241.284 142.444 240.626C141.857 236.611 138.085 233.818 134.327 232.23C129.495 230.124 123.657 229.223 119.047 231.727C116.76 232.94 115.007 234.84 112.949 236.39C110.373 238.351 107.401 239.725 104.65 241.435C101.898 243.144 99.3147 245.312 97.9657 248.258C95.946 252.837 97.4627 258.027 97.7142 262.995C98.1181 270.818 94.9019 279.023 88.5304 283.602C87.7668 284.071 87.0846 284.661 86.5107 285.35C86.2307 285.699 86.0645 286.125 86.0345 286.571C86.0045 287.018 86.1122 287.463 86.3431 287.846C86.6708 288.273 87.189 288.517 87.5472 288.922C88.2713 289.746 88.1265 291.005 87.8445 292.059C86.9191 295.505 85.0749 298.634 82.5095 301.11C82.6238 301.919 83.6222 302.24 84.4377 302.362C86.5952 302.68 88.7732 302.838 90.954 302.835H91.8914C91.7924 303.087 91.6857 303.354 91.579 303.636C90.3976 306.75 88.8657 311.543 89.3764 314.474C90.1385 319.099 92.5774 340.248 91.3732 343.957C90.169 347.666 93.309 374.562 93.309 374.562C93.309 374.562 93.7282 376.638 94.4522 379.736C92.5697 384.178 90.4205 389.109 89.3459 391.085C87.1814 395.046 88.2484 415.272 95.7098 424.262C95.7098 424.262 98.7583 428.628 97.9962 430.208C97.2341 431.787 98.1334 434.573 98.1334 434.573L99.3147 460.744C99.2894 463.418 99.1062 466.089 98.766 468.742C95.5802 472.688 90.672 478.443 88.3627 479.381C84.7883 480.839 58.1286 513.222 58.1286 513.222C58.1286 513.222 58.342 513.612 58.7612 514.245L57.999 515.115L52.8851 521.053L52.4811 521.518C51.5208 521.335 45.1265 520.175 40.0582 519.809H39.5552V519.717C37.7789 519.513 35.9828 519.562 34.2202 519.862C33.8868 519.924 33.5791 520.083 33.3361 520.32C31.6061 522.442 30.6763 555.749 30.6763 555.749C30.6763 555.749 32.5207 572.425 38.2977 573.356C38.5922 573.458 38.9006 573.515 39.2122 573.524H39.4638C43.5793 573.218 45.4694 570.86 46.323 569.242C46.5755 568.759 46.7675 568.246 46.8946 567.716C46.8946 567.716 46.2239 564.747 48.0226 560.648C49.8212 556.55 53.1823 549.338 53.1823 549.338C53.1823 549.338 59.2794 542.919 58.1896 539.805C58.3572 539.553 58.5554 539.278 58.7688 538.965C61.0552 535.699 65.689 529.25 69.4388 524.945C69.6827 524.655 69.9265 524.388 70.2009 524.121C71.565 524.698 72.9925 525.11 74.4537 525.35C74.4537 525.35 80.185 523.106 82.3113 518.084C83.2183 515.947 86.7775 512.161 90.5653 508.521L90.4434 509.49L90.3138 541.347C91.5456 542.194 92.8577 542.917 94.2312 543.507V544.27C94.258 548.809 93.9831 553.345 93.4081 557.847L93.2938 558.557C92.8213 558.221 92.4097 558.107 92.1506 558.366C90.9769 559.557 90.2452 567.159 90.1766 570.662C90.1766 570.776 90.1766 570.891 90.1766 571.013C89.9861 574.508 87.9969 579.591 93.9873 579.851C98.4687 580.042 117.789 580.332 128.124 580.484C133.691 580.59 139.108 578.667 143.366 575.073C146.651 572.257 148.64 568.906 144.167 566.441C143.892 566.288 143.603 566.143 143.283 565.998L133.375 564.472L116.448 555.817C116.448 555.817 116.349 550.582 114.314 551.452C113.709 551.584 113.13 551.813 112.599 552.131C112.5 551.94 112.393 551.734 112.294 551.52C110.915 548.785 110.2 545.762 110.206 542.698C110.206 542.423 110.206 542.14 110.244 541.858C110.74 541.406 111.208 540.924 111.646 540.416C111.646 540.416 111.517 528.517 112.85 526.273C114.184 524.029 118.315 501.286 118.315 501.286C118.315 501.286 118.444 497.057 121.112 494.546C123.779 492.036 122.842 484.762 122.842 484.762C122.842 484.762 126.576 482.778 127.773 476.306C128.97 469.834 132.841 455.699 132.841 455.699C132.841 455.699 140.836 434.81 140.31 421.599C139.784 408.387 141.072 401.503 141.072 401.503L142.734 370.792V370.318C143.397 370.822 143.847 371.234 143.847 371.234C143.847 371.234 143.847 371.112 143.847 370.898C144.09 371.104 144.228 371.234 144.228 371.234C144.228 371.234 145.081 357.298 144.792 351.772C149.456 350.185 156.559 347.575 156.986 346.247C157.58 344.27 165.583 338.019 165.583 338.019C165.41 337.991 165.244 337.929 165.095 337.836C165.347 337.722 165.606 337.584 165.857 337.439C171.101 334.631 180.841 326.418 179.202 321.412L189.872 306.079C190.207 305.587 190.362 304.995 190.314 304.402C190.265 303.809 190.015 303.251 189.606 302.82Z" fill="url(#paint1_linear)"/>
<path d="M164.783 339.851C164.004 340.34 163.136 340.669 162.229 340.82C158.899 340.919 156.132 331.891 156.132 331.891C156.132 331.891 157.077 330.929 158.586 329.601C163.053 325.625 172.419 318.283 176.809 322.389C181.763 326.976 170.552 336.745 164.783 339.851Z" fill="#ECB4B6"/>
<path d="M114.154 555.176L101.86 568.464C101.86 568.464 90.489 568.593 92.7145 562.312C93.1591 560.951 93.4755 559.55 93.6595 558.13C94.2197 553.67 94.487 549.177 94.4598 544.682C94.4598 541.736 94.4141 539.668 94.4141 539.668C94.4141 539.668 112.317 531.814 110.488 539.996C110.26 541.019 110.137 542.062 110.122 543.11C110.115 546.142 110.814 549.134 112.164 551.849C112.717 553.02 113.383 554.135 114.154 555.176Z" fill="#ECB4B6"/>
<path opacity="0.1" d="M114.154 555.176L101.86 568.464C101.86 568.464 90.489 568.593 92.7145 562.312C93.1591 560.951 93.4755 559.55 93.6595 558.13C95.2829 559.389 97.6151 563.098 97.6151 563.098C97.6151 563.098 105.457 565.388 107.614 558.519C108.819 554.703 110.724 552.772 112.187 551.849C112.733 553.019 113.391 554.134 114.154 555.176Z" fill="black"/>
<path d="M142.673 575.187C138.505 578.743 133.179 580.644 127.704 580.53C117.568 580.385 98.6288 580.087 94.2312 579.904C88.3475 579.645 90.2986 574.615 90.4891 571.15C90.4891 571.028 90.4891 570.921 90.4891 570.807C90.5577 567.334 91.2513 559.809 92.425 558.633C93.5987 557.458 97.6151 563.869 97.6151 563.869C97.6151 563.869 105.458 566.159 107.614 559.29C109.771 552.421 114.154 551.757 114.154 551.757C116.143 550.894 116.242 556.077 116.242 556.077L132.841 564.647L142.581 566.174C142.894 566.319 143.176 566.464 143.443 566.609C147.848 569.082 145.897 572.394 142.673 575.187Z" fill="#C17174"/>
<path opacity="0.25" d="M112.004 561.976C112.4 561.976 112.721 561.655 112.721 561.259C112.721 560.863 112.4 560.542 112.004 560.542C111.609 560.542 111.288 560.863 111.288 561.259C111.288 561.655 111.609 561.976 112.004 561.976Z" fill="white"/>
<path opacity="0.25" d="M118.742 565.319C119.137 565.319 119.458 564.998 119.458 564.602C119.458 564.206 119.137 563.884 118.742 563.884C118.346 563.884 118.025 564.206 118.025 564.602C118.025 564.998 118.346 565.319 118.742 565.319Z" fill="white"/>
<path opacity="0.25" d="M122.202 566.868C122.597 566.868 122.918 566.547 122.918 566.151C122.918 565.755 122.597 565.434 122.202 565.434C121.806 565.434 121.485 565.755 121.485 566.151C121.485 566.547 121.806 566.868 122.202 566.868Z" fill="white"/>
<path opacity="0.25" d="M129.389 569.631C129.784 569.631 130.105 569.31 130.105 568.914C130.105 568.518 129.784 568.196 129.389 568.196C128.993 568.196 128.672 568.518 128.672 568.914C128.672 569.31 128.993 569.631 129.389 569.631Z" fill="white"/>
<path opacity="0.25" d="M125.73 568.456C126.126 568.456 126.447 568.135 126.447 567.738C126.447 567.342 126.126 567.021 125.73 567.021C125.335 567.021 125.014 567.342 125.014 567.738C125.014 568.135 125.335 568.456 125.73 568.456Z" fill="white"/>
<path d="M142.673 575.188C138.505 578.744 133.179 580.645 127.704 580.53C117.568 580.385 98.6288 580.087 94.2312 579.904C88.3475 579.645 90.2986 574.615 90.4891 571.15L127.43 573.44C127.43 573.44 142.559 571.15 143.435 566.632C147.848 569.082 145.897 572.394 142.673 575.188Z" fill="#C17174"/>
<path opacity="0.25" d="M142.673 575.188C138.505 578.744 133.179 580.645 127.704 580.53C117.568 580.385 98.6288 580.087 94.2312 579.904C88.3475 579.645 90.2986 574.615 90.4891 571.15L127.43 573.44C127.43 573.44 142.559 571.15 143.435 566.632C147.848 569.082 145.897 572.394 142.673 575.188Z" fill="white"/>
<path d="M73.9047 521.801C72.5455 522.911 71.3042 524.16 70.2007 525.525C66.5348 529.784 62.0001 536.21 59.7518 539.4C58.8829 540.652 58.3571 541.438 58.3571 541.438L53.4489 540.713C53.4489 540.713 48.1596 532.6 48.2282 532.409C48.2968 532.219 52.42 523.503 52.42 523.503L54.0128 521.633L59.0354 515.756L61.3218 513.1C61.3218 513.1 78.3328 518.595 73.9047 521.801Z" fill="#ECB4B6"/>
<path opacity="0.1" d="M59.7518 539.416C58.8829 540.668 58.3571 541.454 58.3571 541.454L53.4489 540.729C53.4489 540.729 48.1596 532.616 48.2282 532.425C48.2968 532.234 52.42 523.503 52.42 523.503L54.0128 521.633L54.5311 521.732H55.781C51.3987 526.311 56.1011 536.386 56.1011 536.386C56.1011 536.386 58.1284 536.577 59.7518 539.416Z" fill="black"/>
<path d="M54.272 549.673C54.272 549.673 51.0024 556.741 49.2342 560.801C47.466 564.861 48.1215 567.8 48.1215 567.8C47.997 568.329 47.8102 568.841 47.5651 569.326C46.9384 570.574 45.9848 571.628 44.8061 572.376C43.6275 573.123 42.2682 573.536 40.8735 573.57H40.5534C34.5935 573.417 32.7034 556.092 32.7034 556.092C32.7034 556.092 33.6179 523.114 35.3175 520.984C35.5512 520.747 35.8517 520.587 36.1787 520.526C37.913 520.225 39.6816 520.176 41.4299 520.381C46.8182 520.771 53.7461 522.099 53.7461 522.099H54.9884C50.6061 526.678 55.3085 536.76 55.3085 536.76C55.3085 536.76 57.4044 536.951 59.0353 539.897C60.6663 542.843 54.272 549.673 54.272 549.673Z" fill="#C17174"/>
<path opacity="0.25" d="M47.0775 540.576C47.4732 540.576 47.7939 540.255 47.7939 539.858C47.7939 539.462 47.4732 539.141 47.0775 539.141C46.6818 539.141 46.3611 539.462 46.3611 539.858C46.3611 540.255 46.6818 540.576 47.0775 540.576Z" fill="white"/>
<path opacity="0.25" d="M46.7193 546.292C47.115 546.292 47.4358 545.971 47.4358 545.575C47.4358 545.179 47.115 544.857 46.7193 544.857C46.3237 544.857 46.0029 545.179 46.0029 545.575C46.0029 545.971 46.3237 546.292 46.7193 546.292Z" fill="white"/>
<path d="M47.0851 569.181C46.4584 570.429 45.5048 571.483 44.3262 572.231C43.1475 572.978 41.7882 573.391 40.3935 573.424H40.0811C34.1211 573.272 32.2234 555.947 32.2234 555.947C32.2234 555.947 33.138 522.968 34.8375 520.839C35.0713 520.602 35.3718 520.442 35.6988 520.381C37.433 520.08 39.2017 520.031 40.9499 520.236C40.8508 526.166 40.5688 544.903 40.9499 546.765C41.331 548.628 44.7073 564.212 47.0851 569.181Z" fill="#C17174"/>
<path opacity="0.25" d="M47.0851 569.181C46.4584 570.429 45.5048 571.483 44.3262 572.231C43.1475 572.978 41.7882 573.391 40.3935 573.424H40.0811C34.1211 573.272 32.2234 555.947 32.2234 555.947C32.2234 555.947 33.138 522.968 34.8375 520.839C35.0713 520.602 35.3718 520.442 35.6988 520.381C37.433 520.08 39.2017 520.031 40.9499 520.236C40.8508 526.166 40.5688 544.903 40.9499 546.765C41.331 548.628 44.7073 564.212 47.0851 569.181Z" fill="white"/>
<path d="M40.0735 573.44C34.1136 573.287 32.2158 555.962 32.2158 555.962C32.2158 555.962 33.1304 522.984 34.83 520.855C35.0637 520.618 35.3642 520.458 35.6912 520.397C36.9411 522.259 38.0386 526.38 37.0478 535.447C35.1882 552.627 37.4289 553.711 37.4289 553.711C37.4289 553.711 40.2259 568.311 40.0735 573.44Z" fill="#C17174"/>
<path opacity="0.1" d="M40.0735 573.44C34.1136 573.287 32.2158 555.962 32.2158 555.962C32.2158 555.962 33.1304 522.984 34.83 520.855C35.0637 520.618 35.3642 520.458 35.6912 520.397C36.9411 522.259 38.0386 526.38 37.0478 535.447C35.1882 552.627 37.4289 553.711 37.4289 553.711C37.4289 553.711 40.2259 568.311 40.0735 573.44Z" fill="black"/>
<path opacity="0.1" d="M164.783 339.851C164.004 340.34 163.136 340.669 162.229 340.82C158.899 340.919 156.132 331.891 156.132 331.891C156.132 331.891 157.077 330.929 158.586 329.601C159.676 332.043 162.679 338.63 164.783 339.851Z" fill="black"/>
<path d="M143.412 336.6C143.412 336.6 146.156 336.798 147.916 335.623C149.677 334.447 157.23 331.204 157.428 329.044C157.428 329.044 161.932 340.034 164.485 340.431C164.485 340.431 156.643 346.613 156.056 348.575C155.469 350.536 140.173 355.352 140.173 355.352L143.412 336.6Z" fill="#2C2D84"/>
<path opacity="0.1" d="M143.412 336.6C143.412 336.6 146.156 336.798 147.916 335.623C149.677 334.447 157.23 331.204 157.428 329.044C157.428 329.044 161.932 340.034 164.485 340.431C164.485 340.431 156.643 346.613 156.056 348.575C155.469 350.536 140.173 355.352 140.173 355.352L143.412 336.6Z" fill="#2C2D84"/>
<path opacity="0.1" d="M73.9048 521.801C72.5455 522.911 71.3043 524.16 70.2008 525.525C64.2866 523.045 60.4759 517.977 59.0278 515.756L61.3143 513.1C61.3143 513.1 78.3329 518.595 73.9048 521.801Z" fill="black"/>
<path d="M101.875 466.147C101.875 466.147 92.2876 478.977 88.7818 480.42C85.2759 481.862 59.1421 513.925 59.1421 513.925C59.1421 513.925 64.7591 524.266 75.0861 525.96C75.0861 525.96 80.7031 523.74 82.7989 518.763C84.8948 513.787 101.357 499.729 101.357 499.729L101.875 466.147Z" fill="#5E5A6B"/>
<path opacity="0.1" d="M101.875 466.147C101.875 466.147 92.2876 478.977 88.7818 480.42C85.2759 481.862 59.1421 513.925 59.1421 513.925C59.1421 513.925 64.7591 524.266 75.0861 525.96C75.0861 525.96 80.7031 523.74 82.7989 518.763C84.8948 513.787 101.357 499.729 101.357 499.729L101.875 466.147Z" fill="black"/>
<path opacity="0.1" d="M72.8301 509.078C75.7309 509.383 78.6557 509.383 81.5566 509.078C86.7163 508.582 82.8294 511.726 72.8301 509.078Z" fill="black"/>
<path opacity="0.1" d="M70.4751 512.413C70.4751 512.413 77.3344 516.336 79.9866 514.375C82.6389 512.413 77.4335 516.268 70.4751 512.413Z" fill="black"/>
<path opacity="0.1" d="M110.503 539.996C110.275 541.019 110.153 542.062 110.137 543.11C104.84 547.926 98.4609 546.437 94.4749 544.682C94.4749 541.736 94.4292 539.668 94.4292 539.668C94.4292 539.668 112.332 531.784 110.503 539.996Z" fill="black"/>
<path d="M142.261 369.257L142.071 372.875L140.44 403.289C140.44 403.289 139.129 410.097 139.678 423.178C140.226 436.26 132.331 456.989 132.331 456.989C132.331 456.989 128.52 470.994 127.361 477.405C126.203 483.816 122.53 485.8 122.53 485.8C122.53 485.8 123.444 492.997 120.83 495.485C118.216 497.973 118.086 502.156 118.086 502.156C118.086 502.156 114.032 524.67 112.751 526.899C111.471 529.128 111.57 540.904 111.57 540.904C103.08 550.978 90.6644 541.82 90.6644 541.82L90.794 510.276C90.794 510.276 94.3227 481.221 96.9368 477.16C99.551 473.1 99.551 461.98 99.551 461.98L98.3849 436.031C98.3849 436.031 97.4551 433.283 98.2553 431.711C99.0556 430.139 96.0223 425.827 96.0223 425.827C88.6981 416.92 87.6387 396.893 89.7803 393.009C91.9219 389.124 98.2553 373.379 98.2553 373.379L106.997 368.273L122.796 368.738L142.261 369.257Z" fill="#5E5A6B"/>
<path opacity="0.1" d="M105.084 523.503C105.084 523.503 107.149 530.669 108.811 531.456C110.472 532.242 105.084 523.503 105.084 523.503Z" fill="black"/>
<path opacity="0.1" d="M107.927 499.652C107.927 499.652 113.262 503.881 115.548 503.873C117.835 503.865 107.927 499.652 107.927 499.652Z" fill="black"/>
<path d="M140.173 322.465V331.105L134.48 328.647L128.802 326.197L116.44 314.024C116.44 314.024 106.662 307.666 101.433 301.874C98.4459 298.569 96.9445 295.447 99.5739 293.799C100.848 292.963 102 291.954 102.996 290.799C105.624 287.697 107.908 284.32 109.809 280.725C109.893 280.58 109.977 280.435 110.053 280.29C112.599 275.611 114.283 271.62 114.283 271.62C114.283 271.62 121.447 273.909 126.051 277.176C126.424 277.435 126.775 277.703 127.11 277.977C129.678 280.084 130.959 282.557 128.589 284.968C127.98 285.599 127.417 286.272 126.904 286.983C126.521 287.512 126.17 288.062 125.852 288.632C125.715 288.891 125.578 289.143 125.456 289.395C123.87 292.644 123.322 296.302 123.886 299.874L140.173 322.465Z" fill="#ECB4B6"/>
<path d="M139.129 260.843C139.426 261.362 139.838 261.805 140.112 262.331C140.574 263.493 140.724 264.757 140.546 265.995C140.398 267.952 140.526 269.92 140.927 271.841C141.331 273.566 142.086 275.23 142.147 277C142.231 279.496 140.935 281.809 139.685 283.968C140.364 283.948 141.032 283.789 141.648 283.502C142.264 283.214 142.815 282.804 143.267 282.297C143.433 282.847 143.459 283.43 143.345 283.994C143.231 284.557 142.979 285.083 142.612 285.525C144.662 285.426 146.422 283.808 147.185 281.915C147.88 279.96 148.082 277.862 147.771 275.81C147.473 273.775 147.325 271.722 147.329 269.666C147.471 268.555 147.53 267.435 147.505 266.315C147.314 264.094 145.98 262.163 144.639 260.362L141.987 256.714C141.803 256.416 141.538 256.175 141.225 256.02C138.717 254.951 138.428 259.576 139.129 260.843Z" fill="#464353"/>
<path opacity="0.1" d="M128.634 284.968C128.025 285.599 127.462 286.272 126.95 286.983C126.567 287.511 126.216 288.062 125.898 288.632C125.761 288.891 125.624 289.143 125.502 289.395C122.48 289.225 119.533 288.391 116.871 286.95C114.209 285.509 111.896 283.499 110.099 281.061C110.015 280.946 109.931 280.832 109.855 280.71C109.939 280.565 110.023 280.42 110.099 280.275C112.644 275.596 114.329 271.604 114.329 271.604C114.329 271.604 121.493 273.894 126.096 277.161C126.47 277.42 126.82 277.687 127.156 277.962C129.694 280.084 130.974 282.526 128.634 284.968Z" fill="black"/>
<path d="M147.215 268.048C147.216 272.867 145.531 277.533 142.453 281.237C139.374 284.94 135.097 287.446 130.364 288.319C129.132 288.543 127.882 288.655 126.63 288.655H126.538C126.317 288.655 126.089 288.655 125.868 288.655C121.834 288.505 117.933 287.17 114.65 284.817C111.368 282.464 108.85 279.195 107.408 275.419C105.967 271.643 105.667 267.526 106.545 263.58C107.423 259.634 109.44 256.034 112.346 253.228C115.252 250.422 118.918 248.534 122.887 247.799C126.857 247.064 130.955 247.514 134.671 249.094C138.387 250.673 141.556 253.312 143.786 256.683C146.015 260.053 147.205 264.005 147.208 268.048H147.215Z" fill="#ECB4B6"/>
<path opacity="0.1" d="M129.328 319C129.328 319 139.693 324.854 137.041 319.916L123.513 299.889L138.87 319.649C138.87 319.649 148.671 333.135 143.313 342.423C143.313 342.423 142.551 350.147 143.443 351.978C144.334 353.81 143.183 373.348 143.183 373.348C143.183 373.348 139.518 369.944 137.559 370.593C135.6 371.242 121.775 372.402 121.775 372.402L129.328 319Z" fill="black"/>
<path opacity="0.1" d="M142.261 369.258L142.071 372.875C140.828 371.975 139.098 370.967 137.947 371.349C135.989 372.005 122.141 373.188 122.141 373.188L122.773 368.678L142.261 369.258Z" fill="black"/>
<path d="M129.716 319C129.716 319 140.089 324.854 137.429 319.916L123.901 299.889L139.258 319.649C139.258 319.649 149.059 333.135 143.702 342.423C143.702 342.423 142.939 350.147 143.831 351.978C144.723 353.81 143.572 373.348 143.572 373.348C143.572 373.348 139.914 369.944 137.955 370.593C135.996 371.242 122.141 372.433 122.141 372.433L129.716 319Z" fill="#464353"/>
<path opacity="0.1" d="M135.257 329.036C134.655 335.333 132.071 342.82 132.071 342.82C132.071 342.82 130.242 361.404 127.872 366.93C125.502 372.455 126.561 380.019 125.258 394.024C124.785 399.069 123.162 402.534 120.975 404.869C117.377 408.685 112.24 409.517 108.186 409.28L107.226 409.204C100.686 408.555 94.414 377.012 94.414 377.012C94.414 377.012 91.4112 350.177 92.5849 346.483C93.7586 342.789 91.4264 321.9 90.6414 317.321C90.1384 314.413 91.6398 309.689 92.7983 306.59C93.4766 304.804 94.033 303.537 94.033 303.537C94.033 303.537 96.2584 296.47 99.9167 292.807C100.421 292.288 101.024 291.876 101.691 291.596C102.357 291.315 103.073 291.171 103.796 291.173C105.516 291.243 107.186 291.77 108.636 292.7C108.694 292.734 108.75 292.772 108.803 292.814C108.803 292.814 132.597 317.161 134.815 322.786C135.432 324.365 135.493 326.609 135.257 329.036Z" fill="black"/>
<path d="M134.48 328.647C133.87 334.936 131.286 342.423 131.286 342.423C131.286 342.423 129.457 361.015 127.102 366.51C124.747 372.005 125.799 379.599 124.488 393.604C124.016 398.641 122.392 402.106 120.205 404.449C116.608 408.265 111.471 409.09 107.416 408.861L106.456 408.784C99.9168 408.128 93.6443 376.584 93.6443 376.584C93.6443 376.584 90.6415 349.757 91.8152 346.094C92.9889 342.431 90.6415 321.488 89.8565 316.901C89.3535 314.001 90.8549 309.269 92.0134 306.17C92.6917 304.385 93.248 303.156 93.248 303.156C93.248 303.156 95.4735 296.088 99.1318 292.425C99.6347 291.905 100.238 291.493 100.905 291.213C101.572 290.934 102.288 290.793 103.011 290.799C104.732 290.861 106.405 291.389 107.851 292.326L108.018 292.433C108.018 292.433 131.812 316.779 134.03 322.404C134.648 323.969 134.731 326.22 134.48 328.647Z" fill="#F38C06"/>
<path opacity="0.1" d="M107.828 424.461C107.828 424.461 102.432 429.269 100.572 429.04C98.7126 428.811 107.828 424.461 107.828 424.461Z" fill="black"/>
<path opacity="0.1" d="M109.261 429.078C109.261 429.078 103.575 431.719 101.875 432.131C100.176 432.543 107.066 428.399 109.261 429.078Z" fill="black"/>
<path opacity="0.1" d="M131.256 356.825C131.256 356.825 139.685 356.924 140.958 359.572C142.231 362.221 133.969 355.741 131.256 356.825Z" fill="black"/>
<path opacity="0.1" d="M130.075 361.435C130.075 361.435 136.545 362.808 138.504 364.38C140.463 365.953 130.075 361.435 130.075 361.435Z" fill="black"/>
<path opacity="0.1" d="M119.199 345.438C119.199 345.438 118.437 372.036 115.525 375.478C112.614 378.92 119.199 345.438 119.199 345.438Z" fill="black"/>
<path opacity="0.1" d="M111.943 420.629C111.943 420.629 106.532 444.091 117.385 445.541C128.238 446.991 124.884 418.828 124.884 418.828L111.943 420.629Z" fill="black"/>
<path d="M111.547 420.24C111.547 420.24 106.166 443.701 116.996 445.167C127.826 446.632 124.488 418.454 124.488 418.454L111.547 420.24Z" fill="#ECB4B6"/>
<path opacity="0.1" d="M147.086 265.773C146.784 265.325 146.528 264.847 146.323 264.346C144.883 261.339 141.179 262.82 138.466 264.247L137.018 266.117C136.357 266.893 135.801 267.753 135.364 268.674C135.086 269.422 134.854 270.186 134.67 270.963C134.297 272.291 133.748 273.558 133.253 274.856C131.61 279.17 130.636 283.71 130.364 288.319C129.132 288.543 127.882 288.655 126.63 288.655H126.538V288.563C126.676 288.044 126.79 287.517 126.897 286.991C127.464 284.021 127.533 280.977 127.102 277.985C127.102 277.916 127.102 277.855 127.102 277.786C127.003 277.122 126.874 276.451 126.82 275.787C126.569 276.245 126.325 276.71 126.058 277.183C124.42 280.236 122.697 283.289 119.603 284.625C118.347 285.118 117.024 285.417 115.678 285.51C114.017 285.599 112.37 285.873 110.77 286.327C110.224 286.476 109.73 286.775 109.344 287.189C108.914 287.828 108.666 288.572 108.628 289.341C108.463 290.357 108.208 291.355 107.866 292.326C106.466 295.947 104.28 299.211 101.464 301.881L100.755 302.568C99.5479 303.815 98.1083 304.814 96.5176 305.506C95.0724 305.993 93.5527 306.22 92.0286 306.178C92.7069 304.392 93.2632 303.163 93.2632 303.163C93.2632 303.163 95.4887 296.096 99.147 292.432C99.6499 291.912 100.253 291.5 100.92 291.221C101.587 290.941 102.303 290.8 103.026 290.807C105.757 287.574 108.124 284.049 110.084 280.297C108.211 277.752 106.948 274.81 106.392 271.698C105.837 268.585 106.004 265.387 106.881 262.35C107.757 259.312 109.32 256.518 111.448 254.182C113.576 251.847 116.212 250.033 119.152 248.881C122.093 247.73 125.258 247.271 128.403 247.54C131.549 247.81 134.591 248.801 137.293 250.436C139.995 252.071 142.285 254.307 143.985 256.971C145.686 259.634 146.752 262.654 147.101 265.796L147.086 265.773Z" fill="black"/>
<path d="M148.396 249.693C147.177 248.334 145.462 247.54 143.824 246.754C143.24 246.533 142.727 246.158 142.337 245.67C142.053 245.087 141.897 244.449 141.88 243.801C141.309 239.817 137.605 237.061 133.923 235.443C129.183 233.36 123.49 232.467 118.94 234.94C116.729 236.146 114.984 238.031 112.987 239.565C110.457 241.503 107.546 242.862 104.848 244.556C102.15 246.25 99.5737 248.372 98.2933 251.318C96.3117 255.821 97.7979 260.988 98.0494 265.903C98.4381 273.657 95.2904 281.755 89.0409 286.342C88.2879 286.804 87.618 287.39 87.0593 288.075C86.7861 288.421 86.6245 288.842 86.5959 289.282C86.5673 289.722 86.6731 290.161 86.8993 290.54C87.2117 290.967 87.73 291.211 88.0729 291.608C88.7894 292.425 88.6446 293.669 88.3626 294.722C87.4598 298.125 85.653 301.218 83.1343 303.675C83.241 304.484 84.2165 304.797 85.0168 304.919C87.1336 305.234 89.271 305.389 91.4111 305.384C93.0791 305.521 94.7559 305.266 96.308 304.639C97.8601 304.013 99.2445 303.031 100.351 301.774C104.162 298.187 107.386 293.707 108.247 288.548C108.292 287.78 108.539 287.037 108.963 286.395C109.355 285.988 109.846 285.691 110.388 285.533C113.231 284.556 116.486 285.037 119.222 283.831C122.788 282.305 124.557 278.489 126.424 274.993C126.485 275.657 126.607 276.329 126.714 277C127.258 280.592 127.076 284.257 126.18 287.777C125.669 289.769 124.93 291.753 124.983 293.806C125.022 295.333 126.569 303.308 128.604 300.919C130.639 298.531 129.892 293.249 129.892 290.288C129.894 284.744 130.909 279.247 132.887 274.07C133.375 272.78 133.931 271.505 134.304 270.177C134.489 269.401 134.718 268.637 134.99 267.888C135.433 266.968 135.991 266.109 136.652 265.331L138.108 263.461C140.821 262.018 144.525 260.553 145.965 263.56C146.514 264.713 146.811 265.987 148.252 264.865C149.098 264.201 149.372 262.896 149.593 261.904C150.5 257.744 151.247 252.852 148.396 249.693Z" fill="#464353"/>
<path opacity="0.1" d="M120.815 321.748C120.258 307.651 100.557 304.736 95.9613 318.069C95.924 318.158 95.8934 318.25 95.8699 318.344C92.8594 327.372 94.1703 350.238 94.1703 350.238C94.1703 350.238 94.559 365.594 95.9994 370.7C97.4399 375.806 101.487 390.46 101.487 392.833C101.487 395.207 105.244 404.22 106.822 404.877C108.399 405.533 109.2 410.631 109.588 411.547C109.977 412.463 111.113 424.377 111.113 424.377C111.113 424.377 125.883 423.461 126.142 421.103C126.401 418.744 122.873 407.227 122.873 407.227C122.873 407.227 120.274 402.518 119.938 398.725C119.603 394.932 117.56 393.207 117.964 390.589C118.368 387.972 116.783 386.666 116.783 384.964C116.783 383.262 115.609 378.683 115.609 378.683C115.609 378.683 113.125 376.714 113.521 374.363C113.917 372.013 109.992 367.296 111.036 365.594C112.081 363.892 112.34 359.702 112.34 359.702C112.34 359.702 113.651 340.858 114.565 335.752C115.48 330.647 120.838 322.404 120.838 322.404C120.838 322.404 120.83 322.167 120.815 321.748Z" fill="black"/>
<path opacity="0.1" d="M120.205 404.449C116.608 408.265 111.471 409.09 107.416 408.861C106.944 407.075 106.258 404.877 105.259 404.465C103.674 403.808 99.9243 394.779 99.9243 392.429C99.9243 390.078 95.8774 375.409 94.4369 370.296C92.9965 365.182 92.6078 349.841 92.6078 349.841C92.6078 349.841 91.2969 326.945 94.3074 317.939C94.3074 317.855 94.3607 317.764 94.3988 317.672C98.9717 304.331 118.696 307.254 119.252 321.351C119.252 321.77 119.252 321.999 119.252 321.999C119.252 321.999 113.917 330.242 112.98 335.348C112.042 340.454 110.77 359.298 110.77 359.298C110.77 359.298 110.503 363.488 109.459 365.19C108.415 366.892 112.332 371.608 111.943 373.959C111.555 376.31 114.032 378.279 114.032 378.279C114.032 378.279 115.205 382.858 115.205 384.568C115.205 386.277 116.775 387.575 116.387 390.192C115.998 392.81 118.086 394.512 118.421 398.305C118.701 400.432 119.303 402.504 120.205 404.449Z" fill="black"/>
<path d="M120.03 321.358C119.473 307.262 99.7719 304.346 95.1762 317.68L95.0847 317.947C92.0742 326.983 93.3851 349.849 93.3851 349.849C93.3851 349.849 93.7738 365.197 95.2143 370.303C96.6547 375.409 100.702 390.07 100.702 392.436C100.702 394.802 104.459 403.823 106.037 404.48C107.614 405.136 108.415 410.242 108.803 411.158C109.192 412.074 110.328 423.98 110.328 423.98C110.328 423.98 125.098 423.064 125.357 420.713C125.616 418.363 122.095 406.838 122.095 406.838C122.095 406.838 119.488 402.121 119.153 398.328C118.818 394.535 116.73 392.833 117.126 390.215C117.522 387.597 115.945 386.285 115.945 384.583C115.945 382.881 114.771 378.302 114.771 378.302C114.771 378.302 112.286 376.34 112.683 373.982C113.079 371.623 109.154 366.914 110.198 365.212C111.242 363.51 111.501 359.328 111.501 359.328C111.501 359.328 112.812 340.477 113.727 335.371C114.641 330.265 119.999 322.022 119.999 322.022C119.999 322.022 120.045 321.778 120.03 321.358Z" fill="#F38C06"/>
<path opacity="0.1" d="M95.7708 357.611C96.1594 357.214 103.613 348.971 105.961 351.917C108.308 354.863 95.7708 357.611 95.7708 357.611Z" fill="black"/>
<path opacity="0.1" d="M96.4565 363.991C96.7462 363.694 103.903 363.404 105.671 359.412C107.439 355.421 96.4565 363.991 96.4565 363.991Z" fill="black"/>
<g opacity="0.1">
<path opacity="0.1" d="M88.3018 291.608C88.4778 291.816 88.61 292.057 88.6904 292.318C88.8345 291.873 88.8744 291.4 88.807 290.937C88.7396 290.474 88.5667 290.032 88.3018 289.647C87.9512 289.242 87.4405 289.006 87.1204 288.578C87.1204 288.578 87.0823 288.509 87.0595 288.471C86.8827 288.79 86.7951 289.15 86.8058 289.514C86.8165 289.878 86.9252 290.232 87.1204 290.54C87.4786 290.967 87.9512 291.211 88.3018 291.608Z" fill="black"/>
<path opacity="0.1" d="M98.2783 266.186C98.2783 265.422 98.2783 264.659 98.2783 263.957C98.1411 261.286 97.6457 258.546 97.5161 255.867C97.3561 259.149 98.0877 262.591 98.2783 265.919C98.2783 265.995 98.2707 266.079 98.2783 266.186Z" fill="black"/>
<path opacity="0.1" d="M128.825 298.958C127.011 301.087 125.586 294.959 125.273 292.539C125.224 292.96 125.201 293.383 125.205 293.806C125.25 295.333 126.79 303.308 128.825 300.919C130.204 299.301 130.349 296.546 130.258 294.005C130.159 295.951 129.854 297.752 128.825 298.958Z" fill="black"/>
<path opacity="0.1" d="M126.935 277C127.09 278.027 127.184 279.061 127.217 280.099C127.283 278.405 127.188 276.708 126.935 275.031C126.836 274.367 126.706 273.696 126.645 273.024C124.763 276.55 123.017 280.32 119.45 281.87C116.684 283.068 113.46 282.595 110.617 283.572C110.071 283.721 109.578 284.02 109.192 284.434C108.763 285.073 108.516 285.817 108.476 286.586C107.607 291.746 104.375 296.226 100.572 299.813C99.4657 301.07 98.0812 302.051 96.5292 302.678C94.9771 303.305 93.3002 303.56 91.6323 303.423C89.4949 303.424 87.3603 303.269 85.2456 302.957C84.9177 302.906 84.5959 302.822 84.2853 302.705C83.988 303.041 83.6756 303.362 83.3555 303.675C83.4622 304.484 84.4453 304.796 85.2456 304.919C87.3599 305.234 89.4948 305.389 91.6323 305.384C93.3002 305.521 94.9771 305.266 96.5292 304.639C98.0812 304.013 99.4657 303.031 100.572 301.774C104.383 298.187 107.607 293.707 108.476 288.548C108.517 287.779 108.764 287.035 109.192 286.395C109.581 285.985 110.073 285.687 110.617 285.533C113.46 284.556 116.714 285.037 119.45 283.831C123.017 282.305 124.785 278.489 126.645 274.993C126.706 275.657 126.836 276.329 126.935 277Z" fill="black"/>
<path opacity="0.1" d="M149.814 259.942C149.593 260.935 149.311 262.232 148.465 262.904C147.032 264.018 146.743 262.751 146.179 261.599C144.738 258.592 141.034 260.072 138.321 261.499L136.865 263.369C136.205 264.145 135.649 265.005 135.212 265.926C134.932 266.673 134.703 267.438 134.526 268.216C134.145 269.544 133.596 270.811 133.1 272.1C131.13 277.28 130.118 282.776 130.113 288.319C130.113 288.571 130.113 288.845 130.113 289.128C130.249 283.976 131.256 278.884 133.093 274.07C133.588 272.78 134.137 271.505 134.518 270.177C134.696 269.4 134.925 268.635 135.204 267.888C135.641 266.966 136.197 266.107 136.858 265.331L138.313 263.461C141.027 262.018 144.731 260.553 146.171 263.56C146.727 264.713 147.017 265.987 148.458 264.865C149.304 264.201 149.585 262.896 149.807 261.904C150.381 259.604 150.638 257.237 150.569 254.867C150.447 256.576 150.194 258.272 149.814 259.942Z" fill="black"/>
</g>
<path d="M167.641 334.249L168.045 334.524C167.864 334.403 167.709 334.248 167.59 334.067C167.471 333.885 167.389 333.682 167.35 333.468C167.311 333.254 167.315 333.035 167.362 332.823C167.41 332.611 167.499 332.411 167.625 332.234L185.795 305.873C185.915 305.697 186.068 305.547 186.246 305.431C186.425 305.315 186.624 305.235 186.833 305.197C187.042 305.159 187.257 305.162 187.465 305.207C187.672 305.253 187.869 305.339 188.043 305.46L187.639 305.178C188.206 305.57 188.594 306.171 188.718 306.85C188.843 307.528 188.693 308.228 188.302 308.796L171.253 333.577C170.862 334.144 170.262 334.533 169.585 334.659C168.908 334.785 168.209 334.637 167.641 334.249Z" fill="#464353"/>
<path d="M187.834 305.278L188.142 305.49L168.142 334.566L167.834 334.354C167.545 334.154 167.346 333.847 167.282 333.501C167.219 333.154 167.295 332.797 167.494 332.507L185.986 305.624C186.185 305.334 186.492 305.136 186.837 305.072C187.183 305.008 187.54 305.084 187.83 305.284L187.834 305.278Z" fill="#9F9EFF"/>
<path d="M185.587 309.251L185.531 309.212C185.472 309.172 185.391 309.187 185.351 309.246L183.868 311.401C183.827 311.46 183.842 311.541 183.901 311.582L183.957 311.621C184.016 311.662 184.097 311.647 184.138 311.588L185.62 309.432C185.661 309.373 185.646 309.292 185.587 309.251Z" fill="#464353"/>
<path d="M571.149 215.226C571.155 217.834 570.388 220.386 568.945 222.557C567.503 224.729 565.449 226.423 563.045 227.425C560.64 228.427 557.993 228.693 555.437 228.188C552.882 227.683 550.534 226.43 548.69 224.588C546.846 222.745 545.59 220.397 545.079 217.839C544.569 215.282 544.828 212.63 545.823 210.22C546.819 207.809 548.506 205.749 550.671 204.299C552.836 202.85 555.382 202.076 557.986 202.076C561.472 202.076 564.815 203.46 567.283 205.926C569.75 208.391 571.141 211.736 571.149 215.226ZM556.462 222.202L566.233 212.425C566.39 212.265 566.478 212.05 566.478 211.826C566.478 211.602 566.39 211.387 566.233 211.227L565.029 210.021C564.951 209.941 564.857 209.878 564.755 209.835C564.652 209.792 564.542 209.77 564.43 209.77C564.319 209.77 564.209 209.792 564.106 209.835C564.003 209.878 563.91 209.941 563.832 210.021L555.868 217.997L552.148 214.287C551.987 214.13 551.771 214.042 551.546 214.042C551.321 214.042 551.105 214.13 550.944 214.287L549.748 215.493C549.668 215.571 549.605 215.665 549.562 215.767C549.519 215.87 549.497 215.981 549.497 216.092C549.497 216.204 549.519 216.314 549.562 216.417C549.605 216.52 549.668 216.613 549.748 216.691L555.266 222.217C555.344 222.297 555.437 222.36 555.539 222.403C555.642 222.446 555.752 222.469 555.864 222.469C555.975 222.469 556.086 222.446 556.188 222.403C556.291 222.36 556.384 222.297 556.462 222.217V222.202Z" fill="#3ACC6C"/>
<path d="M411.701 359.885C411.701 362.492 410.929 365.041 409.483 367.208C408.037 369.376 405.981 371.065 403.576 372.063C401.171 373.06 398.524 373.321 395.971 372.813C393.418 372.304 391.073 371.049 389.232 369.206C387.391 367.362 386.137 365.014 385.63 362.457C385.122 359.9 385.382 357.25 386.379 354.841C387.375 352.433 389.062 350.374 391.226 348.926C393.391 347.478 395.936 346.705 398.539 346.705C402.03 346.705 405.378 348.093 407.846 350.565C410.314 353.037 411.701 356.39 411.701 359.885ZM397.015 366.861L406.816 357.084C406.896 357.006 406.959 356.912 407.002 356.808C407.045 356.705 407.067 356.594 407.067 356.481C407.067 356.369 407.045 356.258 407.002 356.155C406.959 356.051 406.896 355.957 406.816 355.879L405.581 354.718C405.502 354.639 405.409 354.575 405.305 354.532C405.202 354.489 405.091 354.466 404.979 354.466C404.867 354.466 404.756 354.489 404.653 354.532C404.549 354.575 404.456 354.639 404.377 354.718L396.413 362.656L392.693 358.931C392.615 358.852 392.522 358.789 392.419 358.745C392.317 358.702 392.206 358.68 392.095 358.68C391.984 358.68 391.873 358.702 391.771 358.745C391.668 358.789 391.575 358.852 391.497 358.931L390.293 360.13C390.135 360.291 390.047 360.507 390.047 360.733C390.047 360.958 390.135 361.174 390.293 361.335L395.81 366.861C395.889 366.941 395.983 367.004 396.086 367.048C396.19 367.091 396.3 367.113 396.413 367.113C396.525 367.113 396.635 367.091 396.739 367.048C396.842 367.004 396.936 366.941 397.015 366.861Z" fill="#3ACC6C"/>
<path d="M411.701 503.873C411.701 506.48 410.929 509.028 409.483 511.196C408.037 513.363 405.981 515.053 403.576 516.05C401.171 517.048 398.524 517.309 395.971 516.8C393.418 516.292 391.073 515.037 389.232 513.193C387.391 511.35 386.137 509.001 385.63 506.444C385.122 503.888 385.382 501.237 386.379 498.829C387.375 496.421 389.062 494.362 391.226 492.914C393.391 491.465 395.936 490.692 398.539 490.692C402.03 490.692 405.378 492.081 407.846 494.553C410.314 497.025 411.701 500.377 411.701 503.873ZM397.015 510.849L406.816 501.072C406.896 500.993 406.959 500.899 407.002 500.796C407.045 500.692 407.067 500.581 407.067 500.469C407.067 500.357 407.045 500.246 407.002 500.142C406.959 500.039 406.896 499.945 406.816 499.866L405.619 498.668C405.541 498.588 405.447 498.525 405.343 498.481C405.24 498.438 405.129 498.416 405.017 498.416C404.905 498.416 404.794 498.438 404.691 498.481C404.587 498.525 404.494 498.588 404.415 498.668L396.451 506.643L392.731 502.919C392.653 502.839 392.56 502.776 392.458 502.733C392.355 502.69 392.244 502.668 392.133 502.668C392.022 502.668 391.911 502.69 391.809 502.733C391.706 502.776 391.613 502.839 391.535 502.919L390.331 504.117C390.173 504.278 390.085 504.495 390.085 504.72C390.085 504.946 390.173 505.162 390.331 505.323L395.849 510.849C395.927 510.929 396.021 510.992 396.124 511.035C396.228 511.079 396.339 511.101 396.451 511.101C396.563 511.101 396.674 511.079 396.777 511.035C396.88 510.992 396.974 510.929 397.053 510.849H397.015Z" fill="#3ACC6C"/>
</g>
<defs>
<linearGradient id="paint0_linear" x1="408.157" y1="538.416" x2="408.157" y2="0" gradientUnits="userSpaceOnUse">
<stop stop-color="#808080" stop-opacity="0.25"/>
<stop offset="0.54" stop-color="#808080" stop-opacity="0.12"/>
<stop offset="1" stop-color="#808080" stop-opacity="0.1"/>
</linearGradient>
<linearGradient id="paint1_linear" x1="37897.2" y1="287069" x2="37897.2" y2="126183" gradientUnits="userSpaceOnUse">
<stop stop-color="#808080" stop-opacity="0.25"/>
<stop offset="0.54" stop-color="#808080" stop-opacity="0.12"/>
<stop offset="1" stop-color="#808080" stop-opacity="0.1"/>
</linearGradient>
<clipPath id="clip0">
<rect width="774" height="598" fill="white"/>
</clipPath>
</defs>
</svg>
