<svg width="45" height="47" viewBox="0 0 45 47" fill="none" xmlns="http://www.w3.org/2000/svg">
<ellipse cx="22.5511" cy="23.8047" rx="22.2962" ry="23" fill="#4CB9B2"/>
<path d="M21.1271 25.0469C21.1271 27.4062 20.6538 29.2109 19.7071 30.4609C18.7604 31.7109 17.3745 32.3359 15.5493 32.3359C13.7468 32.3359 12.3684 31.7227 11.4142 30.4961C10.4599 29.2695 9.97145 27.5117 9.94873 25.2227V22.082C9.94873 19.6992 10.4259 17.8906 11.3801 16.6562C12.3419 15.4219 13.7241 14.8047 15.5266 14.8047C17.329 14.8047 18.7074 15.418 19.6617 16.6445C20.6159 17.8633 21.1044 19.6172 21.1271 21.9062V25.0469ZM17.844 21.6016C17.844 20.1875 17.6547 19.1602 17.276 18.5195C16.9049 17.8711 16.3218 17.5469 15.5266 17.5469C14.7541 17.5469 14.1823 17.8555 13.8112 18.4727C13.4477 19.082 13.2545 20.0391 13.2318 21.3438V25.4922C13.2318 26.8828 13.4136 27.918 13.7771 28.5977C14.1482 29.2695 14.7389 29.6055 15.5493 29.6055C16.3521 29.6055 16.9314 29.2812 17.2874 28.6328C17.6433 27.9844 17.8289 26.9922 17.844 25.6562V21.6016Z" fill="white"/>
<path d="M26.6936 22.0703H28.443C29.2761 22.0703 29.8934 21.8555 30.2947 21.4258C30.6961 20.9961 30.8968 20.4258 30.8968 19.7148C30.8968 19.0273 30.6961 18.4922 30.2947 18.1094C29.9009 17.7266 29.3556 17.5352 28.6589 17.5352C28.0303 17.5352 27.5039 17.7148 27.0798 18.0742C26.6557 18.4258 26.4437 18.8867 26.4437 19.457H23.1606C23.1606 18.5664 23.3916 17.7695 23.8535 17.0664C24.3231 16.3555 24.9744 15.8008 25.8075 15.4023C26.6481 15.0039 27.5721 14.8047 28.5794 14.8047C30.3288 14.8047 31.6996 15.2383 32.6917 16.1055C33.6839 16.9648 34.1799 18.1523 34.1799 19.668C34.1799 20.4492 33.9489 21.168 33.4869 21.8242C33.025 22.4805 32.4191 22.9844 31.6693 23.3359C32.6009 23.6797 33.2938 24.1953 33.7482 24.8828C34.2102 25.5703 34.4412 26.3828 34.4412 27.3203C34.4412 28.8359 33.9035 30.0508 32.8281 30.9648C31.7602 31.8789 30.344 32.3359 28.5794 32.3359C26.9284 32.3359 25.5765 31.8867 24.5238 30.9883C23.4787 30.0898 22.9561 28.9023 22.9561 27.4258H26.2392C26.2392 28.0664 26.4702 28.5898 26.9321 28.9961C27.4017 29.4023 27.9773 29.6055 28.6589 29.6055C29.4389 29.6055 30.0486 29.3945 30.4879 28.9727C30.9347 28.543 31.1581 27.9766 31.1581 27.2734C31.1581 25.5703 30.2493 24.7188 28.4317 24.7188H26.6936V22.0703Z" fill="white"/>
</svg>
