<svg width="386" height="379" viewBox="0 0 386 379" fill="none" xmlns="http://www.w3.org/2000/svg">
<path d="M123.398 354.01C130.536 354.01 136.209 359.712 136.209 366.484C136.209 373.434 130.353 378.959 123.398 378.959C116.443 378.959 110.586 373.256 110.586 366.484C110.586 359.712 116.26 354.01 123.398 354.01Z" fill="#6D26D7"/>
<path d="M377.947 246.795C381.841 246.795 385.028 249.981 385.028 253.875C385.028 257.769 381.841 260.956 377.947 260.956C374.053 260.956 370.867 257.769 370.867 253.875C370.867 249.981 374.053 246.795 377.947 246.795Z" fill="#5202B5"/>
<path d="M97.4371 15.509C101.331 15.509 104.517 18.6951 104.517 22.5892C104.517 26.4833 101.331 29.6694 97.4371 29.6694C93.543 29.6694 90.3569 26.4833 90.3569 22.5892C90.3569 18.6951 93.543 15.509 97.4371 15.509Z" fill="#5202B5"/>
<path d="M367.159 220.497C372.591 220.497 376.936 224.843 376.936 230.275C376.936 235.706 372.591 240.052 367.159 240.052C361.727 240.052 357.381 235.706 357.381 230.275C357.381 224.843 361.908 220.497 367.159 220.497Z" fill="#5202B5"/>
<path d="M369.856 153.741C375.287 153.741 379.633 158.087 379.633 163.519C379.633 168.95 375.287 173.296 369.856 173.296C364.424 173.296 360.078 168.95 360.078 163.519C360.259 158.087 364.605 153.741 369.856 153.741Z" fill="#6D26D7"/>
<path d="M9.77742 228.589C15.2093 228.589 19.5548 232.785 19.5548 238.029C19.5548 243.274 15.2093 247.469 9.77742 247.469C4.34553 247.469 0 243.274 0 238.029C0 232.785 4.34553 228.589 9.77742 228.589Z" fill="#5202B5"/>
<path d="M11.8001 201.617C15.7129 201.617 18.8804 204.784 18.8804 208.697C18.8804 212.61 15.7129 215.777 11.8001 215.777C7.88741 215.777 4.71997 212.61 4.71997 208.697C4.71997 204.784 7.88741 201.617 11.8001 201.617Z" fill="#5202B5"/>
<path d="M130.817 279.162C135.725 279.162 139.58 283.349 139.58 288.265C139.58 293.363 135.549 297.368 130.817 297.368C125.91 297.368 122.054 293.181 122.054 288.265C121.879 283.349 125.91 279.162 130.817 279.162Z" fill="#6D26D7"/>
<path d="M262.981 165.879C267.888 165.879 271.744 170.066 271.744 174.982C271.744 180.08 267.713 184.085 262.981 184.085C258.074 184.085 254.218 179.898 254.218 174.982C254.043 170.066 258.074 165.879 262.981 165.879Z" fill="#5202B5"/>
<path d="M257.839 326.256H114.322C106.398 326.256 100.096 319.953 100.096 312.03V57.4091C100.096 49.4859 106.398 43.1834 114.322 43.1834H257.839C265.762 43.1834 272.064 49.4859 272.064 57.4091V312.03C272.064 319.953 265.762 326.256 257.839 326.256Z" fill="#00A49F"/>
<path d="M255.498 48.2256H116.843C110.901 48.2256 106.039 53.0875 106.039 59.0299V310.59C106.039 316.532 110.901 321.394 116.843 321.394H255.498C261.44 321.394 266.302 316.532 266.302 310.59V59.0299C266.122 53.0875 261.44 48.2256 255.498 48.2256Z" fill="#00BEB9"/>
<path d="M113.961 68.0333V303.747C113.961 309.149 118.463 313.651 123.865 313.651H248.115C253.697 313.651 258.019 309.149 258.019 303.747V68.0333H113.961Z" fill="#2C2D84"/>
<path d="M202.197 61.7307H173.745C172.485 61.7307 171.584 60.8303 171.584 59.5698C171.584 58.3093 172.485 57.409 173.745 57.409H202.197C203.457 57.409 204.357 58.3093 204.357 59.5698C204.357 60.6503 203.457 61.7307 202.197 61.7307Z" fill="#00A49F"/>
<path d="M258.019 68.0333H113.962V72.355H258.019V68.0333Z" fill="#EBE0BE"/>
<path d="M95.2343 129.799H90.9125C85.6904 129.799 81.5488 125.657 81.5488 120.435V113.232H104.598V120.435C104.598 125.657 100.456 129.799 95.2343 129.799Z" fill="#EBE0BE"/>
<path d="M120.084 129.798H113.962C108.74 129.798 104.598 125.657 104.598 120.435V113.232H129.448V120.435C129.628 125.657 125.306 129.798 120.084 129.798Z" fill="#D5498F"/>
<path d="M143.493 129.798H138.991C133.769 129.798 129.628 125.657 129.628 120.435V113.232H152.857V120.435C152.857 125.657 148.715 129.798 143.493 129.798Z" fill="#EBE0BE"/>
<path d="M165.462 129.798H162.221C156.999 129.798 152.857 125.657 152.857 120.435V113.232H175.006V120.435C175.006 125.657 170.684 129.798 165.462 129.798Z" fill="#D5498F"/>
<path d="M113.962 72.537L81.5491 113.233H185.991V72.537H113.962Z" fill="#F4EED8"/>
<path d="M128.007 72.5354L104.598 113.232H185.99V72.5354H128.007Z" fill="#F065A6"/>
<path d="M144.934 72.5354L129.628 113.232H185.99V72.5354H144.934Z" fill="#F4EED8"/>
<path d="M160.78 72.5354L152.857 113.232H185.99V72.5354H160.78Z" fill="#F065A6"/>
<path d="M175.006 113.232V121.695C175.006 126.197 179.868 129.798 185.99 129.798H186.17C192.293 129.798 197.155 126.197 197.155 121.695V113.232H175.006Z" fill="#EBE0BE"/>
<path d="M276.926 129.798H281.248C286.47 129.798 290.612 125.657 290.612 120.435V113.232H267.562V120.435C267.562 125.657 271.704 129.798 276.926 129.798Z" fill="#EBE0BE"/>
<path d="M252.076 129.798H258.199C263.421 129.798 267.563 125.657 267.563 120.435V113.232H242.533V120.435C242.533 125.657 246.854 129.798 252.076 129.798Z" fill="#D5498F"/>
<path d="M228.667 129.798H233.169C238.391 129.798 242.533 125.657 242.533 120.435V113.232H219.303V120.435C219.303 125.657 223.445 129.798 228.667 129.798Z" fill="#EBE0BE"/>
<path d="M206.699 129.799H209.94C215.162 129.799 219.304 125.657 219.304 120.435V113.232H197.155V120.435C197.155 125.657 201.477 129.799 206.699 129.799Z" fill="#D5498F"/>
<path d="M258.199 72.5353H185.99V113.232H290.612L258.199 72.5353Z" fill="#F4EED8"/>
<path d="M244.153 72.5353H185.99V113.232H267.562L244.153 72.5353Z" fill="#F065A6"/>
<path d="M185.99 72.5353V113.232H242.532L227.226 72.5353H185.99Z" fill="#F4EED8"/>
<path d="M185.99 72.5353V113.232H219.303L211.38 72.5353H185.99Z" fill="#F065A6"/>
<path d="M178.067 72.5359L175.006 113.232H197.155L194.094 72.5359H178.067Z" fill="#F4EED8"/>
<path d="M144.754 68.0333H128.007V72.355H144.754V68.0333Z" fill="#D5498F"/>
<path d="M244.153 68.0333H227.227V72.355H244.153V68.0333Z" fill="#D5498F"/>
<path d="M178.067 68.0333H160.78V72.355H178.067V68.0333Z" fill="#D5498F"/>
<path d="M211.38 68.0333H194.094V72.355H211.38V68.0333Z" fill="#D5498F"/>
<path d="M160.24 142.223H126.206V182.019H160.24V142.223Z" fill="#6D26D7"/>
<path d="M203.097 142.223H169.063V182.019H203.097V142.223Z" fill="#6D26D7"/>
<path d="M175.006 145.464L175.546 146.545L176.806 146.725L175.906 147.625L176.086 148.886L175.006 148.346L173.925 148.886L174.105 147.625L173.205 146.725L174.465 146.545L175.006 145.464Z" fill="#F065A6"/>
<path d="M180.588 145.464L181.128 146.545L182.389 146.725L181.488 147.625L181.669 148.886L180.588 148.345L179.328 148.886L179.688 147.625L178.787 146.725L180.048 146.545L180.588 145.464Z" fill="#F065A6"/>
<path d="M185.99 145.464L186.71 146.545L187.971 146.725L187.071 147.625L187.251 148.886L185.99 148.345L184.91 148.886L185.09 147.625L184.189 146.725L185.45 146.545L185.99 145.464Z" fill="#F065A6"/>
<path d="M191.572 145.464L192.113 146.545L193.373 146.725L192.473 147.625L192.653 148.886L191.572 148.345L190.492 148.886L190.672 147.625L189.772 146.725L191.032 146.545L191.572 145.464Z" fill="#F065A6"/>
<path d="M197.154 145.464L197.694 146.545L198.955 146.725L198.055 147.625L198.235 148.886L197.154 148.345L196.074 148.886L196.254 147.625L195.354 146.725L196.614 146.545L197.154 145.464Z" fill="#F065A6"/>
<path d="M245.774 142.223H211.74V182.019H245.774V142.223Z" fill="#6D26D7"/>
<path d="M217.683 145.464L218.403 146.545L219.663 146.725L218.583 147.625L218.943 148.886L217.683 148.346L216.602 148.886L216.782 147.625L215.882 146.725L217.142 146.545L217.683 145.464Z" fill="#F065A6"/>
<path d="M223.265 145.464L223.805 146.545L225.066 146.725L224.165 147.625L224.345 148.886L223.265 148.345L222.184 148.886L222.364 147.625L221.464 146.725L222.725 146.545L223.265 145.464Z" fill="#F065A6"/>
<path d="M228.847 145.464L229.387 146.545L230.648 146.725L229.747 147.625L229.928 148.886L228.847 148.345L227.767 148.886L227.947 147.625L227.046 146.725L228.307 146.545L228.847 145.464Z" fill="#F065A6"/>
<path d="M234.249 145.464L234.969 146.545L236.23 146.725L235.33 147.625L235.51 148.886L234.249 148.345L233.169 148.886L233.349 147.625L232.448 146.725L233.709 146.545L234.249 145.464Z" fill="#F4EED8"/>
<path d="M239.831 145.464L240.372 146.545L241.632 146.725L240.732 147.625L240.912 148.886L239.831 148.345L238.751 148.886L238.931 147.625L238.031 146.725L239.291 146.545L239.831 145.464Z" fill="#F4EED8"/>
<path d="M132.329 145.464L132.869 146.545L134.129 146.725L133.229 147.625L133.409 148.886L132.329 148.346L131.068 148.886L131.428 147.625L130.528 146.725L131.788 146.545L132.329 145.464Z" fill="#F065A6"/>
<path d="M137.731 145.464L138.451 146.545L139.711 146.725L138.811 147.625L138.991 148.886L137.731 148.345L136.65 148.886L136.83 147.625L135.93 146.725L137.19 146.545L137.731 145.464Z" fill="#F4EED8"/>
<path d="M143.313 145.464L143.853 146.545L145.114 146.725L144.214 147.625L144.394 148.886L143.313 148.345L142.233 148.886L142.413 147.625L141.512 146.725L142.773 146.545L143.313 145.464Z" fill="#F4EED8"/>
<path d="M148.895 145.464L149.436 146.545L150.696 146.725L149.796 147.625L149.976 148.886L148.895 148.345L147.815 148.886L147.995 147.625L147.095 146.725L148.355 146.545L148.895 145.464Z" fill="#F4EED8"/>
<path d="M154.478 145.464L155.018 146.545L156.279 146.725L155.378 147.625L155.558 148.886L154.478 148.345L153.217 148.886L153.397 147.625L152.497 146.725L153.758 146.545L154.478 145.464Z" fill="#F4EED8"/>
<path d="M245.774 198.765H211.74V297.084H245.774V198.765Z" fill="#6D26D7"/>
<path d="M245.774 198.765H211.74V210.29H245.774V198.765Z" fill="#3E039C"/>
<path d="M203.097 198.765H126.206V204.527H203.097V198.765Z" fill="#3E039C"/>
<path d="M203.097 211.91H126.206V222.174H203.097V211.91Z" fill="#6D26D7"/>
<path d="M203.097 230.277H126.206V297.084H203.097V230.277Z" fill="#6D26D7"/>
<path opacity="0.5" d="M146.374 221.994H66.4227C61.3807 221.994 57.239 217.853 57.239 212.811V150.326C57.239 145.284 61.3807 141.142 66.4227 141.142H146.374C151.416 141.142 155.558 145.284 155.558 150.326V212.811C155.558 217.853 151.596 221.994 146.374 221.994Z" fill="white"/>
<path d="M136.29 152.306H68.043V158.789H136.29V152.306Z" fill="white"/>
<path d="M111.08 165.092H68.043V171.574H111.08V165.092Z" fill="white"/>
<path d="M73.9853 178.597L75.786 182.199L79.7476 182.739L76.8665 185.62L77.5867 189.582L73.9853 187.781L70.3839 189.582L71.1042 185.62L68.043 182.739L72.1846 182.199L73.9853 178.597Z" fill="white"/>
<path d="M90.1919 178.597L91.9927 182.198L96.1343 182.739L93.0731 185.62L93.7934 189.581L90.1919 187.781L86.5905 189.581L87.3108 185.62L84.4297 182.739L88.3912 182.198L90.1919 178.597Z" fill="white"/>
<path d="M106.398 178.597L108.199 182.198L112.341 182.739L109.459 185.62L110 189.581L106.398 187.781L102.797 189.581L103.517 185.62L100.636 182.739L104.598 182.198L106.398 178.597Z" fill="white"/>
<path d="M122.785 178.597L124.585 182.198L128.547 182.739L125.666 185.62L126.386 189.581L122.785 187.781L119.183 189.581L119.723 185.62L116.842 182.739L120.984 182.198L122.785 178.597Z" fill="white"/>
<path d="M138.991 178.597L140.792 182.198L144.754 182.739L141.873 185.62L142.593 189.581L138.991 187.781L135.39 189.581L136.11 185.62L133.049 182.739L137.191 182.198L138.991 178.597Z" fill="white"/>
<path d="M140.432 211.73H72.5448C70.0238 211.73 68.043 209.749 68.043 207.228V200.926C68.043 198.405 70.0238 196.424 72.5448 196.424H140.432C142.953 196.424 144.933 198.405 144.933 200.926V207.228C144.753 209.749 142.773 211.73 140.432 211.73Z" fill="white"/>
<path opacity="0.5" d="M281.428 310.95H221.104C217.322 310.95 214.261 307.888 214.261 304.107V257.108C214.261 253.327 217.322 250.266 221.104 250.266H281.428C285.209 250.266 288.271 253.327 288.271 257.108V304.287C288.451 307.888 285.209 310.95 281.428 310.95Z" fill="white"/>
<path d="M273.865 258.369H222.365V263.231H273.865V258.369Z" fill="white"/>
<path d="M254.778 268.093H222.365V272.954H254.778V268.093Z" fill="white"/>
<path d="M226.867 278.177L228.127 281.058L231.188 281.418L229.027 283.579L229.568 286.64L226.867 285.2L224.165 286.64L224.526 283.579L222.365 281.418L225.426 281.058L226.867 278.177Z" fill="white"/>
<path d="M239.111 278.177L240.372 281.058L243.433 281.418L241.272 283.579L241.812 286.64L239.111 285.199L236.41 286.64L236.951 283.579L234.61 281.418L237.671 281.058L239.111 278.177Z" fill="white"/>
<path d="M251.356 278.177L252.617 281.058L255.678 281.418L253.517 283.579L254.057 286.64L251.356 285.199L248.655 286.64L249.195 283.579L246.854 281.418L249.916 281.058L251.356 278.177Z" fill="white"/>
<path d="M263.601 278.177L265.042 281.058L267.923 281.418L265.762 283.579L266.302 286.64L263.601 285.199L260.9 286.64L261.44 283.579L259.099 281.418L262.161 281.058L263.601 278.177Z" fill="white"/>
<path d="M275.846 278.177L277.287 281.058L280.348 281.418L278.007 283.579L278.547 286.64L275.846 285.199L273.145 286.64L273.685 283.579L271.344 281.418L274.405 281.058L275.846 278.177Z" fill="white"/>
<path d="M276.926 303.207H225.786C223.985 303.207 222.365 301.766 222.365 299.785V295.103C222.365 293.303 223.805 291.682 225.786 291.682H276.926C278.727 291.682 280.348 293.123 280.348 295.103V299.785C280.348 301.766 278.727 303.207 276.926 303.207Z" fill="white"/>
<path opacity="0.5" d="M156.459 308.609H96.1347C92.3532 308.609 89.292 305.547 89.292 301.766V254.587C89.292 250.806 92.3532 247.745 96.1347 247.745H156.459C160.24 247.745 163.301 250.806 163.301 254.587V301.766C163.301 305.547 160.24 308.609 156.459 308.609Z" fill="white"/>
<path d="M148.896 256.208H97.3955V261.07H148.896V256.208Z" fill="white"/>
<path d="M129.808 265.752H97.3955V270.613H129.808V265.752Z" fill="white"/>
<path d="M101.717 275.836L103.158 278.717L106.219 279.077L104.058 281.238L104.418 284.299L101.717 282.859L99.0161 284.299L99.5564 281.238L97.3955 279.077L100.457 278.717L101.717 275.836Z" fill="white"/>
<path d="M113.962 275.836L115.402 278.717L118.464 279.077L116.303 281.238L116.843 284.299L113.962 282.859L111.261 284.299L111.801 281.238L109.64 279.077L112.701 278.717L113.962 275.836Z" fill="white"/>
<path d="M126.207 275.836L127.647 278.717L130.709 279.077L128.548 281.238L129.088 284.299L126.207 282.859L123.506 284.299L124.046 281.238L121.885 279.077L124.946 278.717L126.207 275.836Z" fill="white"/>
<path d="M138.632 275.836L139.892 278.717L142.954 279.077L140.793 281.238L141.333 284.299L138.632 282.859L135.751 284.299L136.291 281.238L134.13 279.077L137.191 278.717L138.632 275.836Z" fill="white"/>
<path d="M150.876 275.836L152.137 278.717L155.198 279.077L153.037 281.238L153.577 284.299L150.876 282.859L147.995 284.299L148.535 281.238L146.375 279.077L149.436 278.717L150.876 275.836Z" fill="white"/>
<path d="M151.957 300.866H100.817C99.0161 300.866 97.3955 299.425 97.3955 297.444V292.762C97.3955 290.962 98.8361 289.341 100.817 289.341H151.957C153.758 289.341 155.379 290.782 155.379 292.762V297.444C155.198 299.425 153.758 300.866 151.957 300.866Z" fill="white"/>
<path d="M122.245 293.843L98.6553 294.023L64.0815 328.597L87.4908 352.006L122.065 317.432L122.245 293.843ZM113.421 302.666C112.521 301.766 112.521 300.145 113.421 299.245C114.321 298.345 115.942 298.345 116.843 299.245C117.743 300.145 117.743 301.766 116.843 302.666C115.942 303.567 114.502 303.567 113.421 302.666Z" fill="#F38C06"/>
<path d="M108.919 307.168L106.938 313.111L110.72 318.153H104.417L100.816 323.195L98.8352 317.252L92.8928 315.452L98.1149 311.67L97.9349 305.548L102.977 309.149L108.919 307.168Z" fill="white"/>
<path d="M92.8926 323.195L90.9118 329.137L94.6933 334.179H88.3908L84.7893 339.221L82.9886 333.279L76.8662 331.298L82.0883 327.697L81.9082 321.394L86.9502 325.176L92.8926 323.195Z" fill="white"/>
<path d="M353.277 356.328C353.277 356.328 314.742 360.289 267.203 360.289C219.664 360.289 181.128 356.328 181.128 356.328C181.128 356.328 219.664 352.366 267.203 352.366C314.742 352.366 353.277 356.328 353.277 356.328Z" fill="#3E039C"/>
<path d="M321.584 179.317C321.224 177.877 321.044 176.256 320.684 174.455C320.324 171.214 319.063 169.413 316.722 167.072C316.362 166.712 316.002 166.352 315.822 165.992C315.822 165.632 315.642 165.272 315.642 164.912C315.282 163.471 314.201 162.391 313.301 161.31C313.121 160.77 313.121 160.05 313.121 159.329C313.121 157.349 313.481 155.368 313.301 153.207C313.121 150.686 312.221 148.345 310.78 146.364C310.42 144.203 309.7 142.223 308.259 140.602C305.918 137.901 302.497 136.28 298.895 135.74C295.474 135.2 291.512 135.38 287.911 136.28C284.67 137.001 281.428 138.441 278.907 140.242C276.386 142.223 273.685 145.104 273.325 149.065C268.643 155.368 272.065 164.551 276.566 170.854C275.666 172.835 274.045 174.996 273.505 176.076C271.344 180.578 269.184 185.08 267.923 189.942C266.302 196.424 265.942 203.087 273.505 205.068C288.271 209.029 306.098 213.711 320.324 205.428C325.006 202.727 328.787 198.045 328.967 192.643C329.147 187.24 325.726 182.559 321.584 179.317ZM277.287 169.233C275.846 167.072 274.406 165.092 273.505 162.571C271.885 158.429 271.885 154.648 273.325 150.866C273.685 160.05 276.927 166.352 277.287 168.153C277.467 168.333 277.467 168.693 277.287 169.233ZM310.96 148.885V148.705C311.68 150.146 312.041 151.766 312.221 153.567C312.401 155.548 311.86 157.709 311.86 159.69C311.32 159.149 310.96 158.429 310.6 157.709C309.52 154.828 310.78 151.946 310.96 148.885ZM316.002 173.015C315.462 171.394 315.822 169.593 316.002 167.793C316.182 167.973 316.362 168.153 316.542 168.333C319.243 171.034 319.423 174.455 319.964 177.877C317.983 176.436 316.542 174.996 316.002 173.015Z" fill="#0E0E15"/>
<path d="M301.956 150.686V158.068C301.956 159.329 301.776 160.77 301.236 161.85C299.616 165.992 295.834 168.873 291.152 168.873C285.21 168.873 280.348 164.011 280.348 158.068V150.686V150.506C280.528 146.364 283.949 142.943 288.091 142.943H294.213C298.355 142.943 301.776 146.364 301.956 150.506C301.956 150.686 301.956 150.686 301.956 150.686Z" fill="#F4EED8"/>
<path d="M301.956 150.326V150.506C301.956 153.747 300.336 156.628 297.995 158.609C296.194 160.05 293.673 161.13 291.152 161.13C285.39 161.13 280.708 156.628 280.348 150.866C280.348 150.686 280.348 150.686 280.348 150.506V150.326C280.348 144.384 285.21 139.522 291.152 139.522C297.095 139.522 301.956 144.384 301.956 150.326Z" fill="#F4EED8"/>
<path d="M301.956 150.506V150.687V158.069C301.956 159.33 301.776 160.771 301.236 161.851L293.853 154.468C285.21 158.069 280.708 151.227 280.348 150.867V150.687V150.506C280.348 144.564 285.21 139.702 291.152 139.702C297.095 139.702 301.956 144.564 301.956 150.506C301.956 150.326 301.956 150.506 301.956 150.506Z" fill="#0E0E15"/>
<path d="M303.757 160.05C303.757 161.851 302.317 163.291 300.516 163.291C298.715 163.291 297.275 161.851 297.275 160.05C297.275 158.249 298.715 156.809 300.516 156.809C302.317 156.809 303.757 158.249 303.757 160.05Z" fill="#F4EED8"/>
<path d="M289.351 189.221C289.351 189.221 279.987 202.907 271.164 212.09C267.563 215.872 264.141 218.753 261.44 219.833C252.076 223.615 223.085 198.405 223.085 198.405C223.085 198.405 218.403 198.945 216.782 197.865C215.162 196.784 216.782 189.581 216.782 189.581C216.782 189.581 211.02 187.421 210.48 185.44C209.94 183.639 220.024 186.88 221.284 187.24C222.545 187.601 224.525 193.363 224.525 193.363C233.529 194.984 256.758 206.508 256.758 206.508C256.758 206.508 257.659 204.527 259.459 200.926C260.9 198.045 263.061 194.263 265.582 189.581C271.524 179.317 278.367 175.896 278.367 175.896L289.351 189.221Z" fill="#F4EED8"/>
<path d="M289.351 189.221C289.351 189.221 279.988 202.907 271.164 212.091L259.459 201.106C260.9 198.225 263.061 194.444 265.582 189.762C271.524 179.498 278.367 176.076 278.367 176.076L289.351 189.221Z" fill="#F38C06"/>
<path d="M272.785 238.021C272.785 238.021 263.421 280.158 263.421 288.981C263.421 297.805 263.241 348.045 263.241 348.045H272.605C272.605 348.045 287.371 306.988 281.608 293.483C280.708 291.502 289.351 278.177 292.052 268.813C296.374 253.867 295.834 240.902 295.834 240.902L272.785 238.021Z" fill="#0E0E15"/>
<path d="M287.551 234.419C287.551 234.419 286.83 265.572 292.413 279.617C297.995 293.663 308.799 347.864 308.799 347.864H318.163C318.163 347.864 316.182 255.128 313.301 238.021L287.551 234.419Z" fill="#0E0E15"/>
<path d="M278.187 210.65L272.785 237.841C280.708 240.362 289.171 241.082 297.274 240.002L313.121 237.841C313.121 232.619 312.941 225.056 312.4 216.772C312.22 211.91 312.22 205.968 311.86 201.106C310.78 189.041 308.799 179.137 305.918 176.076H278.007C278.007 176.076 268.823 191.562 271.704 197.145C274.766 202.727 278.187 210.65 278.187 210.65Z" fill="#F38C06"/>
<path d="M272.785 347.864L272.425 351.646L272.064 356.688H250.276C249.015 356.688 248.475 355.067 249.375 354.347C250.636 353.267 252.437 352.186 254.237 351.286C258.559 349.125 263.421 347.864 263.421 347.864H272.785Z" fill="#0E0E15"/>
<path d="M272.784 347.865L272.424 351.646C270.984 352.366 269.543 352.907 267.923 353.267C265.402 353.807 262.88 353.807 260.179 353.807C257.838 353.807 255.498 353.267 254.237 351.286C258.559 349.125 263.421 347.865 263.421 347.865H272.784Z" fill="#F4EED8"/>
<path d="M318.523 272.414H305.018V265.752C305.018 261.97 308.079 259.089 311.68 259.089C315.462 259.089 318.343 262.15 318.343 265.752V272.414H318.523ZM306.638 270.974H317.082V265.752C317.082 262.87 314.741 260.529 311.86 260.529C308.979 260.529 306.638 262.87 306.638 265.752V270.974Z" fill="#FF6748"/>
<path d="M326.806 268.813H296.914L290.972 302.846H332.749L326.806 268.813Z" fill="#00BEB9"/>
<path d="M325.005 359.749C319.423 362.45 309.159 352.906 309.159 352.906L308.799 350.025L308.619 347.864H317.982V350.385C317.982 350.385 320.323 352.906 322.664 354.707C325.185 356.688 327.166 358.849 325.005 359.749Z" fill="#F4EED8"/>
<path d="M325.005 359.749C319.423 362.45 309.159 352.907 309.159 352.907L308.799 350.025C309.159 350.386 309.519 350.926 309.879 351.286C312.22 353.267 314.921 354.887 317.802 355.608C318.703 355.788 319.783 356.148 320.684 355.968C321.404 355.788 322.124 355.428 322.664 354.707C325.185 356.688 327.166 358.849 325.005 359.749Z" fill="#0E0E15"/>
<path d="M314.741 263.951C314.741 263.951 305.377 263.411 306.098 258.909C306.638 255.668 316.002 256.388 316.002 256.388C316.002 256.388 326.806 247.024 326.806 233.339C326.806 227.217 323.745 222.175 320.503 218.573C316.542 214.251 312.22 211.91 312.22 211.91C312.04 205.968 311.5 200.026 310.419 194.083C309.339 188.141 308.078 182.379 306.278 176.797L306.098 176.076C306.098 176.076 328.066 185.62 336.35 209.57C337.97 214.251 339.051 219.293 339.231 225.056C340.491 254.587 314.741 263.951 314.741 263.951Z" fill="#F4EED8"/>
<path d="M336.35 209.57L320.683 218.753C316.722 214.432 312.4 212.091 312.4 212.091C312.22 206.148 311.68 200.206 310.599 194.264C309.519 188.321 308.259 182.559 306.458 176.977L306.278 176.256C306.098 176.076 328.066 185.8 336.35 209.57Z" fill="#F38C06"/>
<path d="M287.371 164.732L285.75 171.934L278.187 176.256C278.187 176.256 281.068 183.639 289.171 183.639C297.275 183.639 305.918 176.256 305.918 176.256L298.175 172.295L296.734 163.831L287.371 164.732Z" fill="#F4EED8"/>
<path d="M286.65 167.973C286.65 167.973 291.872 171.034 297.454 166.892L298.175 170.854L297.815 171.034C294.033 173.015 289.531 172.475 286.29 169.773L286.65 167.973Z" fill="#EBE0BE"/>
<path d="M24.4972 34.3895L23.2635 30.3437L22.0298 34.3895C20.9724 37.9076 18.6813 40.7221 15.509 42.4812C18.6813 44.2402 20.9724 47.0547 22.0298 50.5728L23.2635 54.6186L24.4972 50.5728C25.5546 47.0547 27.8457 44.2402 31.018 42.4812C27.8457 40.898 25.5546 37.9076 24.4972 34.3895Z" fill="#F4EED8"/>
<path d="M378.897 307.595L377.61 303.437L376.323 307.595C375.219 311.211 372.829 314.103 369.518 315.911C372.829 317.719 375.219 320.612 376.323 324.228L377.61 328.386L378.897 324.228C380.001 320.612 382.391 317.719 385.702 315.911C382.207 314.284 379.817 311.211 378.897 307.595Z" fill="#F4EED8"/>
<path d="M337.887 108.675L339.174 104.517L340.462 108.675C341.565 112.291 343.956 115.184 347.266 116.992C343.956 118.8 341.565 121.692 340.462 125.308L339.174 129.466L337.887 125.489C336.784 121.873 334.393 118.98 331.083 117.172C334.393 115.364 336.968 112.291 337.887 108.675Z" fill="#FF6748"/>
<path d="M141.665 4.15821L142.952 0L144.24 4.15821C145.343 7.77404 147.734 10.6667 151.044 12.4746C147.734 14.2825 145.343 17.1752 144.24 20.791L142.952 24.9492L141.665 20.791C140.562 17.1752 138.171 14.2825 134.861 12.4746C138.355 10.6667 140.745 7.59325 141.665 4.15821Z" fill="#FF6748"/>
<path d="M44.4173 16.5812L43.4928 13.4861L42.5684 16.5812C41.8288 19.1301 40.1648 21.3148 37.7612 22.5892C40.1648 23.8637 41.8288 26.0484 42.5684 28.5973L43.4928 31.6923L44.4173 28.5973C45.1568 26.0484 46.8208 23.8637 49.2244 22.5892C47.0057 21.3148 45.1568 19.1301 44.4173 16.5812Z" fill="#F4EED8"/>
<path d="M16.379 320.018L15.5089 316.923L14.6388 320.018C13.9428 322.567 12.3767 324.751 10.1145 326.026C12.3767 327.3 13.9428 329.485 14.6388 332.034L15.5089 335.129L16.379 332.034C17.075 329.485 18.6412 327.3 20.9034 326.026C18.6412 324.751 17.075 322.567 16.379 320.018Z" fill="#FF6748"/>
<path d="M34.3025 338.224L33.3781 335.129L32.4536 338.224C31.714 340.773 30.0501 342.958 27.6465 344.232C30.0501 345.506 31.714 347.691 32.4536 350.24L33.3781 353.335L34.3025 350.24C35.0421 347.691 36.7061 345.506 39.1096 344.232C36.891 342.958 35.0421 340.773 34.3025 338.224Z" fill="#FF6748"/>
<path d="M320.49 80.6399L319.62 77.5449L318.75 80.6399C318.054 83.1888 316.488 85.3735 314.226 86.648C316.488 87.9224 318.054 90.1071 318.75 92.656L319.62 95.7511L320.49 92.656C321.186 90.1071 322.752 87.9224 325.014 86.648C322.926 85.3735 321.186 83.1888 320.49 80.6399Z" fill="#FF6748"/>
<path d="M365.386 292.371L364.461 289.276L363.537 292.371C362.797 294.92 361.133 297.105 358.729 298.379C361.133 299.654 362.797 301.839 363.537 304.387L364.461 307.482L365.386 304.387C366.125 301.839 367.789 299.654 370.193 298.379C367.974 297.105 366.125 294.92 365.386 292.371Z" fill="#F4EED8"/>
<path d="M202.966 185.434H169.25V194.874H202.966V185.434Z" fill="#F065A6"/>
<path d="M26.4465 89.1018H60.8402C65.522 89.1018 69.3035 92.8833 69.3035 97.5652V131.959C69.3035 135.92 66.6024 139.162 63.001 140.062V154.108L49.3156 140.422H26.4465C21.7647 140.422 17.9832 136.641 17.9832 131.959V97.5652C17.9832 92.8833 21.7647 89.1018 26.4465 89.1018Z" fill="#F38C06"/>
<path d="M60.8399 111.25C60.8399 110.17 59.7594 109.269 58.679 109.269H55.4377H49.8555H48.4149C48.4149 109.269 48.9551 104.948 48.7751 104.047C48.595 103.147 46.7943 98.6452 46.7943 98.6452C46.7943 98.6452 46.2541 97.9249 45.1736 98.105C44.0932 98.2851 44.0932 99.0054 44.0932 99.0054L44.2733 103.867C43.7331 106.208 39.7715 111.25 39.7715 111.25L38.511 112.331V123.315L39.0512 124.035C39.5914 124.756 40.3117 125.116 41.2121 125.116H46.7943H55.2576H55.6178C56.6982 125.116 57.5986 124.215 57.5986 123.135C57.5986 122.235 57.0584 121.514 56.3381 121.154H56.5182C57.5986 121.154 58.4989 120.254 58.679 119.173C58.679 118.273 58.1388 117.553 57.4185 117.193C58.499 117.193 59.3993 116.292 59.3993 115.212C59.3993 114.492 58.8591 113.771 58.3189 113.411H58.4989C59.9395 113.411 61.0199 112.331 60.8399 111.25Z" fill="white"/>
<path d="M34.9096 108.909H28.247C27.1666 108.909 26.4463 109.63 26.4463 110.71V124.215C26.4463 125.296 27.1666 126.016 28.247 126.016H34.9096C35.9901 126.016 36.7104 125.296 36.7104 124.215V110.71C36.7104 109.63 35.9901 108.909 34.9096 108.909ZM33.8292 124.395C33.1089 124.395 32.7488 123.855 32.7488 123.315C32.7488 122.595 33.289 122.235 33.8292 122.235C34.5495 122.235 34.9096 122.775 34.9096 123.315C34.9096 123.855 34.3694 124.395 33.8292 124.395Z" fill="white"/>
<path d="M227.227 326.616H213.721V319.953C213.721 316.172 216.783 313.291 220.384 313.291C223.986 313.291 227.047 316.352 227.047 319.953V326.616H227.227ZM215.342 325.175H225.786V319.953C225.786 317.072 223.445 314.731 220.564 314.731C217.683 314.731 215.342 317.072 215.342 319.953V325.175Z" fill="white"/>
<path d="M235.51 323.014H205.438L199.676 357.228H241.272L235.51 323.014Z" fill="#F38C06"/>
</svg>
